<svg height="24" viewBox="0 0 133 24" width="133" xmlns="http://www.w3.org/2000/svg"><g fill="none" fill-rule="evenodd" transform="translate(0 -1)"><path d="m132.13 18.84h-6.48c-.17 0-.27 0-.24-.22 0-.86 0-.88.78-1.23.353496-.1055075.575291-.4552617.52-.82 0-2 0-4 0-6 0-1.48-.58-2-2.06-1.82-1.23.14-1.23.14-1.23 1.36v6.63c0 .29.08.45.34.52l.24.11c.8.38.79.38.71 1.29 0 .17-.09.19-.23.19h-6.28c-.17 0-.27 0-.24-.22 0-.86 0-.89.78-1.22.39815-.1032617.650446-.4947543.58-.9 0-2.45 0-4.91 0-7.37 0-.24-.06-.37-.28-.44-.15622-.0783405-.31644-.1484367-.48-.21-.225721-.03558139-.426357-.16373548-.553548-.35357305s-.1694-.42413782-.116452-.64642695c0-.29.1-.4.39-.44l4.59-.72c.47-.08.47-.08.47.41v.86c0 .09-.06.22 0 .27s.17-.06.25-.12c.720827-.61350937 1.578048-1.04554846 2.5-1.26.842199-.22611345 1.72541-.25349984 2.58-.08 1.288218.24214537 2.180611 1.42478247 2.06 2.73v5.66 2.12c-.026657.1502478.063717.2965682.21.34.358298.1850029.733304.3356749 1.12.45z" fill="#005289"/><path d="m46.15 8c.0145277.03113938.0312359.06121415.05.09 1.9 1.51 1.47 5.11-1.49 6.14-1.4112924.468005-2.9180765.5712094-4.38.3-.1751837-.0548587-.3653005-.0342776-.5246859.0567997-.1593854.0910774-.2736376.2444215-.3153141.4232003-.1474432.3467198-.0147727.749011.31.94.2035286.1153045.4367357.167515.67.15h4.81c.7386276-.0031106 1.4643116.1938608 2.1.57.9268742.6097814 1.4510779 1.673494 1.37 2.78.2238173 2.1738578-1.2607052 4.1546724-3.41 4.55-2.5386169.7182336-5.2363419.6414549-7.73-.22-.6043686-.1785226-1.1454458-.525367-1.56-1-.3670738-.3966674-.5400385-.9353046-.472529-1.4715234.0675096-.5362189.3685885-1.0151743.822529-1.3084766.5558437-.3526057 1.1733632-.5968991 1.82-.72.1108606-.0024699.2185935-.0372225.31-.1 0-.14-.14-.11-.23-.13-.7543191-.1685697-1.3639201-.7222812-1.6040267-1.4569661-.2401065-.734685-.0751572-1.5415316.4340267-2.1230339.377898-.4947238.8379103-.9209117 1.36-1.26.18-.13.21-.2 0-.34-1.4619261-.8629692-2.1884288-2.5797884-1.79-4.23.2915195-1.53754959 1.4717363-2.7531729 3-3.09 1.5159766-.47955155 3.1484511-.44085065 4.64.11.3722167.1343153.775912.15519609 1.16.06.81-.18 1.63-.31 2.44-.49.33-.07.47 0 .45.37v1.67s-.06.47-.48.33l-1.47-.52c-.0763829-.07492672-.1860049-.10516728-.29-.08zm-4.3 11.84c-.7 0-1.41 0-2.12 0-.2127122-.0257657-.4167408.0925709-.5.29-.33525.462818-.3981966 1.0693077-.1651389 1.5911095s.7267311.8796825 1.2951389.9388905c1.0997122.2751906 2.2502878.2751906 3.35 0 .4587152-.0777646.870231-.3282524 1.15-.7.3503999-.4366239.4453559-1.0253509.25-1.55-.22-.53-.76-.54-1.25-.55-.67.01-1.34.02-2.01.02zm1.59-9.17c.0099578-.4974211-.0100785-.99499016-.06-1.49-.028889-.19628985-.0723423-.39015829-.13-.58-.0349303-.30332226-.190076-.5799556-.430681-.76792829-.2406051-.18797269-.546558-.27157265-.849319-.23207171-.2984339-.039333-.5999488.04535173-.8342625.23431445-.2343138.18896272-.3809534.46569288-.4057375.76568555-.265037 1.19211323-.265037 2.4278868 0 3.62.0196396.2752216.1521236.5300979.3660962.7043057.2139727.1742078.4904165.2522639.7639038.2156943.83 0 1.18-.2 1.4-.88.1272152-.5066286.1877268-1.0277007.18-1.55z" fill="#005289" fill-rule="nonzero"/><path d="m21.93 13v3.76c-.0499742.2530764.109017.5003961.36.56.0835776.0282964.1640053.0651591.24.11.93.41.71.16.75 1.18 0 .21-.06.29-.28.29-2.0466667 0-4.0966667 0-6.15 0-.23 0-.27-.09-.3-.31-.0822975-.2557019-.0474183-.5347001.0952962-.7622719.1427145-.2275717.3786818-.3804639.6447038-.4177281.47-.11.56-.41.56-.87 0-2.05 0-4.1 0-6.15 0-1.33-.76-1.68-1.88-1.62-.36819.0418852-.7326031.11209322-1.09.21-.0989191.0069887-.1902305.05561108-.2512443.13378494-.0610137.07817387-.0860021.17856061-.0687557.27621506v7.5c-.0187921.1618322.0765628.3152293.23.37.22.09.42.22.64.3s.42.33.41.68c0 .65 0 .65-.65.65h-5.73c-.29 0-.35-.1-.38-.38-.05-.56.09-.92.68-1.06s.7-.47.7-1.05c0-4.12 0-8.24333333 0-12.37 0-.35-.1-.54-.42-.64-.11739178-.03612752-.23120598-.08299219-.34-.14-.7-.39-.7-.39-.7-1.19 0-.16016258.12983742-.29.29-.29l4.71-.77c.42-.06.46 0 .46.43v6c0 .11-.07.28.06.34s.18-.11.27-.17c.9465657-.74465579 2.0900886-1.19650376 3.29-1.3.613168-.08389211 1.2364271-.05679389 1.84.08 1.0476605.20473811 1.8341744 1.07683133 1.93 2.14.16 1.27 0 2.55.08 3.83z" fill="#b0c5d6"/><g fill="#005289" transform="translate(48 1)"><path d="m44.83 16.8c-.28.24-.47.44-.7.61-1.0761978.7148132-2.4021145.9474535-3.6573754.6417091-1.255261-.3057443-2.3256827-1.1220616-2.9526246-2.2517091-.4427976-.8361933-.7051214-1.7560298-.77-2.7-.1559272-1.3782639-.0265783-2.7738707.38-4.1.7240751-2.29630629 2.9050359-3.81599648 5.31-3.7.3847262-.01691796.7701661.0065436 1.15.07.3729814.08621242.7352105.21366341 1.08.38 0-1 0-1.86 0-2.78 0-.14-.09-.19-.19-.24-.3-.13-.58-.28-.89-.39-.2075354-.05408937-.3383184-.25898269-.3-.47 0-.81 0-.81.79-.94l4.24-.67c.44-.07.45-.06.45.39v14.76c0 .27.06.45.32.54.1 0 .19.13.29.16.62.18.76.61.68 1.19 0 .2-.06.28-.26.31-1.5333333.16-3.0633333.33-4.59.51-.28 0-.41 0-.38-.34s0-.59 0-.98zm-.16-5.22c0-1.25 0-2.51 0-3.76.0397372-.29151705-.1450884-.56660631-.43-.64-.5325614-.27486099-1.162591-.28672414-1.7051222-.03210661-.5425312.25461752-.9359954.74682076-1.0648778 1.33210661-.5839314 1.8311455-.6359483 3.7904506-.15 5.65.38 1.57 1.42 2.07 3 1.7.24-.05.31-.17.31-.41.04-1.28.04-2.56.04-3.84z" fill-rule="nonzero"/><path d="m13.46 10.57v4.77c0 .31.06.52.37.62.12.05.23.14.36.18.2486678.055902.4630021.2124572.5918968.4323363.1288947.2198792.1607981.4833767.0881032.7276637 0 .19-.07.28-.27.3l-4.78.53c-.24 0-.33-.06-.31-.31s0-.72 0-1.08c0-.08 0-.19-.06-.23s-.14.08-.2.14c-1.15803115 1.2002757-2.83829458 1.744111-4.48 1.45-1.59281555-.3150627-2.71541321-1.7480756-2.64-3.37 0-2.17 0-4.33 0-6.49 0-.29-.06-.47-.35-.55-.10446626-.03642811-.20497824-.0833337-.3-.14-.83-.36-.85-.41-.75-1.29 0-.14.06-.19.2-.21l4.92-.78c.28 0 .39 0 .39.36v8.2c-.00997876.1731897-.00997876.3468103 0 .52 0 .6572189.53278115 1.19 1.19 1.19.56757834.0714217 1.1438737.0202713 1.69-.15.1635546-.025719.27803218-.1754205.26-.34 0-2.32 0-4.6533333 0-7 .02020692-.14970017-.07404333-.29107555-.22-.33-.1403618-.05503392-.27727698-.11848242-.41-.19-.82-.38-.81-.38-.74-1.29 0-.17.08-.2.23-.22l4.85-.77c.31-.06.4 0 .39.37-.03 1.67-.02 3.31-.02 4.95z"/><path d="m64.7 16.38c-.8900364 1.333348-2.4784233 2.0219098-4.06 1.76-.9212936-.0390505-1.7832764-.4652706-2.3736038-1.1736635s-.8541208-1.6331041-.7263962-2.5463365c.0176193-1.2738783.8929806-2.3752718 2.13-2.68 1.2167559-.3423252 2.4566484-.5963193 3.71-.76.85-.14.86-.12.85-1 .0366517-.56089383.0131848-1.12409936-.07-1.68-.0631326-.76243831-.6764017-1.36293092-1.44-1.41h-.11c-1.18-.11-1.19-.1-1.56 1-.15.43-.31.86-.44 1.3-.0255347.14702474-.1618871.24818938-.31.23h-1.68c-.19 0-.23-.06-.23-.24 0-.92 0-1.84 0-2.76-.0247581-.13749191.0635621-.2699721.2-.3 2.1661336-.87165796 4.5383323-1.09741625 6.83-.65 1.1942291.13247674 2.2252646.89620675 2.7 2 .174377.49065601.255767 1.00951747.24 1.53v6.71c-.0559377.2619683.1088625.5203038.37.58.16 0 .29.16.44.2.42.11.53.37.51.79.0324323.2589576-.1358653.5006158-.39.56-.8952593.3116458-1.8535969.3975183-2.79.25-.9239923-.0835151-1.6692415-.7915019-1.8-1.71zm-.47-2.52v-.86c0-.77 0-.77-.74-.71-.6050659-.0181549-1.1814911.2577021-1.5469145.7402993-.3654234.4825973-.4746356 1.1122287-.2930855 1.6897007.076007.5181254.4167219.959104.8988926 1.1634136s1.0359866.1423696 1.4611074-.1634136c.1528053-.0823714.2428971-.2468868.23-.42-.02-.52-.01-.98-.01-1.44zm-41.97 2.52c-.9605022 1.4168856-2.6893424 2.1028704-4.36 1.73-1.7834295-.2382594-3.0366148-1.8763515-2.8-3.66.0065192-1.2863554.8827249-2.4052659 2.13-2.72 1.2381434-.3307867 2.4978738-.5747133 3.77-.73.84-.14.85-.12.84-1 .0297779-.55734264.0096981-1.11623134-.06-1.67-.0518735-.76521307-.6555872-1.37742977-1.42-1.44-.3956564-.04003685-.7943436-.04003685-1.19 0-.18 0-.21.12-.26.26-.22.66-.46 1.33-.68 2-.06.2-.15.28-.36.27-.54 0-1.07 0-1.6 0-.2 0-.29 0-.29-.26 0-.91 0-1.82 0-2.72 0-.15 0-.25.18-.31 2.2465289-.91966562 4.720871-1.12905988 7.09-.6 1.6645556.27161908 2.8300532 1.79202378 2.66 3.47v6.71c-.0434813.2472591.1150372.4850369.36.54.16.06.3.17.47.22.1730604.0359255.3244798.1397645.4203435.2882593.0958637.1484947.1281604.3292357.0896565.5017407.026922.2608173-.1445495.5008774-.4.56-.8109048.2852153-1.6755901.3843294-2.53.29-1.0298462.040247-1.9216508-.7086957-2.06-1.73zm-.47-2.53c0-.31 0-.62 0-.93s.08-.54 0-.69-.44 0-.67 0c-.5784406-.0336867-1.1389591.2070603-1.5127902.649755-.373831.4426947-.5172999 1.0356169-.3872098 1.600245.0209955.5555706.3475586 1.0539591.8485467 1.2950203s1.0942163.1852502 1.5414533-.1450203c.1528053-.0823714.2428971-.2468868.23-.42-.06-.44-.05-.9-.05-1.36z" fill-rule="nonzero"/></g><path d="m31.18 13.09h-3.32c-.28 0-.38.08-.34.36.28 1.92 1.23 3 3.22 3.14 1.1178745.0721158 2.2399475-.0427953 3.32-.34.21-.06.29 0 .32.24.122285.6523847-.2047212 1.3063972-.8 1.6-1.0356434.6436393-2.2214532 1.005587-3.44 1.05-.9649597.0647884-1.9340543-.0263807-2.87-.27-1.8784601-.4717467-3.3228401-1.9743678-3.72-3.87-.5053776-1.8153938-.3748227-3.7490176.37-5.48.7056603-1.69366167 2.2606164-2.88274577 4.08-3.12 1.037584-.19500312 2.102416-.19500312 3.14 0 1.6812428.29294122 3.0065417 1.5943608 3.33 3.27.2248472.984848.34882 1.990033.37 3 0 .26-.07.34-.33.34zm-.38-2.62c.0351406-.435396.0048034-.87360013-.09-1.3-.25-1.35-.52-1.59-1.68-1.52-.5637251.00145909-1.0578851.37718403-1.21.92-.254483.85364284-.3858076 1.7392418-.39 2.63 0 .34.09.44.42.4.84-.0866667 1.68-.1366667 2.52-.15.33 0 .48-.12.43-.46-.0100009-.1731891-.0100009-.3468109 0-.52z" fill="#b0c5d6" fill-rule="nonzero"/><path d="m1.87 12.62c0-1.36 0-2.47 0-3.59 0-.26-.07-.35-.33-.34-.41 0-.82 0-1.23 0-.22.01-.31-.05-.31-.29 0-.4 0-.87 0-1.3 0-.22.09-.31.3-.34.42 0 .83-.11 1.25-.15.24 0 .33-.11.32-.34 0-.59 0-1.17 0-1.75 0-.2 0-.28.26-.31l3-.43h.08c.79-.08.79-.08.79.63v1.79c0 .26.07.35.34.35h2.05c.22 0 .31 0 .3.29v1.53c0 .25-.07.35-.34.34-.67 0-1.34 0-2 0-.29-.03-.35.04-.35.29v6.37c0 1.24.55 1.69 1.95 1.55.88-.09.87-.14.87.72s0 .89-.83 1.14c-1.26138596.4154924-2.60996696.4913717-3.91.22-1.24279034-.2739228-2.13338363-1.3674885-2.15-2.64-.11-1.36-.02-2.65-.06-3.74z" fill="#b0c5d6"/><path d="m80.79 8.81c.1311028-.11682818.2308112-.26467166.29-.43.4485788-.99340273 1.324186-1.72920712 2.38-2 .3319734-.04258184.6680266-.04258184 1 0 .19 0 .25.1.25.28v3.09c0 .26-.12.24-.3.22-1.024431-.13266459-2.0650829-.05784648-3.06.22-.29.08-.42.2-.41.53v6.08c0 .26.07.4.33.47s.77.29 1.16.41c.18.06.22.14.22.32 0 .92 0 .92-.87.92h-5.88c-.28 0-.36-.05-.39-.35-.0789595-.2532084-.042209-.5283531.100438-.751962.1426471-.2236088.3766643-.3729109.639562-.408038.49-.12.58-.42.58-.9 0-2.44 0-4.89 0-7.34 0-.25-.06-.39-.3-.47-.1044663-.03642811-.2049782-.0833337-.3-.14-.82-.38-.82-.38-.76-1.28 0-.15 0-.22.2-.24l4.66-.76c.45-.07.45-.06.45.4v1.73c-.01.12 0 .24.01.4zm23.05 2.87v5.07c0 .25 0 .4.3.47s.18.1.27.12c.270397.0347154.511473.1875636.658209.4173206.146735.2297571.184017.5127593.101791.7726794 0 .25-.07.33-.33.33h-5.53c-.94 0-.93 0-.9-.94-.0106918-.1504597.0851389-.2879559.23-.33.29-.12.58-.27.88-.4.1419465-.0429705.2311923-.1832139.21-.33v-7.86c.0168265-.15122402-.0751594-.29338411-.22-.34-.31-.12-.6-.29-.91-.41-.1697514-.04836441-.2769276-.21555927-.25-.39 0-.85 0-.86.83-1l4.19-.66c.46-.07.47-.06.47.42zm.04-8.34c-.07762 1.14407575-1.028294 2.03243645-2.175 2.03243645s-2.0973798-.8883607-2.175-2.03243645c-.0551076-.81225312.3469726-1.58753157 1.042651-2.01040698.695678-.42287542 1.56902-.42287542 2.264698 0 .695678.42287541 1.097759 1.19815386 1.042651 2.01040698z" fill="#005289"/></g></svg>