<svg height="49" viewBox="0 0 270 49" width="270" xmlns="http://www.w3.org/2000/svg"><g fill="none" fill-rule="evenodd"><path d="m0 21c.5-1.66.88-3.37 1.51-5 3.49-9 10.07-14.29 19.67-15.74 6.4217403-.92362108 12.9443257.78534206 18.0881279 4.73921641 5.1438023 3.95387435 8.4728187 9.81751879 9.2318721 16.26078359 1.7762008 12.9536469-7.0961365 24.9623555-20 27.07-.93.15-1.95-.06-2.79.55h-2.83c-.09-.34-.37-.28-.62-.31-10-1.16-16.89-6.44-20.75-15.75-.66-1.61-.68-3.4-1.51-5zm15.21 3.5.24.36c-.21.72 0 1 .76.74l.34.31c0 .8 0 .8 1.21.3l.21.24c-.26.28-.51.82-.08.84.7 0 1.54-.72 1.83.58.85-.68 1.23.28 2 .56-.65237.2894663-1.3200261.5431756-2 .76-2.1633007.4076621-4.002242 1.8230896-4.95 3.81-.51 1.09.33.37.53.49l.24.22c-.12.22-.38.47-.33.65s.41.17.65.14c.5 0 .57-.56.88-.82l.28.28c1 1.26 1.09-.44 1.67-.56.22.94.56 1.36 1.3.34.08-.1.09-.74.38-.17.49 1 .84.43 1.24 0 .6545086-.1800596 1.3454914-.1800596 2 0l1.24 1.33-5.51 1.66 1.43 1c-.74.25-1.32.42-1.88.65s-.67.62-.2 1.07c.84.82 3.82 1.44 4.85.84 2.78-1.62 5.91-2.46 8.73-4 .26-.14.49-.34.86-.22 1.65.49 3.27-.25 4.91-.16.4458195.0179288.827867-.3158139.87-.76.06-.46-.21-.74-.54-1-1.6900477-1.577103-4.2149797-1.857651-6.21-.69-.6605777.4542592-1.5572934.3378586-2.08-.27-.972125-.8677866-1.2570279-2.2719505-.7-3.45 1.16-1.38 1.66-3.72 4.13-3.73.37 0 .78-1.31 1.12.07 0 0 .51 0 .4-.41-.36-1.37-.56-2.75-2.25-3.35-1.148262-.2605407-2.3100288-.4575069-3.48-.59 2.09.15 3.47-1.55 5.32-2 .8812904-.1999491 1.5650581-.8954386 1.75-1.78.6866164-2.5034752 1.9271956-4.8205901 3.63-6.78.2793443-.3572244.5364947-.7312613.77-1.12-.6464136.3864878-1.401281.5515053-2.15.47-.9-.07-.94.34-1.08.85-.4119001 1.0581537-1.1289029 1.9700699-2.06 2.62-.5.47 0-.66-.6-.46l-.09 1.93c-.39-.76-.31-1.49-.79-2-.34.87.43 1.69.08 2.58-.51-.72-.33-1.68-1-2.32.07.71-.41 2.11-.8 2.26-.64.25-.34-1-1.1-.64l.32 1.05-.33.31c-.27-.27-.3-.81-.95-.76 0 .44 1 1.58-.6 1.12l.12.56-.38.29c-.4959711-.2740354-1.1044526-.24303-1.57.08.683605-.0843894 1.3431056.283798 1.63.91-.39.3-1.26-.17-1.27.7 0 .7-.42.76-1 .86s-1.58-.17-1.33 1c-1-.14.07.53-.24.63-1.07.35-2.13 1-3-.5-.6-1.08-1.52-2-2.15-3.06-1.343644-2.2899293-3.402605-4.0748307-5.86-5.08-1.7416643-.9367411-3.2651113-2.2318414-4.47-3.8-.14-.15 0-.71-.49-.39-.13467775.08360824-.22845534.21952417-.25881346.37510957-.03035813.1555854.0054456.31678549.09881346.44489043.34.64.74 1.24 1.12 1.86l-.35.24c-1.14-.4-1.56-1.62-2.66-2.55.1436171.9756517.46204879 1.9173965.94 2.78.51.79-.06.85-.6 1.3-1 .82-1.67-.45-2.46 0 .56 1 .66 2.21 1.82 3-.4 0-.56 0-.7.07s-.39-.08-.4-.05c1.87 2.42 4 4 7.13 3.64-.4528374.1400892-.9264534.2009826-1.4.18-.2144569.0107794-.3929268.168497-.43.38-.0610232.2009127.0319824.4165167.22.51.74.58 2.3.4 1.89 2.05.0699338.0692219.1619521.1116919.26.12.83-.14.66.27.61.86-.04.75.56.08.77.2z" fill="#ef1325" fill-rule="nonzero"/><path d="m82.41 14.41h6.51c4 0 8-.06 12.07 0 7.76.15 12.45 7.79 8.9 14.48-1.627525 3.1477307-4.856721 5.1429125-8.4 5.19-3.79.22-7.6 0-11.39 0-.12-.55.26-.51.55-.58 1.92-.47 2.37-1 2.39-2.87 0-4 0-7.94 0-11.91 0-2.26-.83-3.43-2.36-3.75-2.53-.53-4.12.77-4.13 3.47v14.58c.1250727.5957149.0023243 1.2166776-.34 1.72l-13.79-16.12c-.49 1-.14 1.84-.15 2.66v6.58c.07 2.64.06 5.38 3.53 6.18h-7.69c-.0059853-.0732112-.0059853-.1467888 0-.22 3.2-.78 3.53-3.24 3.51-5.93 0-3 0-6.06 0-9.09 0-1.89-1.44-2.53-2.64-3.36-1.1472609-.7689906-2.6552358-.7288848-3.76.1-.6810601.4272553-1.0668318 1.1987987-1 2v13.48c-.0557931 1.1420187.7083917 2.1623313 1.82 2.43.35.12.87-.1 1.11.58h-9.4c0-.13.06-.35.15-.38 2.7-.94 2.74-1 2.75-3.87v-10.34c0-3.43 0-3.43-2.91-4.75.18-.51.61-.27.92-.27h14.7c.6118844-.0899176 1.2203918.1831306 1.56.7 3.28 4.59 7.19 8.66 11 13.36v-4.48c0-1.73 0-3.45 0-5.18 0-2.32-.88-3.95-3.73-3.9zm14.2 9.26v7.5c0 1.78.64 2.41 2.28 2.49 3.472395.3474062 6.678861-1.8907498 7.55-5.27.451044-1.6053703.620218-3.2768097.5-4.94-.26-5.78-3.29-8.63-9-8.58-1.16 0-1.36.43-1.34 1.45.06 2.45.01 4.9.01 7.35zm77.62 10.42h-7.68c0-.16 0-.33 0-.34 2.73-.59 3.43-2.59 3.44-5 0-3.39.06-6.79 0-10.18 0-1.79-1.59-2.39-2.82-3.24-.41-.28-1.05-.08-1.44-.89h6.72c.62 0 .68.56.95.91 3.37 4.43 7.13 8.53 10.79 13 0-3.66.07-7.07 0-10.48-.06-2-1.48-2.83-3.39-2.95.25-.69.73-.46 1.07-.46 5.8 0 11.6-.05 17.39 0s10 4 10.16 9.35c.169729 2.64478-.748955 5.244012-2.542935 7.1947302-1.793981 1.9507182-4.307352 3.0833936-6.957065 3.1352698-3.79.22-7.6 0-11.4 0-.12-.54.25-.55.54-.58 1.76-.16 2.41-1.25 2.41-2.87 0-4 0-7.94 0-11.91 0-2.24-.84-3.43-2.35-3.75-2.54-.53-4.13.77-4.15 3.47v14.56c.021822.5827644-.116525 1.1603607-.4 1.67l-13.65-16c0 4.06-.5 8 .05 11.92.22 1.65.72 2 3.26 3.44zm20.82-10.42v7.5c0 1.13.21 2.18 1.65 2.43 3.178247.5428223 6.330529-1.0904847 7.72-4 .787597-1.9350513 1.112885-4.027165.95-6.11-.11-5.72-3.61-8.92-9.33-8.57-.86 0-1 .37-1 1.13.03 2.51.01 5.07.01 7.62z" fill="#281e1e" fill-rule="nonzero"/><path d="m229.27 34c3.4-.82 3.46-3.51 3.48-6.19s-.15-5.34 0-8-1.07-3.46-3.16-4.63c-.34-.19-.83-.07-1.21-.77h6.77c.61 0 .68.56.95.91 3.37 4.43 7.13 8.54 10.79 13 0-3.51.08-6.77 0-10 .074846-1.955384-1.417757-3.6162927-3.37-3.75h7.64c-.06.12-.1.34-.19.36-2.6.71-3.29 1.55-3.31 4.28v13.79 1.54l-.38.24-13.77-16.2c-.45 1.45 0 2.67-.08 3.88-.06 2.09 0 4.18 0 6.27.05 2.46.56 4.62 3.51 5.29zm-19.6.17c.34-.78.84-.57 1.2-.68 1.021898-.1884909 1.762739-1.0808675 1.76-2.12 0-4.75 0-9.5 0-14.24 0-1.83-1.64-1.87-2.83-2.29 0-.64.44-.42.68-.42h14.88c.85 0 1.21.18 1.17 1.11-.07 1.58 0 3.17 0 4.87-.600243-.2460556-1.043859-.767957-1.19-1.4-1.25-3.09-3.65-4.18-6.83-4.15-2.2 0-2.2-.06-2.2 2.08v5.64c0 .79.2 1 1 1.07 3.17.08 3.88-.36 4.94-3.34.069767-.3669162.3012-.6828409.63-.86v9c-.71-.34-.65-1-.84-1.5-.787023-2.1466979-3.110428-3.3084007-5.3-2.65-.53.15-.44.49-.44.83v6.26c-.06817.5832305.123409 1.1669525.52393 1.5963569.400521.4294045.969511.6611017 1.55607.6336431 3.16.24 5.81-.45 7.31-3.57.334805-.6964908.857868-1.2853698 1.51-1.7v5.22c0 .64-.43.6-.85.6zm-62.24-19.76h7.28 8.3c.9 0 1.17.26 1.13 1.14-.06 1.55 0 3.11 0 4.93-.762859-.6496081-1.353652-1.4774052-1.72-2.41-1.753784-2.6094242-4.937938-3.8631848-8-3.15-.53.16-.44.5-.44.84v7c0 .4-.06.75.57.87 2.72.52 4.39-.4 5.32-3.05.13-.39.15-.83.71-1.15v9c-.370025-.2074146-.618917-.5788944-.67-1-1-3.08-1.77-3.17-5.19-3.22-.68 0-.75.33-.75.87v6.27c-.059753.5838326.139943 1.1644458.546177 1.5880075.406234.4235618.978005.6473208 1.563823.6119925 3.09.21 5.71-.44 7.23-3.47.33-.66.76-1.28 1.15-1.92l.41.13v5.23c0 .52-.33.57-.73.57h-16.73c0-.24 0-.4.08-.42 2.75-.92 2.81-1 2.81-4v-10.39c0-3.37 0-3.37-2.87-4.87zm-36.17 19.76c.27-.73.7-.58 1-.65 1.14684-.1446786 1.990745-1.145184 1.94-2.3 0-4.6666667 0-9.3133333 0-13.94 0-1.9-1.57-2.06-2.86-2.43 0-.65.44-.43.68-.43h14.88c.86 0 1.21.18 1.17 1.11-.07 1.58 0 3.17 0 4.87-.588694-.253787-1.020054-.7743933-1.16-1.4-1.26-3.09-3.66-4.18-6.83-4.15-2.2 0-2.2-.06-2.2 2.08v5.64c0 .79.19 1 1 1.07 3.18.08 3.88-.36 5-3.34.069767-.3669162.3012-.6828409.63-.86v9c-.71-.34-.65-1-.85-1.5-.782819-2.1452965-3.103075-3.3076177-5.29-2.65-.54.15-.45.49-.45.83v6.26c-.071363.5848436.118779 1.1713984.519688 1.6031467.400909.4317482.971792.6647583 1.560312.6368533 3.15.24 5.79-.45 7.32-3.56.264953-.7878928.79511-1.4594257 1.5-1.9v5.4c0 .65-.43.61-.85.61zm26.45-7.91c.81-.65 1.48-.47 2.06-.66 2.28-.75 3.55-3.31 3.12-6.33-.148514-2.46756-2.197994-4.38977-4.67-4.38-.65 0-.93.12-.92.85v15.34c-.077732 1.0905464.682824 2.0628486 1.76 2.25.649214.0296367 1.267901.2841821 1.75.72h-10c0-.13 0-.29 0-.3 2.83-1 2.84-1 2.84-4.14v-10.17c0-3.43 0-3.43-2.91-4.75.18-.5.62-.27.92-.27 2.81 0 5.63-.07 8.45 0 2.175019-.0330462 4.244169.9369834 5.61 2.63.991276 1.3098703 1.348908 2.9926411.97601 4.5924334-.372899 1.5997923-1.437726 2.9509996-2.90601 3.6875666-1.873018.9585701-4.006082 1.2848447-6.08.93zm127.43 7.79h-9.37c.17-.63.61-.45.93-.53 1.208454-.1462387 2.0889-1.2159805 2-2.43 0-5.06 0-10.12 0-15.19 0-.88-.33-1-1.09-1-1.616133-.0506428-3.103811.8766896-3.77 2.35-.59 1.25-1.13 2.53-1.69 3.79h-.41v-6.13c0-.57.41-.5.76-.5h16c.33 0 .81-.14.81.44 0 2 0 4.09-.15 6.15-1-1.08-1.28-2.47-1.9-3.68-.705368-1.5003731-2.222215-2.4503572-3.88-2.43-.72 0-1 .15-1 .94v15.34c-.05 1.96 1.41 2.25 2.76 2.88z" fill="#281e1e"/><path d="m16.74 33.66c-.31.26-.38.78-.88.82-.24 0-.58.14-.65-.14s.21-.43.33-.65.09-.31 0-.36-.23 0-.28.14c-.2-.12-1 .6-.53-.49.9486495-1.9742044 2.778272-3.3807499 4.93-3.79.6799739-.2168244 1.34763-.4705337 2-.76-.73-.28-1.11-1.24-2-.56-.29-1.3-1.13-.55-1.83-.58-.43 0-.18-.56.08-.84.2-.11.62-.14.39-.46s-.42.07-.6.22c-1.24.5-1.24.5-1.21-.3l.52-.36c.17-.14.62-.17.38-.49s-.43.06-.61.24l-.63.3c-.74.25-1 0-.76-.74l.62-.34.14-.32h-.38l-.62.28c-.24-.12-.81.55-.74-.2 0-.59.22-1-.61-.86-.0980479-.0083081-.1900662-.0507781-.26-.12.41-1.65-1.15-1.47-1.89-2.05-.1880176-.0934833-.2810232-.3090873-.22-.51.0370732-.211503.2155431-.3692206.43-.38.4735466.0209826.9471626-.0399108 1.4-.18-3.09.31-5.26-1.22-7.13-3.64 0 0 .25.09.4.05s.3 0 .7-.07c-1.16-.8-1.26-2-1.82-3 .79-.45 1.48.82 2.46 0 .54-.45 1.11-.51.6-1.3-.47795121-.8626035-.7963829-1.8043483-.94-2.78 1.1.93 1.52 2.15 2.66 2.55.12.17.25.37.46.16 0-.05-.07-.26-.11-.4-.38-.62-.78-1.22-1.12-1.86-.09336786-.12810494-.12917159-.28930503-.09881346-.44489043.03035812-.1555854.12413571-.29150133.25881346-.37510957.51-.32.35.24.49.39 1.2048887 1.5681586 2.7283357 2.8632589 4.47 3.8 2.457395 1.0051693 4.516356 2.7900707 5.86 5.08.63 1.08 1.55 2 2.15 3.06.84 1.5 1.9.85 3 .5.31-.1-.78-.77.24-.63-.25-1.21.77-.94 1.33-1s1-.16 1-.86c0-.87.88-.4 1.27-.7-.2868944-.626202-.946395-.9943894-1.63-.91.4655474-.32303 1.0740289-.3540354 1.57-.08.14.15.31.31.5.11 0-.05-.08-.26-.12-.4l-.12-.56c1.59.46.57-.68.6-1.12.65-.05.68.49.95.76s.13.77.43.62.09-.62-.1-.93l-.32-1.05c.76-.32.46.89 1.1.64.39-.15.87-1.55.8-2.26.65.64.47 1.6 1 2.32.35-.89-.42-1.71-.08-2.58.48.54.4 1.27.79 2l.09-1.93c.55-.2.1.93.6.46.9310971-.6499301 1.6480999-1.5618463 2.06-2.62.14-.51.18-.92 1.08-.85.748719.0815053 1.5035864-.0835122 2.15-.47-.2231061.3947848-.4702376.7755008-.74 1.14-1.6767246 1.9370418-2.9028469 4.2219326-3.59 6.69-.1849419.8845614-.8687096 1.5800509-1.75 1.78-1.85.45-3.23 2.15-5.32 2 1.1699712.1324931 2.331738.3294593 3.48.59 1.69.6 1.89 2 2.25 3.35.11.42-.4.43-.4.41-.34-1.38-.75-.07-1.12-.07-2.47 0-3 2.35-4.13 3.73-.5570279 1.1780495-.272125 2.5822134.7 3.45.5227066.6078586 1.4194223.7242592 2.08.27 1.9950203-1.167651 4.5199523-.887103 6.21.69.33.3.6.58.54 1-.042133.4441861-.4241805.7779288-.87.76-1.64-.09-3.26.65-4.91.16-.37-.12-.6.08-.86.22-2.82 1.52-6 2.36-8.73 4-1 .6-4 0-4.85-.84-.47-.45-.37-.84.2-1.07s1.14-.4 1.88-.65l-1.43-1 5.51-1.66-1.24-1.33c-.6545086-.1800596-1.3454914-.1800596-2 0-.4.47-.75 1-1.24 0-.29-.57-.3.07-.38.17-.74 1-1.08.6-1.3-.34-.58.12-.63 1.82-1.67.56.1108947-.0603584.1887532-.1674019.2120209-.2914961.0232676-.1240942-.0105244-.2520722-.0920209-.3485039zm9-2.08c-.1338487 1.0460114.174162 2.100495.85 2.91.44.75.86-.38 1.33.08.13.13.18-.77.7-.82-.1458497-.3207825-.4497684-.5411236-.8-.58-.94-.12-1.28-1.07-2.04-1.59z" fill="#fefdfd" fill-rule="nonzero"/><g fill="#ee1527" transform="translate(9 11)"><path d="m16.78 20.58c.76.52 1.1 1.47 2.08 1.59.3502316.0388764.6541503.2592175.8.58-.52 0-.57 1-.7.82-.47-.46-.89.67-1.33-.08-.675838-.809505-.9838487-1.8639886-.85-2.91zm5.7-15.41c.19.31.44.75.1.93s-.25-.43-.43-.62zm-14.74 17.49.4-.36c.08149653.0964317.11528853.2244097.09202086.3485039s-.10112618.2311377-.21202086.2914961zm1.02-7.45c.18-.15.44-.45.6-.22s-.19.35-.39.46z"/><path d="m7.21 14.6.63-.3.23.25-.52.36z"/><path d="m7.84 14.3c.18-.18.43-.47.61-.24s-.21.35-.38.49z"/><path d="m6.21 13.5.62-.28.24.3-.62.34z"/><path d="m6.83 13.22h.38l-.14.32z"/><path d="m6.3 22.47c0-.13.14-.26.28-.14s0 .24 0 .36zm14.42-16.07c0 .14.16.35.12.4-.19.2-.36 0-.5-.11zm-19.12-5.64c0 .14.16.35.11.4-.21.21-.34 0-.46-.16z"/></g></g></svg>