<svg height="27" viewBox="0 0 84 27" width="84" xmlns="http://www.w3.org/2000/svg"><g fill="none" fill-rule="evenodd"><g fill="#ea0e0e"><path d="m0 0h84v26.754h-84zm2.29278 2.27388c-.021 2.1819-.01512 4.36422-.0189 6.54612-.0021 2.49228-.00168 4.98414-.00126 7.476.00798 2.72202-.00798 5.44446.02268 8.16648.66276.02394 1.32594.01176 1.9887.01638 1.20162 0 2.40366.00084 3.60528-.00042.00672-4.1349-.01176-8.27064.01722-12.40554.21672.57624.40614 1.16298.61404 1.74258 1.02858 2.97822 2.06472 5.95392 3.09204 8.93214.2142.57372.38598 1.16298.61278 1.73166 1.63086-.00882 3.26256.01764 4.893-.01512 1.36626-3.87408 2.72118-7.75194 4.08576-11.62644.09198-.2268.14028-.47082.25662-.68754.03612.51282.00756 1.02816.01806 1.54182.00378 3.59478.00294 7.18956.00336 10.78434 1.85514.0063 3.71028.00126 5.56542.00252.00714-2.72748.00126-5.45538.00294-8.18286-.00084-4.67418.0042-9.34836-.01092-14.02212-2.29278-.00756-4.5864.00504-6.87918-.00588-.5292.0189-1.05924-.01008-1.58844.00546-.2499.79632-.5313 1.58214-.7833 2.37804-.19572.62202-.40824 1.23858-.61236 1.85808-.33138.98532-.64302 1.97652-.98028 2.95932-.22722.71148-.45906 1.42086-.6972 2.12856-.28476.82656-.53214 1.6653-.82824 2.48808-.13818-.40236-.28014-.80388-.4074-1.21002-.08736-.3339-.23268-.64848-.3192-.98238-.73878-2.19744-1.45152-4.40286-2.18988-6.59988-.3402-1.0038-.65016-2.01768-1.00254-3.01728-1.75014-.01428-3.49986-.00252-5.25-.00588-1.06974.0042-2.13948-.00882-3.2088.00378zm26.47806-.01806c-.0021 2.15754-.0021 4.31508.00084 6.4722.58758-.00042 1.17516.00126 1.76232-.00126.39144-.0021.79044-.00924 1.1676-.12432.6216-.15498 1.20582-.49308 1.61448-.99078.37464-.45276.58506-1.02564.6552-1.60524.01176-.378.01302-.75684-.00042-1.13484-.05712-.40068-.15204-.80136-.34398-1.16046-.30576-.64596-.92778-1.10628-1.60986-1.2894-.25284-.06384-.50862-.12264-.76818-.14742-.82572-.03108-1.65186-.01848-2.478-.01848zm7.20132.02016c-.63588 1.66446-1.27386 3.32892-1.91142 4.99296-.1806.48594-.38094.96474-.54684 1.4553.45948.01008.91938-.00546 1.37928-.0042.13524-.34566.24192-.70182.3759-1.0479.0483-.1197.0651-.2583.14406-.36204.16254-.03444.33096-.02016.49686-.0273.61824.0021 1.23774-.00882 1.85598.01596.16674.47628.32844.95466.50526 1.42758.4725.0021.945.00462 1.4175-.00168-.2856-.79506-.59556-1.58172-.89502-2.37174-.52038-1.35828-1.02858-2.72076-1.5519-4.07778-.42252-.01554-.84798-.04032-1.26966.00084zm3.91734-.02016c-.00252 2.15712-.0042 4.31466.00084 6.47178.43344.00042.8673.00168 1.30074-.00084.00294-2.06976.00126-4.13952-.00798-6.20928 0-.08526-.00714-.1701-.021-.25368-.4242-.01512-.8484-.0105-1.2726-.00798zm2.247.00252c-.00042 2.15628-.00042 4.31256.00042 6.46842 1.36794.00294 2.7363.00042 4.10424.00126.00672-.42168.00336-.84378.0021-1.26546-.92862-.0126-1.85766.01764-2.78544-.01974-.03948-1.72536-.0147-3.45198-.02856-5.17818-.43092-.00504-.86184-.01512-1.29276-.0063zm2.43096.00882c.18606.3381.4053.65604.60396.98658.5523.88956 1.10628 1.77786 1.65984 2.66658.06426.10542.15288.20916.1512.3402.0168.82236.00378 1.64472.01218 2.46666.4326.00168.86478.00126 1.2978.00042.00546-.83664-.00672-1.6737.00546-2.50992.07896-.22218.24612-.40236.35868-.609.68964-1.1172 1.3986-2.2218 2.08446-3.3411-.48804-.01974-.97818-.02394-1.4658.00294-.55482.9156-1.11048 1.83162-1.6149 2.77578-.4977-.9429-1.05882-1.8501-1.60146-2.76738-.49602-.0294-.99498-.03192-1.49142-.01176zm-.95088 7.92708c-.39396.03906-.79254.07392-1.16928.2037-.60774.1953-1.15626.55146-1.60566 1.00212-.4032.43848-.74046.93576-1.00422 1.46958-.0378.08022-.08316.15624-.1386.22512-.04116-.85218-.00756-1.7073-.01932-2.56032-1.46412-.0063-2.92782-.00504-4.39194-.00084-.00126 4.64814-.00084 9.2967 0 13.94484 1.60398.00084 3.20796.0021 4.81152-.00084.0021-1.6212-.00042-3.2424.0021-4.8636.00336-.60102-.01092-1.20372.04578-1.80264.0735-.6363.19992-1.28268.50904-1.85136.22344-.47208.57708-.87822 1.00002-1.18272.5187-.35448 1.14786-.52752 1.7724-.54222.54054-.03486 1.0878-.00042 1.61154.14406.06174-.21084.05712-.4326.10038-.6468.15036-1.11888.3129-2.23692.45024-3.35748-.40614-.09282-.82278-.1218-1.23606-.15918-.24654-.00126-.49224-.06048-.73794-.02142zm10.14258.0609c-.5124.0693-1.00422.25746-1.44858.51912-.67746.41496-1.19532 1.0458-1.5855 1.72956-.11844.18858-.19236.40236-.32634.5817-.04872-.84924-.01134-1.70226-.02646-2.55276-1.46874.00042-2.9379-.01008-4.40622.00504.00042 4.64646.00084 9.29292 0 13.93896 1.6086.00504 3.2172.00126 4.8258.0021.0084-1.64976-.0042-3.29952.00756-4.94886.00756-.70812-.02688-1.42254.08946-2.12394.14322-.84588.43638-1.7157 1.0668-2.32596.48384-.51954 1.18692-.80304 1.88832-.84966.59514-.04032 1.197.00462 1.77408.1596.04242-.29484.07728-.59052.126-.88452.12684-1.04706.31626-2.08614.42462-3.1353-.52584-.1365-1.07352-.14196-1.61154-.18816-.2667.01302-.5334.03738-.798.07308zm9.26016-.06678c-.68796.04326-1.3839.0693-2.05422.24276-1.28898.26628-2.52588.8295-3.53052 1.68546-.2352.2268-.46452.4599-.69384.69216-.89334 1.03362-1.4364 2.35242-1.57794 3.70818-.07938.48258-.04704.97314-.04998 1.45992.06426 1.32846.48132 2.64768 1.25202 3.73716.4998.6951 1.13652 1.29066 1.85724 1.75182.69804.43554 1.4595.76902 2.25456.9828 1.07982.28938 2.205.38514 3.3201.34062.84966-.06048 1.70142-.17682 2.51412-.44058.87486-.27678 1.7136-.68544 2.43894-1.2516.60564-.47082 1.13232-1.04496 1.54392-1.69344.4956-.80598.83244-1.71108.95928-2.64978.11676-.58926.08778-1.19196.08316-1.78878-.06804-.8337-.22596-1.66824-.56322-2.43768-.3654-.90132-.96432-1.69596-1.68504-2.34402-1.26042-1.12392-2.91522-1.7241-4.5759-1.91814-.49686-.03528-.99456-.0966-1.49268-.07686zm16.9533.03444c-.51954.0399-1.02564.1953-1.49058.42672-.83916.44982-1.47672 1.2075-1.90848 2.04456-.0714.13146-.12222.2751-.21462.39396-.03696-.30156-.01764-.60648-.0231-.90972-.00966-.54558-.00252-1.09074-.00966-1.6359-1.46496-.00714-2.92992-.0042-4.39446-.00966-.00336 4.64856-.00462 9.29754.00042 13.9461 1.60818-.00084 3.21678.00336 4.82496-.0021.00126-2.04078-.00504-4.08156.0063-6.12192.00168-.9807.21378-1.98912.77322-2.80896.46242-.70602 1.25664-1.1466 2.07942-1.27722.43596-.05082.87738-.07476 1.31418-.01722.2247.00546.4347.09912.65814.1176.13188-.9114.25368-1.82364.37716-2.73588.04284-.42294.14028-.83958.16254-1.26504-.51534-.12852-1.04916-.13692-1.57542-.18438-.19446-.00882-.38682.0315-.58002.03906zm-51.20136.30996c-.00378 4.64856-.00042 9.29754.00042 13.9461 1.6023-.00672 3.20544.01638 4.80774-.01554.0063-.13272.01218-.26502.01218-.39732.01638-4.5108.00882-9.02202.00714-13.53324-1.60902-.00294-3.21846-.00294-4.82748 0z" fill-rule="nonzero"/><path d="m30.07494 3.52422c.59052-.0021 1.2117-.04326 1.76232.2121.3339.17766.59094.48972.7014.85218.16506.57372.1827 1.20078-.01638 1.76904-.1323.39606-.43008.73584-.81396.90468-.51198.25494-1.09998.2037-1.6527.18564.03822-1.30746.0084-2.61576.01932-3.92364zm5.78424 2.5284c.2247-.71316.50904-1.40658.71652-2.12562.10122.231.15918.4767.23604.7161.16464.4662.33978.92988.49224 1.4007-.47964.04578-.9639.01218-1.4448.00882zm26.77668 7.56966c.24528-.0357.49434-.0126.74172-.01848.7413-.0273 1.4763.3003 1.9866.83202.62958.68586.89418 1.6233.97188 2.5326.02016.5187.04242 1.0437-.06216 1.55568-.12222.78414-.42294 1.58004-1.01766 2.12814-.35322.3612-.82824.58884-1.31796.6951-.3486.0861-.71106.05796-1.06638.05586-.4095-.04242-.81354-.15792-1.17222-.3633-.28518-.14952-.5103-.38472-.72492-.61992-.28644-.31668-.46788-.71274-.61068-1.1109-.16422-.52542-.27216-1.07478-.25788-1.62708.00042-.23856-.00336-.47754.00462-.7161.0735-.80514.28518-1.62414.77448-2.28186.40614-.5754 1.06344-.9408 1.75056-1.06176z"/></g><g fill="#fff" transform="translate(2.268 2.226)"><path d="m.02478.04788c1.06932-.0126 2.13906.00042 3.2088-.00378 1.75014.00336 3.49986-.0084 5.25.00588.35238.9996.66234 2.01348 1.00254 3.01728.73836 2.19702 1.4511 4.40244 2.18988 6.59988.08652.3339.23184.64848.3192.98238.12726.40614.26922.80766.4074 1.21002.2961-.82278.54348-1.66152.82824-2.48808.23814-.7077.46998-1.41708.6972-2.12856.33726-.9828.6489-1.974.98028-2.95932.20412-.6195.41664-1.23606.61236-1.85808.252-.7959.5334-1.58172.7833-2.37804.5292-.01554 1.05924.01344 1.58844-.00546 2.29278.01092 4.5864-.00168 6.87918.00588.01512 4.67376.01008 9.34794.01092 14.02212-.00168 2.72748.0042 5.45538-.00294 8.18286-1.85514-.00126-3.71028.00378-5.56542-.00252-.00042-3.59478.00042-7.18956-.00336-10.78434-.0105-.51366.01806-1.029-.01806-1.54182-.11634.21672-.16464.46074-.25662.68754-1.36458 3.8745-2.7195 7.75236-4.08576 11.62644-1.63044.03276-3.26214.0063-4.893.01512-.2268-.56868-.39858-1.15794-.61278-1.73166-1.02732-2.97822-2.06346-5.95392-3.09204-8.93214-.2079-.5796-.39732-1.16634-.61404-1.74258-.02898 4.1349-.0105 8.27064-.01722 12.40554-1.20162.00126-2.40366.00042-3.60528.00042-.66276-.00462-1.32594.00756-1.9887-.01638-.03066-2.72202-.0147-5.44446-.02268-8.16648-.00042-2.49186-.00084-4.98372.00126-7.476.00378-2.1819-.0021-4.36422.0189-6.54612z"/><path d="m26.50284.02982c.82614 0 1.65228-.0126 2.478.01848.25956.02478.51534.08358.76818.14742.68208.18312 1.3041.64344 1.60986 1.2894.19194.3591.28686.75978.34398 1.16046.01344.378.01218.75684.00042 1.13484-.07014.5796-.28056 1.15248-.6552 1.60524-.40866.4977-.99288.8358-1.61448.99078-.37716.11508-.77616.12222-1.1676.12432-.58716.00252-1.17474.00084-1.76232.00126-.00294-2.15712-.00294-4.31466-.00084-6.4722zm1.3041 1.2684c-.01092 1.30788.0189 2.61618-.01932 3.92364.55272.01806 1.14072.0693 1.6527-.18564.38388-.16884.68166-.50862.81396-.90468.19908-.56826.18144-1.19532.01638-1.76904-.11046-.36246-.3675-.67452-.7014-.85218-.55062-.25536-1.1718-.2142-1.76232-.2121zm5.89722-1.24824c.42168-.04116.84714-.01638 1.26966-.00084.52332 1.35702 1.03152 2.7195 1.5519 4.07778.29946.79002.60942 1.57668.89502 2.37174-.4725.0063-.945.00378-1.4175.00168-.17682-.47292-.33852-.9513-.50526-1.42758-.61824-.02478-1.23774-.01386-1.85598-.01596-.1659.00714-.33432-.00714-.49686.0273-.07896.10374-.09576.24234-.14406.36204-.13398.34608-.24066.70224-.3759 1.0479-.4599-.00126-.9198.01428-1.37928.0042.1659-.49056.36624-.96936.54684-1.4553.63756-1.66404 1.27554-3.3285 1.91142-4.99296zm-.11298 3.77664c.4809.00336.96516.03696 1.4448-.00882-.15246-.47082-.3276-.9345-.49224-1.4007-.07686-.2394-.13482-.4851-.23604-.7161-.20748.71904-.49182 1.41246-.71652 2.12562z" fill-rule="nonzero"/><path d="m37.6215.02982c.4242-.00252.8484-.00714 1.2726.00798.01386.08358.021.16842.021.25368.00924 2.06976.01092 4.13952.00798 6.20928-.43344.00252-.8673.00126-1.30074.00084-.00504-2.15712-.00336-4.31466-.00084-6.47178zm2.247.00252c.43092-.00882.86184.00126 1.29276.0063.01386 1.7262-.01092 3.45282.02856 5.17818.92778.03738 1.85682.00714 2.78544.01974.00126.42168.00462.84378-.0021 1.26546-1.36794-.00084-2.7363.00168-4.10424-.00126-.00084-2.15586-.00084-4.31214-.00042-6.46842zm2.43096.00882c.49644-.02016.9954-.01764 1.49142.01176.54264.91728 1.10376 1.82448 1.60146 2.76738.50442-.94416 1.06008-1.86018 1.6149-2.77578.48762-.02688.97776-.02268 1.4658-.00294-.68586 1.1193-1.39482 2.2239-2.08446 3.3411-.11256.20664-.27972.38682-.35868.609-.01218.83622 0 1.67328-.00546 2.50992-.43302.00084-.8652.00126-1.2978-.00042-.0084-.82194.00462-1.6443-.01218-2.46666.00168-.13104-.08694-.23478-.1512-.3402-.55356-.88872-1.10754-1.77702-1.65984-2.66658-.19866-.33054-.4179-.64848-.60396-.98658zm-.95088 7.92708c.2457-.03906.4914.02016.73794.02142.41328.03738.82992.06636 1.23606.15918-.13734 1.12056-.29988 2.2386-.45024 3.35748-.04326.2142-.03864.43596-.10038.6468-.52374-.14448-1.071-.17892-1.61154-.14406-.62454.0147-1.2537.18774-1.7724.54222-.42294.3045-.77658.71064-1.00002 1.18272-.30912.56868-.43554 1.21506-.50904 1.85136-.0567.59892-.04242 1.20162-.04578 1.80264-.00252 1.6212 0 3.2424-.0021 4.8636-1.60356.00294-3.20754.00168-4.81152.00084-.00084-4.64814-.00126-9.2967 0-13.94484 1.46412-.0042 2.92782-.00546 4.39194.00084.01176.85302-.02184 1.70814.01932 2.56032.05544-.06888.1008-.1449.1386-.22512.26376-.53382.60102-1.0311 1.00422-1.46958.4494-.45066.99792-.80682 1.60566-1.00212.37674-.12978.77532-.16464 1.16928-.2037zm10.14258.0609c.2646-.0357.5313-.06006.798-.07308.53802.0462 1.0857.05166 1.61154.18816-.10836 1.04916-.29778 2.08824-.42462 3.1353-.04872.294-.08358.58968-.126.88452-.57708-.15498-1.17894-.19992-1.77408-.1596-.7014.04662-1.40448.33012-1.88832.84966-.63042.61026-.92358 1.48008-1.0668 2.32596-.11634.7014-.0819 1.41582-.08946 2.12394-.01176 1.64934.00084 3.2991-.00756 4.94886-1.6086-.00084-3.2172.00294-4.8258-.0021.00084-4.64604.00042-9.2925 0-13.93896 1.46832-.01512 2.93748-.00462 4.40622-.00504.01512.8505-.02226 1.70352.02646 2.55276.13398-.17934.2079-.39312.32634-.5817.39018-.68376.90804-1.3146 1.5855-1.72956.44436-.26166.93618-.44982 1.44858-.51912z"/><path d="m60.75132 7.96236c.49812-.01974.99582.04158 1.49268.07686 1.66068.19404 3.31548.79422 4.5759 1.91814.72072.64806 1.31964 1.4427 1.68504 2.34402.33726.76944.49518 1.60398.56322 2.43768.00462.59682.0336 1.19952-.08316 1.78878-.12684.9387-.46368 1.8438-.95928 2.64978-.4116.64848-.93828 1.22262-1.54392 1.69344-.72534.56616-1.56408.97482-2.43894 1.2516-.8127.26376-1.66446.3801-2.51412.44058-1.1151.04452-2.24028-.05124-3.3201-.34062-.79506-.21378-1.55652-.54726-2.25456-.9828-.72072-.46116-1.35744-1.05672-1.85724-1.75182-.7707-1.08948-1.18776-2.4087-1.25202-3.73716.00294-.48678-.0294-.97734.04998-1.45992.14154-1.35576.6846-2.67456 1.57794-3.70818.22932-.23226.45864-.46536.69384-.69216 1.00464-.85596 2.24154-1.41918 3.53052-1.68546.67032-.17346 1.36626-.1995 2.05422-.24276zm-.38346 3.43392c-.68712.12096-1.34442.48636-1.75056 1.06176-.4893.65772-.70098 1.47672-.77448 2.28186-.00798.23856-.0042.47754-.00462.7161-.01428.5523.09366 1.10166.25788 1.62708.1428.39816.32424.79422.61068 1.1109.21462.2352.43974.4704.72492.61992.35868.20538.76272.32088 1.17222.3633.35532.0021.71778.03024 1.06638-.05586.48972-.10626.96474-.3339 1.31796-.6951.59472-.5481.89544-1.344 1.01766-2.12814.10458-.51198.08232-1.03698.06216-1.55568-.0777-.9093-.3423-1.84674-.97188-2.5326-.5103-.53172-1.2453-.85932-1.9866-.83202-.24738.00588-.49644-.01722-.74172.01848z" fill-rule="nonzero"/><path d="m77.70462 7.9968c.1932-.00756.38556-.04788.58002-.03906.52626.04746 1.06008.05586 1.57542.18438-.02226.42546-.1197.8421-.16254 1.26504-.12348.91224-.24528 1.82448-.37716 2.73588-.22344-.01848-.43344-.11214-.65814-.1176-.4368-.05754-.87822-.0336-1.31418.01722-.82278.13062-1.617.5712-2.07942 1.27722-.55944.81984-.77154 1.82826-.77322 2.80896-.01134 2.04036-.00504 4.08114-.0063 6.12192-1.60818.00546-3.21678.00126-4.82496.0021-.00504-4.64856-.00378-9.29754-.00042-13.9461 1.46454.00546 2.9295.00252 4.39446.00966.00714.54516 0 1.09032.00966 1.6359.00546.30324-.01386.60816.0231.90972.0924-.11886.14322-.2625.21462-.39396.43176-.83706 1.06932-1.59474 1.90848-2.04456.46494-.23142.97104-.38682 1.49058-.42672zm-51.20136.30996c1.60902-.00294 3.21846-.00294 4.82748 0 .00168 4.51122.00924 9.02244-.00714 13.53324 0 .1323-.00588.2646-.01218.39732-1.6023.03192-3.20544.00882-4.80774.01554-.00084-4.64856-.0042-9.29754-.00042-13.9461z"/></g></g></svg>