<svg height="7" viewBox="0 0 47 7" width="47" xmlns="http://www.w3.org/2000/svg"><path d="m0 3.47800337c.17231336-.67982014.61954037-1.25738187 1.23458537-1.59437883-.21035732-.09750414-.45385437-.09292852-.66040003.01240976-.20654566.10533829-.35322497.29975261-.397816.52728042-.06687556-.42795897.07773672-.8617958.38801255-1.16403764.29520314-.26339525.72044547-.32195321 1.07585296-.14815024.17636934.07054773.35273868.16578717.52205325.2398623.41975902.16931456.81835373.19400627 1.13934593-.2151706.05181296.42775121-.20939684.83143908-.62082008.95944921-.04938341 0-.11287637.08112989-.11287637.11993115v2.41273256c.32180964-.18082833.57108702-.46749732.70547735-.81129896-.08465728.68431303-.35273868 1.2804414-.9876683 1.59790621-.54255916.27603174-1.19874804.19208434-1.6543444-.21164321-.32070288-.26656362-.52863707-.64462578-.58201882-1.05821603 0-.0529108-.0246917-.10229422-.03880125-.15520502zm2.03530217-1.3615713c-.22928014-.0811299-.41975902-.15520502-.6137653-.21164321-.05989937-.01090049-.12159181.00452262-.16931456.04232864-.40625746.38821612-.62270824.93449666-.59260098 1.495612-.00627534.35687716.11932223.70352644.35273868.97355875.03880125.03880125.12698592.0811299.1587324.06349296.03174648-.01763693.1340407-.11287638.1340407-.17636934 0-.53969017 0-1.07938035 0-1.61907053-.00386094-.02209832-.01099408-.04349775-.02116432-.06349296l-.16931457.04938341-.02116432-.04232864zm.03527387 0v.19753366 1.6014336c.01022634.10229207-.04888408.19888716-.14462286.23633491-.24338969.12345854-.48325199.26102662-.73016906.39506732.33134351.23511268.75635617.29432497 1.13934593.15873241.10281987-.01629627.17351069-.11212159.1587324-.2151706 0-.73722384 0-1.47444767 0-2.21167151.00304396-.05404377.00304396-.10821602 0-.16225979zm.84657283 2.58204712-.29982788.2680814c-.30618658.27235643-.7156559.39814049-1.12193983.34464644s-.76923928-.2809807-.99449224-.62331c-.39328102-.59571291-.40838493-1.36463884-.03880125-1.9753366.06349296-.09876683.13051331-.19753366.19753366-.29630049-.37225378.33737786-.58950251.81291022-.60084178 1.31517321s.18422747.98711522.5408762 1.34094904c.32947318.32216311.79114482.47084704 1.24670351.40150782s.85208697-.34864719 1.07078961-.7542465zm-2.54677326-2.77252601c.35249497-.21354925.78895698-.23477537 1.16051025-.05643819.20169701.07503194.40785779.13746921.61729269.1869515.22388701.06498353.46468841.03435694.66518053-.08460172s.34277455-.31562847.3930355-.54327312c-.38448516.5326354-.86068237.54321756-1.38979039.35979345-.2116432-.07054774-.41975902-.14815025-.63140223-.20458844-.31824705-.09127418-.65715178.05103646-.81482635.34215652zm1.01941478 2.40920517h.08465728c.02025519-.06099206.03558963-.12350936.04585603-.1869515 0-.4268138 0-.8536276 0-1.27691401v-.35273868h-.06349296c-.02277655.05291182-.03820503.1086917-.04585603.16578718v1.05821603zm10.72325581 1.19931151-.9382849-.80777157-.7054773.80777157c-.3104101-.2680814-.61729272-.52558063-.91359321-.79366203-.03818744-.05055718-.05696242-.11314043-.0529108-.17636934 0-.39153993 0-.77955247 0-1.17814718-.19471765-.07211-.41202624.01882054-.49736154.20811582-.08511968-.18238405-.07764526-.39451942.02009972-.57046038s.27391116-.29435868.47373443-.31844109c0-.39153993 0-.78660725 0-1.18167457-.01444451-.08859832-.05497127-.17087992-.11640376-.23633491-.17492575-.21328653-.17492575-.52040993 0-.73369645.20203973-.27052236.4889318-.46550961.81482636-.55379973l-.063493.05996558-.0670203.06349296c-.19570107.17802973-.22467378.47538128-.0670204.68784042.2599536.26532214.3891068.6321171.3527387 1.00177785l.7830799-.81835374.7689703.83951806.8712645-.7760251c.2151706.2151706.4585603.44797813.7054774.70547736.0285627.04380712.0410305.09617185.0352738.14815025v2.25047276c.003072.06426294-.0183595.12729692-.0599655.17636934-.4479782.37743039-.8924289.77955248-1.3439344 1.19578412zm-1.4779751-3.93303626c-.1128763.20458843-.2998278.25397185-.2998278.46561505v2.14112378c-.0057193.052644.0053951.10574608.0317464.15167763.1904789.16931457.3880126.33157436.6208201.52910802.0618556-.11031451.1070262-.22918458.1340407-.35273868 0-.75133338 0-1.49913938 0-2.25047277.0056888-.05914737-.0079236-.11854698-.0388012-.16931456-.1481503-.16225979-.2786636-.3209922-.4479782-.51499847zm1.559105.03527387c-.0811299.1587324-.201061.28571833-.201061.41975902-.0211644.70547736 0 1.41095472 0 2.14112378-.0067655.05269025.0044181.10612328.0317464.15167763.1940063.1869515.4021221.35273868.6102379.54674495.0106154-.01696501.0200443-.03464416.0282191-.0529108 0-.89595624 0-1.7883851 0-2.68081395-.0062488-.0579658-.0309836-.11238251-.0705477-.15520502-.1199311-.11287638-.2469171-.2151706-.3985947-.37037561zm-1.5097215-.04938342c.137568.15167763.2574992.29630049.3915399.42328642.0876237.0725174.1349034.18283685.1269859.29630048v2.19756197c-.0027022.0750773.0210146.14872415.0670204.20811582.246917.22575275.5008889.44445073.7619155.65962133.0352739.03174648.109349 0 .1657872.02116432v-.06349296c-.2398623-.20811582-.4761972-.41975903-.7054774-.62082008-.0963746-.07018084-.1507774-.18429422-.1446228-.30335526 0-.56438189-.0282191-1.13229116 0-1.69314566.0702016-.43121441-.1171694-.86382111-.4797246-1.10759944-.0109497-.00627927-.0205419-.01467248-.0282191-.02469171-.0599656-.08818467-.1164038-.06702035-.155205.00705477zm1.6084883 0c.0839968.09790276.1735023.19094131.2680814.27866356.1176252.09430226.1799287.24144458.1657872.39153993v2.3739313.17989673h.0670204c.0366153-.06612902.0627917-.13751917.0776025-.21164321 0-.84892442 0-1.70020043 0-2.55382803-.0002531-.05230241-.0175948-.10308871-.0493835-.14462286-.1234585-.13756808-.2680813-.27513616-.4162316-.44092334zm-1.8554054 3.84485159c.109349-.06349296.1234585-.11993115.0282191-.19400627-.1516777-.11993115-.2857184-.26455401-.4444508-.35273868-.24085521-.14816106-.36996889-.42582489-.32804693-.70547735.03174648-.32451959 0-.65609395 0-.98061353-.41975902-.07054774-.6137653 0-.63492962.16931457l.48677938-.06349297v.22222537 1.02646955c.00417155.07478153.03408167.14581808.08465728.20106105.2680814.21869798.53616279.44092335.80777159.67725826zm-.82540852-5.04769048c-.15200161.08644626-.25838285.23527128-.29097721.40707073s.01188549.34924633.12166264.48535812c.06135816.10043723.0976532.21416169.10582161.33157436v.97355875c0 .08818467 0 .17989673.14815024.11287638 0-.35273868 0-.70547736 0-1.08996251.00290082-.16724869-.04641989-.33124005-.14109547-.46914245-.06173707-.09903385-.09016646-.21522355-.0811299-.33157435.031089-.14433512.07719609-.28502086.13756809-.41975903zm27.33724752 4.79019125-.7054773.39153993c.0157912-.42056642.2628396-.79792607.6419844-.98061352.045856-.02469171.1058216-.07760251.109349-.11640377 0-.41270425 0-.82540851 0-1.24164015-.2208545-.06090397-.4527729.05053733-.5432176.26102663-.1622598-.43739596.0282191-.75486077.5467449-.90301102-.0529108-.3209922.1587325-.70547736-.2857183-.93828488l-.1410955.09171205-.028219-.02821909.6666761-.70547736c.2045884.1869515.4091768.35273868.5961283.55379973.0388013.04232864.0317465.13404069.0317465.20458843v.39153993c.1099122-.02780521.1803513-.13499517.1622598-.24691707 0-.10229422 0-.20458843 0-.30688265v-.30335526h.063493v.62082007h.0493834l.857155-.91712056c.246917.22575275.4903067.44445073.7266416.67020348.0317465.0282191.0317465.09876683.0317465.14815025v2.68434134c.0012019.06352795-.0214528.12519883-.0634929.17284195-.3527387.28219094-.7336965.5608545-1.09349.82893589l-.4515055-.32099219-.045856.03174648v1.31218788l-.2892457-.24338969-.7795525.70547736v-1.76369339zm1.5379407-3.52738678c-.071161.0848266-.1477485.16494885-.2292802.2398623-.1370966.11835294-.208133.29594397-.1904789.47619721v1.90831625.20811582l.0458561-.03880125.7689703.35273868v-2.70550567c-.0047468-.0462334-.0245801-.08961884-.0564382-.12345853-.1022942-.10582161-.2151706-.20106105-.3386291-.31746481zm-.4938342.57849143-.0599656-.02116432c-.0407105.07747898-.0692634.16075808-.0846572.24691707v3.67200964c.015362.08221641.0452217.16104603.0881846.23280753l.0564382-.02116432zm-.9241753.88890147v3.6825918h.0705477c.0379068-.07525908.0629447-.15633408.0740751-.2398623 0-1.13581855 0-2.2692855 0-3.40040086 0-.0529108 0-.1058216 0-.15167763-.4444507-.04232864-.7054773-.0282191-.7054773.25044446zm1.8836245 1.97886398.0670204.02469171c.0372418-.06243958.0646082-.13026067.0811299-.20106105 0-.96650398 0-1.92948057 0-2.89598454-.00196-.06357427-.0256095-.12456497-.0670204-.17284196-.1199311-.12698592-.2504444-.2398623-.3880125-.35273867l-.109349.12345853c.0835516.08491993.1718797.16500414.264554.2398623.1170681.07643135.1779464.21479118.155205.35273868v1.02294217zm-2.1834524-3.47800336c.0379812.03309591.07804.0637291.1199312.09171205.1429637.08240258.215824.2481239.1798967.40917687-.0105852.12558748-.0105852.2518429 0 .37743038.013569.04963301.0362998.09629093.0670203.13756809.0347042-.04939865.0609311-.10423678.0776025-.16225979 0-.12345854 0-.25397185 0-.37743039.0308818-.21729187-.0703125-.4321563-.2574992-.54674495-.0881847-.07407512-.1340407-.05643819-.1869515.07054774zm1.823659 3.79546817.1199311-.10229421c-.1553919-.21838767-.4057215-.34945032-.6737309-.35273868.0458561.08112989.063493.15167763.1058216.18342411.1340407.09171206.2786636.16931457.4479782.27160878zm-2.1728703-.06349296c.1869515-.07760251.3527387-.13756808.5114711-.21517059.0388013-.02116432.0529108-.10229422.0987668-.19400628-.253251.04112529-.4760346.19050619-.6102379.40917687zm-16.9208744-4.36690483v1.76369339l.5855462-.62787485.5996558.53616279.1269859-.08465728c-.1657872.20106104-.091712.43386857-.091712.64903916v1.76369339c-.0020059.68374079-.5313674 1.25003443-1.2134211 1.29807834.364657-.21984162.5620312-.63682938.5008889-1.05821603 0-.59965576-.0282191-1.2028389 0-1.79896726.0259604-.29987379-.1411966-.58319086-.4162316-.70547736-.0489958.10137518-.0822984.20960862-.0987668.3209922v1.44270119c0 .18342411 0 .35273868.2222253.46208767l-.5608545.59612837-.6172927-.56438189c0-.02469171 0-.03880125 0-.04585603.1805956-.15823446.2683112-.39745879.2328076-.63492962 0-.81129896 0-1.62259792 0-2.43036949-.0056312-.11438284.0395547-.22541104.1234585-.30335526.1940063-.19400628.3774304-.39859471.5643819-.59612837zm-.8994836 3.95772796.5502723.49030677.0952395-.11287638-.3527387-.32451959c.0433625-.14383247.0728914-.29147701.0881847-.44092334 0-.91712057 0-1.83424113 0-2.75136169 0-.05996558 0-.12345854 0-.18342411h-.063493c-.0360167.08338928-.0609216.17114912-.0740751.26102662v2.51855416c.0035274.21164321.0035274.41270425-.2433897.54321756zm1.4391738.88537409c.1323086-.1225599.1989939-.30038754.1798967-.47972461 0-.67020349 0-1.34393436 0-2.01766524.0421-.27479639-.089819-.54705479-.3315743-.68431303l-.1516777-.03527387c.0111681.04921028.0289677.09667586.0529108.14109547.0270401.03952488.0618452.07312983.1022943.09876683.1369781.08834234.2110626.24748677.1904788.40917687v1.87304238c-.0105821.23280753-.0317464.46914244-.0423286.70194997zm-15.7709463-3.12526469c-.04579457.09862693-.07783991.20307099-.09523944.31041003v1.43917381c0 .19047889 0 .37743039.2151706.48325199l-.56438189.60671053-.60671053-.55732712c0-.0246917 0-.04232864 0-.04585602.18632315-.16327079.27335249-.4123086.22928014-.65609394 0-.80424419 0-1.60848838 0-2.41273256.00729483-.10904333.04932521-.21288309.11993116-.29630049.17636933-.21164321.37390299-.40564948.59965575-.64551178v1.76369339h.03880125l.55379973-.57143666.59612836.53616279.14109547-.08465728c-.16578717.20458843-.08818466.44445073-.09171205.6666761v1.65787179c.05144946.59815705-.32887232 1.14866173-.9065384 1.31218788-.09251986.03341137-.18828008.05705586-.28571833.07054773.4268138-.26102662.48325199-.6666761.47266983-1.11465422 0-.59260098 0-1.18520196 0-1.78133032-.00352739-.38095778-.0282191-.4268138-.41623165-.68078565zm-.70547735 2.2928014c.04314408-.1320633.07384834-.26787061.09171206-.40564947 0-.92417534 0-1.84835068 0-2.77252601v-.19400628h-.07054774c-.03812499.08509366-.06310164.17548535-.07407512.2680814v2.43036949c0 .23633491.05996557.49030676-.22928014.64198439l.54674495.49030677c.02644812-.03034053.05117845-.06213667.07407512-.09523945-.11993115-.14462285-.24338969-.27160878-.33157436-.36332084zm1.13581854.84657283c.13329135-.12547639.20321216-.30416292.19047889-.48677937 0-.76897032 0-1.53676484 0-2.30338357-.00670923-.0689435-.03654578-.13358935-.08465728-.18342411-.08465729-.09171206-.1869515-.16578718-.28219095-.25044447-.09523944-.08465728-.12698592-.03174648-.1587324.05643819.05836286.05603883.11958607.10902045.18342411.15873241.14357526.09996825.22077246.2706147.20106105.44445073v1.94359012c-.00352739.20106105-.02469171.40212209-.04232864.62082007zm22.03205781.93828489c-.3950673-.53263541-.8501002-.37037562-1.3192426-.1869515l.8994836-1.05821604-.6525666-.52205324-.1481502.10934899c.1869515-.21869798.0987668-.4797246.1058216-.70547736 0-.40564948 0-.81482634 0-1.22400321-.0107387-.10677939.041589-.21005776.1340407-.26455401.3774304-.26455401.7513334-.53616279 1.1393459-.81482635l.7054774.55732712.1375681-.10934899c-.1869515.27160878-.0846573.56790927-.0917121.85010021v1.6014336c.0059801.13628562.040848.26974547.1022942.39153993.1199312.23280753.1340407.39153993-.0564382.56790927-.2998278.28219095-.6243474.53263541-.9559218.80777158zm-.3915399-4.23286414v2.04235695c.0020607.04621237.0208678.09009569.0529108.12345853.1199311.10582161.2504445.19753366.4091769.32451959.0522926-.0925375.0903451-.19242533.1128763-.29630049 0-.53263541 0-1.05821604 0-1.6014336.0025804-.05718254-.0177301-.11303645-.0564382-.15520502-.1516776-.15873241-.3209921-.2680814-.5185258-.4268138zm-.4973615 3.65084532c.4262403-.25948644.9721035-.20934152 1.3439343.12345853.3068827-.264554.3033553-.48325198 0-.70547735-.168897-.09869533-.2672957-.2845594-.2539718-.4797246 0-.04938342 0-.09876683 0-.1869515zm.6137653-3.72492044v.07054773c.1452665.10965907.2842311.22742573.4162316.35273868.0665612.06137299.1069753.14598992.1128764.23633491v2.03530218c-.010915.1469519.0560254.28886568.1763693.373903.1929372.08669467.3132455.2825455.3033553.49383415.0601518-.07407775.0846517-.17087519.0669841-.26464943s-.0757119-.17501987-.1586962-.22212995c-.1733025-.13229529-.2676161-.3435047-.2504444-.5608545 0-.50088892-.0317465-1.00177784 0-1.49561199.0766243-.39632849-.1212454-.79495651-.483252-.97355876zm-.6208201.53969017h-.0740751c-.0339119.06325387-.0588434.13092504-.0740752.20106105v1.05821603c-.0360192.22318485-.0252079.45142266.0317465.67020349.0952395.19047889.3527387.30688265.5185259.4550329.0881846.08818467.1516776.07407512.1904789-.0529108-.1516777-.11640377-.2963005-.2398623-.4550329-.35273868-.1080317-.06417327-.1686854-.18548077-.1552051-.31041004.0211644-.54321756.017637-1.10407206.017637-1.66845395zm1.0229421 3.54855111c-.1175325-.16425094-.2973053-.27308946-.4973256-.30109231-.2000203-.02800284-.4027703.02728249-.5608904.15294206.3333943-.14882413.7254751-.04269699.9382849.25397185zm5.3404636-3.85190637-.1340407.11640376-.0388012-.03527386.6067105-.67020349.6772583.6137653.5784914-.6137653.5890736.52910802.1622598-.10934899c-.1975337.20811582-.1128764.45856028-.1164038.68431303v1.11818161s0 .35273868.3068827.60318314l.155205-.12698592.0352739.03527386-.6349297.68784043c-.1869515-.16931457-.3527386-.33157436-.5432175-.50088893-.0316248-.04915147-.0453291-.10770638-.0388013-.16578718 0-.51147108 0-1.02294216 0-1.53088586.0289737-.20412505-.0632609-.40649055-.2363349-.51852586-.043714-.03217117-.0849802-.06754218-.1234585-.1058216-.1388447.07932442-.2187581.23226207-.2045885.39153993v1.28044141c-.0387549.21407187.0407693.43242645.2081159.57143665l-.546745.57849144-.6067105-.55732712c0-.02116432 0-.03880125 0-.04585602.1821555-.15064341.2674051-.388801.2222253-.62082008-.0229255-.3358868-.0229255-.67294581 0-1.00883262.0325704-.2470763-.0948162-.48769537-.3174648-.59965575zm.4515055 2.28927402c.0360879-.11531453.0632119-.23324507.0811299-.35273868 0-.46208766-.0211643-.92770272 0-1.386263.0279053-.25854938-.0939184-.51040965-.3139374-.64903917-.0846573-.05996557-.0811299-.06349296-.1587324.0529108.040074.04355657.0837315.08367431.1305133.11993115.1411956.09447408.2142616.26266385.1869515.43034119v.97355875s.0987669.58201882-.2116432.77955248l.529108.48325199.1058216-.11993115zm.8183538-2.35276698c.0694912.06952233.1424855.13545265.218698.19753366.1322115.09305966.2004917.25283521.1763693.41270425v1.58379667c-.0022586.0690375.0202636.13660406.063493.19047888.1340407.14462286.2857183.27160878.4338685.41270426l.1305133-.09876683c-.1234585-.11287638-.2186979-.2151706-.3280469-.29630049-.1131078-.079975-.1738892-.21504463-.1587324-.35273868 0-.54674495 0-1.08996252 0-1.63670747.0016486-.06894735-.0208057-.13631019-.063493-.19047888-.1058216-.11287638-.2257527-.21164321-.3527387-.35273868zm-9.548636 2.29632879-.638457.55027234-.5537998-.5079437c0-.0246917 0-.04232864 0-.04938341.1831891-.15747783.2668566-.40173302.218698-.63845701-.0176435-.31839637-.0176435-.63752544 0-.95592182.0474431-.25882262-.0879907-.51658378-.328047-.62434746l-.1340407.10582161-.0388012-.03880126.6278748-.66314871.6737309.62082007.592601-.62082007.5784914.52910802.1587324-.11640377.0423287.02469171c-.2363349.1869515-.1481503.43739596-.1552051.66314871v1.17109242c-.0197954.2326907.1066666.45329649.3174649.55379972l.1410954-.13051331.0458561.03880125-.6490392.68784043c-.1798967-.16578718-.3527387-.31746481-.5185259-.47972461-.0411737-.05611698-.0622928-.1244435-.0599655-.19400627 0-.50088892 0-.99825046 0-1.49561199 0-.37743039-.0246917-.42328642-.3527387-.64551179-.1383231.08742669-.2138646.2467504-.1940063.40917687v1.2275306c-.0176369.22575276-.0599656.44797812.2257528.57849143zm.9982504.38095778c-.0945879-.09627713-.1946999-.18696677-.2998279-.27160879-.1217213-.08818867-.1864396-.23515312-.1693145-.38448516 0-.53616279 0-1.05821603 0-1.60143359.0017906-.06948983-.0192761-.13764667-.0599656-.19400628-.1103405-.12460235-.2281363-.24239815-.3527387-.35273868l-.109349.11993116c.0705478.06349296.126986.12345853.1940063.17284195.1337523.09274955.2066746.2507479.1904789.41270425v1.31218788c-.0484163.27294947.0675065.54895622.2963005.70547736.0772099.06090908.1502714.1269001.218698.19753366zm-1.8483507-.35273868c.0469708-.08639804.0814138-.17903787.1022943-.27513617 0-.57143666 0-1.13934593 0-1.71078259.0034687-.05169986-.0115319-.10295192-.0423287-.14462286-.1058216-.10934899-.2257527-.20811582-.3527387-.31041003l-.0599655.0246917c0 .04938342 0 .12345854.0423286.14462286.2040534.1336939.3060573.37822371.2574992.61729269-.0211643.30335526 0 .61023791 0 .91712056s.0740752.5326354-.2151705.70547736l.5185258.47619721c.109349-.05643819.1340407-.10934899.0352739-.19047888-.0987669-.0811299-.2010611-.16578718-.2857184-.24338969zm-9.3123011-.00352739c0-.14109547.0458561-.29630049.0493835-.45503289 0-.44445074 0-.88890147 0-1.32982482-.0123356-.0959857.0333668-.19016035.1164037-.2398623.373903-.2680814.7513334-.54674495 1.1428733-.82188112l.7054774.55732711.1516776-.1058216c-.1869515.20458843-.1022942.44445073-.109349.6666761v1.11818161c-.0244603.18572409.0590415.36915439.2151706.47266983.051735.03813411.1001184.08061713.1446229.12698592l.1340407-.09171206.0317465.03527387-.5996558.64903917-.6419844-.57496405-.5608545.5890736-.5679092-.51147109c-.0740752-.06702035-.1375681-.17989672-.2116433-.08465728zm.7724978-2.40920517v1.95064489c.0029305.03458527.0179113.0670437.0423286.09171206l.4479781.39153993c.0408449-.07866764.0693953-.1631291.0846573-.25044446 0-.53969018 0-1.05821604 0-1.61554315.0007857-.05689356-.0192912-.11210515-.0564382-.15520502-.1622598-.14462286-.3245196-.25397185-.5255806-.41270425zm1.2063662 2.87482023c.109349-.10229422.109349-.10582161.0317465-.17989673s-.2081158-.19753366-.3209922-.28571833c-.088216-.0639717-.1353428-.17034364-.1234585-.27866355 0-.4021221-.0282191-.80777158 0-1.20636628.0775497-.37681489-.1076279-.75874366-.4515055-.93123011-.0211644 0-.0352739-.03880126-.0564382-.04232865-.0211643-.00352738-.1234586 0-.1834241 0v.05996558c.1340407.1058216.264554.22222537.4091768.31746481.0943884.06564258.143557.17900352.126986.2927731v1.6014336c-.0044983.06928381.0154765.13794716.0564381.19400627.1622598.15873241.3386292.3209922.5044164.45856029zm-1.7178373-2.42684211-.0705478-.02116432c-.0369221.06185845-.0620394.13003392-.0740751.20106105v1.56615973c.0032304.06776074.0293441.13242327.0740751.18342411.1552051.15167763.3245196.28571833.4797246.43386857.0846573.08465729.1375681.06702035.1869515-.04585602-.155205-.13756809-.3068826-.27866356-.4691424-.40917687-.0914685-.06824565-.1408961-.17912387-.1305133-.2927731.0070548-.53616279.0035274-1.08996252.0035274-1.61554315zm15.6933438 1.96475444c.0262803-.12563483.0439582-.25291631.0529108-.38095777 0-.48677938 0-.97355876 0-1.46033813-.0083952-.09520936.0381322-.18689567.1199311-.23633492.3245196-.22575275.6455118-.45856028.9629766-.70547735.0294069-.03222199.0710165-.05058068.1146401-.05058068s.0852332.01835869.11464.05058068c.218698.17989672.4444508.35273868.6702035.52558063l.1481503-.10582161c-.1798968.2151706-.0917121.46208767-.0987669.70547736v1.24164015c-.007704.08960417-.0493428.17288182-.1164037.23280752-.2892457.22928015-.5961284.44445074-.8889015.67020349-.0314477.03508811-.0763402.05513738-.1234585.05513738s-.0920108-.02004927-.1234586-.05513738c-.1869515-.15520502-.3880125-.29630049-.5855462-.44797812-.1410954-.09523944-.1410954-.09523944-.246917-.03880125zm.7795524-2.39156824v1.95417228c-.0019965.03571544.009314.0709036.0317465.09876683l.546745.41623164v-1.94711751c.0035145-.03422499-.0066273-.06845336-.0282191-.09523944zm.0493834-.04585603c.1693146.1340407.3527387.25044446.4903068.38448516.0558765.05494045.0918678.12692294.1022942.20458843v.99119569.94886704l.0670204.02116432c.0376398-.06601571.0649973-.13738304.0811299-.2116432 0-.44445074-.0352739-.89242886 0-1.32982482.0918222-.41889952-.1212582-.84506025-.5114711-1.02294217l-.0282191-.02116432c-.0529108-.07760251-.1305133-.07407512-.2010611.03527387zm-.5573271.41975903-.0564382-.02116432c-.0407643.05758424-.070651.12213966-.0881846.19047888v1.6014336c.005977.0670889.0360508.12974261.0846573.17636934.2081158.16931457.4303411.32804697.638457.49736154.0881846.07054773.1410954.04585603.2081158-.04232864-.1281338-.11286589-.2649482-.21547666-.4091769-.30688265-.2863106-.14223646-.4411859-.45922437-.3774304-.77249771.0282191-.43739596 0-.88184669 0-1.32277004zm12.0636628-.21517059.1375681-.11287638c-.1834241.27160878-.0776025.57496404-.091712.85715499-.0194007.30069106-.0194007.60231995 0 .90301101.0313594.21528123-.0778611.42662997-.2716088.52558063-.2963005.19047889-.5714367.41623164-.8712646.63845701-.2433896-.18342411-.4797246-.37037561-.730169-.54674495-.0648691-.03262104-.1356537-.05181686-.2081158-.05643819.0686149-.58527847.0851409-1.17549249.0493834-1.76369339-.0192405-.14174937.0490332-.28108343.1728419-.35273868.2892457-.19400627.5714367-.3985947.8465729-.61023791.0411964-.05618621.1066984-.08938185.1763693-.08938185s.1351729.03319564.1763693.08938185c.1904789.19753366.3985947.34921129.6137653.51852586zm-.6772582 2.31396572c0-.68078565 0-1.31218788 0-1.9471175-.0024307-.03955324-.018658-.0770009-.0458561-.1058216-.1657871-.1340407-.3527386-.26455401-.511471-.4021221-.0025999.02462328-.0025999.04945185 0 .07407513v1.84835067c.0015546.05117287.0216058.10004761.0564381.13756808.1375681.12698593.3033553.24338969.500889.39506732zm.0670203 0 .0670204.01763694c.0386801-.06643424.0649742-.13934061.0776025-.2151706 0-.43739596-.0317465-.8783193 0-1.31218788.0962621-.43350209-.1245491-.87512446-.529108-1.05821603-.0846573-.08465729-.1516777-.07054774-.2116433.03880125.1657872.12698593.3527387.25044446.4938342.38801255.0578819.05305048.0932286.12626863.0987668.20458843v1.41095471zm-1.1534555-2.11643207h-.0705477c-.0394217.05876708-.0669813.12467045-.0811299.19400628v1.6014336c.0029158.06159777.0294436.11970616.0740751.16225979.2151706.17636934.4338686.35273868.656094.50441631.0423286.02821909.1164037 0 .1763693 0v-.06349296c-.2151706-.1622598-.4232864-.32804697-.6455118-.48325199-.091016-.05720617-.1416232-.16115602-.1305133-.2680814.0246917-.52910802.0211643-1.07585297.0211643-1.61907053zm3.3757092.40564948h.7054773v1.37920824c-.0119295.05022856-.0421022.0942303-.0846572.12345853-.3209922.23280753-.6455118.45856028-.966504.68784043-.5008889-.35273868-.7054774-.35273868-1.1993115-.05996558l.8889014-1.30160572h-.5643818c0-.41975903 0-.81835373 0-1.21694844 0-.03174648.0423286-.07407512.0740751-.09523944.3245196-.22575276.6490392-.45150551.9770861-.67373088.0385512-.02069472.0849074-.02069472.1234586 0 .250334.15432378.5628211.16767793.8254085.03527387-.2539719.35626606-.5044163.7195869-.7795525 1.12170899zm-.0317465.61729269c-.3139374-.07407512-.3527387-.05643819-.5185259.17636934l-.2857183.41270425-.3527387.49383415c.3417809-.26692227.8272166-.24444839 1.1428734.0529108zm-.4620877-.37037561c.109349-.03174648.2398623-.02821909.2857184-.08818467.2045884-.26455401.3880125-.55027234.5926009-.8536276-.272932.17229641-.624813.15392511-.8783193-.04585603zm.5361628 1.53794064.0599656.02116432c.0389964-.05813367.0676381-.12257753.0846573-.19047889 0-.19047889 0-.38095777 0-.57496404v-.64903917c-.3527387-.06702035-.4515055-.04232864-.5079437.13051331h.3527387zm-1.058216-2.23636322-.0705477-.02116432c-.0344447.06301301-.0594051.13076268-.0740752.20106104v.59260098c0 .45150551 0 .4550329.4479782.42328642.0698801-.01804491.1357093-.0491642.1940062-.09171206l-.0211643-.05996558c-.0881054-.00528737-.1764486-.00528737-.264554 0-.1587324 0-.2222254-.03174648-.2116432-.20458843.0105822-.27866356 0-.55027234 0-.83951805zm.8042442 2.46917074c-.1104986-.1474799-.2760654-.24386332-.4588738-.26712985-.1828085-.02326653-.3672398.02857168-.5111576.14367132.2935426-.07994091.6073151.006617.8183537.22575275zm.6455118-2.86071068c-.2892458.06702035-.5396902.08465729-.7054774-.14462285l-.0952394.05996557c-.0217054.01690091-.0417815.03579602-.0599656.05643819.1037181.12891222.2584985.20618239.4238659.21160428.1653675.00542188.324877-.06154371.4368165-.18338519z"/><path d="m18.5152532 2.14817855-.8077716 1.18167457h.7054774v.65962133c.039626.25863997.0264266.52262781-.0388013.77602509-.1058216.20458843-.3950673.31746481-.6031831.46914244l-.4232864.29630049c-.3073493-.32610663-.8114287-.36722489-1.167565-.09523944l.8642097-1.26633185h-.5714366c0-.33157436 0-.6419844 0-.94886705-.0335083-.20260662.0696753-.40324144.2539718-.49383415.2680814-.15520502.5149985-.35273868.7724977-.52558063.0423287-.02821909.1269859-.05643819.155205-.03174648.2661276.16268473.6028725.15440412.8606824-.02116432zm-1.9823914 2.881875c.3403896-.258417.8176697-.2330615 1.1287638.05996557v-1.20989366c-.1587324.04585603-.3527387.04232864-.4162316.13051331-.2574993.32804697-.4797246.67725826-.7125322 1.01941478zm1.5308859-2.35276698c-.2789503.14875336-.6210453.10792721-.857155-.10229422v1.00177785c.1058216-.02116432.2328075 0 .2751362-.06702035.2081158-.2680814.3915399-.55379973.5820188-.83246328zm-.3245196 2.44447904.0740751.02116432c.0358007-.05859355.0608838-.12309287.0740752-.19047889 0-.20106105 0-.40564948 0-.61023791v-.65256656c-.1869515.0529108-.3880126-.08465728-.5326354.15167763l.3809577.02116433zm-1.058216-1.19578412v-1.10407207c-.0740751.0811299-.1410955.12345854-.1410955.1622598v1.11818161c.2222254-.06349297.4550329.09171205.6137653-.10934899v-.06349297zm.6525665 1.51677631.0811299-.0529108c.0224892-.0159652.042668-.03495701.0599656-.05643819-.1031323-.14441591-.2617183-.23939211-.4377142-.26214444-.1759959-.02275232-.3535211.02877225-.4899885.14221329.2865471-.07251224.5899281.01513115.793662.22928014zm-.0987668-2.97358705c.1012306.13637593.2584941.21991265.4281685.22743853.1696743.00752588.3337163-.06175939.4466234-.18863728-.24363.10311504-.5257562.0424579-.7054773-.15167763zm27.5947468.14109547h-.4127043c.1305134-.15167763.1446229-.373903.3880126-.37037561 0 0 0-.02116432 0-.03174649-.0421096-.30802403.0947259-.61316723.3527387-.78660725.1234585-.11287637.2292801-.2398623.3774304-.39153993v1.21342105h.5220532c-.0846573.28571833-.1657872.35273868-.5220532.37743039v.20106104 1.58379667c-.0308763.17425599.054777.34841753.2116432.43034119.0559671.03445146.1090515.07338002.1587324.11640376l.155205-.12698592.0388012.03527386-.6278748.68784043-.6137653-.47619722-.1481503.11287638c.1763694-.19753366.1058217-.4268138.1058217-.63845701 0-.57143666 0-1.13934593 0-1.71078259zm.0670203 0v1.80954942c0 .58201882 0 .58201882.4691425.93123011 0 0 0 .02116432.0282191.02116432h.1622598v-.05996558c-.0926917-.0835717-.1904699-.16132301-.2927731-.23280753-.1686193-.0950448-.2601325-.28511053-.2292802-.47619721 0-.61729269 0-1.23811276 0-1.85540545.0105822-.07054773.0282191-.16931456-.1375681-.12345854zm.1481503-.91006579c-.1302841.13287255-.1823544.32379729-.1375681.50441631 0 0 .0599656.03527387.0705477.02821909.0105822-.00705477.063493-.05643819.063493-.08465728.0070548-.12698592.0035274-.27160878.0035274-.43386857zm-16.0284455-.6137653v1.15698286h.5185258c-.0740751.27513617-.1587324.35273868-.5185258.38448516v.22222537 1.5485228c-.0257251.17437574.0621338.34584243.2186979.4268138.0564382.03174648.1058216.07760251.1622598.11640376l.1446229-.13051331.0423286.03880125-.6349296.68784043-.6102379-.47619722-.1481502.11287638c.1869515-.23280753.0952394-.49736154.0987668-.74075123 0-.59965575 0-1.1993115 0-1.81660419h-.3527387c.0599656-.23633491.1693146-.35273868.3527387-.37743038 0 0 0-.02116432 0-.03174649-.0395631-.3076526.0966971-.61151276.3527387-.78660725.1199311-.10934899.2257527-.23280752.3527386-.35273868zm0 4.29282971v-.05643819c-.1305134-.1058216-.2574993-.21517059-.3950674-.31041003-.0915783-.05810953-.1411206-.16407501-.1269859-.27160879 0-.4797246 0-.9594492 0-1.43564642v-.67725826c-.1516776-.04938341-.1481502.03880126-.1481502.12698593 0 .55732711.0352738 1.11818161 0 1.67198133-.0704346.38337988.1266768.76600784.4797246.93123011 0 0 0 .02116432.0282191.02116432zm-.5149985-3.67553702c-.1271697.13173483-.1766143.32015851-.1305133.49736153 0 .0282191.0740751.03527387.1305133.05996558zm-21.35479958 3.23461367.35273868-.38095777.04938341.04585603-.84657283.94181227-.88184669-.70547736-.17284195.1340407c.25397184-.49030676.11993115-.99119568.11993115-1.4673929-.03314799-.29726925.11573971-.58530433.37743038-.73016906.29630049-.19047889.57849143-.4268138.91006579-.65962133l.6666761 1.07585297-.70547735.52558063-.373903.27866355c-.08344785.06694866-.13200204.16815176-.13200204.27513617 0 .10698442.04855419.20818751.13200204.27513617l.49383415.38801255zm-.62787485-2.28927402h-.02821909v1.33687959l.59260098-.43386857zm-.52205324.37037561-.06349296-.02821909c-.03724186.06243958-.06460826.13026067-.0811299.20106105v1.45681074c.00318519.06810005.03219603.13242843.0811299.17989672.21517059.19047889.44445073.35273868.66314871.55027234.09523944.07760251.14462286.04585603.19047889-.05643819-.2151706-.16931456-.41975903-.35273868-.63845701-.50441631-.10257781-.06910396-.16146853-.18688541-.15520502-.31041003.00352739-.49736154.00352739-.98061353.00352739-1.48855723zm.65962133-.55027233c-.03880126.07407512-.09171206.13404069-.07760251.1587324.17989672.30335526.37037561.60671053.55732711.9065384h.06702035c0-.04938341.03174648-.11287637 0-.14815024-.14815025-.3209922-.34215652-.60671053-.54674495-.91712056zm14.86088054-.35273868.5326354.47266983.1446228-.11993115c-.2257527.29630049-.091712.63140223-.1128764.94533965-.0211643.31393743 0 .59965576 0 .89595625-.0368588.26566926.107184.52350589.3527387.63140223l.1516777-.11993115.0388012.03880125-.6314022.67725827-.5749641-.52205325-.1446228.11640377c.2151706-.32451959.0811299-.68431304.1022942-1.02294217.0227909-.35237054.0227909-.70584549 0-1.05821603 0-.11993116-.1516776-.22575276-.2398623-.35273868l-.1481503.1058216-.0388012-.03880125zm.574964 3.2275589c-.1446228-.13051331-.2539718-.2398623-.3774304-.35273868-.1019755-.07357133-.1570751-.19586549-.1446228-.32099219 0-.55732711 0-1.11465422 0-1.67198134.0020483-.07552703-.0202084-.14971604-.063493-.2116432-.0865596-.09007407-.1784362-.17488318-.2751362-.25397185-.1022942.0529108-.1164037.11640376-.0246917.17636934.1761608.12835559.2626651.34667605.2222254.5608545v1.50972154c-.004012.07468535.0184739.14838908.063493.20811582.1446228.15167763.3068826.28219094.465615.42328641zm.1763693-3.83426943-.5008889.53263541-.5502723-.50088893.5044163-.53616279zm-.9418122.03527387c.1234585.11640376.2398623.21869798.3527387.32804697.1128763.10934899.1340407.04232864.1693145-.04585603-.373903-.39153993-.4021221-.41623164-.5220532-.28219094z"/></svg>