<svg height="9" viewBox="0 0 47 9" width="47" xmlns="http://www.w3.org/2000/svg"><g fill-rule="evenodd" transform="translate(0 -.353)"><path d="m46.11 6.82549342c-.0246917.13756809-.045856.27866356-.0811299.41623164-.148228.77110673-.7600683 1.36888172-1.5344132 1.49913938-.6849796.16024872-1.4017183.11859212-2.0635213-.11993115-.5681389-.18897452-.9910549-.66845885-1.1075995-1.25574969 0-.04232864 0-.08818467-.0211643-.14109547h1.5520502c.0611584-.00959877.1209345.02393415.1446229.08112989.0646649.14585105.1962502.25111929.3527386.28219095.1488845.03561201.3022684.04869126.4550329.03880125.3348279-.01149933.5985747-.28937542.592601-.62434746.0123958-.19027722.0123958-.38115944 0-.57143666 0 0-.0352739 0-.045856.02469171-.6067105.73016906-1.6860909.61023791-2.2822193.16931456-.4217773-.30783072-.7085842-.76646919-.8007168-1.2804414-.1626089-.73314166-.0653478-1.50000812.2751362-2.16934287.2292927-.51758569.7016224-.88671733 1.2592771-.98414091.6096124-.15003279 1.2482479.09473061 1.6014336.6137653v.04232864h.0352739v-.53969018h1.650817zm-1.6296527-2.2398906c.0089603-.26297736-.0557951-.52322075-.1869515-.75133339-.1218537-.22725592-.3611108-.36671788-.6189053-.36075731-.2577946.00596057-.4903504.15633149-.6015705.38897641-.2489835.46442037-.2409841 1.02438396.0211643 1.48150244.1152595.22504136.3468152.36660506.5996558.36660506.2528405 0 .4843962-.1415637.5996557-.36660506.1324425-.23016636.1972429-.49303623.1869515-.75838815zm-44.4803473 2.6137936v-6.84665774h3.34043528c.30784994-.00505331.6146883.03657205.91006579.12345854.73042515.1923147 1.23368488.86041021 1.21694844 1.61554314.0591615.56092597-.24196927 1.09815458-.75133338 1.34040698 0 0-.03174648.02821909-.05996558.04938341l.05643819.0282191c.65899881.24040368 1.08688194.87937582 1.05821603 1.58026927.05529115.64265591-.20838193 1.27151622-.70547735 1.6825635-.38342464.28291693-.84991538.43055628-1.32629743.41975903-.59260098 0-1.18520196 0-1.76369339 0h-1.9753366zm1.88009715-1.50972154c.48677938 0 .97355876 0 1.46033813-.03174648.32649221-.03162719.57040941-.3143847.55379973-.6419844.04345222-.33237186-.1789513-.64126562-.5079437-.70547735-.08370051-.01579707-.16881114-.02288962-.25397185-.02116432h-1.14287332-.10934899zm0-2.67375918h.13756809 1.01236c.15339009.02297517.30944618-.01859594.43107972-.11483346.12163353-.09623752.19798359-.2385482.21090468-.39311024.03394299-.16086205-.00630179-.32845891-.1095871-.45636853s-.25864564-.20255221-.4230483-.2032528c-.41975903 0-.83599067 0-1.2557497 0 0 0 0 0-.02469171 0v1.08643513c0 .02116432.00352739.04232864.00705478.0811299z" fill-rule="nonzero"/><path d="m23.6758201 7.19939642h-1.71431v-.14462286c0-.85715499 0-1.71078259 0-2.56793757-.0027502-.1690038-.0252429-.33710708-.0670204-.50088893-.0495902-.19273825-.2145948-.33376782-.4127042-.35273868-.2140537-.04527324-.4347974.03888527-.5643819.2151706-.139228.20786745-.2061652.45578305-.1904789.70547735v2.50091723.14462286h-1.7636934v-4.87484853h1.6437623v.70547735l.0282191.02116433c.2586945-.54388885.8086884-.88901004 1.4109547-.88537409.6058359-.04796405 1.1743157.29738747 1.4109547.85715499.0253942-.02907877.0489556-.05970857.0705477-.09171206.3361198-.54051058.9556388-.83650299 1.5873241-.75838815.7718116.00721954 1.4087674.60580457 1.4638655 1.37568084.0294283.20565179.0447495.41307633.045856.62082008v2.90303932.11640376h-1.7107826v-.1340407c0-.8536276 0-1.7072552 0-2.55735541.0001942-.16898192-.0211419-.33730005-.0634929-.50088893-.043244-.20372744-.2156215-.35455775-.4232864-.37037561-.2134587-.04358006-.4324188.04372683-.5573272.22222537-.1372682.20862042-.2028918.45625666-.1869515.70547735v2.49033507z"/><path d="m28.772894 6.55388464v.64198439h-1.6331801v-6.84313035h1.7037278v2.46917074c.0285546-.01915882.0556701-.0403797.0811299-.06349296.3603679-.40815883.8870481-.62991772 1.4308351-.60245373.5437871.027464 1.0454443.30115912 1.3628552.7435492.2605951.38790717.4228239.83343099.4726699 1.29807834.0896323.62227556.0303972 1.25693719-.172842 1.85187806-.1924137.65533913-.7387017 1.14563264-1.4109547 1.26633185-.5851439.16283037-1.2122592-.01401341-1.6261253-.45856028-.0742571-.09767873-.1437114-.19891715-.2081158-.30335526zm1.6825635-1.82013158c.0128828-.29257766-.0401594-.58430967-.1552051-.8536276-.0991894-.26227937-.3442944-.44091519-.6243474-.4550329-.2848847-.01743602-.5522075.13850232-.6772583.39506732-.1164851.2088556-.1828969.44190066-.1940062.68078565-.0528557.38802632.017473.78285396.201061 1.12876377.1299547.26537868.411526.42165078.7054774.39153994.2748078-.02831918.5077981-.21443565.5961283-.47619722.1052094-.25720408.1556653-.53351042.1481503-.81129896zm3.6649548.49030676c.0421759.16012482.0928061.31790258.1516777.47266983.0993493.1962348.2735094.34421626.4832106.41057739s.4372879.04551474.6314436-.05783871c.127243-.06698799.2279782-.17518509.2857183-.30688265 0-.02821909.0493834-.06349296.0776025-.06349296h1.6014336c-.0043425.0357625-.011418.07113985-.0211643.1058216-.1821784.68241055-.7102109 1.21848421-1.3897904 1.41095471-.6341628.20854266-1.3200903.19735906-1.9471175-.03174648-.703327-.23491707-1.243142-.80516285-1.4391738-1.5203037-.2552044-.77945481-.1640221-1.63091701.2504445-2.33865744.3742897-.6430465 1.042634-1.05911065 1.7848577-1.11112683.5097966-.07129946 1.0292755.01098207 1.4920846.23633491.6184942.32367084 1.0634871.90280652 1.2169484 1.58379667.0903347.36223188.1353591.73427578.1340407 1.10759945v.10229421zm1.5837967-.9876683c.0460898-.30451148-.0905925-.60776306-.3492692-.77490948-.2586766-.16714642-.5913078-.16714642-.8499844 0-.2586767.16714642-.395359.470398-.3492692.77490948zm-24.9315698 3.13231947c-.4444227.00556236-.8836391-.09607449-1.28044137-.29630049-.53904954-.27152039-.94320599-.75217332-1.11818161-1.32982482-.21877252-.63423072-.21877252-1.32346895 0-1.95769966.26648552-.83125651.9896376-1.43342498 1.85540548-1.54499541.5152946-.10318372 1.049165-.06042523 1.541468.12345853.8158747.28639411 1.3984083 1.01114248 1.5026668 1.869515.097608.51204034.0611542 1.04062007-.1058216 1.53441325-.2707876.86038563-1.0284296 1.47649014-1.9259532 1.56615973-.155205.02116432-.3068827.0246917-.4691425.03527387zm.7724977-2.58557452c0-.08112989 0-.16225979 0-.24338968-.0000372-.32054504-.0958468-.63376866-.2751361-.89948363-.1262441-.16820255-.3261626-.26480927-.5363964-.25920303-.2102337.00560623-.4047195.1127304-.5218197.28742212-.071983.10803143-.1256165.22721699-.1587324.35273868-.11381904.40527325-.13312719.83125935-.05643816 1.24516753.03320406.21079607.10114666.41462386.20106106.60318314.1040934.18731304.2960877.30904432.5099063.3232989.2138187.01425457.420273-.08091346.5483097-.25275116.0657452-.08496562.119182-.17877685.1587324-.27866356.1031083-.28076792.1475282-.57970175.1305133-.87831931zm1.9647545-.00705477c.0017176-.40537992.0857199-.80619111.246917-1.17814718.2497179-.60182972.7536309-1.06181188 1.3756809-1.2557497.589493-.20367668 1.2288676-.21233359 1.823659-.0246917.8706514.25704581 1.5010963 1.01274463 1.5979062 1.91537102.0928975.5090234.0552767 1.03328736-.109349 1.52383109-.2696197.8617684-1.0275105 1.47946332-1.9259532 1.56968711-.5451151.09229495-1.1053137.02364917-1.6120158-.19753366-.7538821-.33659701-1.2694999-1.05146141-1.3509891-1.87304238-.0246917-.15520501-.0317465-.31746481-.045856-.4797246zm3.3404353-.03527387c0-.09523944 0-.22575275-.0282191-.35273867-.0154409-.24976175-.0917324-.49195707-.2222254-.70547736-.1226176-.19379554-.3375241-.3095032-.5668122-.30517701-.2292882.0043262-.4396769.12805829-.5548968.32634133-.052641.08860815-.0941092.18339271-.1234585.28219094-.1026225.37541059-.130192.76737595-.0811299 1.15345548.0101733.2579354.0854044.50911022.2186979.73016906.1032773.17563317.2849602.29063584.4878942.30882992.2029339.01819407.4021761-.06265669.535048-.21711786.0805941-.09652457.1460133-.20476363.1940063-.3209922.1015178-.28870798.1493375-.59355841.1410955-.89948363z" fill-rule="nonzero"/><path d="m6.102 7.214v-6.861h1.764v6.861z"/><path d="m37.7430386 2.3210205h1.63318v.82540851h.0317465c.0246917-.03527387.045856-.07407512.0670204-.10934899.1961206-.39864052.5593174-.68945647.9911957-.79366203.1859114-.02413874.373541-.03239916.5608544-.0246917.0599656 0 .0917121.03880125.0917121.1058216v1.3615713c.0027989.01989054.0027989.04007503 0 .05996557-.1061601-.01684276-.2135051-.02510008-.3209922-.02469171-.1792196.00017326-.3578636.0202855-.5326354.05996558-.4170314.1211344-.7177224.48476074-.7583882.91712056-.0282385.16546684-.0423988.33302979-.0423286.50088893v1.88009715.13051331h-1.7213647z"/></g></svg>