<svg height="23" viewBox="0 0 128 23" width="128" xmlns="http://www.w3.org/2000/svg"><g fill="#e32" fill-rule="evenodd" transform="translate(-1 -1)"><path d="m86.13 23.52c-.2913681-.109644-.5988309-.1704609-.91-.18-3.6599138-.5913777-6.4216372-3.6396558-6.65-7.34-.2392617-2.1654618.3661006-4.3397511 1.69-6.07 1.6970914-2.25351754 4.4556369-3.44660745 7.26-3.14 3.6935422.2401965 6.6886594 3.0838752 7.12 6.76.1302696.8536509.1904705 1.71653.18 2.58 0 .31 0 .41-.39.41-3.71 0-7.42 0-11.13 0-.39 0-.39 0-.3.37.4683471 1.7088139 1.9542678 2.9430867 3.72 3.09 1.7566563.2114348 3.5248506-.2891335 4.91-1.39.12-.09.17-.07.24 0l1.69 2.49c.13.18 0 .24-.11.32-.8618971.7106936-1.8535785 1.2472883-2.92 1.58-.7746934.2376307-1.572552.3918387-2.38.46-.06 0-.13 0-.16.06zm.71-10h3.61c.25 0 .34-.05.29-.31-.1215774-.7530455-.47051-1.4509108-1-2-.868786-.7960679-2.0387031-1.1787511-3.21-1.05-1.7426776.032505-3.2221023 1.2862547-3.54 3-.08.39-.08.39.31.39zm16.76 10c-.297683-.0991879-.606885-.159684-.92-.18-3.5587816-.5305413-6.2979202-3.4181873-6.64-7-.3914833-2.4259897.2950902-4.9020367 1.88-6.78 2.784604-3.18016897 7.503321-3.78502275 11-1.41 1.671967 1.2770715 2.777527 3.157959 3.08 5.24.141537.9063212.208428 1.8227325.2 2.74 0 .31-.11.35-.38.35h-11.09c-.41 0-.41 0-.3.41.448433 1.7007751 1.909144 2.9419803 3.66 3.11 1.755376.2153704 3.52385-.2816752 4.91-1.38.13-.1.18-.09.27 0 .55.82 1.1 1.65 1.66 2.46.13.18 0 .24-.08.33-.859619.7163991-1.851797 1.2566602-2.92 1.59-.774693.2376307-1.572552.3918387-2.38.46-.06 0-.13 0-.16.06zm.66-10h3.42c.55 0 .55 0 .42-.54-.319847-1.5995998-1.699565-2.7680095-3.33-2.82-.983274-.19295968-2.002875.0156261-2.831374.5792308-.828498.5636046-1.396975 1.4353437-1.578626 2.4207692 0 .26 0 .37.28.36 1.21.02 2.41.03 3.62.03z" fill-rule="nonzero"/><path d="m25.43 23.52c-.4348999-.1083126-.8756127-.1917809-1.32-.25-1.8669586-.3327749-3.4818533-1.4952048-4.39-3.16-.4912529-.9619926-.7385069-2.0299923-.72-3.11 0-3.2 0-6.41 0-9.62 0-.22.08-.26.28-.26h3.64c.26 0 .32.07.32.32v9c-.0185402.4031518.0184735.8069376.11 1.2.2301028 1.0143446.9980794 1.82072 2 2.1.8430146.2648911 1.7469854.2648911 2.59 0 1.3538572-.4374106 2.2142726-1.7656247 2.06-3.18 0-1.22 0-2.45 0-3.68 0-1.83 0-3.66 0-5.5 0-.24.06-.3.3-.3h3.65c.2 0 .27 0 .27.26v9.46c.0310639 1.3639406-.341154 2.706708-1.07 3.86-1.0158273 1.4494786-2.5873659 2.4126797-4.34 2.66-.3864218.042965-.7702939.1063874-1.15.19z"/><path d="m1.06 23.07h-.06v-22.07h.06z"/><path d="m1.06 23.07v-22.07h.19 9.88c1.7179507-.06045431 3.3838905.59505677 4.6 1.81 1.0946916 1.1453958 1.6422613 2.70723561 1.5024446 4.28544108-.1398168 1.57820547-.9534368 3.01945442-2.2324446 3.95455892-.3808502.2539124-.7993087.4462682-1.24.57-.06 0-.13 0-.15.09 2.7963397.7282079 4.5467405 3.5025932 4 6.34-.2707599 2.6980513-2.445126 4.8090863-5.15 5-.4850427.0486792-.9727634.065382-1.46.05h-9.62c-.10754106.0153285-.2171819.0050497-.32-.03zm4.67-6.64v2.31c0 .14 0 .24.2.23 1.56 0 3.13.09 4.69-.06.7210172-.0308712 1.388278-.3899455 1.8112404-.9746861s.5551294-1.3308662.3587596-2.0253139c-.2589612-1.1889774-1.3452928-2.0122131-2.56-1.94-1.42 0-2.83 0-4.25 0-.23 0-.26.08-.25.27zm2.34-6.65h2c1.0230203.04966967 1.9494244-.60087191 2.25-1.58.231756-.69632952.1141626-1.46164616-.3159536-2.05627687-.4301163-.5946307-1.1201656-.94587086-1.8540464-.94372313-1.4 0-2.81 0-4.21 0-.17 0-.21.06-.21.22v4.13c0 .19.06.23.23.23z" fill-rule="nonzero"/><path d="m64.65 12.06c0-3.57 0-7.15 0-10.72 0-.29.08-.34.36-.34h14.63c.26 0 .36 0 .36.32v3.52c0 .26-.08.32-.32.32h-10c-.27 0-.36 0-.35.34v4c0 .24.07.29.3.29h7.37c.25 0 .35.05.34.33v3.51c0 .26-.07.32-.32.32h-7.3c-.31 0-.36.09-.36.37v8.47c0 .26-.05.35-.33.34-1.35 0-2.7 0-4.06 0-.26 0-.34-.06-.34-.33.02-3.5866667.0266667-7.1666667.02-10.74z"/><path d="m113.77 15.11c0-2.5733333 0-5.14 0-7.7 0-.25 0-.35.32-.35h6.58c1.918632-.01517997 3.789886.59569836 5.33 1.74 1.707731 1.2746513 2.771233 3.2335416 2.91 5.36.193085 1.6100146-.081157 3.2415861-.79 4.7-1.094068 2.101274-3.098836 3.5780828-5.43 4-.844341.1819115-1.706333.2691168-2.57.26-2 0-4 0-6 0-.26 0-.33-.05-.33-.33-.006667-2.5266667-.013333-5.0866667-.02-7.68zm4 0v4.31c0 .22 0 .3.28.3h2.4c1.795079-.000929 3.396009-1.1295847 4-2.82.290455-.8167267.379644-1.6914593.26-2.55-.157513-1.9462735-1.678181-3.5047476-3.62-3.71-1-.13-2 0-3-.06-.28 0-.38.05-.37.36.07 1.34.05 2.74.05 4.13z" fill-rule="nonzero"/><path d="m41.16 19.43h7.18c.23 0 .31 0 .31.3v3.1c0 .22-.06.28-.28.28h-12.52c-.24 0-.3-.07-.3-.3 0-.84 0-1.67 0-2.5-.0135308-.221394.0580109-.4395961.2-.61 2.25-2.89 4.56-5.79 6.83-8.7l.14-.18c-.11-.1-.23-.06-.34-.06h-6.49c-.26 0-.34-.06-.34-.33 0-1 0-2 0-3 0-.24.05-.33.31-.33h12.35c.23 0 .31 0 .3.29v2.43c.0031767.1921791-.0604431.379504-.18.53-2.32 2.92-4.62 5.85-6.93 8.78-.07.07-.13.16-.24.3zm14.45 0h7.1c.3 0 .39.06.39.38v3c0 .24-.07.3-.3.3h-12.48c-.26 0-.32-.07-.32-.32 0-.8333333 0-1.6633333 0-2.49-.0031317-.2232952.0750626-.4401067.22-.61l6.78-8.69.19-.26h-6.86c-.27 0-.33-.08-.33-.34 0-1 0-2 0-3.07 0-.21-.0000905-.28.28-.28h12.38c.21 0 .29 0 .29.28v2.52c-.0057568.1712356-.0732392.3346139-.19.46l-6.94 8.81c-.0765823.098718-.1467275.2022657-.21.31z"/></g></svg>