<?xml version="1.0" encoding="utf-8"?><svg xmlns="http://www.w3.org/2000/svg" xmlns:xlink="http://www.w3.org/1999/xlink"><symbol viewBox="0 0 11.62 23.1" id="fb" xmlns="http://www.w3.org/2000/svg"><path d="M2.52 4.46q0-.23.06-.93A3.42 3.42 0 0 1 3.12 2 4.34 4.34 0 0 1 4.68.62 6.4 6.4 0 0 1 7.8 0h3.82v4.16h-2.8a1.16 1.16 0 0 0-.77.31.86.86 0 0 0-.35.58v2.59h3.92c0 .51-.09 1-.14 1.48l-.16 1.26c-.06.42-.12.82-.18 1.18H7.67V23.1H2.52V11.56H0V7.64h2.52z"/></symbol><symbol viewBox="0 0 320.01 512.48" id="ok" xmlns="http://www.w3.org/2000/svg"><path d="M160 277.33A138.67 138.67 0 1 0 21.34 138.67 138.66 138.66 0 0 0 160 277.33zm0-207.39a68.73 68.73 0 1 1-68.72 68.73A68.73 68.73 0 0 1 160 69.94z"/><path d="M295.83 343A53.72 53.72 0 0 0 320 298.24a38.7 38.7 0 0 0-21.69-35.31 40.55 40.55 0 0 0-42.67 4 162.3 162.3 0 0 1-191.25 0 40.77 40.77 0 0 0-42.67-4A38.76 38.76 0 0 0 0 298.22 53.81 53.81 0 0 0 24.17 343a246.72 246.72 0 0 0 62.51 29.87q5.64 1.74 11.63 3.24l-64.47 63a42.66 42.66 0 0 0 59.42 61.24l1-1 65.71-68 65.83 68.14a42.67 42.67 0 1 0 61.29-59.37q-.51-.54-1.05-1.05l-64.36-63q6-1.55 11.67-3.27a245.23 245.23 0 0 0 62.48-29.8z"/></symbol><symbol viewBox="0 0 512 416" id="tw" xmlns="http://www.w3.org/2000/svg"><path d="M512 49.25a218.64 218.64 0 0 1-60.48 16.57 104.36 104.36 0 0 0 46.18-58 210 210 0 0 1-66.56 25.41A105 105 0 0 0 249.57 105a108 108 0 0 0 2.43 23.93C164.74 124.67 87.52 82.85 35.65 19.14A105 105 0 0 0 67.9 159.42a103.69 103.69 0 0 1-47.42-12.92v1.15a105.43 105.43 0 0 0 84.1 103.13 104.65 104.65 0 0 1-27.52 3.46 92.77 92.77 0 0 1-19.88-1.79c13.6 41.57 52.2 72.13 98.08 73.12a210.93 210.93 0 0 1-130.14 44.77A197.72 197.72 0 0 1 0 368.9 295.54 295.54 0 0 0 161 416c193.16 0 298.76-160 298.76-298.69 0-4.64-.16-9.12-.39-13.57A209.29 209.29 0 0 0 512 49.25z"/></symbol><symbol viewBox="0 0 548.36 312.86" id="vk" xmlns="http://www.w3.org/2000/svg"><path d="M545.45 282.55a35.57 35.57 0 0 0-1.86-3.57q-14.26-25.69-54.53-63.1l-.57-.57-.28-.28-.29-.29h-.28q-18.27-17.42-23.13-23.41-8.86-11.43-4-23.13 3.42-8.85 25.69-37.4 11.71-15.14 18.56-24.27 49.4-65.67 42.83-83.94l-1.7-2.84Q544.17 17.17 537 15t-18.28-.71l-82.22.57a10.7 10.7 0 0 0-5.71.14l-3.72.86-1.43.72-1.13.86a12.63 12.63 0 0 0-3.15 3 19.64 19.64 0 0 0-2.84 5A465.59 465.59 0 0 1 388 89.7q-10.56 17.7-19.41 30.69t-14.85 19.12a102.24 102.24 0 0 1-10.85 9.85q-4.86 3.72-7.42 3.15t-4.86-1.15a19 19 0 0 1-6.42-7 31.39 31.39 0 0 1-3.28-11.14q-.86-6.7-1-11.56c-.09-3.23-.05-7.81.14-13.71s.29-9.89.29-12q0-10.84.42-23.55t.72-20.13q.28-7.42.28-15.7a65.49 65.49 0 0 0-1-13 43.83 43.83 0 0 0-3-9.14 15.31 15.31 0 0 0-5.85-6.85 32.82 32.82 0 0 0-9.56-3.86Q287.22.33 263.81 0q-53.1-.57-68.24 6.86a38.34 38.34 0 0 0-10.84 8.56q-5.14 6.28-1.43 6.85 17.13 2.57 24.26 12.27l1.72 3.46q2 3.72 4 13.14A131.63 131.63 0 0 1 215.84 72a222.24 222.24 0 0 1 0 35.69q-1.43 14.85-2.71 23.13a46.47 46.47 0 0 1-3.85 13.42 58.4 58.4 0 0 1-3.43 6.28 4.73 4.73 0 0 1-1.43 1.42 21.31 21.31 0 0 1-7.71 1.44q-4 0-9.7-4a68.21 68.21 0 0 1-11.85-11 146.9 146.9 0 0 1-13.85-19.55q-7.71-12.57-16-29.7l-4.56-8.28q-4.29-8-11.71-23.26T115.92 28a18.8 18.8 0 0 0-6.85-9.13l-1.43-.87a19.6 19.6 0 0 0-4.57-2.43 30.18 30.18 0 0 0-6.57-1.85l-78.22.57q-12 0-16.28 5.42L.86 21.44A9.28 9.28 0 0 0 0 26a22.76 22.76 0 0 0 1.71 7.71Q18.84 74 39 111.38t35 60.24q14.85 22.84 30.27 43.11t20.41 26q5 5.72 7.85 8.57l7.14 6.85q6.85 6.86 20.13 16.41a341.5 341.5 0 0 0 29.41 18.85 159.5 159.5 0 0 0 37.54 15.13 129.88 129.88 0 0 0 41.69 4.71h32.83q10-.86 15.14-6.28l1.13-1.43a18.76 18.76 0 0 0 2.14-5.28 28.88 28.88 0 0 0 1-7.85 94.56 94.56 0 0 1 1.85-22.12q2.14-9.84 4.86-14.85a36.1 36.1 0 0 1 6.14-8.41 24.91 24.91 0 0 1 4.86-4.15 18.83 18.83 0 0 1 2.28-1q6.84-2.28 16.13 4.43a95.11 95.11 0 0 1 17.42 16.56q8.13 9.86 19.55 22.13t20 18.27l5.71 3.43a69.65 69.65 0 0 0 14.78 6.3q9.12 2.85 16 1.43l73.09-1.14q10.84 0 16.84-3.57t7.14-7.86a22 22 0 0 0 .15-9.71 36.28 36.28 0 0 0-2.03-7.6z"/></symbol></svg>