<svg xmlns="http://www.w3.org/2000/svg" width="68" height="65" viewBox="0 0 68 65">
  <g fill="none" fill-rule="evenodd" stroke-linecap="round" stroke-linejoin="round">
    <polyline stroke="#00AEEF" stroke-width="3" points="34.24 16.453 34.24 1.5 47.173 1.5 47.173 9.176 34.24 9.176"/>
    <polygon stroke="#00AEEF" stroke-width="3" points="1.528 41.076 34.24 41.076 66.953 41.076 34.24 16.453"/>
    <path stroke="#00AEEF" stroke-width="3" d="M66.9519 63.2686L1.4999 63.2686M36.6589 33.4356C35.2799 34.7796 33.0729 34.7506 31.7289 33.3716 30.3869 31.9926 30.4149 29.7866 31.7939 28.4426 33.1729 27.0996 35.3799 27.1276 36.7219 28.5066 38.0659 29.8856 38.0379 32.0926 36.6589 33.4356zM11.2908 62.8423L11.2908 41.5363M20.4646 62.8423L20.4646 41.5363M29.6384 62.8423L29.6384 41.5363M38.8132 62.8423L38.8132 41.5363M47.987 62.8423L47.987 41.5363M57.1618 62.8423L57.1618 41.5363"/>
  </g>
</svg>
