<svg xmlns="http://www.w3.org/2000/svg" width="70" height="70" viewBox="0 0 70 70">
  <g fill="none" fill-rule="evenodd" stroke-linecap="round" stroke-linejoin="round">
    <path stroke="#00AEEF" stroke-width="3" d="M43.023,28.2725 C42.797,24.1345 39.371,20.8485 35.176,20.8485 C30.984,20.8485 27.569,24.1345 27.339,28.2695 L27.318,28.2695 L27.318,33.3685 L27.33,33.3685 C27.556,37.5065 30.982,40.7925 35.176,40.7925 C39.369,40.7925 42.785,37.5065 43.013,33.3715 L43.036,33.3715 L43.036,28.2725 L43.023,28.2725 Z"/>
    <path stroke="#00AEEF" stroke-width="3" d="M45.6978,49.5034 C44.7608,44.5444 40.4088,40.7924 35.1768,40.7924 C29.9448,40.7924 25.5918,44.5444 24.6538,49.5034 L45.6978,49.5034 Z"/>
    <path stroke="#00AEEF" stroke-width="3" d="M63.2232 35.1763C63.2232 50.6663 50.6662 63.2233 35.1762 63.2233 19.6862 63.2233 7.1292 50.6663 7.1292 35.1763 7.1292 19.6863 19.6862 7.1293 35.1762 7.1293 50.6662 7.1293 63.2232 19.6863 63.2232 35.1763zM35.1763 1.5L35.1763 12.758M35.1763 57.5938L35.1763 68.8518M1.4995 35.1763L12.7585 35.1763M57.5943 35.1763L68.8523 35.1763"/>
  </g>
</svg>
