<svg xmlns="http://www.w3.org/2000/svg" width="69" height="65" viewBox="0 0 69 65">
  <g fill="none" fill-rule="evenodd" stroke-linecap="round" stroke-linejoin="round">
    <g stroke="#00AEEF" stroke-width="3" transform="translate(1 30.603)">
      <path d="M0.5001,32.5001 L66.0611,32.5001"/>
      <polyline points="10.159 32.5 10.159 21.826 19.333 21.826 19.333 32.5"/>
      <polyline points="28.765 32.5 28.765 10.673 37.939 10.673 37.939 32.5"/>
      <polyline points="47.228 32.5 47.228 .017 56.402 .017 56.402 32.5"/>
    </g>
    <path stroke="#00AEEF" stroke-width="3" d="M40.047 23.5459L28.554 23.5459M22.2335 26.5772L8.7315 40.0792M59.6252 7.5132L45.9702 21.1692"/>
    <path stroke="#00AEEF" stroke-width="3" d="M57.7023 6.815C56.3583 5.436 56.3883 3.23 57.7663 1.886 59.1453.543 61.3513.571 62.6953 1.95 64.0383 3.329 64.0103 5.536 62.6313 6.879 61.2523 8.222 59.0463 8.194 57.7023 6.815zM43.965 25.4395C42.586 26.7825 40.38 26.7535 39.036 25.3755 37.694 23.9965 37.722 21.7895 39.101 20.4465 40.48 19.1035 42.686 19.1315 44.029 20.5105 45.373 21.8895 45.344 24.0955 43.965 25.4395zM24.3849 25.4395C23.0059 26.7825 20.7999 26.7535 19.4559 25.3755 18.1139 23.9965 18.1419 21.7895 19.5209 20.4465 20.8999 19.1035 23.1059 19.1315 24.4489 20.5105 25.7929 21.8895 25.7639 24.0955 24.3849 25.4395zM6.7941 44.357C5.4151 45.7 3.2081 45.672 1.8651 44.293.5221 42.914.5511 40.708 1.9301 39.364 3.3081 38.021 5.5151 38.049 6.8581 39.428 8.2011 40.807 8.1731 43.014 6.7941 44.357z" transform="translate(2 .603)"/>
  </g>
</svg>
