<svg xmlns="http://www.w3.org/2000/svg" width="61" height="65" viewBox="0 0 61 65">
  <g fill="none" fill-rule="evenodd" stroke-linecap="round" stroke-linejoin="round">
    <polyline stroke="#00AEEF" stroke-width="3" points="13.359 23.328 13.359 8.976 22.906 8.976"/>
    <g stroke="#00AEEF" stroke-width="3" transform="translate(1 .603)">
      <polyline points="48.799 8.374 58.601 8.374 58.601 62.5 12.359 62.5 12.359 47.684"/>
      <path d="M38.9614 4.3824C38.9614 3.5054 38.6374 2.6274 37.9774 1.9504 36.6334.5714 34.4264.5424 33.0474 1.8854 32.3464 2.5694 31.9984 3.4754 31.9984 4.3824L22.5474 4.3824 22.5474 13.4184 48.4124 13.4184 48.4124 4.3824 38.9614 4.3824zM48.4126 44.8448L31.9976 44.8448M48.4126 35.6705L31.9976 35.6705M48.4126 26.4962L31.9976 26.4962M24.2173 35.4366C24.2173 41.9866 18.9073 47.2956 12.3593 47.2956 5.8093 47.2956.4993 41.9866.4993 35.4366.4993 28.8876 5.8093 23.5786 12.3593 23.5786 18.9073 23.5786 24.2173 28.8876 24.2173 35.4366z"/>
      <polyline points="18.317 32.048 11.074 39.292 7.433 35.651"/>
    </g>
  </g>
</svg>
