<svg xmlns="http://www.w3.org/2000/svg" width="76" height="54" viewBox="0 0 76 54">
  <g fill="none" fill-rule="evenodd" stroke-linecap="round" stroke-linejoin="round">
    <path stroke="#00AEEF" stroke-width="3" d="M32.9435,33.7806 C34.5075,41.8596 42.5215,41.5336 42.5215,41.5336 C51.0565,41.4686 53.7785,33.7806 53.7785,33.7806 C53.7785,33.7806 56.4995,41.4686 65.0345,41.5336 C65.0345,41.5336 73.0485,41.8596 74.6125,33.7806 C76.1755,25.7006 69.2365,18.7616 69.2365,18.7616 L53.7785,1.9166 L38.3195,18.7616 C38.3195,18.7616 31.3805,25.7006 32.9435,33.7806 Z"/>
    <path stroke="#00AEEF" stroke-width="3" d="M53.7775 34.4046C53.7775 44.1946 46.2355 52.1296 36.9305 52.1296L70.6255 52.1296C61.3205 52.1296 53.7775 44.1946 53.7775 34.4046zM24.2082 11.2313C22.7692 12.6703 22.7692 15.0043 24.2082 16.4443 25.6472 17.8843 27.9812 17.8843 29.4212 16.4443 30.8612 15.0043 30.8612 12.6703 29.4212 11.2313 27.9812 9.7923 25.6472 9.7923 24.2082 11.2313zM10.883 24.5565C9.444 25.9955 9.444 28.3295 10.883 29.7695 12.322 31.2085 14.656 31.2085 16.097 29.7695 17.536 28.3295 17.536 25.9955 16.097 24.5565 14.656 23.1165 12.322 23.1165 10.883 24.5565zM23.3986 37.0721C21.9596 38.5111 21.9596 40.8451 23.3986 42.2851 24.8386 43.7251 27.1726 43.7251 28.6126 42.2851 30.0516 40.8451 30.0516 38.5111 28.6126 37.0721 27.1726 35.6331 24.8386 35.6331 23.3986 37.0721z"/>
    <path stroke="#00AEEF" stroke-width="3" d="M41.5558,14.3836 L29.9848,2.8126 C28.2348,1.0626 25.3958,1.0626 23.6448,2.8126 L2.8128,23.6446 C1.0628,25.3956 1.0628,28.2346 2.8128,29.9846 L23.6448,50.8166 C25.3958,52.5676 28.2348,52.5676 29.9848,50.8166 L39.2658,41.5356"/>
  </g>
</svg>
