<?xml version="1.0" standalone="no"?>
<!DOCTYPE svg PUBLIC "-//W3C//DTD SVG 1.1//EN" "http://www.w3.org/Graphics/SVG/1.1/DTD/svg11.dtd" >
<svg xmlns="http://www.w3.org/2000/svg" xmlns:xlink="http://www.w3.org/1999/xlink" version="1.1">
<metadata>
Created by FontForge 20161003 at Sat Jan 14 19:21:42 2017
 By www-data
Copyright(C)1996; Type Market Ltd. Moscow, 119136, Box 20; phone:(095)1427712; Created by S. Shanovich
</metadata>
<defs>
<font id="HeliosThinC" horiz-adv-x="527" >
  <font-face 
    font-family="HeliosThinC"
    font-weight="100"
    font-stretch="normal"
    units-per-em="1000"
    panose-1="0 0 2 0 0 0 0 0 0 0"
    ascent="760"
    descent="-240"
    x-height="525"
    cap-height="727"
    bbox="-57 -240 1086 927"
    underline-thickness="21"
    underline-position="-123"
    unicode-range="U+0020-2122"
  />
<missing-glyph horiz-adv-x="500" 
 />
    <glyph glyph-name=".notdef" horiz-adv-x="500" 
 />
    <glyph glyph-name=".null" horiz-adv-x="0" 
 />
    <glyph glyph-name="nonmarkingreturn" horiz-adv-x="333" 
 />
    <glyph glyph-name="space" unicode=" " horiz-adv-x="262" 
 />
    <glyph glyph-name="space" unicode="&#xa0;" horiz-adv-x="262" 
 />
    <glyph glyph-name="exclam" unicode="!" horiz-adv-x="311" 
d="M145 181l-9 545h37l-4 -545h-24zM140 0v89h34v-89h-34z" />
    <glyph glyph-name="quotedbl" unicode="&#x22;" horiz-adv-x="261" 
d="M50 707h35v-272h-35v272zM176 707h35v-272h-35v272z" />
    <glyph glyph-name="numbersign" unicode="#" horiz-adv-x="777" 
d="M404 717h48l-89 -251h135l89 251h46l-87 -251h160l-11 -36h-164l-50 -144h176l-11 -36h-177l-88 -249h-48l89 249h-136l-89 -249h-46l88 249h-168l11 36h169l52 144h-184l11 36h185zM350 430l-50 -144h134l50 144h-134z" />
    <glyph glyph-name="dollar" unicode="$" 
d="M244 376v302q-70 -2 -109 -39.5t-39 -102.5q0 -63 35.5 -101t112.5 -59zM244 -84v70q-96 9 -147.5 66t-51.5 154v3h32q3 -170 167 -190v323q-93 24 -137 70t-44 121q0 80 49 128.5t132 48.5v45h30v-45q91 -1 140.5 -46.5t50.5 -128.5h-29q-11 143 -159 143h-3v-309
q208 -36 208 -190q0 -178 -208 -193v-70h-30zM274 19q84 8 128.5 49.5t44.5 108.5q0 64 -42 102t-131 56v-316z" />
    <glyph glyph-name="percent" unicode="%" horiz-adv-x="735" 
d="M72 571q0 -51 36 -87t87 -36t88 36t37 87t-36.5 87t-88.5 36q-51 0 -87 -35.5t-36 -87.5zM41 572q0 65 45 110t109 45t109 -45t45 -110q0 -64 -44.5 -109t-109.5 -45q-64 0 -109 45t-45 109zM148 -16l403 743h35l-404 -743h-34zM385 138q0 64 45 109t110 45q64 0 109 -45
t45 -109t-45 -109t-109 -45t-109.5 45t-45.5 109zM416 138q0 -51 36.5 -87t87.5 -36t87 36t36 87t-36 87t-87 36q-52 0 -88 -35.5t-36 -87.5z" />
    <glyph glyph-name="ampersand" unicode="&#x26;" horiz-adv-x="615" 
d="M267 434q135 58 135 155q0 48 -32 78t-80 30q-46 0 -77 -29.5t-31 -71.5q0 -69 85 -162zM475 125l-218 269q-168 -59 -168 -199q0 -78 52.5 -131.5t127.5 -53.5q128 0 206 115zM576 0l-79 96q-95 -117 -219 -117q-100 0 -161.5 60.5t-61.5 154.5q0 146 181 227
q-87 106 -87 170q0 59 40.5 97t104.5 38q61 0 100 -38t39 -99q0 -113 -146 -179l207 -258q39 78 39 175h31q-2 -122 -48 -201l102 -126h-42z" />
    <glyph glyph-name="quotesingle" unicode="'" horiz-adv-x="136" 
d="M51 707h34v-272h-34v272z" />
    <glyph glyph-name="parenleft" unicode="(" horiz-adv-x="291" 
d="M288 -223h-34q-156 234 -156 483q0 246 144 463h36q-147 -208 -147 -459q0 -253 157 -487z" />
    <glyph glyph-name="parenright" unicode=")" horiz-adv-x="291" 
d="M6 -223q158 236 158 487t-147 459h36q144 -217 144 -463q0 -247 -157 -483h-34z" />
    <glyph glyph-name="asterisk" unicode="*" horiz-adv-x="504" 
d="M170 441l-26 20l88 110l-129 35l12 35l124 -46l-4 131h34l-4 -131l123 46l13 -35l-129 -35l87 -110l-25 -20l-83 113z" />
    <glyph glyph-name="plus" unicode="+" horiz-adv-x="841" 
d="M406 602h30v-286h280v-30h-280v-286h-30v286h-281v30h281v286z" />
    <glyph glyph-name="comma" unicode="," horiz-adv-x="262" 
d="M67 -106l72 193h35l-72 -193h-35z" />
    <glyph glyph-name="hyphen" unicode="-" horiz-adv-x="390" 
d="M70 316h250v-22h-250v22z" />
    <glyph glyph-name="hyphen" unicode="&#xad;" horiz-adv-x="390" 
d="M70 316h250v-22h-250v22z" />
    <glyph glyph-name="period" unicode="." horiz-adv-x="262" 
d="M115 0v87h32v-87h-32z" />
    <glyph glyph-name="slash" unicode="/" horiz-adv-x="294" 
d="M272 745h35l-286 -830h-35z" />
    <glyph glyph-name="zero" unicode="0" 
d="M40 343q0 176 58.5 269.5t164.5 93.5t165 -93.5t59 -269.5t-59 -270t-165 -94t-164.5 94t-58.5 270zM74 343q0 -162 49.5 -247.5t140.5 -85.5t140 85t49 248t-49 247.5t-140 84.5t-140.5 -85t-49.5 -247z" />
    <glyph glyph-name="one" unicode="1" horiz-adv-x="526" 
d="M276 0v599q-61 -70 -167 -70h-9v29q156 3 176 127h33v-685h-33z" />
    <glyph glyph-name="two" unicode="2" 
d="M51 0v49q0 69 24 107q33 54 145 124q22 14 62.5 37.5t64.5 39.5t41 34q49 50 49 122q0 74 -44 117t-117 43q-77 0 -123.5 -46t-46.5 -126v-11h-35v9q0 95 56 150t149 55q88 0 142.5 -52t54.5 -136q0 -78 -40 -124.5t-133 -101.5q-120 -71 -169 -118.5t-49 -112.5
q0 -19 2 -29h385v-30h-418z" />
    <glyph glyph-name="three" unicode="3" 
d="M47 208h34v-3q0 -92 46.5 -141.5t128.5 -49.5q84 0 137 48t53 124q0 160 -212 160h-21v29q5 0 13 -0.5t11 -0.5q90 0 139 42t49 115q0 66 -42.5 104t-118.5 38q-78 0 -122 -45t-44 -125v-5h-31v3q0 97 53.5 150t150.5 53q85 0 137 -47.5t52 -124.5q0 -61 -31.5 -106.5
t-85.5 -62.5q65 -14 101.5 -60t36.5 -112q0 -94 -62 -152t-162 -58q-99 0 -154.5 58.5t-55.5 163.5v5z" />
    <glyph glyph-name="four" unicode="4" 
d="M371 213v416l-289 -416h289zM370 0v182h-322v33l325 470h29v-472h78v-31h-78v-182h-32z" />
    <glyph glyph-name="five" unicode="5" 
d="M49 176h32q8 -81 53 -123.5t120 -42.5q88 0 139 54t51 146q0 86 -51 138t-134 52q-100 0 -159 -73h-27l57 358h320v-30h-294l-43 -275q59 49 152 49q94 0 153.5 -61.5t59.5 -161.5q0 -103 -60.5 -165t-161.5 -62q-89 0 -143.5 52t-63.5 145z" />
    <glyph glyph-name="six" unicode="6" 
d="M471 534h-32q-20 138 -157 138q-200 0 -200 -338q0 -33 1 -51q19 77 69.5 119.5t122.5 42.5q92 0 148.5 -62.5t56.5 -169.5q0 -106 -58 -170t-146 -64q-228 0 -228 347q0 378 240 378q79 0 127 -44.5t56 -125.5zM445 213q0 94 -47 148t-124 54t-125 -55t-48 -146
q0 -93 46.5 -147.5t121.5 -54.5q79 0 127.5 53.5t48.5 147.5z" />
    <glyph glyph-name="seven" unicode="7" 
d="M156 0q51 364 271 653h-368v32h409v-33q-213 -255 -279 -652h-33z" />
    <glyph glyph-name="eight" unicode="8" 
d="M178 376q-105 45 -105 153q0 79 52.5 127.5t137.5 48.5q87 0 138.5 -48t51.5 -128q0 -105 -104 -153q133 -43 133 -181q0 -98 -60.5 -156.5t-161.5 -58.5q-95 0 -155 59t-60 152q0 139 133 185zM109 532q0 -65 42.5 -104t111.5 -39t112 39.5t43 103.5q0 63 -42.5 103
t-112.5 40t-112 -39.5t-42 -103.5zM80 196q0 -81 51 -131t132 -50t132.5 50t51.5 129q0 77 -49.5 121t-134.5 44t-134 -43.5t-49 -119.5z" />
    <glyph glyph-name="nine" unicode="9" 
d="M56 149h32q20 -138 157 -138q200 0 200 338q0 33 -1 51q-19 -77 -69.5 -119.5t-122.5 -42.5q-92 0 -148 62.5t-56 169.5t57.5 170.5t145.5 63.5q229 0 229 -347q0 -378 -241 -378q-79 0 -127 44.5t-56 125.5zM82 470q0 -94 47 -148t124 -54t125.5 55t48.5 146
q0 93 -47 147.5t-122 54.5q-79 0 -127.5 -53.5t-48.5 -147.5z" />
    <glyph glyph-name="colon" unicode=":" horiz-adv-x="286" 
d="M126 0v87h33v-87h-33zM126 404v87h33v-87h-33z" />
    <glyph glyph-name="semicolon" unicode=";" horiz-adv-x="287" 
d="M64 -106l71 193h36l-73 -193h-34zM137 404v88h33v-88h-33z" />
    <glyph glyph-name="less" unicode="&#x3c;" horiz-adv-x="841" 
d="M711 548v-34l-527 -213l527 -213v-34l-581 237v20z" />
    <glyph glyph-name="equal" unicode="=" horiz-adv-x="841" 
d="M125 404h591v-30h-591v30zM125 229h591v-30h-591v30z" />
    <glyph glyph-name="greater" unicode="&#x3e;" horiz-adv-x="841" 
d="M130 548l581 -237v-20l-581 -237v34l526 213l-526 213v34z" />
    <glyph glyph-name="question" unicode="?" horiz-adv-x="467" 
d="M206 179q1 57 11 102q4 20 15 38.5t20.5 29.5t28.5 31q6 6 27 25.5t38 37.5t32 39q25 34 25 81q0 70 -44 108t-125 38t-125.5 -48t-44.5 -137v-4h-33q0 105 55.5 163.5t153.5 58.5q89 0 143 -48t54 -127q0 -60 -33 -108q-16 -23 -34.5 -42t-39.5 -38t-26 -24
q-48 -46 -55 -82q-8 -39 -11 -94h-32zM203 0v87h39v-87h-39z" />
    <glyph glyph-name="at" unicode="@" horiz-adv-x="1010" 
d="M637 357q-23 103 -120 103q-77 0 -129 -69t-52 -171q0 -59 29.5 -92t80.5 -33q57 0 100 36.5t59 97.5zM589 157q-23 -44 -61.5 -68.5t-81.5 -24.5q-155 0 -155 159q0 113 67 190.5t160 77.5q97 0 127 -87l31 67h32l-68 -270q-12 -48 -12 -59q0 -47 62 -47q75 0 132 62
q39 41 62 101t23 126q0 132 -99.5 215.5t-262.5 83.5q-166 0 -279 -93q-159 -128 -159 -339q0 -161 110 -259t292 -98q169 0 311 95l11 -17q-142 -106 -317 -106q-188 0 -304 89q-147 111 -147 304q0 161 97 278q143 175 389 175q164 0 271 -82q127 -97 127 -247
q0 -170 -118 -264q-69 -54 -149 -54q-93 0 -93 69q0 7 2 23z" />
    <glyph glyph-name="A" unicode="A" horiz-adv-x="580" 
d="M135 278h315l-156 409zM-6 0l281 727h38l276 -727h-33l-94 248h-339l-95 -248h-34z" />
    <glyph glyph-name="B" unicode="B" horiz-adv-x="624" 
d="M117 31h180q119 0 163 18q42 17 65.5 56.5t23.5 94.5q0 88 -60.5 126.5t-190.5 38.5h-181v-334zM117 391h169q115 0 171 38t56 120q0 84 -54.5 115.5t-174.5 31.5h-167v-305zM83 0v727h198q135 0 188 -32q78 -45 78 -148q0 -59 -32 -101.5t-92 -64.5q161 -31 161 -187
q0 -51 -22 -93t-60 -65q-57 -36 -198 -36h-221z" />
    <glyph glyph-name="C" unicode="C" horiz-adv-x="687" 
d="M634 241q-7 -118 -83 -187t-198 -69q-142 0 -222 99.5t-80 277.5q0 181 82 281t226 100q111 0 187 -63t86 -164h-34q-16 93 -80 144.5t-165 51.5q-121 0 -194 -93t-73 -257q0 -163 70.5 -255t191.5 -92q111 0 179 60.5t74 165.5h33z" />
    <glyph glyph-name="D" unicode="D" horiz-adv-x="696" 
d="M83 0v727h167q163 0 233 -36q161 -79 161 -328q0 -124 -41.5 -207.5t-119.5 -119.5q-73 -36 -233 -36h-167zM118 31h140q148 0 216 36q134 72 134 296q0 185 -96 270q-42 38 -100.5 50t-153.5 12h-140v-664z" />
    <glyph glyph-name="E" unicode="E" horiz-adv-x="573" 
d="M83 0v727h443v-33h-409v-300h374v-31h-374v-330h419v-33h-453z" />
    <glyph glyph-name="F" unicode="F" horiz-adv-x="528" 
d="M83 0v727h424v-33h-390v-300h345v-31h-345v-363h-34z" />
    <glyph glyph-name="G" unicode="G" horiz-adv-x="717" 
d="M632 0v143q-79 -159 -264 -159q-145 0 -230 101.5t-85 277.5t84.5 278t230.5 102q120 0 194 -58.5t89 -163.5h-34q-18 92 -82.5 141.5t-166.5 49.5q-128 0 -204 -93.5t-76 -255.5t76 -255t204 -93q120 0 190.5 72.5t70.5 198.5v32h-240v30h272v-348h-29z" />
    <glyph glyph-name="H" unicode="H" horiz-adv-x="692" 
d="M82 0v727h35v-324h459v324h34v-727h-34v373h-459v-373h-35z" />
    <glyph glyph-name="I" unicode="I" horiz-adv-x="209" 
d="M88 0v727h34v-727h-34z" />
    <glyph glyph-name="J" unicode="J" horiz-adv-x="478" 
d="M368 727h34v-515q0 -116 -44 -172.5t-142 -56.5q-85 0 -131.5 51.5t-46.5 149.5q0 27 1 43h32q0 -7 -0.5 -17t-0.5 -13q0 -93 36.5 -138t112.5 -45q85 0 117 50t32 158v505z" />
    <glyph glyph-name="K" unicode="K" horiz-adv-x="587" 
d="M82 0v727h35v-409l403 409h43l-287 -291l331 -436h-41l-312 412l-137 -139v-273h-35z" />
    <glyph glyph-name="L" unicode="L" horiz-adv-x="514" 
d="M84 0v727h34v-694h385v-33h-419z" />
    <glyph glyph-name="M" unicode="M" horiz-adv-x="781" 
d="M83 0v727h48l260 -684l260 684h47v-727h-30v684l-262 -684h-32l-261 684v-684h-30z" />
    <glyph glyph-name="N" unicode="N" horiz-adv-x="688" 
d="M82 0v727h35l455 -669v669h34v-727h-34l-456 668v-668h-34z" />
    <glyph glyph-name="O" unicode="O" horiz-adv-x="749" 
d="M53 363q0 177 86 278.5t235 101.5q150 0 236 -101.5t86 -278.5t-86 -278t-236 -101t-235.5 101t-85.5 278zM88 363q0 -163 76 -255.5t210 -92.5t210.5 92.5t76.5 255.5t-76.5 256t-210.5 93t-210 -93t-76 -256z" />
    <glyph glyph-name="P" unicode="P" horiz-adv-x="581" 
d="M256 696h-139v-330h138q126 0 169 19q38 17 60.5 57.5t22.5 95.5q0 92 -73 132q-47 26 -178 26zM281 727q132 0 196.5 -46.5t64.5 -145.5q0 -88 -54 -144q-34 -34 -81.5 -44.5t-128.5 -10.5h-161v-336h-34v727h198z" />
    <glyph glyph-name="Q" unicode="Q" horiz-adv-x="749" 
d="M447 127l20 23l92 -73q102 94 102 286q0 163 -76.5 256.5t-210.5 93.5t-210 -93.5t-76 -256.5q0 -164 75.5 -255.5t210.5 -91.5q97 0 158 41zM660 -48l-102 84q-72 -52 -191 -52q-145 0 -229.5 101.5t-84.5 277.5q0 178 85.5 279t235.5 101q149 0 235.5 -100t86.5 -272
q0 -205 -113 -315l98 -80z" />
    <glyph glyph-name="R" unicode="R" horiz-adv-x="628" 
d="M117 374h224q97 0 147 41t50 119q0 72 -41 115q-29 30 -66.5 38t-106.5 8h-207v-321zM83 0v727h241q129 0 188.5 -43.5t59.5 -146.5q0 -139 -131 -179q91 -18 102 -125q3 -32 5 -75.5t3.5 -67.5t7.5 -49.5t17 -40.5h-37q-3 4 -5.5 9t-4.5 11.5t-3.5 12t-2.5 15t-2 16
t-1.5 19t-1 20l-1.5 22.5t-1 24q0 4 -1 21.5t-1.5 22t-1.5 18.5t-2 18.5t-3 16t-4 16.5t-5 13.5t-7 14.5t-9 12q-36 42 -141 42h-224v-344h-34z" />
    <glyph glyph-name="S" unicode="S" horiz-adv-x="579" 
d="M115 433q-51 47 -51 120q0 85 59 137.5t159 52.5q102 0 167 -59.5t65 -153.5h-32q0 84 -56 134t-146 50q-86 0 -135 -44t-49 -117q0 -57 45 -98q25 -23 73 -39q18 -6 89 -25.5t99 -30.5q69 -26 100.5 -64t31.5 -103q0 -94 -65 -151.5t-176 -57.5q-106 0 -172.5 63
t-74.5 175h33q6 -96 64 -151.5t151 -55.5t149.5 47.5t56.5 121.5q0 59 -26.5 92t-86.5 56q-27 10 -95 29t-91 27q-61 21 -86 45z" />
    <glyph glyph-name="T" unicode="T" horiz-adv-x="515" 
d="M243 0v695h-230v32h490v-32h-226v-695h-34z" />
    <glyph glyph-name="U" unicode="U" horiz-adv-x="677" 
d="M77 727h34v-457q0 -126 58.5 -190.5t169.5 -64.5q110 0 169 65.5t59 189.5v457h34v-473q0 -127 -70 -198.5t-192 -71.5q-124 0 -193 71t-69 199v473z" />
    <glyph glyph-name="V" unicode="V" horiz-adv-x="531" 
d="M249 0l-252 727h36l233 -677l232 677h36l-253 -727h-32z" />
    <glyph glyph-name="W" unicode="W" horiz-adv-x="832" 
d="M202 0l-194 727h34l178 -666l176 666h41l176 -666l177 666h34l-194 -727h-34l-180 679l-180 -679h-34z" />
    <glyph glyph-name="X" unicode="X" horiz-adv-x="536" 
d="M1 0l247 372l-236 355h40l216 -327l215 327h38l-233 -354l247 -373h-39l-230 343l-227 -343h-38z" />
    <glyph glyph-name="Y" unicode="Y" horiz-adv-x="536" 
d="M251 0v322l-250 405h39l229 -371l226 371h39l-250 -407v-320h-33z" />
    <glyph glyph-name="Z" unicode="Z" horiz-adv-x="535" 
d="M9 0v34l467 661h-427v32h463v-35l-466 -661h479v-31h-516z" />
    <glyph glyph-name="bracketleft" unicode="[" horiz-adv-x="305" 
d="M287 -208h-171v934h171v-31h-135v-872h135v-31z" />
    <glyph glyph-name="backslash" unicode="\" horiz-adv-x="294" 
d="M-14 746h35l286 -830h-35z" />
    <glyph glyph-name="bracketright" unicode="]" horiz-adv-x="305" 
d="M22 -208v31h135v872h-135v31h171v-934h-171z" />
    <glyph glyph-name="asciicircum" unicode="^" horiz-adv-x="1010" 
d="M480 718h48l271 -272h-54l-240 238l-241 -238h-54z" />
    <glyph glyph-name="underscore" unicode="_" horiz-adv-x="504" 
d="M0 -210h504v-30h-504v30z" />
    <glyph glyph-name="grave" unicode="`" horiz-adv-x="505" 
d="M309 590h-32l-125 162h54z" />
    <glyph glyph-name="a" unicode="a" horiz-adv-x="512" 
d="M499 -2q-5 0 -14.5 -1.5t-13.5 -1.5q-36 0 -52.5 23t-16.5 72q-31 -48 -85.5 -75t-125.5 -27q-70 0 -113 41t-43 107q0 72 49.5 107t159.5 51q18 3 42 5.5t36.5 4t28 4.5t23 6t15.5 8.5t10.5 13.5t2.5 19v44q0 53 -36 81.5t-105 28.5q-79 0 -124 -34t-49 -96h-30
q3 73 56.5 116t143.5 43q112 0 153 -61q23 -31 23 -108v-255q0 -52 8.5 -71.5t37.5 -19.5q5 0 19 2v-27zM402 301q-12 -17 -111 -28l-24 -3q-106 -13 -152.5 -41t-46.5 -88q0 -58 34 -89.5t98 -31.5q89 0 150 51q32 28 42 61.5t10 91.5v77z" />
    <glyph glyph-name="b" unicode="b" horiz-adv-x="578" 
d="M70 0v726h32v-321q55 132 198 132q106 0 168.5 -74t62.5 -202q0 -129 -62 -202t-169 -73q-138 0 -198 126v-112h-32zM102 261q0 -115 53.5 -180.5t144.5 -65.5t145 65.5t54 180.5q0 116 -54 181.5t-145 65.5t-144.5 -65.5t-53.5 -181.5z" />
    <glyph glyph-name="c" unicode="c" horiz-adv-x="525" 
d="M479 170q-9 -85 -65 -134t-142 -49q-103 0 -165 73.5t-62 201.5t62 201.5t168 73.5q83 0 135.5 -44t63.5 -121h-32q-10 63 -55.5 99.5t-111.5 36.5q-91 0 -144.5 -65t-53.5 -181t53.5 -181t144.5 -65q69 0 117 42t57 112h30z" />
    <glyph glyph-name="d" unicode="d" horiz-adv-x="578" 
d="M507 726v-726h-31v117q-51 -131 -198 -131q-107 0 -169 73t-62 202q0 128 62.5 202t168.5 74q71 0 123 -34t75 -93v316h31zM476 261q0 116 -53.5 181.5t-144.5 65.5t-145 -65.5t-54 -181.5q0 -115 54 -180.5t145 -65.5t144.5 65.5t53.5 180.5z" />
    <glyph glyph-name="e" unicode="e" horiz-adv-x="529" 
d="M476 155q-17 -76 -74.5 -122t-135.5 -46q-101 0 -161.5 73.5t-60.5 201.5t60.5 201.5t161.5 73.5q102 0 161 -68t59 -190v-19h-409v-8q0 -108 53 -172t136 -64q65 0 113 37t66 102h31zM78 289h374q0 101 -50 160t-130 59q-83 0 -135.5 -58t-58.5 -161z" />
    <glyph glyph-name="f" unicode="f" horiz-adv-x="245" 
d="M224 703q-3 0 -9 0.5t-9 0.5q-45 0 -58.5 -22t-13.5 -83v-74h88v-30h-88v-495h-31v495h-73v30h73v73q0 75 19.5 104t77.5 29q15 0 24 -1v-27z" />
    <glyph glyph-name="g" unicode="g" horiz-adv-x="578" 
d="M476 115q-26 -61 -78 -94.5t-122 -33.5q-105 0 -167 73.5t-62 202.5t62 202t169 73q72 0 124.5 -34.5t73.5 -94.5v116h31v-494q0 -51 -6 -84.5t-27 -64.5q-62 -91 -210 -91q-89 0 -142 42.5t-54 112.5h30q3 -59 48.5 -92.5t125.5 -33.5q130 0 181 88q11 20 16 46.5
t6 46.5t1 60v54zM476 263q0 116 -53.5 181t-144.5 65t-145 -65t-54 -181t54 -181t145 -65t144.5 65t53.5 181z" />
    <glyph glyph-name="h" unicode="h" 
d="M70 0v727h32v-288q52 98 177 98q180 0 180 -189v-348h-32v338q0 88 -34.5 129t-112.5 41q-87 0 -135 -54q-28 -31 -35.5 -69t-7.5 -104v-281h-32z" />
    <glyph glyph-name="i" unicode="i" horiz-adv-x="177" 
d="M73 642v85h32v-85h-32zM73 0v525h32v-525h-32z" />
    <glyph glyph-name="j" unicode="j" horiz-adv-x="176" 
d="M73 524h32v-606q0 -74 -17.5 -101t-76.5 -27h-19v31h12q48 0 58.5 20.5t10.5 87.5v595zM73 641v85h32v-85h-32z" />
    <glyph glyph-name="k" unicode="k" horiz-adv-x="463" 
d="M70 0v727h32v-501l302 299h40l-191 -191l221 -334h-36l-207 311l-129 -124v-187h-32z" />
    <glyph glyph-name="l" unicode="l" horiz-adv-x="177" 
d="M73 0v727h32v-727h-32z" />
    <glyph glyph-name="m" unicode="m" horiz-adv-x="825" 
d="M70 0v525h32v-86q52 98 164 98q60 0 100.5 -28.5t54.5 -79.5q54 108 171 108q165 0 165 -189v-348h-32v315q0 88 -15 124q-14 32 -45.5 50.5t-73.5 18.5q-78 0 -122 -54q-26 -31 -33 -68.5t-7 -102.5v-283h-31v315q0 88 -15 124q-14 32 -45.5 50.5t-73.5 18.5
q-77 0 -123 -54q-25 -31 -32 -68.5t-7 -102.5v-283h-32z" />
    <glyph glyph-name="n" unicode="n" 
d="M70 0v525h32v-86q52 98 177 98q180 0 180 -189v-348h-32v338q0 88 -34.5 129t-112.5 41q-87 0 -135 -54q-28 -31 -35.5 -69t-7.5 -104v-281h-32z" />
    <glyph glyph-name="o" unicode="o" horiz-adv-x="551" 
d="M45 262q0 128 62 201.5t168 73.5t168.5 -73.5t62.5 -201.5t-62.5 -201.5t-168.5 -73.5t-168 73.5t-62 201.5zM77 262q0 -116 53.5 -181t144.5 -65t145 65t54 181t-54 181t-145 65t-144.5 -65t-53.5 -181z" />
    <glyph glyph-name="p" unicode="p" horiz-adv-x="578" 
d="M70 -208v733h32v-120q51 132 198 132q107 0 169 -73t62 -202q0 -128 -62.5 -201.5t-168.5 -73.5q-72 0 -123 33t-75 95v-323h-32zM102 262q0 -116 53.5 -181t144.5 -65t145 65t54 181q0 115 -54 180.5t-145 65.5t-144.5 -65.5t-53.5 -180.5z" />
    <glyph glyph-name="q" unicode="q" horiz-adv-x="578" 
d="M476 114q-24 -62 -75 -95t-123 -33q-106 0 -168.5 73.5t-62.5 201.5q0 129 62.5 202.5t168.5 73.5q147 0 198 -133v121h31v-733h-31v322zM79 261q0 -116 54 -181t145 -65t144.5 65t53.5 181q0 115 -53.5 181t-144.5 66t-145 -66t-54 -181z" />
    <glyph glyph-name="r" unicode="r" horiz-adv-x="266" 
d="M70 0v525h32v-94q41 105 157 105v-32q-89 -4 -123 -62t-34 -187v-255h-32z" />
    <glyph glyph-name="s" unicode="s" horiz-adv-x="485" 
d="M107 307q-43 34 -43 91q0 60 49.5 99.5t130.5 39.5q75 0 122.5 -40.5t54.5 -110.5h-32q-17 122 -149 122q-64 0 -103 -30t-39 -76q0 -42 24.5 -64.5t77.5 -38.5q9 -3 20 -6t25 -7t23 -6q91 -23 130 -53.5t39 -90.5q0 -64 -52.5 -106.5t-134.5 -42.5q-87 0 -140 45
t-61 125h32q27 -139 168 -139q70 0 112.5 32.5t42.5 86.5q0 38 -25.5 62.5t-78.5 38.5q-7 2 -34 9t-35 9t-28.5 8t-29.5 9.5t-23.5 9t-24 11.5t-18.5 13z" />
    <glyph glyph-name="t" unicode="t" horiz-adv-x="245" 
d="M129 115q0 -31 0.5 -44.5t4.5 -29t12.5 -20.5t23.5 -5h54v-29h-54q-40 0 -56.5 22.5t-16.5 72.5v415h-92v28h92v143h32v-143h95v-28h-95v-382z" />
    <glyph glyph-name="u" unicode="u" 
d="M456 525v-525h-32v82q-51 -96 -176 -96q-180 0 -180 188v351h31v-341q0 -88 34.5 -128t113.5 -40q89 0 135 52q28 31 35 68.5t7 104.5v284h32z" />
    <glyph glyph-name="v" unicode="v" horiz-adv-x="448" 
d="M203 0l-195 525h33l180 -487l187 487h33l-202 -525h-36z" />
    <glyph glyph-name="w" unicode="w" horiz-adv-x="675" 
d="M179 0l-166 525h33l150 -475l125 475h29l128 -475l152 475h32l-167 -525h-33l-127 468l-123 -468h-33z" />
    <glyph glyph-name="x" unicode="x" horiz-adv-x="414" 
d="M32 0h-37l192 271l-184 254h38l166 -228l162 228h37l-181 -254l194 -271h-37l-176 246z" />
    <glyph glyph-name="y" unicode="y" horiz-adv-x="441" 
d="M205 -79q-26 -70 -51.5 -100.5t-66.5 -30.5q-24 0 -37 6v31q21 -6 38 -6q45 0 68 60l45 115l-195 529h31l181 -487l181 487h34z" />
    <glyph glyph-name="z" unicode="z" horiz-adv-x="441" 
d="M17 0v38l364 457h-344v30h376v-38l-363 -457h374v-30h-407z" />
    <glyph glyph-name="braceleft" unicode="{" horiz-adv-x="504" 
d="M416 729v-35h-19q-72 0 -94.5 -28t-22.5 -107v-119q0 -81 -18.5 -120.5t-76.5 -57.5q58 -18 76.5 -57.5t18.5 -120.5v-119q0 -79 22.5 -107t94.5 -28h19v-34h-17q-97 0 -128 40t-31 148v117q0 79 -28.5 111.5t-100.5 32.5q-3 0 -11 -0.5t-12 -0.5v36q9 -1 26 -1
q70 0 98 33t28 111v117q0 108 31 148.5t128 40.5h17z" />
    <glyph glyph-name="bar" unicode="|" horiz-adv-x="504" 
d="M234 772h36v-1010h-36v1010z" />
    <glyph glyph-name="braceright" unicode="}" horiz-adv-x="505" 
d="M90 729h17q96 0 127 -40.5t31 -148.5v-117q0 -78 28.5 -111t98.5 -33q17 0 26 1v-36q-4 0 -12 0.5t-11 0.5q-72 0 -101 -32.5t-29 -111.5v-117q0 -108 -31 -148t-127 -40h-17v35h20q71 0 93 27.5t22 106.5v119q0 81 19 120.5t77 57.5q-58 18 -77 57.5t-19 120.5v119
q0 79 -22 107t-94 28h-19v35z" />
    <glyph glyph-name="asciitilde" unicode="~" horiz-adv-x="841" 
d="M754 360v-36q-103 -73 -191 -73q-53 0 -142 33q-4 1 -20 7.5t-21.5 8t-19 6.5t-21 6.5t-19 4t-21.5 3.5t-20 1q-78 0 -191 -80v37q102 74 191 74q37 0 95 -20q13 -5 47 -17t50.5 -17.5t43 -11t48.5 -5.5q79 0 191 79z" />
    <glyph glyph-name="sterling" unicode="&#xa3;" 
d="M34 27q130 88 130 209q0 42 -20 94h-114v29h98q-71 118 -71 174q0 75 57 125t148 50q98 0 152 -56.5t55 -160.5h-31q-4 91 -48.5 138.5t-124.5 47.5q-76 0 -123.5 -40.5t-47.5 -102.5q0 -51 74 -175h144v-29h-131q18 -46 18 -90q0 -98 -93 -190q42 11 64 11q33 0 91 -22
t84 -22q35 0 70 17t60 47l21 -25q-73 -73 -150 -73q-33 0 -95 22.5t-94 22.5q-45 0 -100 -31z" />
    <glyph glyph-name="currency" unicode="&#xa4;" horiz-adv-x="612" 
d="M75 696l102 -102q58 46 129 46q72 0 130 -46l101 102l30 -30l-102 -101q45 -57 45 -129t-45 -129l102 -101l-30 -30l-101 102q-57 -45 -130 -45q-72 0 -129 45l-102 -102l-29 30l102 101q-45 57 -45 129t45 129l-102 101zM307 600q-68 0 -116 -48t-48 -115q0 -68 48 -116
t116 -48t116 48t48 116t-48 115.5t-116 47.5z" />
    <glyph glyph-name="brokenbar" unicode="&#xa6;" horiz-adv-x="504" 
d="M234 706h36v-373h-36v373zM234 201h36v-373h-36v373z" />
    <glyph glyph-name="section" unicode="&#xa7;" horiz-adv-x="505" 
d="M167 247l162 -79q46 27 67.5 55t21.5 64q0 80 -106 129l-134 62q-92 -38 -92 -117q0 -73 81 -114zM84 72h30v-14q0 -61 33 -94.5t94 -33.5q62 0 97 31t35 84q0 38 -19.5 63t-62.5 46l-132 65q-104 51 -104 138q0 94 96 142q-49 40 -49 102q0 61 41.5 101t109.5 40
q75 0 116 -43t41 -123h-32q0 65 -31.5 100.5t-89.5 35.5q-55 0 -89 -31t-34 -79q0 -41 25 -67t80 -51l78 -37q131 -60 131 -155q0 -89 -97 -142q53 -39 53 -109q0 -62 -44 -101t-116 -39q-76 0 -118.5 39t-42.5 110q0 14 1 22z" />
    <glyph glyph-name="copyright" unicode="&#xa9;" horiz-adv-x="841" 
d="M420 713q149 0 256 -105q104 -106 104 -254q0 -151 -103 -252q-110 -108 -257 -108t-252 107q-107 105 -107 253q0 146 107 255q102 104 252 104zM420 681q-137 0 -229 -95q-98 -98 -98 -232q0 -135 97 -230q96 -98 230 -98t233 99q95 90 95 229q0 138 -95 231
q-95 96 -233 96zM583 454h-40q-11 44 -43 68t-79 24q-67 0 -105 -51t-38 -142q0 -88 39.5 -139t103.5 -51q50 0 85.5 28.5t43.5 74.5h37q-5 -59 -53 -97.5t-117 -38.5q-83 0 -133 60t-50 163q0 104 52 164.5t138 60.5q63 0 107.5 -34.5t51.5 -89.5z" />
    <glyph glyph-name="guillemotleft" unicode="&#xab;" horiz-adv-x="374" 
d="M293 103l-126 160l126 152h41l-124 -152l124 -160h-41zM170 103l-126 160l126 152h40l-123 -152l123 -160h-40z" />
    <glyph glyph-name="logicalnot" unicode="&#xac;" horiz-adv-x="841" 
d="M125 421h591v-247h-30v217h-561v30z" />
    <glyph glyph-name="registered" unicode="&#xae;" horiz-adv-x="841" 
d="M420 713q149 0 256 -104q104 -106 104 -255q0 -150 -103 -251q-111 -109 -257 -109q-147 0 -252 107q-107 105 -107 253q0 146 107 255q102 104 252 104zM420 681q-138 0 -230 -95q-97 -97 -97 -232q0 -134 98 -230q96 -98 229 -98q135 0 234 99q94 91 94 229
q0 137 -96 231q-96 96 -232 96zM283 569h149q88 0 129.5 -27.5t41.5 -88.5q0 -43 -28 -72.5t-74 -34.5l95 -196h-52l-90 189h-128v-189h-43v419zM326 534v-160h94q72 0 102 17t30 65q0 41 -32 59.5t-99 18.5h-95z" />
    <glyph glyph-name="degree" unicode="&#xb0;" horiz-adv-x="333" 
d="M167 714q54 0 93 -39t39 -94q0 -54 -38.5 -93t-94.5 -39t-94 38t-38 94t39 94.5t94 38.5zM167 689q-45 0 -76.5 -31t-31.5 -77t31.5 -77t76.5 -31t76 31.5t31 76.5t-31 76.5t-76 31.5z" />
    <glyph glyph-name="plusminus" unicode="&#xb1;" horiz-adv-x="841" 
d="M406 568h30v-176h280v-30h-280v-177h-30v177h-281v30h281v176zM125 66h591v-31h-591v31z" />
    <glyph glyph-name="mu" unicode="&#xb5;" horiz-adv-x="513" 
d="M99 522h33l-60 -288q-11 -53 -11 -82q0 -65 33 -100t93 -35q65 0 117.5 60t75.5 168l58 277h35l-95 -438q-3 -15 -3 -29q0 -35 39 -35q11 0 18 1l-6 -31q-9 -2 -25 -2q-60 0 -60 56q0 11 5 38q-62 -100 -170 -100q-53 0 -89.5 27t-47.5 74l-61 -293h-35z" />
    <glyph glyph-name="mu" unicode="&#x3bc;" horiz-adv-x="513" 
d="M99 522h33l-60 -288q-11 -53 -11 -82q0 -65 33 -100t93 -35q65 0 117.5 60t75.5 168l58 277h35l-95 -438q-3 -15 -3 -29q0 -35 39 -35q11 0 18 1l-6 -31q-9 -2 -25 -2q-60 0 -60 56q0 11 5 38q-62 -100 -170 -100q-53 0 -89.5 27t-47.5 74l-61 -293h-35z" />
    <glyph glyph-name="paragraph" unicode="&#xb6;" horiz-adv-x="504" 
d="M243 730h213v-29h-66v-701h-28v701h-98v-701h-28v386q-87 4 -137.5 51t-50.5 121q0 77 53 124.5t142 47.5z" />
    <glyph glyph-name="periodcentered" unicode="&#xb7;" horiz-adv-x="262" 
d="M131 310q-14 0 -23.5 9.5t-9.5 22.5q0 14 10 23.5t23 9.5q14 0 23.5 -9.5t9.5 -23.5q0 -13 -9.5 -22.5t-23.5 -9.5z" />
    <glyph glyph-name="periodcentered" unicode="&#x2219;" horiz-adv-x="262" 
d="M131 310q-14 0 -23.5 9.5t-9.5 22.5q0 14 10 23.5t23 9.5q14 0 23.5 -9.5t9.5 -23.5q0 -13 -9.5 -22.5t-23.5 -9.5z" />
    <glyph glyph-name="guillemotright" unicode="&#xbb;" horiz-adv-x="374" 
d="M81 415l126 -161l-126 -151h-41l124 151l-124 161h41zM204 415l126 -161l-126 -151h-40l123 151l-123 161h40z" />
    <glyph glyph-name="afii10023" unicode="&#x401;" horiz-adv-x="573" 
d="M83 0v726h443v-33h-409v-300h374v-31h-374v-330h419v-32h-453zM210 839v56h45v-56h-45zM366 839v56h46v-56h-46z" />
    <glyph glyph-name="afii10051" unicode="&#x402;" horiz-adv-x="780" 
d="M270 333v-333h-34v695h-230v32h530v-32h-266v-327q92 30 201 30q48 0 89 -10.5t76.5 -33t55.5 -65t20 -101.5q0 -98 -55.5 -149.5t-135.5 -51.5q-68 0 -129 22l13 27q38 -16 59 -19.5t58 -3.5q67 0 111.5 42t44.5 114q0 112 -58 155.5t-165 43.5q-104 0 -185 -35z" />
    <glyph glyph-name="afii10052" unicode="&#x403;" horiz-adv-x="514" 
d="M84 727h419v-33h-385v-694h-34v727zM254 765l103 162h54l-125 -162h-32z" />
    <glyph glyph-name="afii10053" unicode="&#x404;" horiz-adv-x="687" 
d="M438 403v-30h-350v-12q0 -163 70 -254.5t190 -91.5q111 0 179 60.5t74 165.5h33q-7 -118 -83 -187t-198 -69q-142 0 -222 99.5t-80 277.5q0 181 82 281t226 100q111 0 187 -63t86 -164h-34q-16 93 -80 144.5t-165 51.5q-112 0 -183.5 -81.5t-81.5 -227.5h350z" />
    <glyph glyph-name="afii10054" unicode="&#x405;" horiz-adv-x="579" 
d="M115 433q-51 47 -51 120q0 85 59 137.5t159 52.5q102 0 167 -59.5t65 -153.5h-32q0 84 -56 134t-146 50q-86 0 -135 -44t-49 -117q0 -57 45 -98q25 -23 73 -39q18 -6 89 -25.5t99 -30.5q69 -26 100.5 -64t31.5 -103q0 -94 -65 -151.5t-176 -57.5q-106 0 -172.5 63
t-74.5 175h33q6 -96 64 -151.5t151 -55.5t149.5 47.5t56.5 121.5q0 59 -26.5 92t-86.5 56q-27 10 -95 29t-91 27q-61 21 -86 45z" />
    <glyph glyph-name="afii10055" unicode="&#x406;" horiz-adv-x="209" 
d="M88 0v727h33v-727h-33z" />
    <glyph glyph-name="afii10056" unicode="&#x407;" horiz-adv-x="209" 
d="M88 0v727h34v-727h-34zM34 814v85h34v-85h-34zM142 814v85h34v-85h-34z" />
    <glyph glyph-name="afii10057" unicode="&#x408;" horiz-adv-x="478" 
d="M39 227h32q0 -7 -0.5 -17t-0.5 -13q0 -93 36.5 -138t112.5 -45q85 0 117 50t32 158v505h34v-515q0 -116 -44 -172.5t-142 -56.5q-85 0 -131.5 51.5t-46.5 149.5q0 27 1 43z" />
    <glyph glyph-name="afii10058" unicode="&#x409;" horiz-adv-x="1054" 
d="M130 727h458v-336h181q81 0 129 -11t81 -44q54 -54 54 -144q0 -99 -64 -145.5t-197 -46.5h-217v696h-391v-343q0 -353 -135 -353q-2 0 -44 3v35q3 0 17 -2t26 -2q19 0 34 9.5t25.5 29.5t18 40t12 52.5t7.5 55t4 59t1 53v47.5v347zM588 361v-330h160q130 0 177 26
q73 40 73 132q0 55 -22.5 95.5t-60.5 57.5q-43 19 -168 19h-159z" />
    <glyph glyph-name="afii10059" unicode="&#x40a;" horiz-adv-x="1094" 
d="M794 0h-218v373h-459v-373h-35v727h35v-324h459v324h34v-324h182q122 0 192.5 -52t70.5 -159q0 -99 -64 -145.5t-197 -46.5zM770 31q130 0 177 26q73 40 73 132q0 55 -22.5 95.5t-60.5 57.5q-70 31 -167 31h-160v-342h160z" />
    <glyph glyph-name="afii10060" unicode="&#x40b;" horiz-adv-x="780" 
d="M277 333v-333h-34v695h-230v32h530v-32h-266v-327q92 30 201 30q48 0 89 -10.5t76.5 -33.5t55.5 -65.5t20 -100.5v-188h-33v185q0 183 -224 183q-104 0 -185 -35z" />
    <glyph glyph-name="afii10061" unicode="&#x40c;" horiz-adv-x="587" 
d="M82 0v727h35v-409l403 409h43l-287 -291l331 -436h-41l-312 412l-137 -139v-273h-35zM265 765l103 162h54l-125 -162h-32z" />
    <glyph glyph-name="afii10062" unicode="&#x40e;" horiz-adv-x="536" 
d="M40 727l249 -564l206 564h39l-251 -656q-20 -48 -46 -68t-68 -20q-2 0 -38 4v31q23 -5 38 -5q32 1 50.5 17.5t36.5 56.5l16 42l-271 598h39zM154 899q9 -105 111 -105q100 0 109 105h30q-1 -61 -36.5 -97t-103.5 -36t-103.5 36t-36.5 97h30z" />
    <glyph glyph-name="afii10145" unicode="&#x40f;" horiz-adv-x="693" 
d="M83 0v726h34v-695h460v695h33v-726h-245v-183h-32v183h-250z" />
    <glyph glyph-name="afii10017" unicode="&#x410;" horiz-adv-x="580" 
d="M135 278h315l-156 409zM-6 0l281 727h38l276 -727h-33l-94 248h-339l-95 -248h-34z" />
    <glyph glyph-name="afii10018" unicode="&#x411;" horiz-adv-x="595" 
d="M271 31q130 0 177 26q73 40 73 132q0 47 -13.5 79.5t-33.5 50.5t-56 27.5t-67.5 12t-80.5 2.5h-159v-330h160zM295 0h-218v727h444v-31h-410v-305h181q128 0 196 -44t68 -155q0 -99 -64 -145.5t-197 -46.5z" />
    <glyph glyph-name="afii10019" unicode="&#x412;" horiz-adv-x="624" 
d="M117 31h180q119 0 163 18q42 17 65.5 56.5t23.5 94.5q0 88 -60.5 126.5t-190.5 38.5h-181v-334zM117 391h169q115 0 171 38t56 120q0 84 -54.5 115.5t-174.5 31.5h-167v-305zM83 0v727h198q135 0 188 -32q78 -45 78 -148q0 -61 -35.5 -105.5t-104.5 -60.5
q87 -7 132 -56.5t45 -130.5q0 -51 -22 -93t-60 -65q-57 -36 -198 -36h-221z" />
    <glyph glyph-name="afii10020" unicode="&#x413;" horiz-adv-x="514" 
d="M84 727h419v-33h-385v-694h-34v727z" />
    <glyph glyph-name="afii10021" unicode="&#x414;" horiz-adv-x="696" 
d="M576 696h-381v-345q0 -107 -19 -193t-54 -127h454v665zM26 31h56q43 55 61 132.5t18 230.5v332h449v-695h70v-207h-32v176h-589v-176h-33v207z" />
    <glyph glyph-name="afii10022" unicode="&#x415;" horiz-adv-x="573" 
d="M83 0v727h443v-33h-409v-300h374v-31h-374v-330h419v-33h-453z" />
    <glyph glyph-name="afii10024" unicode="&#x416;" horiz-adv-x="930" 
d="M603 404l-121 -131v-273h-34v273l-121 131l-306 -404h-41l325 428l-281 299h43l381 -409v409h34v-409l381 409h43l-281 -299l325 -428h-41z" />
    <glyph glyph-name="afii10025" unicode="&#x417;" horiz-adv-x="611" 
d="M245 365v26h41q112 0 167 45t55 118q0 75 -58 116.5t-143 41.5q-89 0 -152 -52t-67 -130h-32q5 91 74.5 152t174.5 61q110 0 173.5 -49.5t63.5 -141.5q0 -64 -40 -114t-110 -58q83 -11 131.5 -62.5t48.5 -125.5q0 -72 -37 -120.5t-93 -68t-130 -19.5q-121 0 -194.5 63
t-79.5 175h34q6 -95 71 -151t164 -56q46 0 84.5 9t72 28.5t53 55t19.5 84.5q0 81 -66.5 127t-184.5 46h-40z" />
    <glyph glyph-name="afii10026" unicode="&#x418;" horiz-adv-x="688" 
d="M606 0h-34v668l-456 -668h-34v727h34v-669l455 669h35v-727z" />
    <glyph glyph-name="afii10027" unicode="&#x419;" horiz-adv-x="688" 
d="M606 0h-34v667l-456 -667h-34v726h34v-669l455 669h35v-726zM203 899h34q0 -105 107 -105q51 0 79.5 27t28.5 78h34q0 -55 -39.5 -94.5t-102.5 -39.5q-68 0 -104.5 36.5t-36.5 97.5z" />
    <glyph glyph-name="afii10028" unicode="&#x41a;" horiz-adv-x="587" 
d="M82 0v727h35v-409l403 409h43l-287 -291l331 -436h-41l-312 412l-137 -139v-273h-35z" />
    <glyph glyph-name="afii10029" unicode="&#x41b;" horiz-adv-x="671" 
d="M-15 38q3 0 17 -2t26 -2q32 0 53.5 30.5t32 86.5t14 112.5t3.5 130.5v333h457v-727h-33v696h-390v-345q0 -63 -5.5 -118t-19 -111t-42 -89t-69.5 -33q-2 0 -44 3v35z" />
    <glyph glyph-name="afii10030" unicode="&#x41c;" horiz-adv-x="781" 
d="M83 0v727h48l260 -684l260 684h47v-727h-30v684l-262 -684h-32l-261 684v-684h-30z" />
    <glyph glyph-name="afii10031" unicode="&#x41d;" horiz-adv-x="692" 
d="M82 0v727h34v-324h460v324h34v-727h-34v373h-460v-373h-34z" />
    <glyph glyph-name="afii10032" unicode="&#x41e;" horiz-adv-x="749" 
d="M53 363q0 177 86 278.5t235 101.5q150 0 236 -101.5t86 -278.5t-86 -278t-236 -101t-235.5 101t-85.5 278zM88 363q0 -163 76 -255.5t210 -92.5t210.5 92.5t76.5 255.5t-76.5 256t-210.5 93t-210 -93t-76 -256z" />
    <glyph glyph-name="afii10033" unicode="&#x41f;" horiz-adv-x="692" 
d="M82 0v727h528v-727h-35v697h-459v-697h-34z" />
    <glyph glyph-name="afii10034" unicode="&#x420;" horiz-adv-x="581" 
d="M256 696h-139v-330h138q126 0 169 19q38 17 60.5 57.5t22.5 95.5q0 92 -73 132q-47 26 -178 26zM281 727q132 0 196.5 -46.5t64.5 -145.5q0 -90 -54 -144q-33 -33 -81 -44t-129 -11h-161v-336h-34v727h198z" />
    <glyph glyph-name="afii10035" unicode="&#x421;" horiz-adv-x="687" 
d="M634 241q-7 -118 -83 -187t-198 -69q-142 0 -222 99.5t-80 277.5q0 181 82 281t226 100q111 0 187 -63t86 -164h-34q-16 93 -80 144.5t-165 51.5q-121 0 -194 -93t-73 -257q0 -163 70.5 -255t191.5 -92q111 0 179 60.5t74 165.5h33z" />
    <glyph glyph-name="afii10036" unicode="&#x422;" horiz-adv-x="515" 
d="M243 0v695h-230v32h490v-32h-226v-695h-34z" />
    <glyph glyph-name="afii10037" unicode="&#x423;" horiz-adv-x="536" 
d="M40 727l249 -564l206 564h39l-251 -656q-20 -48 -46 -68t-68 -20q-2 0 -38 4v31q23 -5 38 -5q32 1 50.5 17.5t36.5 56.5l16 42l-271 598h39z" />
    <glyph glyph-name="afii10038" unicode="&#x424;" horiz-adv-x="828" 
d="M396 0v93q-75 0 -138.5 16.5t-113.5 50t-78.5 89.5t-28.5 130q0 135 95 208.5t264 73.5v82h34v-82q169 0 264 -73.5t95 -208.5q0 -74 -28.5 -130t-78.5 -89.5t-113.5 -50t-138.5 -16.5v-93h-34zM396 124v507q-142 0 -232.5 -62t-90.5 -190q0 -129 87.5 -192t235.5 -63z
M430 631v-507q148 0 235.5 63t87.5 192q0 128 -90.5 190t-232.5 62z" />
    <glyph glyph-name="afii10039" unicode="&#x425;" horiz-adv-x="536" 
d="M1 0l247 372l-236 355h40l216 -327l215 327h38l-233 -354l247 -373h-39l-230 343l-227 -343h-38z" />
    <glyph glyph-name="afii10040" unicode="&#x426;" horiz-adv-x="693" 
d="M83 0v726h34v-695h460v695h33v-695h58v-207h-32v176h-553z" />
    <glyph glyph-name="afii10041" unicode="&#x427;" horiz-adv-x="621" 
d="M511 0v359q-92 -30 -201 -30q-48 0 -89 10.5t-76.5 33.5t-55.5 65.5t-20 100.5v188h33v-185q0 -183 224 -183q104 0 185 35v333h33v-727h-33z" />
    <glyph glyph-name="afii10042" unicode="&#x428;" horiz-adv-x="984" 
d="M900 727v-727h-817v727h35v-696h356v696h34v-696h357v696h35z" />
    <glyph glyph-name="afii10043" unicode="&#x429;" horiz-adv-x="990" 
d="M957 32v-207h-32v175h-842v727h35v-696h356v696h34v-696h357v696h35v-695h57z" />
    <glyph glyph-name="afii10044" unicode="&#x42a;" horiz-adv-x="654" 
d="M329 31q131 0 178 26q73 40 73 132q0 55 -22.5 95.5t-60.5 57.5q-43 19 -169 19h-158v-330h159zM354 0h-219v696h-169v31h204v-336h181q81 0 129 -11t81 -44q54 -54 54 -144q0 -99 -64.5 -145.5t-196.5 -46.5z" />
    <glyph glyph-name="afii10045" unicode="&#x42b;" horiz-adv-x="812" 
d="M284 31q130 0 178 26q72 40 72 132q0 55 -22.5 95.5t-60.5 57.5q-43 19 -168 19h-159v-330h160zM308 0h-218v727h34v-336h181q81 0 128.5 -10.5t81.5 -44.5q55 -57 55 -144q0 -99 -64.5 -145.5t-197.5 -46.5zM694 0v727h33v-727h-33z" />
    <glyph glyph-name="afii10046" unicode="&#x42c;" horiz-adv-x="613" 
d="M289 31q130 0 177 26q73 40 73 132q0 55 -22.5 95.5t-60.5 57.5q-43 19 -168 19h-159v-330h160zM313 0h-218v727h34v-336h181q81 0 129 -11t81 -44q54 -54 54 -144q0 -99 -64 -145.5t-197 -46.5z" />
    <glyph glyph-name="afii10047" unicode="&#x42d;" horiz-adv-x="687" 
d="M246 373v30h350q-10 146 -81.5 227.5t-183.5 81.5q-101 0 -165 -51.5t-80 -144.5h-34q10 101 86 164t187 63q144 0 226 -100t82 -281q0 -178 -80 -277.5t-222 -99.5q-122 0 -198 69t-83 187h33q6 -105 74 -165.5t179 -60.5q123 0 194 95t68 263h-352z" />
    <glyph glyph-name="afii10048" unicode="&#x42e;" horiz-adv-x="1002" 
d="M627 743q150 0 236 -101.5t86 -278.5t-86 -278t-236 -101t-235.5 101t-85.5 278v10h-182v-373h-34v727h34v-324h182q10 161 95 250.5t226 89.5zM341 363q0 -163 76 -255.5t210 -92.5t210.5 92.5t76.5 255.5t-76.5 256t-210.5 93t-210 -93t-76 -256z" />
    <glyph glyph-name="afii10049" unicode="&#x42f;" horiz-adv-x="581" 
d="M453 696h-162q-108 0 -168 -34t-60 -124q0 -97 54 -134.5t153 -37.5h183v330zM289 727h198v-727h-34v336h-216l-174 -336h-40l179 340q-174 27 -174 195q0 99 64.5 145.5t196.5 46.5z" />
    <glyph glyph-name="afii10065" unicode="&#x430;" horiz-adv-x="512" 
d="M88 377h-30q3 73 56.5 116t143.5 43q112 0 153 -61q23 -34 23 -108v-255q0 -52 7.5 -67.5t38.5 -15.5h19v-29h-28q-39 0 -54 19.5t-15 68.5q-31 -48 -85.5 -75t-125.5 -27q-70 0 -113 41t-43 107q0 72 49.5 107t159.5 51q18 3 42 5.5t36.5 4t28 4.5t23 6t15.5 8.5
t10.5 13.5t2.5 19v44q0 53 -36 81.5t-105 28.5q-79 0 -124 -34t-49 -96zM402 299q-12 -17 -111 -28l-24 -3q-106 -13 -152.5 -41t-46.5 -88q0 -58 34 -89.5t98 -31.5q89 0 150 51q32 28 42 61.5t10 91.5v77z" />
    <glyph glyph-name="afii10066" unicode="&#x431;" horiz-adv-x="514" 
d="M262 -13q-100 0 -165 72t-65 212q0 206 56 294q53 84 178 106q22 4 50.5 7.5t42.5 5.5t29.5 6.5t23 13t10.5 22.5h29q-3 -11 -6 -19.5t-9 -15t-10.5 -11t-15.5 -8.5t-17 -6.5t-23 -5.5t-27 -4t-34 -4.5t-38 -5.5q-101 -15 -150 -80t-60 -189h9q10 32 32 59q31 38 77 57
t91 19q101 0 162 -67.5t61 -183.5q0 -128 -62.5 -201t-168.5 -73zM262 16q91 0 145 65t54 180q0 104 -53.5 164.5t-137.5 60.5q-37 0 -71.5 -12.5t-65.5 -37.5t-50 -70.5t-19 -104.5q0 -120 56.5 -182.5t141.5 -62.5z" />
    <glyph glyph-name="afii10067" unicode="&#x432;" horiz-adv-x="469" 
d="M61 525h179q77 0 122.5 -32t45.5 -96q0 -103 -121 -121q65 -7 106.5 -42.5t41.5 -88.5q0 -65 -45 -105t-116 -40h-213v525zM92 29h167q143 0 143 118q0 39 -30.5 66.5t-70 38.5t-80.5 11h-129v-234zM92 496v-205h129q69 0 111.5 25.5t42.5 80.5q0 45 -37.5 72t-111.5 27
h-134z" />
    <glyph glyph-name="afii10068" unicode="&#x433;" horiz-adv-x="431" 
d="M69 0v525h357v-29h-324v-496h-33z" />
    <glyph glyph-name="afii10069" unicode="&#x434;" horiz-adv-x="530" 
d="M15 28h46q66 88 66 264v233h335v-497h56v-162h-32v134h-439v-135h-32v163zM430 498h-271v-206q0 -183 -65 -264h336v470z" />
    <glyph glyph-name="afii10070" unicode="&#x435;" horiz-adv-x="510" 
d="M476 155q-17 -76 -74.5 -122t-135.5 -46q-101 0 -161.5 73.5t-60.5 201.5t60.5 201.5t161.5 73.5q102 0 161 -68t59 -190v-19h-409v-8q0 -108 53 -172t136 -64q65 0 113 37t66 102h31zM78 289h374q0 101 -50 160t-130 59q-83 0 -135.5 -58t-58.5 -161z" />
    <glyph glyph-name="afii10072" unicode="&#x436;" horiz-adv-x="715" 
d="M342 0v189l-113 118l-204 -307h-36l218 330l-186 195h39l282 -299v299h30v-299l282 299h39l-186 -195l218 -330h-36l-204 307l-113 -118v-189h-30z" />
    <glyph glyph-name="afii10073" unicode="&#x437;" horiz-adv-x="469" 
d="M236 289q145 0 145 111q0 46 -39 77t-100 31q-60 0 -99 -29.5t-52 -86.5h-32q12 65 59 105t122 40q82 0 128 -39.5t46 -99.5q0 -48 -27.5 -81.5t-69.5 -42.5q52 -12 85 -48.5t33 -89.5q0 -64 -55 -106.5t-140 -42.5q-87 0 -139 44.5t-60 125.5h32q3 -66 48.5 -103.5
t116.5 -37.5t117.5 33.5t46.5 87.5q0 60 -51.5 92t-131.5 32h-43v28h60z" />
    <glyph glyph-name="afii10074" unicode="&#x438;" horiz-adv-x="543" 
d="M70 0v525h32v-473l341 473h32v-525h-32v472l-341 -472h-32z" />
    <glyph glyph-name="afii10075" unicode="&#x439;" horiz-adv-x="542" 
d="M69 0v525h32v-473l341 473h32v-525h-32v472l-341 -472h-32zM166 726q9 -105 111 -105q100 0 109 105h30q-1 -62 -36.5 -98t-103.5 -36t-103.5 36t-36.5 98h30z" />
    <glyph glyph-name="afii10076" unicode="&#x43a;" horiz-adv-x="463" 
d="M70 0v525h32v-302l305 302h40l-195 -191l224 -334h-40l-207 310l-127 -126v-184h-32z" />
    <glyph glyph-name="afii10077" unicode="&#x43b;" horiz-adv-x="524" 
d="M142 495v-225q0 -49 -1.5 -82.5t-7.5 -74t-16.5 -64.5t-31 -40.5t-48.5 -15.5h-31v29h25q26 0 42.5 19.5t24 58.5t10 76.5t2.5 93.5v254h344v-524h-32v495h-280z" />
    <glyph glyph-name="afii10078" unicode="&#x43c;" horiz-adv-x="665" 
d="M103 525l231 -473l230 473h33v-525h-32v466l-216 -448h-31l-216 448v-466h-32v525h33z" />
    <glyph glyph-name="afii10079" unicode="&#x43d;" 
d="M70 0v525h32v-239h325v239h32v-525h-32v258h-325v-258h-32z" />
    <glyph glyph-name="afii10080" unicode="&#x43e;" horiz-adv-x="551" 
d="M45 262q0 128 62 201.5t168 73.5t168.5 -73.5t62.5 -201.5t-62.5 -201.5t-168.5 -73.5t-168 73.5t-62 201.5zM77 262q0 -116 53.5 -181t144.5 -65t145 65t54 181t-54 181t-145 65t-144.5 -65t-53.5 -181z" />
    <glyph glyph-name="afii10081" unicode="&#x43f;" 
d="M70 0v525h389v-525h-32v496h-325v-496h-32z" />
    <glyph glyph-name="afii10082" unicode="&#x440;" horiz-adv-x="578" 
d="M70 -208v733h32v-120q51 132 198 132q107 0 169 -73t62 -202q0 -128 -62.5 -201.5t-168.5 -73.5q-72 0 -123 33t-75 95v-323h-32zM102 262q0 -116 53.5 -181t144.5 -65t145 65t54 181q0 115 -54 180.5t-145 65.5t-144.5 -65.5t-53.5 -180.5z" />
    <glyph glyph-name="afii10083" unicode="&#x441;" horiz-adv-x="525" 
d="M479 170q-9 -85 -65 -134t-142 -49q-103 0 -165 73.5t-62 201.5t62 201.5t168 73.5q83 0 135.5 -44t63.5 -121h-32q-10 63 -55.5 99.5t-111.5 36.5q-91 0 -144.5 -65t-53.5 -181t53.5 -181t144.5 -65q69 0 117 42t57 112h30z" />
    <glyph glyph-name="afii10084" unicode="&#x442;" horiz-adv-x="471" 
d="M252 0h-32v496h-215v29h462v-29h-215v-496z" />
    <glyph glyph-name="afii10085" unicode="&#x443;" horiz-adv-x="441" 
d="M205 -79q-26 -70 -51.5 -100.5t-66.5 -30.5h-37v29h38q44 0 68 62l45 115l-195 529h31l181 -487l181 487h34z" />
    <glyph glyph-name="afii10086" unicode="&#x444;" horiz-adv-x="897" 
d="M465 725v-309q25 57 71.5 88.5t108.5 31.5q96 0 154 -74t58 -201q0 -128 -58 -202t-154 -74q-62 0 -108.5 31.5t-71.5 88.5v-314h-32v314q-25 -57 -71.5 -88.5t-108.5 -31.5q-96 0 -154 74t-58 202q0 127 58 201t154 74q62 0 108.5 -31.5t71.5 -88.5v309h32zM645 507
q-122 0 -165 -114q-15 -39 -15 -131q0 -78 15 -131q16 -55 61 -86t104 -31q82 0 131 65.5t49 181.5q0 115 -49 180.5t-131 65.5zM253 507q-82 0 -131 -65.5t-49 -180.5q0 -116 49 -181.5t131 -65.5q59 0 104 31t61 86q15 53 15 131q0 92 -15 131q-43 114 -165 114z" />
    <glyph glyph-name="afii10087" unicode="&#x445;" horiz-adv-x="414" 
d="M32 0h-37l192 271l-184 254h38l166 -228l162 228h37l-181 -254l194 -271h-37l-176 246z" />
    <glyph glyph-name="afii10088" unicode="&#x446;" horiz-adv-x="530" 
d="M70 0v525h32v-496h324v496h32v-496h57v-165h-32v136h-413z" />
    <glyph glyph-name="afii10089" unicode="&#x447;" horiz-adv-x="502" 
d="M432 525v-525h-32v257q-55 -42 -147 -42q-184 0 -184 186v124h32v-124q0 -79 35 -118t120 -39q37 0 64 6.5t39.5 13.5t40.5 26v235h32z" />
    <glyph glyph-name="afii10090" unicode="&#x448;" horiz-adv-x="773" 
d="M670 526h32v-526h-632v526h32v-497h268v497h32v-497h268v497z" />
    <glyph glyph-name="afii10091" unicode="&#x449;" horiz-adv-x="773" 
d="M670 525h32v-496h56v-165h-32v136h-656v525h32v-496h268v496h32v-496h268v496z" />
    <glyph glyph-name="afii10092" unicode="&#x44a;" horiz-adv-x="505" 
d="M268 290q106 0 154 -34.5t48 -109.5q0 -65 -45.5 -105.5t-116.5 -40.5h-200v496h-111v29h143v-235h128zM140 262v-233h156q64 0 102.5 30.5t38.5 87.5q0 62 -42.5 88.5t-137.5 26.5h-117z" />
    <glyph glyph-name="afii10093" unicode="&#x44b;" horiz-adv-x="637" 
d="M540 0v525h32v-525h-32zM222 290q106 0 154 -34.5t48 -109.5q0 -65 -45.5 -105.5t-116.5 -40.5h-200v525h32v-235h128zM94 262v-233h156q64 0 102.5 30.5t38.5 87.5q0 61 -42 88t-134 27h-121z" />
    <glyph glyph-name="afii10094" unicode="&#x44c;" horiz-adv-x="459" 
d="M222 290q106 0 154 -34.5t48 -109.5q0 -65 -45.5 -105.5t-116.5 -40.5h-200v525h32v-235h128zM94 262v-233h156q64 0 102.5 30.5t38.5 87.5q0 61 -42 88t-134 27h-121z" />
    <glyph glyph-name="afii10095" unicode="&#x44d;" horiz-adv-x="525" 
d="M195 287h252q-7 103 -58.5 161.5t-135.5 58.5q-67 0 -114 -37t-57 -99h-32q10 77 64.5 121t138.5 44q106 0 166 -73t60 -202q0 -128 -62 -201.5t-165 -73.5q-86 0 -142 49t-65 134h30q9 -70 57 -112t117 -42q90 0 143.5 64.5t54.5 179.5h-252v28z" />
    <glyph glyph-name="afii10096" unicode="&#x44e;" horiz-adv-x="722" 
d="M65 0v525h32v-237h120q8 116 69 182.5t161 66.5q106 0 168.5 -73.5t62.5 -201.5t-62.5 -201.5t-168.5 -73.5t-168.5 73t-62.5 200h-119v-260h-32zM248 260q0 -115 54 -179.5t145 -64.5t145 65t54 181t-54 181t-145 65t-145 -66t-54 -182z" />
    <glyph glyph-name="afii10097" unicode="&#x44f;" horiz-adv-x="459" 
d="M360 236h-147l-158 -236h-36l160 240q-75 8 -112.5 46.5t-37.5 95.5q0 74 49 108.5t126 34.5h188v-525h-32v236zM360 264v233h-157q-66 0 -103.5 -29.5t-37.5 -85.5q0 -54 45.5 -86t133.5 -32h119z" />
    <glyph glyph-name="afii10071" unicode="&#x451;" horiz-adv-x="529" 
d="M476 153q-17 -76 -74.5 -121.5t-135.5 -45.5q-101 0 -161.5 73.5t-60.5 200.5q0 128 60.5 201.5t161.5 73.5q102 0 161 -68t59 -190v-19h-409v-8q0 -107 53 -171.5t136 -64.5q65 0 113 37t66 102h31zM78 288h374q0 100 -50.5 159.5t-129.5 59.5q-83 0 -135.5 -58.5
t-58.5 -160.5zM168 632v56h45v-56h-45zM324 632v56h46v-56h-46z" />
    <glyph glyph-name="afii10099" unicode="&#x452;" horiz-adv-x="537" 
d="M80 0v610h-56v30h56v87h32v-87h175v-30h-175v-171q52 97 177 97q180 0 180 -188v-428q0 -74 -17.5 -101t-76.5 -27h-19v31h12q48 0 58.5 20.5t10.5 87.5v407q0 88 -34 128t-113 40q-89 0 -135 -52q-28 -31 -35.5 -69t-7.5 -104v-281h-32z" />
    <glyph glyph-name="afii10100" unicode="&#x453;" horiz-adv-x="431" 
d="M69 0v525h357v-29h-324v-496h-33zM222 551l72 90h55l-95 -90h-32z" />
    <glyph glyph-name="afii10101" unicode="&#x454;" horiz-adv-x="525" 
d="M329 287v-28h-252q1 -115 54.5 -179.5t143.5 -64.5q69 0 117 42t57 112h30q-9 -85 -65 -134t-142 -49q-103 0 -165 73.5t-62 201.5t62 201.5t168 73.5q83 0 135.5 -44t63.5 -121h-32q-10 63 -55.5 99.5t-111.5 36.5q-85 0 -138 -58.5t-60 -161.5h252z" />
    <glyph glyph-name="afii10102" unicode="&#x455;" horiz-adv-x="485" 
d="M249 17q70 0 112.5 32.5t42.5 86.5q0 38 -25.5 62.5t-78.5 38.5q-90 22 -107 28q-62 20 -95.5 49.5t-33.5 82.5q0 60 49.5 99.5t130.5 39.5q75 0 122.5 -40.5t54.5 -110.5h-32q-17 122 -149 122q-64 0 -103 -30t-39 -76q0 -42 24.5 -64.5t77.5 -38.5l49 -14t62.5 -18
t44.5 -16q42 -19 61.5 -45.5t19.5 -69.5q0 -64 -52.5 -106.5t-134.5 -42.5q-87 0 -140 45t-61 125h32q27 -139 168 -139z" />
    <glyph glyph-name="afii10103" unicode="&#x456;" horiz-adv-x="177" 
d="M73 641v85h31v-85h-31zM73 0v525h31v-525h-31z" />
    <glyph glyph-name="afii10104" unicode="&#x457;" horiz-adv-x="177" 
d="M72 0v525h32v-525h-32zM19 642v85h32v-85h-32zM125 642v85h32v-85h-32z" />
    <glyph glyph-name="afii10105" unicode="&#x458;" horiz-adv-x="176" 
d="M73 525h32v-606q0 -74 -17.5 -101t-76.5 -27h-19v31h12q48 0 58.5 20.5t10.5 87.5v595zM73 641v85h32v-85h-32z" />
    <glyph glyph-name="afii10106" unicode="&#x459;" horiz-adv-x="817" 
d="M142 495v-225q0 -49 -1.5 -82.5t-7.5 -74t-16.5 -64.5t-31 -40.5t-48.5 -15.5q-19 0 -31 3v29q10 -3 25 -3q26 0 42.5 19.5t24 58.5t10 76.5t2.5 93.5v254h344v-234h128q106 0 154 -34.5t48 -109.5q0 -65 -45.5 -105.5t-116.5 -40.5h-200v495h-280zM454 262v-233h156
q64 0 102.5 30.5t38.5 87.5q0 61 -42 88t-134 27h-121z" />
    <glyph glyph-name="afii10107" unicode="&#x45a;" horiz-adv-x="821" 
d="M459 286h128q107 0 154.5 -33t47.5 -107q0 -65 -45.5 -105.5t-116.5 -40.5h-200v258h-325v-258h-32v525h32v-239h325v239h32v-239zM580 258h-121v-229h156q64 0 102.5 30.5t38.5 87.5q0 61 -41.5 86t-134.5 25z" />
    <glyph glyph-name="afii10108" unicode="&#x45b;" horiz-adv-x="537" 
d="M80 0v610h-56v30h56v86h32v-86h175v-30h-175v-171q52 97 177 97q180 0 180 -188v-348h-32v338q0 88 -34 128t-113 40q-89 0 -135 -52q-28 -31 -35.5 -69t-7.5 -104v-281h-32z" />
    <glyph glyph-name="afii10109" unicode="&#x45c;" horiz-adv-x="463" 
d="M70 0v524h32v-298l302 298h39l-190 -190l221 -334h-36l-207 311l-129 -124v-187h-32zM203 549l72 90h55l-95 -90h-32z" />
    <glyph glyph-name="afii10110" unicode="&#x45e;" horiz-adv-x="441" 
d="M205 -79q-26 -70 -51.5 -100.5t-66.5 -30.5h-37v37q21 -6 38 -6q45 0 68 60l45 118l-195 526h31l181 -487l181 487h34zM122 724q9 -105 111 -105q100 0 109 105h30q-2 -134 -140 -134t-140 134h30z" />
    <glyph glyph-name="afii10193" unicode="&#x45f;" horiz-adv-x="526" 
d="M70 0v525h32v-496h324v496h32v-525h-177v-134h-32v134h-179z" />
    <glyph glyph-name="afii10050" unicode="&#x490;" horiz-adv-x="514" 
d="M84 727h387v172h32v-205h-385v-694h-34v727z" />
    <glyph glyph-name="afii10098" unicode="&#x491;" horiz-adv-x="431" 
d="M69 0v525h328v115h29v-144h-324v-496h-33z" />
    <glyph glyph-name="endash" unicode="&#x2013;" horiz-adv-x="504" 
d="M0 251v22h504v-22h-504z" />
    <glyph glyph-name="emdash" unicode="&#x2014;" horiz-adv-x="1010" 
d="M0 272h1010v-22h-1010v22z" />
    <glyph glyph-name="quoteleft" unicode="&#x2018;" horiz-adv-x="239" 
d="M173 529h-36l-71 197h35z" />
    <glyph glyph-name="quoteright" unicode="&#x2019;" horiz-adv-x="239" 
d="M66 529l71 197h35l-71 -197h-35z" />
    <glyph glyph-name="quotesinglbase" unicode="&#x201a;" horiz-adv-x="239" 
d="M47 -107l71 197h36l-71 -197h-36z" />
    <glyph glyph-name="quotedblleft" unicode="&#x201c;" horiz-adv-x="385" 
d="M173 529h-36l-70 197h34zM317 529h-35l-71 197h36z" />
    <glyph glyph-name="quotedblright" unicode="&#x201d;" horiz-adv-x="385" 
d="M67 529l70 197h35l-71 -197h-34zM211 529l72 197h34l-70 -197h-36z" />
    <glyph glyph-name="quotedblbase" unicode="&#x201e;" horiz-adv-x="385" 
d="M48 -103l70 197h36l-71 -197h-35zM193 -103l71 197h34l-70 -197h-35z" />
    <glyph glyph-name="dagger" unicode="&#x2020;" horiz-adv-x="504" 
d="M236 -106v588h-198v29h198v215h31v-215h199v-29h-199v-588h-31z" />
    <glyph glyph-name="bullet" unicode="&#x2022;" horiz-adv-x="596" 
d="M152 376q0 61 42.5 103t103.5 42q60 0 102.5 -42t42.5 -103q0 -60 -42.5 -103t-103.5 -43t-103 42.5t-42 103.5z" />
    <glyph glyph-name="ellipsis" unicode="&#x2026;" horiz-adv-x="1010" 
d="M149 0v87h32v-87h-32zM485 0v87h32v-87h-32zM822 0v87h32v-87h-32z" />
    <glyph glyph-name="perthousand" unicode="&#x2030;" horiz-adv-x="1127" 
d="M72 571q0 -51 36 -87t87 -36t87.5 36t36.5 87q0 52 -36 87.5t-88 35.5q-51 0 -87 -35.5t-36 -87.5zM41 572q0 65 44.5 110t108.5 45t109.5 -45.5t45.5 -109.5t-45 -109t-110 -45q-63 0 -108 45t-45 109zM148 -16l402 743h36l-405 -743h-33zM417 137q0 -52 36 -87.5
t87 -35.5t87 36t36 87t-36 87t-87 36q-52 0 -87.5 -36t-35.5 -87zM385 138q0 64 45 109t110 45q64 0 109 -45t45 -109t-45 -109t-109 -45t-109.5 45t-45.5 109zM808 138q0 -52 36.5 -88t87.5 -36t87.5 36.5t36.5 87.5t-36.5 87t-87.5 36t-87.5 -35.5t-36.5 -87.5zM777 138
q0 64 45 109t110 45q64 0 109 -45t45 -109t-45 -109t-109 -45t-109.5 45t-45.5 109z" />
    <glyph glyph-name="guilsinglleft" unicode="&#x2039;" horiz-adv-x="250" 
d="M169 103l-126 160l126 152h41l-123 -152l123 -160h-41z" />
    <glyph glyph-name="guilsinglright" unicode="&#x203a;" horiz-adv-x="250" 
d="M39 103l124 151l-124 161h42l126 -161l-126 -151h-42z" />
    <glyph glyph-name="Euro" unicode="&#x20ac;" 
d="M484 652v-40q-58 61 -154 61q-92 0 -143 -71.5t-60 -181.5h306l-10 -31h-299q-1 -12 -1 -46q0 -9 0.5 -24.5t0.5 -20.5h269l-10 -30h-256q12 -123 64.5 -189.5t138.5 -66.5q91 0 154 61v-40q-53 -53 -157 -53q-205 0 -233 288h-63l11 30h49q0 5 -0.5 21.5t-0.5 23.5
q0 8 0.5 24t0.5 22h-60l11 31h52q12 130 68.5 208t165.5 78q100 0 156 -54z" />
    <glyph glyph-name="afii61352" unicode="&#x2116;" horiz-adv-x="1025" 
d="M82 0v727h35l455 -669v669h34v-727h-34l-456 668v-668h-34zM653 449q0 90 46.5 141t126.5 51t127 -51.5t47 -140.5q0 -90 -47 -141.5t-127 -51.5t-126.5 51.5t-46.5 141.5zM677 449q0 -81 40.5 -127t108.5 -46t108.5 46t40.5 127q0 80 -40.5 125.5t-108.5 45.5
t-108.5 -45.5t-40.5 -125.5zM676 167v18h298v-18h-298z" />
    <glyph glyph-name="trademark" unicode="&#x2122;" horiz-adv-x="841" 
d="M140 716h202v-20h-85v-239h-29v239h-88v20zM408 716h43l89 -224l83 224h43v-259h-24v241l-91 -241h-22l-97 241v-241h-24v259z" />
    </font>
</defs>
</svg>
