<?xml version="1.0" encoding="utf-8"?><svg xmlns="http://www.w3.org/2000/svg" xmlns:xlink="http://www.w3.org/1999/xlink"><symbol viewBox="0 0 11 7" id="icon-dropdown-arrow" xmlns="http://www.w3.org/2000/svg"><path d="M9 0l1.343 1.482-5.171 4.689L0 1.482 1.343 0l3.829 3.471z"/></symbol><symbol viewBox="0 0 21 17" id="icon-link-arrow" xmlns="http://www.w3.org/2000/svg"><path d="M19.293 8l-6.647-6.646a.5.5 0 0 1 .708-.708l7.5 7.5a.5.5 0 0 1 0 .708l-7.5 7.5a.5.5 0 0 1-.708-.708L19.293 9H1a.5.5 0 0 1 0-1h18.293z"/></symbol><symbol viewBox="0 0 23 21" id="icon-search" xmlns="http://www.w3.org/2000/svg"><path d="M5.635.87l.066-.016c1.891-.462 3.964-.138 5.61.906a7.338 7.338 0 0 1 2.393 2.443 7.283 7.283 0 0 1 1.03 4.015 7.278 7.278 0 0 1-1.162 3.694l8.318 6.181c.286.248.27.688.112 1.003-.2.4-.502.773-.913.968l-.214.053c-.17.01-.355-.02-.488-.134l-7.854-6.803a7.318 7.318 0 0 1-3.592 1.918 7.292 7.292 0 0 1-6.795-2.113A7.328 7.328 0 0 1 .347 9.711a7.364 7.364 0 0 1 .11-3.914 7.272 7.272 0 0 1 1.761-2.955A7.347 7.347 0 0 1 5.635.87zm.017.635a6.731 6.731 0 0 0-2.404 1.234 6.652 6.652 0 0 0-1.983 2.64 6.717 6.717 0 0 0-.42 3.703 6.71 6.71 0 0 0 1.631 3.353 6.7 6.7 0 0 0 6.82 1.94 6.678 6.678 0 0 0 4.672-4.996 6.67 6.67 0 0 0-1.681-6.031 6.704 6.704 0 0 0-6.634-1.843zM2.806 11.11l.526-.336A4.902 4.902 0 0 0 6.1 12.858c1.173.343 2.495.185 3.524-.485.115.174.223.351.337.525-.648.419-1.4.672-2.168.74-1 .092-2.02-.129-2.905-.6a5.558 5.558 0 0 1-2.08-1.928z"/></symbol><symbol viewBox="0 0 48 48" id="icon-search-2" xmlns="http://www.w3.org/2000/svg"><path d="M30.88 28.78l16.29 16.29a1.5 1.5 0 0 1-2.12 2.12L28.757 30.9A17.43 17.43 0 0 1 17.5 35C7.835 35 0 27.165 0 17.5S7.835 0 17.5 0 35 7.835 35 17.5a17.43 17.43 0 0 1-4.12 11.28zm-2.974-1.182A14.452 14.452 0 0 0 32 17.5C32 9.492 25.508 3 17.5 3S3 9.492 3 17.5 9.492 32 17.5 32c3.917 0 7.47-1.553 10.08-4.076a1.512 1.512 0 0 1 .326-.326z"/></symbol><symbol viewBox="0 0 404.258 404.258" id="next" xmlns="http://www.w3.org/2000/svg"><path d="M138.331 0l-24 18 138.096 184.129-138.096 184.129 24 18 151.596-202.129z"/></symbol></svg>