<svg fill="none" height="16" viewBox="0 0 90 16" width="90" xmlns="http://www.w3.org/2000/svg"><path d="m9.53125 9.18945h-5.44922l-1.01562 5.81055h-2.861332l2.470702-14.21875h9.00392l-.4199 2.37305h-6.13285l-.64453 3.67187h5.46875zm4.44335 5.81055h-2.8613l2.4609-14.21875h2.8613zm13.9551 0h-2.7735l-3.955-9.48242-1.6504 9.48242h-2.8613l2.4707-14.21875h2.7636l3.9649 9.50195 1.6504-9.50195h2.8515zm2.5683 0 2.4708-14.21875 4.082.009766c.957.019531 1.8164.237634 2.5781.654294.7682.41016 1.39 1.00261 1.8652 1.77735.4753.77474.7618 1.64713.8594 2.61718.0521.56641.0456 1.14584-.0195 1.73828l-.0684.51758c-.2864 2.0833-1.1067 3.7565-2.4609 5.0195-1.3477 1.2565-2.985 1.8848-4.9121 1.8848zm4.9219-11.8457-1.6504 9.4922 1.1914.0097c1.3151 0 2.3698-.4817 3.1641-1.4453.8008-.9635 1.2598-2.41858 1.377-4.3652l.0195-.3125c.0195-1.07422-.1856-1.89778-.6153-2.4707-.4296-.57292-1.0709-.8724-1.9238-.89844zm17.1192 6.03515h-5.4493l-1.0156 5.81055h-2.8613l2.4707-14.21875h9.0039l-.4199 2.37305h-6.1328l-.6446 3.67187h5.4688zm7.8808 2.88085h-4.9609l-1.4649 2.9297h-3.1543l7.5977-14.21875h2.6465l2.7051 14.21875h-2.92zm-3.789-2.37303h3.4277l-.8008-5.29297zm19.9707.55663c-.1107.9831-.446 1.8555-1.0059 2.6172-.5599.7552-1.2891 1.3379-2.1875 1.748-.8984.4037-1.8685.5957-2.9102.5762-.9375-.0195-1.7545-.2344-2.4511-.6445-.6966-.4167-1.2468-1.0156-1.6504-1.7969-.3972-.7878-.6218-1.6927-.6738-2.7148-.0456-.80082.0358-1.79691.2441-2.98832.2148-1.1914.5924-2.24935 1.1328-3.17383.5469-.92448 1.1947-1.6569 1.9434-2.19726 1.0547-.755211 2.2591-1.119794 3.6132-1.093752 1.4714.026041 2.6368.481772 3.4961 1.367182.8659.87891 1.3412 2.10287 1.4258 3.67188l-2.8515-.00977c0-.89843-.1791-1.55599-.5371-1.97265-.3581-.41667-.9148-.63802-1.67-.66406-.9765-.03256-1.7806.31575-2.4121 1.04492-.625.72916-1.0449 1.79362-1.2597 3.19336-.2084 1.36067-.2995 2.37955-.2735 3.0566.0326.8594.2246 1.4942.5762 1.9043.3516.4037.8431.6153 1.4746.6348.8724.0326 1.569-.1725 2.0898-.6152.5274-.4493.8757-1.0905 1.045-1.9239zm10.5859-1.41601h-5.4492l-.6641 3.80861h6.4063l-.4102 2.3535h-9.2676l2.4707-14.21875h9.2481l-.4199 2.37305h-6.377l-.5957 3.38867h5.4688z" fill="#fff"/></svg>