<svg height="59" viewBox="0 0 69 59" width="69" xmlns="http://www.w3.org/2000/svg"><g style="fill:none;fill-rule:evenodd;stroke:#fff;stroke-linecap:round;stroke-linejoin:round;stroke-width:3" transform="translate(1 1)"><path d="m35.59 15.68c-.0000001-8.28427116-6.7157288-14.99999978-15-14.99999978s-14.99999988 6.71572862-15 14.99999978v9.74c0 8.2842712 6.7157288 15 15 15s15-6.7157288 15-15z"/><path d="m40.7 56.24c-1.8351941-9.6533453-10.273759-16.638796-20.1-16.638796s-18.26480589 6.9854507-20.1 16.638796zm-29.08-32.61c.1161003 4.9216704 4.0783296 8.8838997 9 9 4.9238324-.1110463 8.8889537-4.0761676 9-9"/><g transform="translate(33 1)"><path d="m.19 31.74c3.52550475 5.4611865 10.1673367 8.0301385 16.4501037 6.3626311s10.776532-7.1919551 11.1298963-13.6826311v-9.74c-.3650538-6.47851053-4.854359-11.98778534-11.1257109-13.65347096s-12.90270703.88991596-16.4342891 6.33347096"/><path d="m20.21 28.65c-1.5868492-2.5686189-4.3907462-4.1322276-7.41-4.1322276-3.01925384 0-5.82315076 1.5636087-7.41 4.1322276m2.31 26.59h25.2c-1.8383216-9.6516759-10.2748152-16.6359173-20.1-16.64"/></g></g></svg>