<svg height="58" viewBox="0 0 74 58" width="74" xmlns="http://www.w3.org/2000/svg"><g style="fill:none;fill-rule:evenodd;stroke:#fff;stroke-linecap:round;stroke-linejoin:round;stroke-width:3" transform="translate(1 1)"><g transform="translate(6)"><path d="m8.38 32.87c3.858516 4.908299 10.3538311 6.9133446 16.3076262 5.0340181 5.9537951-1.8793264 10.1209507-7.2500006 10.4623738-13.4840181h.05v-9.74c-.3527601-6.29969119-4.6100692-11.7051657-10.651681-13.52436214-6.0416117-1.81919644-12.5757774.33684514-16.348319 5.39436214"/><path d="m40.28 55.24c-1.8351941-9.6533453-10.273759-16.638796-20.1-16.638796s-18.26480589 6.9854507-20.1 16.638796z"/></g><g transform="translate(46 20)"><path d="m22.28 9.82c-.2316289-5.01758845-4.367068-8.96652566-9.39-8.96652566s-9.15837105 3.94893721-9.39 8.96652566v6.1c.23162895 5.0175885 4.367068 8.9665257 9.39 8.9665257s9.1583711-3.9489372 9.39-8.9665257z"/><path d="m25.48 35.24c-1.1598907-6.0429709-6.4467209-10.4115501-12.6-10.4115501-6.15327907 0-11.44010933 4.3685792-12.6 10.4115501z"/></g><circle cx="13.5" cy="19.55" r="13"/><path d="m20.03 15.84-7.94 7.94-3.99-3.99"/></g></svg>