<svg height="68" viewBox="0 0 68 68" width="68" xmlns="http://www.w3.org/2000/svg"><g style="fill:none;fill-rule:evenodd;stroke:#fff;stroke-linecap:round;stroke-linejoin:round;stroke-width:3" transform="translate(1 1)"><g transform="translate(12 4)"><path d="m36 15.12c0-8.28427125-6.7157288-15-15-15s-15 6.71572875-15 15v9.74c0 8.2842712 6.7157288 15 15 15s15-6.7157288 15-15z"/><path d="m41.07 55.68c-1.8351941-9.6533453-10.273759-16.638796-20.1-16.638796s-18.26480589 6.9854507-20.1 16.638796zm-11.07-19.97c-.1161003-4.9216704-4.0783296-8.8838997-9-9-4.9238324.1110463-8.8889537 4.0761676-9 9m-7.44-20.22c-.57627183-.3290719-1.10174618-.7400198-1.56-1.22-2.45388026-2.5271559-2.6802928-6.47262778-.53161294-9.26390349s6.02077367-3.58178228 9.09161294-1.85609651m-5.56 21.33c-2.48528137 0-4.5-2.0147186-4.5-4.5s2.01471863-4.5 4.5-4.5m31.68.01c2.2043287-1.2504296 3.5741162-3.5818695 3.5933767-6.11608891.0192606-2.53421943-1.3149318-4.88621014-3.5-6.17-2.1850681-1.28378986-4.889048-1.30434065-7.0933767-.05391109m5.61 21.33c2.4852814 0 4.5-2.0147186 4.5-4.5s-2.0147186-4.5-4.5-4.5"/><path d="m15.11 29.6c1.2566211 2.0257748 3.4711249 3.258048 5.855 3.258048s4.5983789-1.2322732 5.855-3.258048m-13.81-19.42h15.92m-13.82 5.31h11.71"/></g><path d="m12.54 65.17h-12.04v-12.04"/><path d="m53.4.5h12.04v12.04"/><path d="m.5 12.54v-12.04h12.04"/><path d="m65.44 53.13v12.04h-12.04"/></g></svg>