<?xml version="1.0" encoding="UTF-8" standalone="no"?>
<svg
   xmlns:dc="http://purl.org/dc/elements/1.1/"
   xmlns:cc="http://creativecommons.org/ns#"
   xmlns:rdf="http://www.w3.org/1999/02/22-rdf-syntax-ns#"
   xmlns:svg="http://www.w3.org/2000/svg"
   xmlns="http://www.w3.org/2000/svg"
   viewBox="0 0 607.75281 283.25656"
   height="283.25656"
   width="607.75281"
   version="1.1"
   id="svg2">
  <metadata
     id="metadata8">
    <rdf:RDF>
      <cc:Work
         rdf:about="">
        <dc:format>image/svg+xml</dc:format>
        <dc:type
           rdf:resource="http://purl.org/dc/dcmitype/StillImage" />
        <dc:title></dc:title>
      </cc:Work>
    </rdf:RDF>
  </metadata>
  <defs
     id="defs6" />
  <path
     id="path4138"
     d="m 304.00421,279.42544 c -4.55958,-9.70015 -42.3582,-81.19552 -42.94708,-81.23358 -0.36513,-0.0236 -9.08241,8.61576 -19.37174,19.19858 l -18.70786,19.2415 -110.46636,-0.92975 C 51.754679,235.19081 1.584735,234.48808 1.02241,234.14054 0.351083,233.72564 0,211.90764 0,170.60303 l 0,-62.90562 11.376405,-4.23159 C 17.633427,101.13844 83.205961,76.90652 157.09315,49.61711 L 291.43348,0 330.0145,13.28166 c 21.21955,7.3049 44.26921,15.2417 51.22146,17.63731 6.95224,2.39561 28.68118,9.83306 48.28651,16.52766 l 35.64607,12.17199 0,-18.66945 0,-18.66946 20.22472,0 20.22472,0 0,25.56598 0,25.56597 7.83708,2.66444 c 4.31039,1.46543 26.67084,9.05996 49.68988,16.87671 23.01904,7.81675 42.09348,14.45295 42.38764,14.74712 0.29416,0.29416 -37.42444,0.49891 -83.81909,0.455 -46.39467,-0.0439 -83.89888,-0.26659 -83.3427,-0.49486 0.55618,-0.22827 16.9106,-3.61558 36.34316,-7.52737 19.43256,-3.91178 35.48187,-7.26229 35.66515,-7.44557 C 511.12006,91.94617 490.13089,83.16154 396.45681,45.00709 342.5542,23.05198 297.41985,5.0887 296.15826,5.0887 c -1.2616,0 -11.19,3.23295 -22.06311,7.18433 -25.32825,9.2045 -239.534611,88.40442 -262.213128,96.94978 l -5.814606,2.19098 0,56.55655 0,56.55656 106.424334,0 106.42434,0 22.47031,-22.45367 c 12.35867,-12.34951 22.6913,-22.23268 22.9614,-21.96259 0.27009,0.2701 10.12628,18.90656 21.90264,41.41434 11.77636,22.5078 21.76709,41.31145 22.20163,41.7859 0.43452,0.47444 9.39561,-7.83034 19.91353,-18.45506 l 19.12347,-19.31769 130.13187,0 130.13187,0 0,4.89371 0,4.8937 -27.46767,0.66809 c -15.1072,0.36746 -72.5545,0.6681 -127.66063,0.6681 l -100.19297,0 -23.31326,23.29742 -23.31325,23.29742 -1.80082,-3.83113 z m 119.70366,-94.33675 0,-38.42696 6.57303,0 6.57303,0 0,3.53933 c 0,4.19113 0.85137,4.41063 4.02104,1.03668 3.28456,-3.49625 10.26789,-5.97153 15.04093,-5.33132 13.48466,1.80866 21.29027,13.88339 20.10965,31.10819 -1.60731,23.45013 -18.67153,33.25593 -35.8851,20.62107 l -2.27528,-1.67007 0,13.77502 0,13.77503 -7.07865,0 -7.07865,0 0,-38.42697 z m 31.93552,4.91339 c 7.8061,-3.8099 8.61335,-23.49353 1.21868,-29.71574 -5.13161,-4.31795 -14.17305,-2.68373 -16.77755,3.03253 -1.68841,3.70564 -1.55076,18.17395 0.20521,21.56962 3.4333,6.63927 8.66061,8.38024 15.35366,5.11359 z M 41.12932,201.9107 c -6.782125,-1.91812 -12.654414,-6.32162 -17.092823,-12.81755 -5.277088,-7.7234 -7.214978,-16.10386 -6.61328,-28.59934 0.436924,-9.07358 0.819561,-10.6027 4.420812,-17.66671 6.715047,-13.17184 15.349692,-17.95136 32.257095,-17.85517 7.791139,0.0443 9.931124,0.45188 14.867556,2.83154 7.226047,3.4834 14.118388,11.00018 17.104705,18.65436 1.839059,4.71367 2.26201,7.8876 2.318001,17.39491 0.05899,10.01753 -0.268002,12.4701 -2.359473,17.69663 -3.090002,7.72185 -12.919195,17.96029 -18.842521,19.62705 -6.673214,1.87777 -20.626732,2.27093 -26.060072,0.73428 z m 19.324508,-13.33633 c 8.696451,-3.63271 12.630469,-11.31582 12.608727,-24.62474 -0.01705,-10.43683 -1.676714,-15.91528 -6.188152,-20.42672 -7.20816,-7.20816 -18.707961,-7.75 -26.437903,-1.24568 -4.7989,4.03801 -7.208853,9.75005 -7.809226,18.50931 -0.931311,13.58753 3.495134,23.44402 12.330891,27.45755 5.027737,2.28378 10.537969,2.40124 15.495663,0.33028 z m 259.432442,13.80505 c -19.27663,-4.94373 -28.9736,-28.59626 -21.95936,-53.56261 2.71035,-9.64719 9.19233,-17.49735 17.57871,-21.28914 3.56454,-1.61167 6.69396,-2.06228 14.44259,-2.07969 10.52196,-0.0237 14.71225,1.09842 20.45224,5.47652 3.13592,2.39188 10.30051,14.36212 9.23434,15.42829 -0.30788,0.30787 -3.406,1.2173 -6.88472,2.02097 l -6.32496,1.46121 -2.03293,-2.85067 c -5.00303,-7.01548 -9.26563,-9.42369 -16.68015,-9.42369 -3.67973,0 -11.74612,5.27775 -13.62779,8.91651 -2.57511,4.97968 -3.76393,15.40247 -2.65148,23.24627 1.72847,12.18724 4.15222,16.09223 11.80128,19.01343 6.78546,2.59139 12.12322,1.45799 16.81334,-3.57007 2.0995,-2.25077 4.10143,-5.51311 4.44874,-7.24965 0.57771,-2.88859 0.90345,-3.1132 3.82705,-2.63876 6.00684,0.97477 10.66559,3.48818 10.66559,5.7541 0,6.11571 -7.90667,15.99436 -15.41398,19.25834 -5.74974,2.49981 -17.90596,3.57165 -23.68851,2.08864 z m 184.0174,-0.19529 c -5.31353,-1.2685 -14.06813,-8.93111 -16.6187,-14.54579 -2.83944,-6.25056 -2.58988,-19.71909 0.48758,-26.31369 8.46973,-18.14961 34.30424,-20.99232 46.32423,-5.0973 4.7332,6.25911 6.30147,11.92497 5.68511,20.53939 -0.72351,10.11191 -5.5125,18.39628 -13.25865,22.93583 -5.00095,2.93074 -15.7831,4.11365 -22.61957,2.48156 z m 13.42023,-11.93319 c 9.73698,-4.42234 11.3901,-21.8919 2.78644,-29.446 -8.82679,-7.75004 -20.55978,-0.0875 -20.55978,13.42716 0,6.80551 2.07946,12.0726 5.79297,14.67308 5.28073,3.69798 6.49985,3.83492 11.98037,1.34576 z m -416.2003,-26.42873 0,-38.7121 21.80434,0.60362 c 19.31474,0.53472 22.30386,0.84545 26.17925,2.72149 11.1885,5.41626 13.64785,19.76247 5.02419,29.30783 l -3.51261,3.88804 3.60079,2.2254 c 5.76588,3.56352 8.58943,8.5761 8.58943,15.24863 0,7.29446 -1.51292,11.72084 -5.44461,15.9294 -5.92633,6.34368 -6.90694,6.5549 -32.72955,7.04947 l -23.51123,0.45031 0,-38.71209 z m 44.18759,21.83988 c 2.15376,-2.5045 2.47029,-3.67825 2.03451,-7.54437 -0.85501,-7.58571 -3.66851,-8.73229 -23.21649,-9.46141 l -7.83707,-0.29231 0,10.48637 0,10.48638 13.23424,-0.35437 c 13.20071,-0.35346 13.2407,-0.36187 15.78481,-3.32029 z m -4.50705,-31.07398 c 0.96756,-0.49923 2.48234,-2.30609 3.36618,-4.01526 1.32921,-2.5704 1.39434,-3.62099 0.37673,-6.07771 -2.13967,-5.16559 -4.2952,-5.9233 -16.85071,-5.9233 l -11.4042,0 0,9.15545 0,9.15545 11.3764,-0.69348 c 6.25702,-0.38141 12.16804,-1.10193 13.1356,-1.60115 z m 35.15092,9.26463 0,-38.42696 7.58427,0 7.58427,0 0,16.17977 c 0,14.00979 0.21235,16.17977 1.58333,16.17977 3.70522,0 5.96109,-2.75745 11.03524,-13.48887 7.293,-15.4241 11.40522,-18.87067 22.5152,-18.87067 l 4.30443,0 0,5.56179 0,5.5618 -3.48294,0 c -4.98338,0 -8.20066,3.31111 -11.75661,12.09952 -1.67995,4.15193 -4.18569,9.0321 -5.56832,10.84482 l -2.51387,3.29586 3.95254,3.57088 c 4.24267,3.83299 18.35796,29.81238 18.35796,33.78806 0,1.98484 -0.54034,2.1312 -7.86859,2.1312 l -7.8686,0 -5.45716,-11.72714 c -3.00145,-6.44992 -6.77005,-13.70922 -8.37469,-16.13179 -3.15215,-4.75886 -6.53042,-6.60819 -7.95745,-4.35603 -0.47823,0.75474 -0.87648,8.31187 -0.88499,16.79361 l -0.0155,15.42135 -7.58427,0 -7.58427,0 0,-38.42697 z m 208.3146,16.68539 0,-21.74157 -6.99594,0 c -9.85881,0 -10.19507,-0.22036 -10.19507,-6.68122 l 0,-5.45361 24.26967,0 24.26966,0 0,5.5209 0,5.52091 -8.3427,0.2937 -8.3427,0.2937 -0.27252,21.99438 -0.27253,21.99439 -7.05893,0 -7.05894,0 0,-21.74158 z m 167.09049,-5.8146 0.26906,-27.55618 6.82585,-0.29901 6.82584,-0.29902 0,16.86797 c 0,19.74718 -1.30138,19.93979 12.56604,-1.85983 8.30555,-13.05633 9.04022,-13.90517 12.04401,-13.91563 1.75942,-0.006 4.9054,-0.29319 6.99107,-0.63793 l 3.79214,-0.62679 0,27.9413 0,27.9413 -6.54916,0 -6.54915,0 -0.27669,-17.44382 -0.27669,-17.44382 -11.00719,17.44382 -11.00719,17.44382 -6.9585,0 -6.95849,0 0.26905,-27.55618 z m 20.96752,-36.14666 c -1.40799,-0.39775 -3.60734,-1.35795 -4.88747,-2.13377 -2.44845,-1.48389 -6.20424,-7.82285 -6.20424,-10.47142 0,-2.07543 4.57045,-2.052 6.28035,0.0322 4.10668,5.00561 4.9299,5.48931 9.34234,5.48931 3.96582,0 4.82376,-0.42565 7.23817,-3.5911 2.094,-2.74538 3.35641,-3.51937 5.36045,-3.28652 2.11198,0.2454 2.56821,0.7826 2.34778,2.76448 -0.34982,3.14526 -4.83657,9.05589 -7.66285,10.0947 -3.68235,1.35346 -9.12691,1.86135 -11.81453,1.10212 z"
     style="fill:#acb6be;fill-opacity:1" />
</svg>
