<svg xmlns="http://www.w3.org/2000/svg" width="879.334" height="165.333"><linearGradient id="a" gradientUnits="userSpaceOnUse" x1="408.187" y1="111.666" x2="409.187" y2="111.666" gradientTransform="matrix(145.28 0 0 -145.28 -59152.703 16352.15)"><stop offset="0" stop-color="#c38f31"/><stop offset=".45" stop-color="#755a24"/><stop offset=".64" stop-color="#da997b"/><stop offset="1" stop-color="#8d5f2b"/></linearGradient><path fill="url(#a)" d="M151.374 127.82h139.845a1.5 1.5 0 0 1 0 3H151.374a1.5 1.5 0 1 1 0-3"/><linearGradient id="b" gradientUnits="userSpaceOnUse" x1="410.073" y1="111.889" x2="411.073" y2="111.889" gradientTransform="matrix(440.858 0 0 -440.858 -180345.89 49456.938)"><stop offset="0" stop-color="#c38f31"/><stop offset=".45" stop-color="#755a24"/><stop offset=".64" stop-color="#da997b"/><stop offset="1" stop-color="#8d5f2b"/></linearGradient><path fill="url(#b)" d="M443.048 127.82h430.629a1.5 1.5 0 1 1 0 3H443.048a1.5 1.5 0 1 1 0-3"/><path fill="#C85C78" d="M856.053 62.098c-1.25 1.667-4.69 5.176-10.317 10.526-3.684 3.543-6.114 7.295-7.296 11.254-.974 3.336-.904 6.846.209 10.528 1.11 3.684 2.814 6.113 5.106 7.295 9.172 4.725 16.744 3.717 22.72-3.023 2.085-2.291 3.682-5.07 4.794-8.336 1.042-2.711 1.423-4.691 1.147-5.941-.209-1.042-.938-1.284-2.189-.729-2.918 7.852-7.087 12.403-12.506 13.653-2.293.486-4.309.174-6.045-.938-1.809-1.252-2.988-3.195-3.543-5.838-1.043-4.861 3.16-11.881 12.609-21.052 6.254-5.628 8.442-10.594 6.566-14.903-3.335-7.226-9.067-9.102-17.196-5.628-7.156 2.988-12.159 7.399-15.008 13.236.625 1.459 1.493 1.912 2.606 1.355 2.709-4.863 7.538-7.989 14.485-9.38 2.849-.485 4.69-.139 5.524 1.042 1.044 1.321.487 3.614-1.666 6.879m-29.545-2.293c1.318-3.127.901-5.662-1.251-7.608-1.946-1.668-4.656-2.502-8.129-2.502-7.157 0-13.272 3.163-18.344 9.484-4.309 5.42-6.393 12.438-6.253 21.053.139 7.573 1.599 13.202 4.377 16.883 3.892 4.795 8.234 6.912 13.028 6.357 4.168-.416 8.233-2.674 12.193-6.773 3.611-3.752 6.426-8.131 8.441-13.132 1.944-5.003 2.466-9.102 1.563-12.298 3.127-1.111 5.071-2.431 5.837-3.961.346-.833.381-1.527.104-2.084-5.836.974-10.354-.417-13.549-4.169l-8.857 4.169c2.918.834 4.932 3.614 6.044 8.338 1.251 5.489.521 11.43-2.188 17.821-1.459 3.475-3.544 5.906-6.253 7.295-2.572 1.252-5.039 1.252-7.399 0-2.434-1.318-3.996-3.75-4.69-7.295-.765-4.029-.208-8.963 1.668-14.799 3.265-9.935 8.197-15.701 14.799-17.3 3.265-.834 6.216-.66 8.859.521m-81.917.625c2.64-1.806 4.55-2.674 5.731-2.605 1.668.208 2.502 2.05 2.502 5.523 0 4.794-1.771 18.413-5.314 40.855 3.265.625 6.356 1.492 9.274 2.605 1.669-2.781 3.231-8.998 4.69-18.656l10.735-6.461c.067.417.104 2.154.104 5.211.068 2.57.242 4.725.521 6.461.901 5.352 3.438 8.547 7.607 9.588 4.794 1.598 8.718.627 11.777-2.918 1.459-1.807 2.465-3.752 3.021-5.836l-.625-1.146c-1.737 3.266-4.272 4.586-7.607 3.961-3.893-1.252-5.211-7.816-3.961-19.698 1.11-10.631 2.64-17.301 4.586-20.011.625-2.292-.383-4.064-3.022-5.315a13.506 13.506 0 0 0-4.272-1.146c-1.251.834-2.746 4.76-4.482 11.777-1.876 7.435-2.918 11.291-3.126 11.568-3.822 5.002-7.504 7.4-11.048 7.191 1.528-12.923-.104-21.746-4.898-26.472-3.267-2.014-6.393-1.84-9.38.521-1.528 1.251-2.709 2.676-3.543 4.273l.73.73zm-96.686 28.869c-7.018-3.195-10.803-2.432-11.359 2.293-.556 4.377.557 7.748 3.335 10.109 3.752 3.195 7.747 3.924 11.984 2.188 4.309-1.666 8.234-5.557 11.777-11.672 4.237 10.561 11.36 13.826 21.365 9.797 7.296-2.918 12.054-6.184 14.277-9.797-.14.348-.625-.52-1.459-2.605-9.449 7.713-16.675 10.041-21.677 6.982-4.239-2.5-6.357-7.988-6.357-16.467 0-7.92 1.562-14.833 4.689-20.739 3.403-6.322 7.226-8.163 11.464-5.524 2.153 1.321 1.008 5.143-3.438 11.464 6.946 2.918 10.63 1.599 11.047-3.96.139-2.014-.208-4.169-1.042-6.462-.834-2.222-1.703-3.577-2.606-4.064-4.585-2.431-9.207-2.606-13.86-.521-4.794 2.154-7.956 6.01-9.484 11.568-2.292-10.005-7.365-13.861-15.216-11.568-3.892 1.182-7.573 3.371-11.047 6.566-.208 3.613.243 4.725 1.354 3.335 5.696-5.003 9.762-6.983 12.194-5.941 1.876.904 3.543 4.447 5.002 10.63 1.668 7.436.555 15.495-3.335 24.179-1.737 3.752-3.613 6.498-5.628 8.234-2.224 1.877-4.273 2.188-6.149.938-2.223-1.459-.833-4.446 4.169-8.963m-12.036 8.129c-2.851 1.529-4.83 2.189-5.94 1.98-1.668-.348-2.329-2.258-1.981-5.732.486-4.793 3.578-17.926 9.276-39.395-2.85-.972-5.768-2.952-8.755-5.94-.833 1.529-2.328 5.038-4.481 10.526-3.126 7.92-5.177 13.063-6.148 15.424-5.489 13.133-9.658 19.422-12.506 18.865-1.392 0-2.051-1.877-1.98-5.629 0-1.736.347-5.766 1.042-12.089.068-.764.451-3.682 1.146-8.755.485-3.612.798-6.496.938-8.65.347-6.253-.661-9.901-3.021-10.943-4.101-1.944-7.922-1.459-11.465 1.459-1.111.904-2.225 2.084-3.335 3.543l-1.771 2.189 1.459 1.251c2.085-3.057 4.758-4.099 8.024-3.127.418.279-.277 8.895-2.084 25.846-1.251 10.909-1.808 17.058-1.668 18.448.485 5.627 3.475 8.059 8.964 7.295 5.695.418 12.853-9.553 21.469-29.911-4.101 13.271-4.064 22.478.104 27.618 3.058 2.361 6.219 2.502 9.484.418 1.598-1.043 2.883-2.328 3.856-3.857l-.627-.834zm-109.492 13.027c0-.141-.141.381-.416 1.564-.35 1.25-.558 2.396-.626 3.439-.417 3.264.173 4.619 1.771 4.062 5.279-1.945 13.132-3.266 23.554-3.959 9.865-.625 14.416-.625 13.652 0-.695-1.809-.452-3.371.73-4.689-7.574-2.293-16.294-3.127-26.159-2.502-8.754.626-12.922 1.319-12.506 2.085m24.805-6.252c4.377.137 9.135-4.898 14.278-15.113 2.568-5.141 4.724-10.282 6.461-15.424-4.101 13.271-4.064 22.477.104 27.619 3.058 2.359 6.947 2.5 11.673.416 2.361-1.041 4.446-2.326 6.253-3.855l-.625-1.564c-3.127 1.668-5.905 2.434-8.338 2.293-3.126-.139-4.517-1.91-4.168-5.314.485-4.795 3.577-17.927 9.275-39.396-2.851-.972-5.769-2.952-8.754-5.94-.975 1.32-4.727 9.796-11.256 25.429-5.489 13.272-9.416 19.803-11.777 19.594-1.599 0-2.745-1.564-3.438-4.689-.625-3.057-.695-6.776-.209-11.153 2.778-13.132 4.759-21.782 5.94-25.95-2.85-.973-6.08-2.015-9.692-3.127-1.183 1.599-4.447 9.867-9.797 24.804-4.586 12.855-8.024 19.176-10.317 18.969-2.084-.209-2.988-1.91-2.709-5.107.067-.973.312-2.674.729-5.106.417-2.64.73-4.69.938-6.149.068-.764.451-3.682 1.146-8.755.485-3.612.797-6.496.938-8.65.346-6.253-.662-9.901-3.023-10.943-4.03-1.876-7.815-1.215-11.359 1.98-3.684 3.405-5.42 5.143-5.212 5.211l1.459 1.251c2.086-3.057 4.76-4.099 8.025-3.127.417.279-.278 8.895-2.084 25.846-1.251 10.909-1.808 17.058-1.668 18.448.417 5.627 3.404 8.059 8.963 7.295 5.696.418 12.854-9.553 21.469-29.911-1.945 5.628-2.744 11.151-2.396 16.571.416 7.78 3.472 12.295 9.171 13.547m-49.827-46.378c-4.031-7.364-9.172-10.214-15.425-8.546-5.559 1.529-10.526 5.94-14.903 13.235-4.446 7.366-6.462 14.731-6.045 22.095.485 8.477 4.273 14.66 11.36 18.551 4.377 2.361 8.963.348 13.757-6.045a46.28 46.28 0 0 0 5.94-10.318 24.127 24.127 0 0 0 .104 8.652c1.11 5.697 4.341 8.232 9.692 7.607 4.307-.488 7.26-3.682 8.858-9.59l-.417-.311c-3.752 5.488-6.982 6.461-9.692 2.918-2.154-2.711-3.23-5.801-3.23-9.277 0-2.5.521-10.317 1.563-23.449l-6.879-1.98c-1.112 15.841-3.51 26.159-7.191 30.954-2.709 3.543-5.419 5.453-8.129 5.73-3.613.418-5.072-3.334-4.377-11.256 1.526-14.937 6.148-24.038 13.861-27.305 2.223-.972 4.794-1.423 7.712-1.355 2.295.002 3.441-.102 3.441-.31m-96.026-17.718c-.694-.417-1.042.766-1.042 3.544.069 2.779.486 4.309 1.251 4.585 4.585 1.738 10.213 2.016 16.883.834-3.405 19.176-3.267 34.497.417 45.961 4.236 13.199 12.298 16.154 24.179 8.857 4.586-2.777 8.65-8.301 12.194-16.57 3.335-7.712 3.507-15.737.521-24.074 2.432-.764 4.481-2.257 6.149-4.481l-1.46-1.564c-1.529 1.738-3.647 2.537-6.357 2.397-2.016-3.403-4.517-5.141-7.504-5.211-3.058-.138-6.044 1.391-8.963 4.586-1.875 2.016-1.667 3.96.626 5.836 2.223 1.946 4.515 2.12 6.878.521 2.502 7.019 3.265 13.202 2.293 18.55-1.391 7.645-3.475 13.237-6.253 16.782-2.988 3.752-6.011 4.168-9.067 1.25-7.156-6.809-7.399-25.048-.729-54.716 8.198-1.806 16.084-7.676 23.658-17.613 8.059-10.63 9.552-18.968 4.481-25.012C460.357.748 455.98-.677 450.352.296c-5.56.903-9.763 3.751-12.611 8.546-7.156 12.089-11.984 24.074-14.485 35.955-6.254.417-12.23-1.146-17.927-4.69m30.535 2.293c-.348-2.431 1.319-9.135 5.003-20.114 4.1-12.575 8.197-18.724 12.299-18.447 2.223.14 3.507 1.808 3.855 5.003.347 2.988-.244 6.635-1.771 10.943-3.893 10.63-10.354 18.169-19.386 22.615m-122.426 92.86c2.71-2.641 7.018-4.518 12.923-5.627 6.947-1.252 13.931-.834 20.948 1.25-3.405 8.822-8.06 15.701-13.965 20.635-5.003 4.17-9.938 6.357-14.799 6.566-5.28.139-8.65-2.432-10.11-7.713-1.528-5.418.139-10.457 5.003-15.111m-.73-73.475c.626.765 1.112 1.216 1.46 1.355 2.501-3.335 5.419-5.871 8.754-7.608 4.586-2.432 6.045.382 4.377 8.441-5.352 25.638-2.642 38.837 8.129 39.605 3.335.275 7.296-.662 11.881-2.814 3.891-1.877 5.836-2.918 5.836-3.127-.208 9.518-1.354 18.133-3.438 25.846l-5.94-.625c-15.842-1.6-27.931.174-36.269 5.314-5.628 3.545-8.997 8.061-10.109 13.549-1.042 5.279-.451 9.832 1.771 13.654 3.059 5.141 8.79 7.711 17.196 7.711 9.519 0 17.577-3.508 24.179-10.525 4.308-4.586 8.303-11.223 11.985-19.906 23.554 8.684 44.223 10.178 62.011 4.48 5.627-1.736 10.247-4.029 13.861-6.877 1.319-.975 2.188-1.809 2.605-2.502.417-.625.312-.869-.312-.73-11.118 2.779-22.095 3.684-32.934 2.711-3.752-.279-9.729-1.043-17.926-2.293-10.283-1.529-18.412-2.641-24.388-3.336 9.936-39.602 14.278-63.434 13.028-71.493-.141-1.043-2.226-1.668-6.253-1.876-4.031-.209-6.045.174-6.045 1.146 0 9.171-1.009 22.86-3.023 41.063-2.016 2.361-5.314 3.996-9.9 4.898-4.238.832-6.879.695-7.921-.418-1.32-1.459-.557-9.934 2.293-25.43 2.569-14.312 1.736-21.85-2.501-22.615-5.211-.902-10.214.348-15.008 3.752-3.96 2.779-6.425 5.663-7.399 8.65m-54.163-3.96c-4.03-7.364-9.171-10.214-15.424-8.546-5.56 1.529-10.526 5.94-14.903 13.235-4.448 7.366-6.462 14.731-6.045 22.095.484 8.477 4.272 14.66 11.359 18.551 4.377 2.361 8.964.348 13.758-6.045a46.275 46.275 0 0 0 5.939-10.318 24.082 24.082 0 0 0 .105 8.652c1.109 5.697 4.341 8.232 9.691 7.607 4.308-.488 7.259-3.682 8.859-9.59l-.417-.311c-3.752 5.488-6.983 6.461-9.693 2.918-2.153-2.711-3.23-5.801-3.23-9.277 0-2.5.521-10.317 1.563-23.449l-6.879-1.98c-1.112 15.841-3.509 26.159-7.19 30.954-2.71 3.543-5.419 5.453-8.13 5.73-3.612.418-5.071-3.334-4.377-11.256 1.527-14.937 6.149-24.038 13.861-27.305 2.223-.972 4.794-1.423 7.712-1.355 2.294.002 3.441-.102 3.441-.31m-52.859 5.106c-1.459.557-3.543 6.428-6.253 17.613-2.988 12.161-1.911 19.456 3.231 21.886 6.67 3.195 12.262.869 16.778-6.98a43.554 43.554 0 0 0 4.899-12.716l-1.251-.938c-1.392 4.585-3.752 8.095-7.087 10.527-3.752 2.779-6.323 1.736-7.712-3.127-1.392-4.379-1.183-10.595.625-18.656 1.389-6.183 2.953-11.011 4.689-14.486 1.319-1.736 1.182-3.544-.417-5.42a9.219 9.219 0 0 0-2.709-2.188c-3.752 7.574-8.755 12.368-15.008 14.382-2.641.834-4.622.73-5.941-.313-1.39-1.042-1.702-2.986-.938-5.836 2.57-.138 4.378-1.355 5.42-3.648 1.042-2.569 1.146-4.932.312-7.086-.766-1.945-2.051-3.161-3.856-3.648-1.876-.485-3.579.104-5.106 1.772-1.808 1.876-2.987 4.864-3.544 8.962l-.104.626a82.863 82.863 0 0 1-5.94 1.667l-.209 2.606c1.529.07 3.578-.173 6.149-.73.208 10.284 3.995 14.382 11.359 12.298 2.294-.625 4.968-1.876 8.025-3.752 3.129-1.877 4.657-2.815 4.588-2.815m-31.244-5.106c-4.03-7.364-9.172-10.214-15.425-8.546-5.559 1.529-10.526 5.94-14.903 13.235-4.446 7.366-6.462 14.731-6.045 22.095.485 8.477 4.273 14.66 11.36 18.551 4.377 2.361 8.963.348 13.757-6.045a46.322 46.322 0 0 0 5.941-10.318 24.082 24.082 0 0 0 .104 8.652c1.11 5.697 4.341 8.232 9.692 7.607 4.307-.488 7.26-3.682 8.858-9.59l-.417-.311c-3.752 5.488-6.982 6.461-9.692 2.918-2.154-2.711-3.23-5.801-3.23-9.277 0-2.5.521-10.317 1.563-23.449l-6.878-1.98c-1.113 15.841-3.511 26.159-7.192 30.954-2.709 3.543-5.419 5.453-8.129 5.73-3.613.418-5.072-3.334-4.377-11.256 1.528-14.937 6.149-24.038 13.861-27.305 2.223-.972 4.794-1.423 7.712-1.355 2.294.002 3.44-.102 3.44-.31m-45.104.104c-1.251-3.404-3.268-5.975-6.045-7.712-5.489-3.404-11.916-.834-19.28 7.712-7.644 8.894-10.146 19.455-7.504 31.682 1.042 4.936 2.778 8.686 5.211 11.256 2.57 2.711 5.245 3.402 8.025 2.084 5.836-1.734 10.698-5.904 14.591-12.506.346 0 .416 2.885.208 8.65-.208 6.738-.8 13.27-1.772 19.594-2.849 18.064-8.06 28.799-15.633 32.203-12.784 5.768-20.495 2.016-23.136-11.256l-1.355.416c.349 3.893 1.737 7.539 4.169 10.943 4.935 6.879 12.574 9.137 22.929 6.775 9.31-1.875 16.014-8.895 20.113-21.053 2.085-6.045 3.195-11.916 3.335-17.613 1.251-28.139 2.778-45.787 4.586-52.943-1.808-1.736-5.594-2.605-11.359-2.605-2.71 14.66-5.352 23.623-7.921 26.888-3.405 4.447-6.394 7.02-8.963 7.713-3.684.973-5.523-2.467-5.523-10.318 0-8.963 2.882-16.501 8.65-22.616 5.277-5.695 10.838-8.128 16.674-7.294m-64.522 68.159c2.084.625 4.446 1.529 7.087 2.711-1.528 4.168-2.676 6.809-3.438 7.92-2.918 5.002-7.366 7.086-13.34 6.254-5.698-.766-8.825-3.059-9.38-6.879-.625-4.17.798-7.295 4.272-9.381 3.753-2.291 8.684-2.5 14.799-.625M9.164 68.038c1.111.695 1.459.278 1.042-1.251-1.737-1.597-2.363-4.862-1.876-9.796.417-5.003 1.736-9.414 3.961-13.236 5.904-11.673 13.304-20.183 22.198-25.534 5.071-3.195 8.06-1.389 8.963 5.42.418 3.405.348 7.122-.207 11.151 0-.347-.661 3.996-1.98 13.027-1.251 8.755-1.981 16.295-2.189 22.616-.625 20.497 4.1 30.016 14.175 28.557 7.362 0 16.951-14 28.764-42.001-1.876 40.716-4.585 62.808-8.129 66.282-9.38-2.85-17.404-2.986-24.075-.416-4.168 1.598-6.914 3.578-8.233 5.941-1.528 2.639-2.224 5.453-2.084 8.441.277 5.141 3.612 8.58 10.006 10.316 12.365 3.195 22.094-1.77 29.181-14.902 15.701 9.447 26.61 14.973 32.725 16.57 7.712 1.945 15.424.625 23.138-3.961 3.89-2.291 7.017-4.793 9.379-7.502-14.035.416-34.705-3.648-62.011-12.195 4.517-8.197 8.094-26.783 10.735-55.756 3.126-34.669 5.071-53.742 5.836-57.217-2.155-2.848-5.94-4.619-11.359-5.315l-2.606 17.405c-1.042 7.644-2.188 14.139-3.439 19.489-3.821 16.12-10.145 30.293-18.968 42.521-3.195 4.168-5.731 5.594-7.607 4.273-2.017-1.32-2.779-5.697-2.292-13.132 1.805-26.819 2.151-44.502 1.042-53.048 0-3.612-1.843-6.913-5.524-9.901-4.934-4.099-11.187-3.335-18.759 2.293C15 27.533 6.105 40.456 2.286 55.949c0 4.377 2.361 8.511 7.086 12.402l-.208-.313z"/></svg>