<?xml version="1.0" encoding="utf-8"?>
<!-- Generator: Adobe Illustrator 16.0.0, SVG Export Plug-In . SVG Version: 6.00 Build 0)  -->
<!DOCTYPE svg PUBLIC "-//W3C//DTD SVG 1.1//EN" "http://www.w3.org/Graphics/SVG/1.1/DTD/svg11.dtd">
<svg version="1.1" id="Layer_1" xmlns="http://www.w3.org/2000/svg" xmlns:xlink="http://www.w3.org/1999/xlink" x="0px" y="0px"
	 width="879.334px" height="165.333px" viewBox="0 0 879.334 165.333" enable-background="new 0 0 879.334 165.333"
	 xml:space="preserve">
<linearGradient id="SVGID_1_" gradientUnits="userSpaceOnUse" x1="408.1865" y1="111.666" x2="409.187" y2="111.666" gradientTransform="matrix(145.28 0 0 -145.28 -59152.7031 16352.1504)">
	<stop  offset="0" style="stop-color:#C38F31"/>
	<stop  offset="0.45" style="stop-color:#755A24"/>
	<stop  offset="0.64" style="stop-color:#DA997B"/>
	<stop  offset="1" style="stop-color:#8D5F2B"/>
</linearGradient>
<path fill="url(#SVGID_1_)" d="M151.374,127.82h139.845c0.828,0,1.5,0.672,1.5,1.5c0,0.83-0.672,1.5-1.5,1.5H151.374
	c-0.828,0-1.5-0.67-1.5-1.5C149.874,128.492,150.546,127.82,151.374,127.82"/>
<g>
	
		<linearGradient id="SVGID_2_" gradientUnits="userSpaceOnUse" x1="410.0728" y1="111.8887" x2="411.0728" y2="111.8887" gradientTransform="matrix(440.858 0 0 -440.858 -180345.8906 49456.9375)">
		<stop  offset="0" style="stop-color:#C38F31"/>
		<stop  offset="0.45" style="stop-color:#755A24"/>
		<stop  offset="0.64" style="stop-color:#DA997B"/>
		<stop  offset="1" style="stop-color:#8D5F2B"/>
	</linearGradient>
	<path fill="url(#SVGID_2_)" d="M443.048,127.82h430.629c0.829,0,1.5,0.672,1.5,1.5c0,0.83-0.671,1.5-1.5,1.5H443.048
		c-0.828,0-1.5-0.67-1.5-1.5C441.548,128.492,442.22,127.82,443.048,127.82"/>
	<path fill="#C85C78" d="M856.053,62.098c-1.25,1.667-4.69,5.176-10.317,10.526c-3.684,3.543-6.114,7.295-7.296,11.254
		c-0.974,3.336-0.904,6.846,0.209,10.528c1.11,3.684,2.814,6.113,5.106,7.295c9.172,4.725,16.744,3.717,22.72-3.023
		c2.085-2.291,3.682-5.07,4.794-8.336c1.042-2.711,1.423-4.691,1.147-5.941c-0.209-1.042-0.938-1.284-2.189-0.729
		c-2.918,7.852-7.087,12.403-12.506,13.653c-2.293,0.486-4.309,0.174-6.045-0.938c-1.809-1.252-2.988-3.195-3.543-5.838
		c-1.043-4.861,3.16-11.881,12.609-21.052c6.254-5.628,8.442-10.594,6.566-14.903c-3.335-7.226-9.067-9.102-17.196-5.628
		c-7.156,2.988-12.159,7.399-15.008,13.236c0.625,1.459,1.493,1.912,2.606,1.355c2.709-4.863,7.538-7.989,14.485-9.38
		c2.849-0.485,4.69-0.139,5.524,1.042C858.763,56.54,858.206,58.833,856.053,62.098 M826.508,59.805
		c1.318-3.127,0.901-5.662-1.251-7.608c-1.946-1.668-4.656-2.502-8.129-2.502c-7.157,0-13.272,3.163-18.344,9.484
		c-4.309,5.42-6.393,12.438-6.253,21.053c0.139,7.573,1.599,13.202,4.377,16.883c3.892,4.795,8.234,6.912,13.028,6.357
		c4.168-0.416,8.233-2.674,12.193-6.773c3.611-3.752,6.426-8.131,8.441-13.132c1.944-5.003,2.466-9.102,1.563-12.298
		c3.127-1.111,5.071-2.431,5.837-3.961c0.346-0.833,0.381-1.527,0.104-2.084c-5.836,0.974-10.354-0.417-13.549-4.169l-8.857,4.169
		c2.918,0.834,4.932,3.614,6.044,8.338c1.251,5.489,0.521,11.43-2.188,17.821c-1.459,3.475-3.544,5.906-6.253,7.295
		c-2.572,1.252-5.039,1.252-7.399,0c-2.434-1.318-3.996-3.75-4.69-7.295c-0.765-4.029-0.208-8.963,1.668-14.799
		c3.265-9.935,8.197-15.701,14.799-17.3C820.914,58.45,823.865,58.624,826.508,59.805 M744.591,60.43
		c2.64-1.806,4.55-2.674,5.731-2.605c1.668,0.208,2.502,2.05,2.502,5.523c0,4.794-1.771,18.413-5.314,40.855
		c3.265,0.625,6.356,1.492,9.274,2.605c1.669-2.781,3.231-8.998,4.69-18.656l10.735-6.461c0.067,0.417,0.104,2.154,0.104,5.211
		c0.068,2.57,0.242,4.725,0.521,6.461c0.901,5.352,3.438,8.547,7.607,9.588c4.794,1.598,8.718,0.627,11.777-2.918
		c1.459-1.807,2.465-3.752,3.021-5.836l-0.625-1.146c-1.737,3.266-4.272,4.586-7.607,3.961c-3.893-1.252-5.211-7.816-3.961-19.698
		c1.11-10.631,2.64-17.301,4.586-20.011c0.625-2.292-0.383-4.064-3.022-5.315c-1.391-0.625-2.813-1.006-4.272-1.146
		c-1.251,0.834-2.746,4.76-4.482,11.777c-1.876,7.435-2.918,11.291-3.126,11.568c-3.822,5.002-7.504,7.4-11.048,7.191
		c1.528-12.923-0.104-21.746-4.898-26.472c-3.267-2.014-6.393-1.84-9.38,0.521c-1.528,1.251-2.709,2.676-3.543,4.273L744.591,60.43z
		 M647.905,89.299c-7.018-3.195-10.803-2.432-11.359,2.293c-0.556,4.377,0.557,7.748,3.335,10.109
		c3.752,3.195,7.747,3.924,11.984,2.188c4.309-1.666,8.234-5.557,11.777-11.672c4.237,10.561,11.36,13.826,21.365,9.797
		c7.296-2.918,12.054-6.184,14.277-9.797c-0.14,0.348-0.625-0.52-1.459-2.605c-9.449,7.713-16.675,10.041-21.677,6.982
		c-4.239-2.5-6.357-7.988-6.357-16.467c0-7.92,1.562-14.833,4.689-20.739c3.403-6.322,7.226-8.163,11.464-5.524
		c2.153,1.321,1.008,5.143-3.438,11.464c6.946,2.918,10.63,1.599,11.047-3.96c0.139-2.014-0.208-4.169-1.042-6.462
		c-0.834-2.222-1.703-3.577-2.606-4.064c-4.585-2.431-9.207-2.606-13.86-0.521c-4.794,2.154-7.956,6.01-9.484,11.568
		c-2.292-10.005-7.365-13.861-15.216-11.568c-3.892,1.182-7.573,3.371-11.047,6.566c-0.208,3.613,0.243,4.725,1.354,3.335
		c5.696-5.003,9.762-6.983,12.194-5.941c1.876,0.904,3.543,4.447,5.002,10.63c1.668,7.436,0.555,15.495-3.335,24.179
		c-1.737,3.752-3.613,6.498-5.628,8.234c-2.224,1.877-4.273,2.188-6.149,0.938C641.513,96.803,642.903,93.816,647.905,89.299
		 M635.869,97.428c-2.851,1.529-4.83,2.189-5.94,1.98c-1.668-0.348-2.329-2.258-1.981-5.732c0.486-4.793,3.578-17.926,9.276-39.395
		c-2.85-0.972-5.768-2.952-8.755-5.94c-0.833,1.529-2.328,5.038-4.481,10.526c-3.126,7.92-5.177,13.063-6.148,15.424
		c-5.489,13.133-9.658,19.422-12.506,18.865c-1.392,0-2.051-1.877-1.98-5.629c0-1.736,0.347-5.766,1.042-12.089
		c0.068-0.764,0.451-3.682,1.146-8.755c0.485-3.612,0.798-6.496,0.938-8.65c0.347-6.253-0.661-9.901-3.021-10.943
		c-4.101-1.944-7.922-1.459-11.465,1.459c-1.111,0.904-2.225,2.084-3.335,3.543l-1.771,2.189l1.459,1.251
		c2.085-3.057,4.758-4.099,8.024-3.127c0.418,0.279-0.277,8.895-2.084,25.846c-1.251,10.909-1.808,17.058-1.668,18.448
		c0.485,5.627,3.475,8.059,8.964,7.295c5.695,0.418,12.853-9.553,21.469-29.911c-4.101,13.271-4.064,22.478,0.104,27.618
		c3.058,2.361,6.219,2.502,9.484,0.418c1.598-1.043,2.883-2.328,3.856-3.857L635.869,97.428z M526.377,110.455
		c0-0.141-0.141,0.381-0.416,1.564c-0.35,1.25-0.558,2.396-0.626,3.439c-0.417,3.264,0.173,4.619,1.771,4.062
		c5.279-1.945,13.132-3.266,23.554-3.959c9.865-0.625,14.416-0.625,13.652,0c-0.695-1.809-0.452-3.371,0.73-4.689
		c-7.574-2.293-16.294-3.127-26.159-2.502C530.129,108.996,525.961,109.689,526.377,110.455 M551.182,104.203
		c4.377,0.137,9.135-4.898,14.278-15.113c2.568-5.141,4.724-10.282,6.461-15.424c-4.101,13.271-4.064,22.477,0.104,27.619
		c3.058,2.359,6.947,2.5,11.673,0.416c2.361-1.041,4.446-2.326,6.253-3.855l-0.625-1.564c-3.127,1.668-5.905,2.434-8.338,2.293
		c-3.126-0.139-4.517-1.91-4.168-5.314c0.485-4.795,3.577-17.927,9.275-39.396c-2.851-0.972-5.769-2.952-8.754-5.94
		c-0.975,1.32-4.727,9.796-11.256,25.429c-5.489,13.272-9.416,19.803-11.777,19.594c-1.599,0-2.745-1.564-3.438-4.689
		c-0.625-3.057-0.695-6.776-0.209-11.153c2.778-13.132,4.759-21.782,5.94-25.95c-2.85-0.973-6.08-2.015-9.692-3.127
		c-1.183,1.599-4.447,9.867-9.797,24.804c-4.586,12.855-8.024,19.176-10.317,18.969c-2.084-0.209-2.988-1.91-2.709-5.107
		c0.067-0.973,0.312-2.674,0.729-5.106c0.417-2.64,0.73-4.69,0.938-6.149c0.068-0.764,0.451-3.682,1.146-8.755
		c0.485-3.612,0.797-6.496,0.938-8.65c0.346-6.253-0.662-9.901-3.023-10.943c-4.03-1.876-7.815-1.215-11.359,1.98
		c-3.684,3.405-5.42,5.143-5.212,5.211l1.459,1.251c2.086-3.057,4.76-4.099,8.025-3.127c0.417,0.279-0.278,8.895-2.084,25.846
		c-1.251,10.909-1.808,17.058-1.668,18.448c0.417,5.627,3.404,8.059,8.963,7.295c5.696,0.418,12.854-9.553,21.469-29.911
		c-1.945,5.628-2.744,11.151-2.396,16.571C542.427,98.436,545.483,102.951,551.182,104.203 M501.355,57.825
		c-4.031-7.364-9.172-10.214-15.425-8.546c-5.559,1.529-10.526,5.94-14.903,13.235c-4.446,7.366-6.462,14.731-6.045,22.095
		c0.485,8.477,4.273,14.66,11.36,18.551c4.377,2.361,8.963,0.348,13.757-6.045c2.431-3.195,4.411-6.635,5.94-10.318
		c-0.486,2.92-0.452,5.803,0.104,8.652c1.11,5.697,4.341,8.232,9.692,7.607c4.307-0.488,7.26-3.682,8.858-9.59l-0.417-0.311
		c-3.752,5.488-6.982,6.461-9.692,2.918c-2.154-2.711-3.23-5.801-3.23-9.277c0-2.5,0.521-10.317,1.563-23.449l-6.879-1.98
		c-1.112,15.841-3.51,26.159-7.191,30.954c-2.709,3.543-5.419,5.453-8.129,5.73c-3.613,0.418-5.072-3.334-4.377-11.256
		c1.526-14.937,6.148-24.038,13.861-27.305c2.223-0.972,4.794-1.423,7.712-1.355C500.209,58.137,501.355,58.033,501.355,57.825
		 M405.329,40.107c-0.694-0.417-1.042,0.766-1.042,3.544c0.069,2.779,0.486,4.309,1.251,4.585
		c4.585,1.738,10.213,2.016,16.883,0.834c-3.405,19.176-3.267,34.497,0.417,45.961c4.236,13.199,12.298,16.154,24.179,8.857
		c4.586-2.777,8.65-8.301,12.194-16.57c3.335-7.712,3.507-15.737,0.521-24.074c2.432-0.764,4.481-2.257,6.149-4.481l-1.46-1.564
		c-1.529,1.738-3.647,2.537-6.357,2.397c-2.016-3.403-4.517-5.141-7.504-5.211c-3.058-0.138-6.044,1.391-8.963,4.586
		c-1.875,2.016-1.667,3.96,0.626,5.836c2.223,1.946,4.515,2.12,6.878,0.521c2.502,7.019,3.265,13.202,2.293,18.55
		c-1.391,7.645-3.475,13.237-6.253,16.782c-2.988,3.752-6.011,4.168-9.067,1.25c-7.156-6.809-7.399-25.048-0.729-54.716
		c8.198-1.806,16.084-7.676,23.658-17.613c8.059-10.63,9.552-18.968,4.481-25.012c-3.127-3.821-7.504-5.246-13.132-4.273
		c-5.56,0.903-9.763,3.751-12.611,8.546c-7.156,12.089-11.984,24.074-14.485,35.955C417.002,45.214,411.026,43.651,405.329,40.107
		 M435.864,42.4c-0.348-2.431,1.319-9.135,5.003-20.114c4.1-12.575,8.197-18.724,12.299-18.447c2.223,0.14,3.507,1.808,3.855,5.003
		c0.347,2.988-0.244,6.635-1.771,10.943C451.357,30.415,444.896,37.954,435.864,42.4 M313.438,135.26
		c2.71-2.641,7.018-4.518,12.923-5.627c6.947-1.252,13.931-0.834,20.948,1.25c-3.405,8.822-8.06,15.701-13.965,20.635
		c-5.003,4.17-9.938,6.357-14.799,6.566c-5.28,0.139-8.65-2.432-10.11-7.713C306.907,144.953,308.574,139.914,313.438,135.26
		 M312.708,61.785c0.626,0.765,1.112,1.216,1.46,1.355c2.501-3.335,5.419-5.871,8.754-7.608c4.586-2.432,6.045,0.382,4.377,8.441
		c-5.352,25.638-2.642,38.837,8.129,39.605c3.335,0.275,7.296-0.662,11.881-2.814c3.891-1.877,5.836-2.918,5.836-3.127
		c-0.208,9.518-1.354,18.133-3.438,25.846l-5.94-0.625c-15.842-1.6-27.931,0.174-36.269,5.314
		c-5.628,3.545-8.997,8.061-10.109,13.549c-1.042,5.279-0.451,9.832,1.771,13.654c3.059,5.141,8.79,7.711,17.196,7.711
		c9.519,0,17.577-3.508,24.179-10.525c4.308-4.586,8.303-11.223,11.985-19.906c23.554,8.684,44.223,10.178,62.011,4.48
		c5.627-1.736,10.247-4.029,13.861-6.877c1.319-0.975,2.188-1.809,2.605-2.502c0.417-0.625,0.312-0.869-0.312-0.73
		c-11.118,2.779-22.095,3.684-32.934,2.711c-3.752-0.279-9.729-1.043-17.926-2.293c-10.283-1.529-18.412-2.641-24.388-3.336
		c9.936-39.602,14.278-63.434,13.028-71.493c-0.141-1.043-2.226-1.668-6.253-1.876c-4.031-0.209-6.045,0.174-6.045,1.146
		c0,9.171-1.009,22.86-3.023,41.063c-2.016,2.361-5.314,3.996-9.9,4.898c-4.238,0.832-6.879,0.695-7.921-0.418
		c-1.32-1.459-0.557-9.934,2.293-25.43c2.569-14.312,1.736-21.85-2.501-22.615c-5.211-0.902-10.214,0.348-15.008,3.752
		C316.147,55.914,313.682,58.798,312.708,61.785 M258.545,57.825c-4.03-7.364-9.171-10.214-15.424-8.546
		c-5.56,1.529-10.526,5.94-14.903,13.235c-4.448,7.366-6.462,14.731-6.045,22.095c0.484,8.477,4.272,14.66,11.359,18.551
		c4.377,2.361,8.964,0.348,13.758-6.045c2.431-3.195,4.41-6.635,5.939-10.318c-0.487,2.92-0.452,5.803,0.105,8.652
		c1.109,5.697,4.341,8.232,9.691,7.607c4.308-0.488,7.259-3.682,8.859-9.59l-0.417-0.311c-3.752,5.488-6.983,6.461-9.693,2.918
		c-2.153-2.711-3.23-5.801-3.23-9.277c0-2.5,0.521-10.317,1.563-23.449l-6.879-1.98c-1.112,15.841-3.509,26.159-7.19,30.954
		c-2.71,3.543-5.419,5.453-8.13,5.73c-3.612,0.418-5.071-3.334-4.377-11.256c1.527-14.937,6.149-24.038,13.861-27.305
		c2.223-0.972,4.794-1.423,7.712-1.355C257.398,58.137,258.545,58.033,258.545,57.825 M205.686,62.931
		c-1.459,0.557-3.543,6.428-6.253,17.613c-2.988,12.161-1.911,19.456,3.231,21.886c6.67,3.195,12.262,0.869,16.778-6.98
		c2.293-3.963,3.925-8.199,4.899-12.716l-1.251-0.938c-1.392,4.585-3.752,8.095-7.087,10.527c-3.752,2.779-6.323,1.736-7.712-3.127
		c-1.392-4.379-1.183-10.595,0.625-18.656c1.389-6.183,2.953-11.011,4.689-14.486c1.319-1.736,1.182-3.544-0.417-5.42
		c-0.765-0.902-1.667-1.631-2.709-2.188c-3.752,7.574-8.755,12.368-15.008,14.382c-2.641,0.834-4.622,0.73-5.941-0.313
		c-1.39-1.042-1.702-2.986-0.938-5.836c2.57-0.138,4.378-1.355,5.42-3.648c1.042-2.569,1.146-4.932,0.312-7.086
		c-0.766-1.945-2.051-3.161-3.856-3.648c-1.876-0.485-3.579,0.104-5.106,1.772c-1.808,1.876-2.987,4.864-3.544,8.962l-0.104,0.626
		c-1.946,0.625-3.926,1.182-5.94,1.667l-0.209,2.606c1.529,0.07,3.578-0.173,6.149-0.73c0.208,10.284,3.995,14.382,11.359,12.298
		c2.294-0.625,4.968-1.876,8.025-3.752C204.227,63.869,205.755,62.931,205.686,62.931 M174.442,57.825
		c-4.03-7.364-9.172-10.214-15.425-8.546c-5.559,1.529-10.526,5.94-14.903,13.235c-4.446,7.366-6.462,14.731-6.045,22.095
		c0.485,8.477,4.273,14.66,11.36,18.551c4.377,2.361,8.963,0.348,13.757-6.045c2.431-3.195,4.411-6.635,5.941-10.318
		c-0.487,2.92-0.453,5.803,0.104,8.652c1.11,5.697,4.341,8.232,9.692,7.607c4.307-0.488,7.26-3.682,8.858-9.59l-0.417-0.311
		c-3.752,5.488-6.982,6.461-9.692,2.918c-2.154-2.711-3.23-5.801-3.23-9.277c0-2.5,0.521-10.317,1.563-23.449l-6.878-1.98
		c-1.113,15.841-3.511,26.159-7.192,30.954c-2.709,3.543-5.419,5.453-8.129,5.73c-3.613,0.418-5.072-3.334-4.377-11.256
		c1.528-14.937,6.149-24.038,13.861-27.305c2.223-0.972,4.794-1.423,7.712-1.355C173.296,58.137,174.442,58.033,174.442,57.825
		 M129.338,57.929c-1.251-3.404-3.268-5.975-6.045-7.712c-5.489-3.404-11.916-0.834-19.28,7.712
		c-7.644,8.894-10.146,19.455-7.504,31.682c1.042,4.936,2.778,8.686,5.211,11.256c2.57,2.711,5.245,3.402,8.025,2.084
		c5.836-1.734,10.698-5.904,14.591-12.506c0.346,0,0.416,2.885,0.208,8.65c-0.208,6.738-0.8,13.27-1.772,19.594
		c-2.849,18.064-8.06,28.799-15.633,32.203c-12.784,5.768-20.495,2.016-23.136-11.256l-1.355,0.416
		c0.349,3.893,1.737,7.539,4.169,10.943c4.935,6.879,12.574,9.137,22.929,6.775c9.31-1.875,16.014-8.895,20.113-21.053
		c2.085-6.045,3.195-11.916,3.335-17.613c1.251-28.139,2.778-45.787,4.586-52.943c-1.808-1.736-5.594-2.605-11.359-2.605
		c-2.71,14.66-5.352,23.623-7.921,26.888c-3.405,4.447-6.394,7.02-8.963,7.713c-3.684,0.973-5.523-2.467-5.523-10.318
		c0-8.963,2.882-16.501,8.65-22.616C117.941,59.528,123.502,57.095,129.338,57.929 M64.816,126.088
		c2.084,0.625,4.446,1.529,7.087,2.711c-1.528,4.168-2.676,6.809-3.438,7.92c-2.918,5.002-7.366,7.086-13.34,6.254
		c-5.698-0.766-8.825-3.059-9.38-6.879c-0.625-4.17,0.798-7.295,4.272-9.381C53.77,124.422,58.701,124.213,64.816,126.088
		 M9.164,68.038c1.111,0.695,1.459,0.278,1.042-1.251c-1.737-1.597-2.363-4.862-1.876-9.796c0.417-5.003,1.736-9.414,3.961-13.236
		c5.904-11.673,13.304-20.183,22.198-25.534c5.071-3.195,8.06-1.389,8.963,5.42c0.418,3.405,0.348,7.122-0.207,11.151
		c0-0.347-0.661,3.996-1.98,13.027c-1.251,8.755-1.981,16.295-2.189,22.616c-0.625,20.497,4.1,30.016,14.175,28.557
		c7.362,0,16.951-14,28.764-42.001c-1.876,40.716-4.585,62.808-8.129,66.282c-9.38-2.85-17.404-2.986-24.075-0.416
		c-4.168,1.598-6.914,3.578-8.233,5.941c-1.528,2.639-2.224,5.453-2.084,8.441c0.277,5.141,3.612,8.58,10.006,10.316
		c12.365,3.195,22.094-1.77,29.181-14.902c15.701,9.447,26.61,14.973,32.725,16.57c7.712,1.945,15.424,0.625,23.138-3.961
		c3.89-2.291,7.017-4.793,9.379-7.502c-14.035,0.416-34.705-3.648-62.011-12.195c4.517-8.197,8.094-26.783,10.735-55.756
		c3.126-34.669,5.071-53.742,5.836-57.217c-2.155-2.848-5.94-4.619-11.359-5.315l-2.606,17.405
		c-1.042,7.644-2.188,14.139-3.439,19.489c-3.821,16.12-10.145,30.293-18.968,42.521c-3.195,4.168-5.731,5.594-7.607,4.273
		c-2.017-1.32-2.779-5.697-2.292-13.132c1.805-26.819,2.151-44.502,1.042-53.048c0-3.612-1.843-6.913-5.524-9.901
		c-4.934-4.099-11.187-3.335-18.759,2.293C15,27.533,6.105,40.456,2.286,55.949c0,4.377,2.361,8.511,7.086,12.402L9.164,68.038z"/>
</g>
</svg>
