<svg height="256" viewBox="0 0 256 256" width="256" xmlns="http://www.w3.org/2000/svg"><g fill="none"><circle cx="128" cy="128" fill="#212e3e" r="128"/><path d="m94.619322 47.2593948c1.3267228-.2681459 2.6824981-.2552232 4.0318172-.2390699 19.3649888-.0032306 38.7332068.0064614 58.1014238-.0064613 1.852893.0064613 3.71547-.0872282 5.561907.138919.161401 4.9526227-.006457 9.9052454.083928 14.8578681-.029052.8205911.103298 1.6928729-.258242 2.4585426-1.00392.3521434-2.08854.1712257-3.124739.2003018-10.655748-.0193841-21.308268-.0032307-31.960787-.0096921-10.152174.0484601-20.304348-.1001508-30.4532938.0775362.0096841.9885861.0129121 1.9771723.0064561 2.9657584 28.3324737.0775362 56.6681757.0064614 85.0006497.0355374 2.10468.009692 4.225499-.1195349 6.310811.2487619.061333 5.7958285.16463 11.5981184-.041965 17.3907162-16.83098.138919-33.661961.0193841-50.492942.0581522-20.381821.0161533-40.7668696-.0323068-61.1486903.0226147-.0193682.9982781-.0290523 1.9933256-.0290523 2.9916038 2.6373056.2099938 5.2778392-.0226147 7.9151448.009692 24.3200248.0323067 48.6368218-.0258454 72.9568468.0161534 3.483051.2229164 6.98547-.2939913 10.452381.2196858.116209 6.8167214.103297 13.639904.03228 20.456625-1.869033.306914-3.76389.155073-5.645835.167996-2.811619.00323-5.623239-.019385-8.431631-.003231-.910306-.090459-1.517177.694595-2.166012 1.195349-2.230573 2.01271-5.093841 3.424514-8.121739 3.586048-2.140188-.022615-4.3062-.533061-6.139725-1.660566-1.359003-.76567-2.504956-1.835023-3.738066-2.775149-.471293-.436141-1.139497-.326298-1.720543-.358605-10.739677.051691-21.476125-.032307-32.2125735.041999-.0129122 2.019171-.0807009 4.041573-.0258243 6.063974 19.0228178.019384 38.0456348 0 57.0684518.006462 3.186072.019384 6.375372-.051691 9.561444.05169.432557 3.046526.116209 6.13828.21305 9.20742-.100069 2.755765.242103 5.537375-.235646 8.270525-22.195978.132458-44.395183-.012923-66.5911597.071075-.006456 1.188888-.003228 2.377776 0 3.566663 9.7067047 5.51476 19.3294807 11.181362 29.0200457 16.728429.555222.400603 1.226654.319836 1.75928-.077537 6.09776-3.618354 12.292362-7.065483 18.396578-10.670915 1.307355-.7689 2.614709-1.547492 4.038273-2.080553.955499 1.331037 1.762508 2.762225 2.585657 4.180491.322804.629982.758589 1.363344.448697 2.087015-1.162093.95951-2.543692 1.595953-3.82845 2.361623-6.504493 3.705582-12.95411 7.501624-19.442463 11.229821-1.013603.57183-1.97233 1.259963-3.069862 1.657336-1.433248-.390912-2.643762-1.318115-3.925292-2.035324-11.094761-6.448425-22.263766-12.767623-33.3036498-19.306506.0774729-4.648939-.0484205-9.297879.0290523-13.946818-.0322803-.743055.7618166-1.030585 1.3815995-.95628 21.818297-.016153 43.636594-.00323 65.451662-.006461 0-1.033816-.009684-2.067631-.025824-3.101447-22.189521-.122765-44.38227.038768-66.5717908-.080767-.1420336-.788284-.2550149-1.58626-.2485588-2.387467-.0032281-5.508299.0322803-11.019828-.0225963-16.531357.0451925-.468448-.0968411-1.088737.4002765-1.363345 1.0749361-.268146 2.1982927-.135688 3.295825-.155072 11.7306834.022615 23.4613674-.016153 35.1920504.019384.771501-.035537 1.643071.087228 2.311274-.390911 1.110445-.804438 2.08854-1.7930244 3.266773-2.5037726 2.372607-1.4279577 5.206822-2.3034703 7.982934-1.7994852 2.253169.445833 4.419181 1.4118044 6.165549 2.9205288.890938.646135 1.65921 1.670258 2.850356 1.702565 2.256397.132458 4.519251.032307 6.775648.058152.119437-2.10963.135577-4.2257208-.058105-6.3288893-30.340312-.0452295-60.6806247.0226147-91.0209371-.0355374-.3486279-1.9771723-.1517177-3.989882-.1904542-5.9864383.0290524-3.8348096-.0677887-7.6696192.0484206-11.5011982 3.6154005-.148611 7.2372572-.1841484 10.8558858-.1712257 31.8478049.0032307 63.6988389 0 95.5498719.0032307 1.77542.0387681 3.554068.1195349 5.329488-.0290761-.019368-1.0047395-.022596-2.0062483-.022596-3.0077571-28.561665-.0323068-57.123329-.0032307-85.6849937-.0129227-1.8851731-.0290761-3.7961706.167995-5.6490634-.268146-.003228-5.7182923-.0581046-11.4398153.0258243-17.1581077 1.8528928-.3682968 3.744522-.2390698 5.6232391-.2584539 20.0396487 0 40.0825257.0064614 60.1254027-.0032307 0-1.0208928-.051649-2.0417857-.14849-3.0562172-18.37721-.0161534-36.757648-.0032307-55.1348583-.0064614-1.781876.0258454-3.5734361.0581522-5.3327159-.2455312-.0322803-2.2711635-.0516486-4.5423271.0129122-6.81026zm2.0401189 1.9480962c-.0355084 1.0112008-.0484206 2.0224017-.0645608 3.0368332 17.7929359.0484601 35.5858709.0064614 53.3788069.0193841 2.395203.019384 4.793634-.0839976 7.182381.1647643.022596 2.3616225.313119 4.7749357-.222735 7.09779-21.76342-.0032307-43.52684.0064614-65.2902604 0-.1452617 1.1404278-.1936822 2.2937783-.174314 3.4438981.0484206 3.3146712-.0613327 6.632573.0645607 9.9504749 1.5074929.2035324 3.0214419.0452294 4.5321629-.0032307 27.2220298-.009692 54.4440588.0064613 81.6693168-.0064614 1.67535-.0484601 3.350701.0161534 5.01314.2487619.090385 2.2937783.071017 4.5875566.009684 6.8813349-1.555914.2519925-3.134423.1518416-4.700021.1712257-35.673028.009692-71.342828-.0193841-107.0126286.0129227-.0484205 4.493867-.0161401 8.9877341-.006456 13.4816011 11.0301997.1292269 22.0636275.019384 33.0970556.0581521 18.929204-.0032307 37.861637.0032307 56.794069-.0032307.613327-.0226147 1.436476.0775362 1.43002.8755126.035508 3.1402148.077473 6.2901212-.051649 9.4271062-3.150563.200301-6.307582.029076-9.461374.087228-1.113672.164764-1.830296-.781823-2.579201-1.424727-2.111135-1.912559-4.803318-3.4309758-7.721462-3.388977-2.685726.1841484-5.164858 1.550723-7.091996 3.382515-.732764.649366-1.475212 1.53134-2.559833 1.424727-12.883092-.006461-25.762957 0-38.6428212-.006461-.0419644 5.472761-.0451925 10.945522.0032281 16.418283 22.2024331.090459 44.4048661-.061382 66.6040711.077537.380908 1.970711.232419 3.993112.219507 5.989669.077473.62352-.46161 1.266424-1.113673 1.156581-21.905454.019384-43.814135-.041999-65.7195892.029076-.0419645 3.382515-.0161402 6.7618-.0355084 10.144315.0419644.533061-.0613327 1.117813.183998 1.615337.7359923.600905 1.597878 1.020893 2.4177992 1.499032 10.4265574 6.005823 20.8402014 12.03426 31.2570744 18.053005.813465.568598 1.804473.348913 2.572745-.180918 7.51164-4.455099 15.165314-8.674359 22.63499-13.203763-.442241-.872282-.897394-1.734872-1.368687-2.591-7.369607 4.090032-14.616548 8.415904-21.950647 12.56732-.816693.542753-1.701175-.058152-2.421027-.465217-10.077929-5.895979-20.262383-11.611041-30.2854355-17.591018.0484205-2.219473-.2227345-4.474483.2969793-6.658418 5.1002972-.090459 10.2038222-.029076 15.3041202-.04846 17.069855.022614 34.142939-.041999 51.212794.032306.071017-4.516481.048421-9.032963.022596-13.549445-20.736904.035537-41.470581.003231-62.207486.019384-1.546229-.022615-3.1344228.14538-4.6322316-.342451.0355084-2.758996-.0355084-5.51476 0-8.270525.0581047-.474909-.0129121-1.095198.4357849-1.402112 1.3848276-.235839 2.7954797-.100151 4.1932187-.129227 10.449154.025845 20.895079-.016154 31.344232.022615.91999-.074306 1.478441.788284 2.140188 1.285808 2.12082 1.951327 4.861423 3.521434 7.834444 3.340516 2.753515-.025845 5.187454-1.570107 7.1501-3.379284.671432-.497524 1.255706-1.350422 2.182153-1.269655 4.341708-.003231 8.683417.032307 13.028354.006461.006456-5.572912-.006456-11.1458239.03228-16.7187359-5.632923-.0839975-11.269074-.009692-16.905225-.0355374-24.216728.009692-48.436684-.0161534-72.6566397.0129227-.5939586-.0193841-1.1814612-.1066123-1.7657358-.2067632-.1549457-2.2937782-.1000691-4.5972486.0258243-6.8910268 2.7438308-.0516908 5.4812055-.3456821 8.2218083-.0807669 34.4883389-.0032307 68.9799059.0355374 103.4682449-.0161534-.019368-4.4970977-.01614-8.9974261-.006456-13.4945238-28.890924-.0258454-57.781848-.0032306-86.6727726-.009692-1.3848275-.0323067-2.7793391.1163043-4.1512545-.0807668-.7553605-.3618355-.4971176-1.2922695-.5681344-1.9642496.0419645-1.4958019-.090385-3.0012958.0581046-4.4906364.1226654-.9692021 1.3622313-.6558267 2.0562591-.772131 21.2146538.0032307 42.4325358-.0161533 63.6471898.009692-.025824-4.4712523.183998-8.9521966-.119437-13.4169876-21.18883.0452294-42.374431-.0613828-63.5600331.0484601zm44.2815011 51.313146c3.043467-1.2165426 6.848635.970539 7.262894 4.256216.681523 3.282308-2.368625 6.766811-5.69606 6.372529-2.662616-.037069-4.984471-2.358948-5.181578-5.007709-.2539-2.399387 1.366387-4.849323 3.614744-5.621036zm.42094 2.160123c-2.271742.90651-2.442123 4.397752-.440985 5.691804 1.914277 1.722032 5.204963-.117948 5.138147-2.584733.213811-2.369058-2.605822-4.353944-4.697162-3.107071zm-5.691614 71.979042c.544667-2.185649-.52237-4.660576.786741-6.659802.579704.331062 1.481111.53677 1.477926 1.375673.086 1.603881.07963 3.21419.022296 4.821285-.111481 1.893158-1.449259 3.677034-3.287111 4.172019-2.471704.617125-5.058075-.073926-7.53615.4757-1.407852.446773-2.134074 1.941371-2.118148 3.355615-.044593 2.571352-.028667 5.149132.00637 7.720484-.038222 1.62638 1.398297 2.93777 2.962223 2.97634 1.780519.048213 3.567408.051427 5.347927.003214 1.248593-.051427 2.452593-1.025326 2.57363-2.320645.334444-2.619565-.105111-5.284128.207037-7.903693.245259-1.118538 2.086296-.594625 1.866519.4757.031852 2.368858.009555 4.74093-.009556 7.109788-.038222 2.26279-1.812371 4.496652-4.12163 4.644505-2.064.147853-4.137556.080355-6.204742.067498-1.89837.032142-3.51963-1.391744-4.217186-3.092051-.627481-1.536383-.369481-3.230261-.394963-4.843784.066889-2.021726-.117852-4.04988.092371-6.061963.254815-1.835302 1.411037-3.747745 3.318963-4.152733 2.261482-.424273 4.583482.041784 6.86089-.253921 1.044741-.16071 2.060815-.845332 2.366593-1.909229zm-23.639773-4.448057c.546668-.076096 1.09657-.145575 1.646473-.211745.381697 1.300248.388166 2.663358.210257 4-.614597-.006617-1.22596-.013234-1.834087-.039702-.064695-1.250621-.067929-2.501241-.022643-3.748553zm-10.826978 6.0381c.582629-.006325 1.168459-.006325 1.75429 0 .208082 2.011413-.403359 3.962737-.745894 5.923548-.579428 2.78625-1.034006 5.600963-1.645447 8.380888-.332931 1.796356-1.9335608 3.323891-3.8191027 3.377655-1.6742588.06009-3.6622409.300447-4.9907637-.936129-1.4149567-1.246064-1.8087116-3.159436-2.196064-4.902028-.492994 1.650876-.665862 3.580062-2.0552087 4.791337-1.4565731 1.337779-3.6270271 1.166999-5.4581476 1.008869-1.7863028-.196081-3.2044608-1.628738-3.5501968-3.339704-.8419313-4.048127-1.5878248-8.118392-2.3337183-12.188657-.1152453-.651495-.1408554-1.315641-.1632642-1.973462.5378116-.101203 1.0756232-.189756 1.6166361-.278308.2432957.686284.4705851 1.385218.6082393 2.103128.7074784 3.839395 1.3477303 7.688278 2.08402 11.518185.1696667.929805.7170821 1.869096 1.6934663 2.14108 1.2773026.389 2.7882971.458577 3.9823669-.218219.925164-.578756 1.0660195-1.75208 1.2516925-2.719835.3009184-2.014576.739491-4.003851 1.0660194-6.012101.3425348-2.125267-.6306481-4.14933-.7074783-6.246133.492994-.284634 1.0340068-.47439 1.5622147-.679959.4865914 1.031007.765101 2.14108.9283652 3.263802.4481764 3.219526 1.258095 6.372637 1.7574915 9.582675.2240882 1.043658.2913147 2.39725 1.405353 2.925404 1.1940698.543967 2.6154291.458577 3.8639203.132829.8803464-.24352 1.3093152-1.129047 1.4885857-1.941835.9731829-4.55098 1.7350824-9.139912 2.6026244-13.71303zm10.839487-.113941c.608933-.06298 1.221005-.106071 1.836215-.135904.213441 6.185276.08161 12.38381.069054 18.575715-.360965.135904-.718792.278437-1.076618.424285-.210302-.102756-.630905-.311584-.841206-.417655-.043944-6.148814-.040805-12.297628.012555-18.446441zm35.086991 1.486851c1.432747-1.652366 3.799479-1.661826 5.816761-1.608219 2.042697.094601 4.3586-.353177 6.118559.946011 1.375564.911324 1.918801 2.626758 1.934685 4.20029-.206493 2.172672-1.842557 4.184522-4.02821 4.641761-2.045874.359484-4.136223-.047301-6.18845.236503-1.280259.176589-2.570049 1.109986-2.722536 2.456475-.308152 1.737508 1.175424 3.579076 2.979859 3.550696 2.960798.0473 5.934303-.119829 8.891925.063067.651248.495079.387572 1.223508.142957 1.863642-3.11964.015767-6.242456.053607-9.362095-.003153-1.461338.01892-2.93856-.595987-3.815363-1.781655-1.007053-1.242428-.991169-2.945248-.787852-4.446252.263676-1.699667 1.686892-3.08715 3.367431-3.437174 2.408031-.454085 4.895483.116675 7.300337-.384711 1.982337-.545533 2.875024-3.307886 1.413686-4.812043-.94987-1.176208-2.595463-1.091067-3.95832-1.147827-1.547112.01892-3.195883-.179742-4.641337.485619-1.267552.677974-1.445454 2.223126-1.705954 3.481321-.594065.015767-1.188131.025227-1.782197.034687-.181079-1.504158-.092128-3.184904 1.026114-4.339038zm22.919904 3.226668c.06445-2.206473 1.649927-4.488596 4.008807-4.737612 2.284762-.211191 4.588859-.053586 6.880066-.078803.029003.595748.048338 1.194648.061228 1.793548-2.084966.286841-4.198935-.022065-6.280679.274233-1.19233.141844-2.297652 1.046498-2.462001 2.241145-.273913 4.491748.177239 9.018169-.261023 13.500461-.56394.053586-1.12788.104019-1.688597.157605-.228799-1.005521-.331919-2.033107-.302917-3.060693.045116-3.363295-.035447-6.729741.045116-10.089884z" fill="#fff"/></g></svg>