<svg height="110" viewBox="0 0 253 110" width="253" xmlns="http://www.w3.org/2000/svg" xmlns:xlink="http://www.w3.org/1999/xlink"><mask id="a" fill="#fff"><path d="m0 .967h252.96v17.033h-252.96z" fill="#fff" fill-rule="evenodd"/></mask><g fill="#2e296e" fill-rule="evenodd"><path d="m1.085 10.43c0 2.062 1.743 3.636 3.892 3.636 2.042 0 4.062-1.509 4.062-3.636v-8.102l1.063-1.085h-3.275l1.084 1.085v8.102c0 1.446-1.148 2.595-2.594 2.595-1.467 0-2.765-1.129-2.765-2.595v-8.102l1.085-1.085h-3.637l1.085 1.085zm14.121 2.275v-9.399l6.731 10.484h.435v-11.462l1.085-1.085h-3.275l1.084 1.085v7.975l-5.656-9.06h-2.595l1.064 1.085v10.377l-1.064 1.085h3.275zm11.675-11.462.999 1v10.548l-.999.999h3.381l-1-.999v-10.548l1-1zm9.739 0h-3.551l1.021 1 3.53 11.547h.638l3.636-11.547 1.021-1h-3.02l.978.979-2.658 8.675-2.573-8.675zm16.269 12.547v-2.297l-1.34 1.361h-3.806v-5.273h2.828l1 .998v-2.933l-1 .999h-2.828v-4.466h3.806l1.34 1.339v-2.275h-7.507l.979 1v10.548l-.979.999zm5.635-.999v-4.849h1.893l3.041 5.848h2.084l-.978-.999-2.808-5.148c1.405-.424 2.362-1.743 2.362-2.934 0-2.126-1.978-3.466-4.063-3.466h-3.89l.977 1v10.548l-.977.999h3.359zm0-10.612h1.531c1.34 0 2.404 1.148 2.404 2.508 0 1.298-1.086 2.319-2.404 2.319h-1.531zm16.121 8.124c0-1.235-.575-1.999-1.17-2.405l-2.553-1.849c-.914-.658-1.382-1.509-1.382-2.149 0-1.317 1.127-1.785 1.808-1.785.362 0 .616.149.808.149l1.106 1.191 1.169-1.744-2.487-.468c-.17-.043-.276-.064-.596-.064-2.191 0-3.19 1.871-3.19 3.084 0 .957.489 2.042 1.616 2.87l2.574 1.85c.701.49.893 1.212.893 1.83 0 1.063-.66 2.212-2.084 2.212-.34 0-.639-.064-.872-.171l-1.192-1.403-1.084 1.956 2.404.469s.404.084.744.084c1.509 0 3.488-1.276 3.488-3.657zm3.635-9.06 1 1v10.548l-1 .999h3.383l-1-.999v-10.548l1-1zm11.379 11.548v-10.612h2.381l1.339 1.339v-2.275h-8.825v2.275l1.361-1.339h2.36v10.612l-.978.999h3.36zm6.612-10.548 3.169 5.72v4.828l-.999.999h3.381l-.999-.999v-4.828l3.232-5.699 1.042-1.021h-3.104l.978.979-2.638 4.699-2.509-4.699.978-.979h-3.551zm20.473 3.603c-.46 0-1.183.211-1.908.635-1.219.725-2.544 2.368-2.544 4.84 0 1.238.582 2.616 2.226 2.616.777 0 1.891-.513 2.633-1.184 1.166-1.06 1.854-2.88 1.854-4.452 0-1.467-.778-2.455-2.261-2.455zm-3.021 5.051c0-2.614 1.324-4.028 1.873-4.257.157-.071.406-.142.583-.142.883 0 1.396.672 1.396 2.032.035 2.297-1.166 4.382-1.908 4.629-.143.053-.372.123-.547.123-.991 0-1.397-1.059-1.397-2.385zm7.949-4.627-.475.458.052.177h1.467c-.23 1.59-.442 2.968-.778 5.194-.477 3.303-.883 4.47-1.219 4.752-.106.106-.282.159-.441.159-.213 0-.548-.159-.778-.265-.212-.105-.388.018-.495.125-.141.158-.299.405-.299.6 0 .353.459.53.759.53.336 0 1.184-.282 1.944-1.219.599-.742 1.413-2.455 2.101-6.448.124-.743.266-1.484.567-3.428l1.8-.177.39-.458h-2.085c.53-3.27.972-4.258 1.731-4.258.531 0 .972.211 1.361.582.123.124.318.124.494-.018.142-.123.354-.406.354-.653.017-.354-.459-.741-1.06-.741-1.025 0-2.103.6-2.845 1.483-.689.83-1.148 2.173-1.395 3.605zm18.596 7.52 2.871-9.081 2.786 9.081h.638l3.637-11.547 1.02-1h-3.019l.977.979-2.658 8.675-2.573-8.675.978-.979h-3.551l1 1 .254.829-2.403 7.825-2.573-8.675.978-.979h-3.551l1.021 1 3.53 11.547zm13.341-.978.914-2.659h4.148l.871 2.659-.977.978h3.551l-.999-1.022-3.913-11.525h-.639l-3.978 11.525-1.019 1.022h3.019zm3.02-8.783 1.723 5.189h-3.51zm14.038 6.274c0-1.235-.575-1.999-1.169-2.405l-2.552-1.849c-.915-.658-1.383-1.509-1.383-2.149 0-1.317 1.127-1.785 1.808-1.785.361 0 .616.149.807.149l1.107 1.191 1.17-1.744-2.489-.468c-.17-.043-.276-.064-.595-.064-2.191 0-3.19 1.871-3.19 3.084 0 .957.488 2.042 1.615 2.87l2.574 1.85c.702.49.893 1.212.893 1.83 0 1.063-.659 2.212-2.083 2.212-.341 0-.639-.064-.874-.171l-1.19-1.403-1.084 1.956 2.402.469s.405.084.746.084c1.509 0 3.487-1.276 3.487-3.657zm5.657-2.808h5.273v5.296l-.999.999h3.381l-.999-.999v-10.548l.999-1h-3.381l.999 1v4.316h-5.273v-4.316l.999-1h-3.361l.98 1v10.548l-.98.999h3.361l-.999-.999zm11.143-6.252.999 1v10.548l-.999.999h3.38l-.998-.999v-10.548l.998-1zm8.995 11.462v-9.399l6.602 10.489.565-.005v-11.462l1.085-1.085h-3.275l1.084 1.085v7.975l-5.657-9.06h-2.595l1.063 1.085v10.377l-1.063 1.085h3.276zm18.604-4.614v4.04c-.298.299-.894.894-2.063.894-2.786 0-4.189-2.807-4.189-5.508 0-2.722 1.766-5.508 4.189-5.508.638 0 1.106.148 1.532.595l1.382 1.361v-2.169c-.745-.383-1.489-.724-2.914-.724-3.423 0-5.827 3.063-5.827 6.445 0 3.317 2.404 6.443 5.827 6.443 1.936 0 2.765-.468 3.446-.914v-4.955l.977-.999h-3.359zm9.29 4.7v-10.612h2.381l1.34 1.339v-2.275h-8.826v2.275l1.362-1.339h2.36v10.612l-.978.999h3.359zm5.674-5.274c0 3.189 1.806 6.549 5.018 6.549 3.233 0 5.04-3.36 5.04-6.549 0-3.191-1.807-6.55-5.04-6.55-3.212 0-5.018 3.359-5.018 6.55zm5.018 5.592c-2.509 0-3.381-2.999-3.381-5.592 0-2.595.872-5.594 3.381-5.594 2.531 0 3.403 2.999 3.403 5.594 0 2.593-.872 5.592-3.403 5.592zm9.694-.404v-9.399l6.525 10.484h.641v-11.462l1.085-1.085h-3.276l1.085 1.085v7.975l-5.656-9.06h-2.596l1.064 1.085v10.377l-1.064 1.085h3.277z" mask="url(#a)" transform="translate(0 92)"/><path d="m73 0v13.166h8.297l14.568 58.834h20.427l9.705-36.817 9.309 36.817h20.43l15.372-58.834h7.892v-13.166h-28.121v13.166h9.302l-10.11 38.289-12.544-51.455h-12.944l-13.754 51.862-9.912-38.696h10.116v-13.166z"/></g></svg>