<svg height="38" viewBox="0 0 144 38" width="144" xmlns="http://www.w3.org/2000/svg"><path d="m9.99999111.04625333c-5.51999778 0-10 4.48-10 9.99999997l.07708889 27.7777756h8.88888889l-.07708889-18.4791645v-9.2986111c.00000222-.57499997.43994222-1.05417774 1-1.11111108.03733778-.00379555.07277778 0 .11111111 0 .30666669 0 .58361109.12527778.78472219.32638889l23.3206645 25.58569109c1.8100022 1.8100022 4.3094444 2.9305556 7.0694444 2.9305556 5.5199978 0 10.0000022-4.4799978 10-10v-27.7777778h-8.8888889v17.8402778 9.9375c0 .01432.0005378.0274778 0 .0416666-.0224955.5935445-.5120977 1.0694445-1.1111111 1.0694445-.3066666.0000022-.5836111-.1252778-.7847222-.3263889l-23.3206644-25.58569111c-1.8099978-1.80999778-4.3094467-2.93055556-7.06944449-2.93055556zm45.61927559-.04625333v27.7777778c0 5.5199978 4.48 10 10 10h37.7777773c6.180985-.2917756 11.111107-5.3930489 11.111112-11.6458334 0-6.2527977-4.930109-11.36102-11.111112-11.6527777v-.0347223h-24.444444c-1.2361978-.0695755-2.22222-1.2868044-2.2222222-2.7777777 0-1.49098.98602-2.7082067 2.2222222-2.77777781h40v28.88888891h8.888889v-28.88888891h15.555555v-8.88888889h-64.444444v.03472222c-6.1810022.29175778-11.1111111 5.39998-11.1111111 11.65277778.0000044 6.2527844 4.9301267 11.3540578 11.1111111 11.6458333h24.444444c1.236203.0695711 2.222223 1.2867978 2.222223 2.7777778-.000003 1.4909733-.986025 2.7082022-2.222223 2.7777778h-27.8402773-9.9375c-.6133156-.0000022-1.1111111-.4977622-1.1111111-1.1111111v-9.9375-17.8402778z" fill-rule="evenodd"/></svg>