<svg height="31" viewBox="0 0 145 31" width="145" xmlns="http://www.w3.org/2000/svg"><g fill="none" fill-rule="evenodd"><path d="m0 0h14.7300183c-.0008847 4.9100061 0 9.8200122-.0008847 14.7300183-4.9091214 0-9.8191275 0-14.7291336 0z" fill="#f25022"/><path d="m14.7300183 0h1.5039658c0 4.9100061-.0008846 9.8200122.0008847 14.7300183 4.9091214 0 9.8191275-.0008847 14.728249 0 .0017693-4.9100061.0008846-9.8200122.0008846-14.7300183h114.0359976v11.4557962c-1.051007.0035388-2.102013-.0079622-3.152135.0070775-.023887-1.3296827-.002655-2.65936546-.011501-3.98816351-1.051007.31671751-2.095821.65378279-3.152136.95457596-.025656 1.00854179-.001769 2.01796825-.01327 3.02651005-1.553508-.0008847-3.107017.0017694-4.660525-.0017694.019463-.7944478-.05485-1.59508842.059274-2.38511283.094662-.62281879.455613-1.24563758 1.062508-1.48627212.765253-.31406345 1.620744-.1052776 2.347956.21497865-.004424-.91034167.007077-1.82068334-.006193-2.73014033-1.530506-.42111043-3.284838-.33883465-4.642831.54496644-.875839.56089079-1.511043 1.45796218-1.796797 2.452349-.33795 1.1014338-.165436 2.26479559-.219402 3.39542399-.736943-.0053081-1.473002-.0123856-2.208176.0044235.007963.8510677.004424 1.7021354.00177 2.5523185.738712.0150396 1.47831-.0026541 2.217022.0115009-.006192 3.581208-.001769 7.1615314-.001769 10.7427395h3.185754c0-3.5820928-.000885-7.1641855.000884-10.7462783 1.553508-.002654 3.107901-.0017693 4.662294-.0008847.004424 2.2833741-.004423 4.5658634.003539 6.8483527.014155 1.0633923.195516 2.2002135.899725 3.0397804.609549.743136 1.577395 1.0828554 2.511623 1.1518608.984656.0698902 2.002044-.050427 2.912386-.4458816v6.3458511h-114.0359976c0-4.9100061 0-9.8200122 0-14.7300183-4.9100061 0-9.8200122-.0008846-14.7291336.0008847-.0017693 4.9091214 0 9.8191275-.0008847 14.7291336h-1.5039658c0-4.9100061.0008847-9.8191275 0-14.7291336-4.9100061-.002654-9.8200122 0-14.7300183-.0017693v-1.5030812h14.7291336c.0008847-4.9100061 0-9.8200122.0008847-14.7300183" fill="#fefefe"/><path d="m16.2339841 0h14.7300183c0 4.9100061.0008847 9.8200122-.0008846 14.7300183-4.9091215-.0008847-9.8191276 0-14.728249 0-.0017693-4.9100061-.0008847-9.8200122-.0008847-14.7300183" fill="#80ba01"/><path d="m132.831147 5.61244661c1.357993-.88380109 3.112325-.96607687 4.642831-.54496644.01327.90945699.001769 1.81979866.006193 2.73014033-.727212-.32025625-1.582703-.5290421-2.347956-.21497865-.606895.24063454-.967846.86345333-1.062508 1.48627212-.114124.79002441-.039811 1.59066503-.059274 2.38511283 1.553508.0035388 3.107017.0008847 4.660525.0017694.011501-1.0085418-.012386-2.01796826.01327-3.02651005 1.056315-.30079317 2.101129-.63785845 3.152136-.95457596.008846 1.32879805-.012386 2.65848081.011501 3.98816351 1.050122-.0150397 2.101128-.0035387 3.152135-.0070775v2.5868212c-1.054545-.0433496-2.109976-.0115009-3.164521-.0150396.004423 1.4871568.000885 2.9743136.001769 4.4623551.016809.8236425-.044234 1.6517083.052197 2.4726968.058389.4839231.234442 1.0200427.688285 1.2704087.759945.4255339 1.724253.2397499 2.42227-.2273642v2.6124771c-.910342.3954546-1.92773.5157718-2.912386.4458816-.934228-.0690054-1.902074-.4087248-2.511623-1.1518608-.704209-.8395669-.88557-1.9763881-.899725-3.0397804-.007962-2.2824893.000885-4.5649786-.003539-6.8483527-1.554393-.0008846-3.108786-.0017693-4.662294.0008847-.001769 3.5820928-.000884 7.1641855-.000884 10.7462783-1.061623 0-2.124131 0-3.185754 0 0-3.5812081-.004423-7.1615315.001769-10.7427395-.738712-.014155-1.47831.0035387-2.217022-.0115009.002654-.8501831.006193-1.7012508-.00177-2.5523185.735174-.0168091 1.471233-.0097316 2.208176-.0044235.053966-1.1306284-.118548-2.29399019.219402-3.39542399.285754-.99438682.920958-1.89145821 1.796797-2.452349m-68.2075045.18578402c.6422818-.09731544 1.3376449.12208664 1.7631787.62458816.4989628.55027456.5909701 1.42611349.2211715 2.06928005-.4087249.72544234-1.32349 1.06250763-2.1205918.88822453-.8271813-.14862721-1.5163515-.91741916-1.4791947-1.77467968-.0238865-.9023795.7307505-1.70655888 1.6154363-1.80741306m-24.4146736.39456986h4.6330994c1.4420379 3.66171446 2.8946919 7.31989021 4.3384991 10.98160461.368914.9156498.7139414 1.8419158 1.1005491 2.7504881 1.8551861-4.5755948 3.7369128-9.1396888 5.5779439-13.72147648 1.4853874-.02388652 2.9716596-.00530812 4.4579317-.00884686-.0035388 6.19191584-.0017694 12.38383164-.0008847 18.57574744-1.0722392-.0026541-2.1435937.0088468-3.2149482-.0061928.011501-4.5694021-.0008846-9.1388042.0053082-13.7090909.0017693-.2052471-.0053082-.4104942-.0194631-.6157413-.0628127.095546-.1185479.1946308-.1672056.2972544-1.8410312 4.6773337-3.7174497 9.3413972-5.5478646 14.0231543-.7625991.0274253-1.526083.0017694-2.2895668.014155-1.8994204-4.6773337-3.7749542-9.3652837-5.6646431-14.0461562-.0495424-.0973154-.1026235-.1919768-.1601281-.2830994-.0389262 2.0020439-.0061928 4.0058572-.016809 6.0079011.0008847 2.7726053-.0017694 5.5452105.0008847 8.3178158-1.0111959.002654-2.0223918 0-3.0327029.0008847-.0008847-6.1928005-.0017694-12.385601 0-18.57840151m33.1819097 5.25061011c1.5375839-.4379194 3.195485-.4202257 4.7321842.014155.3167176.0884686.6237035.2114399.9085723.3786455-.0176937 1.0147346 0 2.0303539-.0097315 3.0459732-1.0271202-.7847163-2.3302624-1.2819097-3.6360586-1.1173582-1.0368517.0937767-2.0259304.6316657-2.6460952 1.4694631-.7971018 1.0386211-.9811165 2.4178462-.8439902 3.688255.1026236.9943869.5140025 1.987889 1.2872178 2.6469799.8032947.7139414 1.9294997.9669616 2.9805064.8873398 1.0386211-.1194325 2.018853-.5591214 2.8584198-1.1730933.0088469.9616534-.0044234 1.9233069.0070775 2.8849603-1.3022575.7749848-2.8637279.9749238-4.3544234.9014948-1.5251983-.0805064-3.0459732-.6582062-4.1500611-1.7304453-1.1996339-1.1562844-1.8507626-2.8053387-1.9277303-4.457047-.0778523-1.7171751.2715986-3.5086638 1.2597926-4.9427395.8280659-1.2235204 2.1232459-2.0896278 3.5343197-2.4965833m21.5836791-.2291336c1.528737-.1946309 3.1415192-.1079317 4.5605552.537889 1.2314821.5555826 2.2294081 1.5827028 2.7823371 2.8124161.590085 1.3093349.733404 2.7796827.633435 4.1996034-.0982 1.3863026-.533466 2.7752593-1.400458 3.8766931-.88734 1.1695546-2.2249847 1.9622331-3.6572909 2.2568334-1.2244052.2547895-2.5054302.2539048-3.7298353-.0035387-1.4650397-.3131788-2.821263-1.1633618-3.6802929-2.4001526-1.0085418-1.4331909-1.29518-3.2556436-1.1669005-4.9728187.0866992-1.4570775.5396583-2.9256559 1.4703478-4.06867 1.019158-1.2801403 2.5823978-2.035662 4.1881025-2.238255m13.2154363.0265406c1.473002-.259213 3.015009-.0690055 4.409274.4591519.001769.9766931 0 1.9525015.000885 2.9283099-.97404-.6697071-2.163942-1.0297742-3.345882-.988194-.595394.0230018-1.250061.2751373-1.52166.8413362-.215863.5600061-.066351 1.2942953.461806 1.6295912.903265.6042404 1.980812.8607993 2.916809 1.402227.736944.4140329 1.45177.9554606 1.825107 1.7357535.701556 1.4615009.404302 3.39277-.82895 4.4827029-1.177517 1.1005491-2.87346 1.404881-4.433161 1.3464917-1.107627-.0716595-2.220561-.2901769-3.238835-.743136.004424-1.0271202-.006192-2.0533557.005309-3.0795913.856375.6219342 1.844569 1.0669311 2.890268 1.247407.728096.1185479 1.51989.123856 2.198444-.2017084.64936-.3229103.766138-1.2456375.380415-1.8100671-.360952-.4352654-.890879-.6750152-1.390726-.9103416-.938652-.4219952-1.925076-.7749848-2.749603-1.4075351-.57947-.4520745-1.018274-1.0890482-1.189903-1.8074131-.254789-1.0589689-.175168-2.25241.440574-3.1777913.703325-1.078432 1.925076-1.7251373 3.169829-1.9471934m12.17593-.030964c1.589781-.197285 3.277761-.090238 4.728646.6422818 1.265101.6325504 2.246217 1.7755644 2.736333 3.097285.383069 1.0111958.517541 2.1028981.495424 3.1795607.002654 1.6083587-.431727 3.2591824-1.441153 4.5348993-.944845 1.2350214-2.390421 2.0374314-3.916504 2.2895668-1.492465.2415192-3.068975.1787066-4.487126-.3795302-1.43673-.5653142-2.631056-1.7189445-3.236181-3.1397498-.630781-1.4482307-.697132-3.0778219-.500732-4.6251373.206132-1.5473154.906803-3.0601281 2.101129-4.0890177.978462-.8590299 2.238255-1.3456071 3.520164-1.5101586m-34.2107989.450305c.8793776-.5281574 1.9967358-.5723917 2.9566199-.2494814-.0044235 1.0625077 0 2.1250153-.0026541 3.1875229-.6281269-.4069554-1.4119585-.5812385-2.1533252-.5060402-.9041489.1026235-1.6207443.7971018-1.9923124 1.5933191-.4034167.8431055-.4794997 1.7967968-.4538438 2.7186394 0 2.1223612.0008847 4.2447224 0 6.3670836-1.047468 0-2.0940512 0-3.1406345 0-.0026541-4.4358146.0035387-8.8725138-.0026541-13.3083283 1.0483527-.0132703 2.0967053-.0079622 3.145058-.0026541-.0044234.7617145 0 1.523429-.0026541 2.2860281.3406041-.8289506.847529-1.6340146 1.6464003-2.0860891m-22.8576266-.199939c1.0563148-.0044234 2.1135143-.0150396 3.1698291.0053082-.0123856 4.4349298-.0008846 8.8707443-.0053081 13.3056742-1.0545454 0-2.1090909 0-3.1627517 0-.002654-4.4366993.0008847-8.8733985-.0017693-13.3109824" fill="#777"/><path d="m95.9247102 13.742709c.95723-.0628127 1.976388.2079011 2.6646736.9041488.7360585.723673 1.0209274 1.773795 1.0996644 2.7752593.0566199 1.0961257.0115009 2.2382551-.4485357 3.2538744-.3043319.6847468-.8616839 1.2633313-1.5650091 1.5375839-.8227578.3158328-1.7472545.3344112-2.5965528.1141244-.864338-.2273642-1.5977425-.8519524-1.9967358-1.6472849-.5131178-1.0244662-.5900855-2.2090604-.4839232-3.3326114.0964308-1.021812.4520745-2.0728188 1.230598-2.7779133.5644295-.5272728 1.3341061-.7847163 2.0958206-.8271812m25.3011288.002654c.899725-.0628127 1.860494.1450885 2.552318.7528676.637859.5290421.990848 1.3217206 1.152746 2.1197072.182245.9359975.180476 1.9047285.026541 2.8451494-.122087.7006712-.364491 1.399573-.823643 1.9542709-.462691.5573521-1.150976.8970714-1.861379 1.0014644-.762599.1141244-1.565894.0592739-2.27895-.2477121-.769677-.3255643-1.365955-.9917327-1.680019-1.7578706-.377761-.9129957-.452959-1.9241916-.377761-2.9008847.072545-.9457291.340605-1.9162294.965193-2.6514033.569737-.6865162 1.443807-1.0660464 2.324954-1.1155888m20.60964.2822148c1.054545.0035387 2.109976-.02831 3.164521.0150396v7.9630568c-.698017.4671141-1.662325.6528981-2.42227.2273642-.453843-.250366-.629896-.7864856-.688285-1.2704087-.096431-.8209885-.035388-1.6490543-.052197-2.4726968-.000884-1.4880415.002654-2.9751983-.001769-4.4623551" fill="#fefefe"/><path d="m0 16.2330995c4.9100061.0017693 9.8200122-.0008847 14.7300183.0017693.0008847 4.9100061 0 9.8191275 0 14.7291336h-14.7300183z" fill="#02a4ef"/><path d="m16.2348688 16.2348688c4.9091214-.0017693 9.8191275-.0008847 14.7291336-.0008847v14.7300183h-14.7300183c.0008847-4.9100061-.0008846-9.8200122.0008847-14.7291336" fill="#ffb902"/></g></svg>