<svg height="53" viewBox="0 0 135 53" width="135" xmlns="http://www.w3.org/2000/svg"><g fill="none"><path d="m73.1935775.2285493v11.639662l.0627464 2.3174366-.7156901-2.1212113-4.8904225-11.8358873h-3.5552536v23.2180986h4.0104508v-11.6750282l-.0965916-2.24974646.7495352 2.08584506 4.8904225 11.8389296h3.5217888v-23.2180986zm6.1940281 0v3.94504225h4.0781409v19.27305635h4.2698028v-19.27305635h4.0123521v-3.94504225zm14.837831 0v23.2180986h10.7615914v-3.9477042h-6.4887463v-5.8023381h5.4787183v-3.9142394h-5.4787183v-5.60877465h6.4887463v-3.94504225zm19.3122254 23.445507c-3.489845 0-6.260577-1.6949155-6.260577-7.140169v-9.3914366c0-5.44677464 2.770732-7.14169014 6.260577-7.14169014 3.553732 0 6.12862 1.6949155 6.194789 7.33639437h-4.335972c-.033465-2.54408451-.456338-3.39173239-1.858817-3.39173239-1.141986 0-1.95693.52098591-1.95693 3.29323943v9.16326763c0 2.7722535.847268 3.3274648 1.924606 3.3274648 1.270521 0 1.857676-.7187324 1.891141-3.4251972h4.335591c-.096591 5.250169-2.44445 7.3698591-6.194788 7.3698591zm17.191014-.228169v-9.7177183h-3.913859v9.7177183h-4.271324v-23.21809857h4.271324v9.4895493h3.913859v-9.4895493h4.271324v23.21809857zm-66.6340985 29.1520141v-23.2177183h4.2713239v19.2715352h6.6849718v3.9461831zm20.1442817-13.043662-.4567184-2.5440845-.4243943 2.5440845s-1.1404648 5.7719155-1.1724085 5.7719155h3.2597747zm2.7064647 13.043662-.7833802-3.7499577h-4.6618733l-.750676 3.7499577h-4.2070564l5.3809859-23.2180986h3.7838029l5.4771971 23.2180986zm11.9435071-9.9128028h-1.860338v6.0335493h1.860338c1.858817 0 2.347859-1.109662 2.347859-3.0331268 0-1.9246056-.456718-3.0004225-2.347859-3.0004225zm-.1962254-9.4237606h-1.6641126v5.5753099h1.7302816c1.7591834 0 2.2170424-1.0758169 2.2170424-2.7707324 0-1.8591972-.588296-2.8045775-2.2832114-2.8045775zm.4890423 19.3361831h-6.4229578v-23.2169577h6.2601972c4.2713237 0 6.2282537 2.0215774 6.2282537 6.3583098v.4567183c0 2.6406761-1.304366 3.9785071-2.445592 4.4998733 1.141606.4243944 2.706465 1.7930282 2.706465 4.8580986v.456338c0 4.7618873-2.640676 6.5872394-6.3263661 6.5872394z" fill="#fefefe"/><path d="m49.7320986 23.7603803c-1.4621831 0-2.6494225 1.1857183-2.6479014 2.6479014 0 1.4623956 1.1855057 2.6479014 2.6479014 2.6479014s2.6479014-1.1855058 2.6479014-2.6479014-1.1855057-2.6479014-2.6479014-2.6479014zm-47.08305635 5.2969436c-1.44531939-.0244925-2.60415773-1.203135-2.60415773-2.6486619s1.15883834-2.6241695 2.60415773-2.648662c1.4453194.0244925 2.60415772 1.2031351 2.60415772 2.648662s-1.15883832 2.6241694-2.60415772 2.6486619zm11.77009855 0c-.554431-.0013383-1.0943132-.1775286-1.5428028-.5034929l-8.0828873 8.0828873c.3261748.4483821.50238798.9883344.50349296 1.5428028 0 1.4623957-1.18550584 2.6479014-2.64790141 2.6479014-1.46239556 0-2.6479014-1.1855057-2.6479014-2.6479014 0-1.4623955 1.18550584-2.6479014 2.6479014-2.6479014.55461435.0001912 1.09484199.1764942 1.54280282.503493l8.08288733-8.0828873c-.3133521-.4361831-.503493-.9662958-.503493-1.5428029.000871-.5545058.1771071-1.0945285.503493-1.5428028l-8.08288733-8.0844084c-.44838208.3261748-.98833436.5023879-1.54280282.5034929-.70249979-.0001008-1.37617583-.2793165-1.87277555-.7762015-.49659971-.496885-.77542849-1.1707213-.77512585-1.873221-.00152113-1.460662 1.18533802-2.6479014 2.6479014-2.6479014 1.46264161.0008397 2.64790164 1.1867807 2.64790141 2.6494225-.00110498.5544685-.17731816 1.0944208-.50349296 1.5428028l8.0828873 8.0844085c.4361831-.3148733.9659155-.5050141 1.5428028-.5050141 1.4631487.00021 2.6492126 1.1862739 2.6494226 2.6494225-.0008398 1.4626416-1.1867807 2.6479017-2.6494226 2.6479014zm11.7712395 18.2447747c1.4621831 0 2.6490422 1.1857183 2.6479014 2.6479014 0 1.4623957-1.1855059 2.6479014-2.6479014 2.6479014-1.4623956 0-2.6479014-1.1855057-2.6479014-2.6479014s1.1855058-2.6479014 2.6479014-2.6479014zm-13.5030423-7.1344648.0003803.0003803-8.05056337 8.0505634c.40538028.4654648.66016901 1.0670704.66016901 1.7318028.00020182.7023289-.27870788 1.3759504-.77532949 1.8725721-.49662161.4966212-1.17024295.7755312-1.87257191.7753293-.70249974.0003027-1.37633603-.2785263-1.87322102-.7751259s-.77610071-1.1702758-.77620152-1.8727755c.0006298-1.4626417 1.1864005-2.6480718 2.64904225-2.6482817.48752113 0 .93815493.1422253 1.33060564.3719155l8.16350701-8.1631268c-.2312112-.3924507-.3719155-.8434648-.3719155-1.3306056-.0000002-1.4626418 1.1852598-2.6485828 2.6479014-2.6494225 1.4628157 0 2.648662 1.1858463 2.648662 2.6486619 0 1.4628155-1.1858463 2.648662-2.648662 2.648662-.6647323 0-1.266338-.2547887-1.7318028-.6605493zm25.2735212 7.1344648c1.4621831 0 2.6494225 1.1857183 2.6479014 2.6479014.0015211 1.4621831-1.1857183 2.6479014-2.6479014 2.6479014-1.4623956 0-2.6479015-1.1855057-2.6479015-2.6479014 0-.6658732.2547888-1.266338.6601691-1.7318028l-8.0505634-8.0505634c-.4654648.4053803-1.0670704.660169-1.7318028.660169-.6658733 0-1.2674789-.2547887-1.7329437-.660169l-8.0494225 8.0505634c.4053802.4654648.660169 1.0659296.660169 1.7318028-.0001008.7024997-.2793165 1.3761759-.7762015 1.8727755s-1.1707213.7754286-1.8732211.7751259c-1.4623955 0-2.6479014-1.1855057-2.6479014-2.6479014s1.1855059-2.6479014 2.6479014-2.6479014c.4875212 0 .9385353.1403239 1.3306057.3703944l8.163507-8.161986c-.2312112-.3924507-.3719155-.8430845-.3719155-1.3306056 0-1.4628156 1.1858464-2.648662 2.648662-2.648662s2.648662 1.1858464 2.648662 2.648662c0 .4875211-.140324.9381549-.3719155 1.3306056l8.163507 8.161986c.3924507-.2296902.8430845-.3703944 1.3306057-.3703944zm11.7712394 0c1.4623957 0 2.6479014 1.1855057 2.6479014 2.6479014s-1.1855057 2.6479014-2.6479014 2.6479014c-1.4621831 0-2.6494225-1.1857183-2.6479014-2.6479014-.0015211-.6658732.2532676-1.266338.6586479-1.7318028l-8.0490423-8.0505634c-.4654648.4053803-1.0670704.660169-1.7318028.660169-.7024997.0003027-1.376336-.2785263-1.873221-.7751259s-.7761007-1.1702758-.7762015-1.8727755c0-1.4628156 1.1858463-2.648662 2.6486619-2.648662 1.4628155 0 2.648662 1.1858464 2.648662 2.648662 0 .4875211-.1418451.9381549-.3715352 1.3306056l8.1631268 8.161986c.3924507-.2296902.8430845-.3703944 1.3306056-.3703944zm-23.5417183-41.78725353c-1.4621831 0-2.6494226-1.18571831-2.6479014-2.64790141 0-1.46239556 1.1855058-2.64790141 2.6479014-2.64790141 1.4623955 0 2.6479014 1.18550585 2.6479014 2.64790141s-1.1855059 2.64790141-2.6479014 2.64790141zm13.502662 7.13408453 8.0505633-8.0505634c-.4053802-.46508451-.660169-1.06707043-.660169-1.73142254 0-1.46239556 1.1855058-2.64790141 2.6479014-2.64790141.7024997-.00030263 1.3763361.27852615 1.8732209.77512586.4968851.49659971.7761009 1.17027576.7762017 1.87277555-.0008397 1.46264161-1.1867809 2.64790164-2.6494226 2.64790141-.4875211 0-.9381549-.14070422-1.3306056-.37191549l-8.163507 8.16312672c.2312112.3924507.3719154.8434648.3719154 1.330986.0000004 1.4626418-1.1852596 2.6485828-2.6479014 2.6494225-1.4628156 0-2.6486619-1.1858464-2.6486619-2.648662s1.1858463-2.648662 2.6486619-2.648662c.6647324 0 1.2663381.2544085 1.7318029.6597888zm10.038676-.6597888h.0003803c1.4625546.0010495 2.6476919 1.1868676 2.6479014 2.6494226 0 1.3480986-1.0130704 2.4490141-2.3159155 2.6144366-.1110422.0129296-.2194225.0334648-.3323662.0334648-.5545058-.000871-1.0945287-.1771071-1.5428028-.503493l-8.0840282 8.0828874c.3148733.4361831.5050141.9659154.5050141 1.5428028-.0007115.5547713-.1775448 1.094991-.5050141 1.5428028l8.0840282 8.0828873c.4350422-.3133521.9647746-.5034929 1.5428028-.5034929.7024339.0001008 1.3760523.2792643 1.8726409.776067.496589.4968028.7754624 1.1705413.7752605 1.8729752 0 1.4623957-1.1855057 2.6479014-2.6479014 2.6479014s-2.6479014-1.1855057-2.6479014-2.6479014c.0004738-.5549208.1767371-1.0954262.503493-1.5439437l-8.0828874-8.0828873c-.4358028.3133521-.9659155.503493-1.5439436.503493-1.4623956 0-2.6479014-1.1855059-2.6479014-2.6479014 0-1.4623956 1.1855058-2.6479014 2.6479014-2.6479014.5549386.001096 1.0953778.1772944 1.5443239.5034929l8.0825071-8.0828873c-.3148733-.434662-.503493-.9647747-.5050141-1.5428028h.0015211l-.0015211-.0015211c.0008396-1.4626417 1.1867808-2.6479017 2.6494225-2.6479015zm-35.3118169-6.47429573c-1.4625634 0-2.6494225-1.18571831-2.6482817-2.64790141-.0011408-1.4621831 1.1857183-2.64790141 2.6482817-2.64790141 1.4623956 0 2.6479014 1.18550585 2.6479014 2.64790141 0 .66587324-.2547887 1.26595775-.660169 1.73180282l8.0505634 8.05056342c.4650845-.4053803 1.0670704-.6601691 1.7314225-.6601691.6662535 0 1.2678592.2544085 1.733324.6597888l8.0490422-8.0505634c-.4053803-.46508451-.660169-1.0655493-.660169-1.73142254.0001008-.70249979.2793165-1.37617584.7762015-1.87277555s1.1707213-.77542849 1.873221-.77512586c1.4623957 0 2.6479014 1.18550585 2.6479014 2.64790141s-1.1855057 2.64790141-2.6479014 2.64790141c-.4875211 0-.9381549-.14070422-1.3306056-.37039437l-8.1631268 8.1616056c.230831.3924507.3715353.8434648.3715353 1.330986.0000002 1.4626418-1.1852599 2.6485828-2.6479015 2.6494225-1.4631486-.00021-2.6492125-1.1862739-2.6494225-2.6494225 0-.4875212.1407042-.9385353.3719155-1.3306057l-8.163507-8.1619859c-.3920705.22969015-.8430845.37039437-1.3302254.37039437zm-11.77161971 0c-1.46239555-.00000004-2.64790135-1.18550585-2.64790135-2.64790141 0-1.46239554 1.1855058-2.64790138 2.64790135-2.64790141 1.46256338 0 2.64942254 1.18571831 2.64790141 2.64790141.00152113.66587324-.25326761 1.26595775-.65864789 1.73180282l8.04942249 8.05056342c.4650846-.4053803 1.0670705-.6601691 1.7314226-.6601691.7024997-.0003026 1.376336.2785262 1.873221.7751259s.7761007 1.1702757.7762015 1.8727756c0 1.4628156-1.1858463 2.6486619-2.648662 2.6486619-1.4628156 0-2.6486619-1.1858463-2.6486619-2.6486619 0-.4875212.141845-.9385353.3719155-1.3306057l-8.16312679-8.1619859c-.39245071.22969015-.84346479.37039437-1.33098592.37039437z" fill="#fff"/></g></svg>