<svg height="251" viewBox="0 0 772 251" width="772" xmlns="http://www.w3.org/2000/svg"><g fill="none" fill-rule="evenodd"><circle cx="125.05" cy="125.05" fill="#38b5e4" r="125"/><circle cx="125.02" cy="125.02" fill="#003045" r="118.84"/><path d="m168.95 59.02v73.27c0 1.15-.93 2.08-2.08 2.08h-55.69c-1.15 0-2.08-.93-2.08-2.08v-14.55c0-1.15.93-2.08 2.08-2.08h39v-39.9h-39c-1.15 0-2.08-.93-2.08-2.08v-14.66c0-1.15.93-2.08 2.08-2.08h55.69c1.15 0 2.08.93 2.08 2.08zm-71.18 26.1h-14.7c-1.09 0-1.97.88-1.97 1.97v104.03c0 1.09.88 1.97 1.97 1.97h14.7c1.09 0 1.97-.88 1.97-1.97v-104.03c0-1.09-.88-1.97-1.97-1.97zm69.2 58.48h-14.7c-1.09 0-1.97.88-1.97 1.97v45.57c0 1.09.88 1.97 1.97 1.97h14.7c1.09 0 1.97-.88 1.97-1.97v-45.57c0-1.09-.88-1.97-1.97-1.97z" fill="#38b5e4" fill-rule="nonzero"/><path d="m97.69 56.93h-14.49c-1.15 0-2.08.93-2.08 2.08v14.67c0 1.15.93 2.08 2.08 2.08h14.49c1.15 0 2.08-.93 2.08-2.08v-14.67c0-1.15-.93-2.08-2.08-2.08z" fill="#fbb450"/><g fill="#033" transform="translate(304 85)"><path d="m0 0h9.0192233c.06815534 24.0674227.07572816 48.1423711.00757282 72.2097938-3.00640777.0602062-6.02038835.0526804-9.02679612.0301031z"/><path d="m96.8714563 0h11.4046607c8.102912 24.0523711 16.08466 48.1423711 24.081553 72.2248454-3.407767.0752577-6.823107.0752577-10.223301-.0602062-2.400583-7.2473196-4.286214-14.6602062-6.936699-21.8247423-8.845049.0150516-17.6900972-.0827835-26.5351457.0526804-2.5974758 7.1871134-4.5436893 14.5774227-7.02 21.802165-3.0139806.0903092-6.035534.097835-9.0495146.0225773 7.966602-24.1125773 16.0165049-48.2101031 24.2784466-72.2173196zm-5.8537864 42.8893814c7.3153398-.0075257 14.6231071.0526805 21.9308741-.030103-3.551651-11.2886598-6.83068-22.6826805-10.798835-33.82835056-4.0287381 11.17577316-7.3834954 22.58484536-11.1320391 33.85845356zm105.8755341-42.8893814h23.551456c3.233592.88804124 6.611068 1.49010309 9.564466 3.15329897 5.581165 3.10814433 9.269126 9.27175253 9.397864 15.62350513.355923 5.5239175-1.098058 11.3864949-5.05864 15.4428866-3.589515 3.9585567-9.004078 5.3583505-14.14602 5.8851547 6.020388 6.4646391 10.798835 13.9001031 15.736311 21.17 2.423301 3.6349484 4.967767 7.2021649 7.254757 10.9349484-3.748544.1053608-7.497087.0978351-11.238058-.0526804-4.149903-8.361134-9.572039-16.0073196-15.160777-23.4653608-2.847379-3.7704124-5.679612-8.3912371-10.851845-9.0459794-.249902 10.8446392.015146 21.6968041-.121165 32.5489691-2.968543.0903092-5.937087.0903092-8.905631.0301031-.060582-24.0749485-.007572-48.1498969-.022718-72.2248454zm9.079806 7.56340206c-.068156 8.81268044-.090874 17.61783504.015145 26.43051544 6.754952-.1730928 14.585243 1.3170103 20.234563-3.3263917 5.664466-5.6368042 5.369127-16.857732-2.006796-20.99690724-5.641747-2.79206186-12.154369-2.08463918-18.242912-2.1072165zm105.769514-7.56340206h27.496893c4.528544 1.27185567 9.185826 2.92 12.434564 6.48721649 5.619029 5.41103091 6.656504 13.94525771 4.907184 21.23020621-1.325243 7.2548453-7.360777 13.1475258-14.448932 14.9913402-7.035146 1.791134-14.358058.5268041-21.521942 1.0310309-.060582 9.4975258.143884 18.9875258-.075728 28.4775258-2.915534.0677319-5.831068.0677319-8.739029 0-.18932-24.0674227-.068155-48.1423711-.05301-72.2173196zm8.973787 7.53329897c-.151457 9.55773193-.159029 19.12298973.007572 28.68072163 5.172234.0376289 10.359612.165567 15.531845-.0827835 3.082136-.1429897 6.027961-1.7083505 7.868155-4.1692783 3.597088-4.3498969 3.76369-10.5586598 2.279418-15.7664949-1.045049-3.6349484-4.134757-6.38938143-7.731845-7.45051545-5.823495-1.71587629-11.965048-1.12886598-17.955145-1.21164948zm111.327961-7.53329897h11.480388c8.110486 24.022268 16.19068 48.0671134 24.005825 72.1796907-3.347184.1279382-6.686796.1128866-10.03398.0150516-2.514175-7.202165-4.361942-14.6225774-6.959418-21.802165-8.845048-.1279381-17.682524-.0526804-26.527572-.0451546-2.665632 7.1570103-4.634564 14.5548453-7.004855 21.8096907-3.029126.1354639-6.065825.1429897-9.087378.0301031 7.822718-24.1276289 16.137669-48.1047423 24.12699-72.1872165zm5.255534 8.85030928c-3.642524 11.35639172-7.353204 22.69020622-10.980583 34.04659792h21.983884c-2.870097-9.1814433-5.778058-18.3403093-8.648156-27.5217526-.67398-2.2125773-1.272233-4.4627835-2.355145-6.52484532z" fill-rule="nonzero"/></g><g fill="#38b5e6" transform="translate(304 188)"><path d="m0 .4275c3.73444142.0675 7.53705722-.2775 11.2184741.495 3.1284469.7275 5.3479019 4.05 4.6510082 7.185-.3257221 2.0025-2.1588556 3.165-3.6132425 4.3575 1.2498637.7725 2.6512261 1.395 3.5980926 2.55 2.3709537 3.3825 1.2422889 9.045-2.9239237 10.455-4.17378745 1.2525-8.62784739.5625-12.9304087.7275zm3.09057221 2.61c-.0227248 2.82-.0227248 5.6475-.00757493 8.475 2.43155313-.0375 4.93128065.27 7.30980922-.36 2.8481744-1.455 2.8027248-6.42-.2651226-7.65-2.27247954-.6975-4.69645774-.39-7.03711169-.465zm0 11.0925c-.03029973 3.1575-.0227248 6.3075-.00757493 9.465 2.49215258 0 5.0146049.2175 7.49160762-.18 4.4010354-.735 4.2116621-8.265-.0530245-9.0675-2.45427795-.4125-4.95400547-.2175-7.43100819-.2175z" fill-rule="nonzero"/><path d="m26.1638147.4425c4.7116076-.0375 9.4307902-.045 14.1499728.0075-.0681744.6225-.2045232 1.8675-.2726976 2.49-3.5677929.105-7.1431607.045-10.7109537.0675-.0378746 2.79-.0454496 5.5725 0 8.3625 2.9466485.03 5.893297.0225 8.8399455.015v2.73c-2.9466485-.0075-5.893297-.015-8.8323705.015-.0530246 3.0975-.0530246 6.1875 0 9.285 3.8101907.045 7.6128065 0 11.4229972.0375.007575.885.0151499 1.7775.0378747 2.67-4.8782561.0825-9.7489373.015-14.6271935.0375-.0681743-8.5725-.0530245-17.145-.0075749-25.7175zm30.1936785-.0075c5.7266485-.015 11.4608719-.045 17.1875204.015-.0302997.63-.0984741 1.8975-.1287738 2.5275-2.3558038.0825-4.7040327.0675-7.0598365.075-.0530246 7.695-.0378747 15.3975 0 23.0925-.999891.0375-1.999782.075-2.9996731.12-.1287738-7.725-.0378746-15.45-.0454495-23.175-2.3179292-.06-4.6358584-.0375-6.9537875-.0525 0-.6525 0-1.9575 0-2.6025zm24.0731335.1125c1.0453406-.03 2.0906812-.09 3.1360218-.18.0681744 3.6.0454496 7.2.0227248 10.8 3.6359673.06 7.2795095.0525 10.9154768.0075-.0075749-3.585-.0302997-7.17.0227248-10.755 1.0301908.0075 2.0679564.0225 3.1057221.0375-.0302997 8.5875.0075749 17.1675-.0227248 25.7475-1.0301907 0-2.0528065 0-3.0829973.0075-.0681744-4.155 0-8.3175-.0454496-12.4725-3.6208174-.015-7.2492098-.0225-10.8700272.0075-.0227248 4.1625.0454496 8.325-.0454496 12.4875-1.0301907-.0225-2.0603815-.0375-3.0905722-.0525-.0151499-8.55.0681744-17.0925-.0454496-25.635zm27.8984743-.105c4.719182-.045 9.44594-.0225 14.165122-.015-.083324.6375-.249972 1.9275-.333297 2.565-3.560218.015-7.112861-.0075-10.673079.03 0 2.775 0 5.5575.01515 8.34 2.969374.0375 5.931172.0225 8.900545.045-.007575.8925-.007575 1.7925 0 2.685-2.969373.0225-5.931171.0075-8.900545.045-.022725 3.09-.01515 6.18 0 9.2625 3.795041.06 7.590082.03 11.385123.03.022725.9.045449 1.8075.075749 2.7075-4.878256.045-9.748937.0075-14.627193.0225-.0303-8.5725-.01515-17.145-.007575-25.7175zm33.647847.5025.424196-.495c4.385886-.0975 8.786921-.015 13.180382-.0075-.090899.63-.257548 1.89-.340872 2.52-3.370845.06-6.741689.0375-10.104959.0375-.04545 2.805-.04545 5.61.007575 8.415 2.78.03 5.56 0 8.34.0675-.022725.8175-.0303 1.635-.0303 2.46-2.772425.0375-5.54485.015-8.317275.0525-.0606 4.065-.007575 8.1225-.0303 12.1875-1.052915.015-2.105831.015-3.158746.015.015149-8.415-.083325-16.8375.030299-25.2525zm19.672098 18.585c.01515-6.3975-.159073-12.81.106049-19.2075.734769.045 2.204306.12 2.931499.1575.068174 5.8425-.0303 11.6925.04545 17.535.083324 1.695.030299 3.7575 1.58316 4.86 2.045232 1.4325 4.878256 1.3425 7.143161.495 1.810409-.7275 2.310354-2.82 2.295204-4.5675.0909-6.12-.007574-12.2475.0303-18.3675 1.015041 0 2.037657 0 3.052698-.0075.045449 6.12.022725 12.2325.030299 18.3525-.068174 1.845-.022724 3.9675-1.431662 5.385-2.545177 2.625-6.597765 2.7225-9.99891 2.265-3.378419-.3825-6.029645-3.54-5.787248-6.9zm24.239782-19.095c5.734224-.015 11.468447-.045 17.202671.015-.0303.63-.098474 1.8975-.128774 2.5275-2.348229.0825-4.688883.06-7.029537.0825-.04545 7.695-.037875 15.3975 0 23.0925-1.022616.03-2.037657.0675-3.052698.105-.113624-7.725-.037874-15.45-.037874-23.1675-2.317929-.06-4.635859-.0375-6.953788-.0525 0-.6525 0-1.9575 0-2.6025zm23.982235 0c1.03019 0 2.067956 0 3.105722-.0075.151498 6.57-.196948 13.1475.174223 19.7025.219673 3.66 4.787357 4.3875 7.665831 3.555 1.992207-.3375 3.196621-2.3025 3.158747-4.2075.159073-6.345-.0303-12.705.083324-19.0575 1.030191.0075 2.067956.0225 3.105722.0375-.106049 6.84.174224 13.695-.151498 20.535-.07575 3.03-3.029973 5.04-5.817548 5.43-3.204196.405-7.090136.495-9.49139-2.025-1.507411-1.4475-1.848283-3.5925-1.825558-5.58-.0303-6.1275 0-12.255-.007575-18.3825z"/><path d="m237.731662.45c3.681417.0675 7.506758-.45 11.059401.7275 4.605558 1.725 5.476675 8.4225 2.052806 11.6625-1.265013 1.2225-3.090572 1.455-4.711607 1.92 2.992098 3.6075 5.605449 7.5075 8.090027 11.4675-1.325613-.0225-2.643651-.045-3.96169-.105-1.848283-3.57-4.173787-6.8925-6.711389-10.0125-.621145-.8925-1.696785-1.215-2.620927-1.68-.181798 3.9225-.037874 7.86-.113624 11.79-1.022615-.0075-2.052806-.015-3.075422-.015-.053024-8.5875-.037875-17.1675-.007575-25.755zm3.143597 2.5725c-.0606 3.2025-.083324 6.42.037875 9.63 2.492152-.1575 5.446376.375 7.468882-1.4325 1.810409-2.0625 1.742235-5.865-.787793-7.365-2.052806-1.08-4.484359-.72-6.718964-.8325z" fill-rule="nonzero"/><path d="m263.016785.5025c4.741907-.165 9.483814-.075 14.233297-.0525-.07575.6225-.219673 1.86-.287848 2.475-3.590517.135-7.181035.03-10.771553.12.022725 2.7525.022725 5.505.007575 8.2575 2.969373.12 5.931172.09 8.900545.0975-.007575.9-.007575 1.8 0 2.7-2.969373.0075-5.931172-.03-8.89297.0975.007575 3.045.007575 6.09-.007575 9.135 3.825341.21 7.658256.0375 11.491172.1425-.007575.87.007575 1.7475.0303 2.6175-4.893406.1275-9.794387.06-14.680218.045-.01515-8.5425.022724-17.0925-.022725-25.635z"/></g></g></svg>