<svg height="31" viewBox="0 0 143 31" width="143" xmlns="http://www.w3.org/2000/svg"><g fill="#349c4a" fill-rule="evenodd"><path d="m94.693 9.816h5.571v20.318h-5.571z"/><path d="m29.5533333 9.81635417v10.97822913c0 2.6961459-1.2363541 4.2751042-3.7090625 4.2751042-2.4727083 0-3.7090625-1.5789583-3.7090625-4.2751042v-10.97822913h-5.630625v12.37843753c0 5.2284375 3.8878125 8.3267708 9.3992709 8.3267708 5.5114583 0 9.3992708-3.1132292 9.3992708-8.3267708v-12.37843753zm39.1313542 0v10.97822913c0 2.6961459-1.2363542 4.2751042-3.7090625 4.2751042s-3.7090625-1.5789583-3.7090625-4.2751042v-10.97822913h-5.630625v12.37843753c0 5.2284375 3.8878125 8.3267708 9.3992708 8.3267708 5.5114584 0 9.3992709-3.0983333 9.3992709-8.3267708v-12.37843753z"/><circle cx="97.389" cy="3.545" r="3.545"/><path d="m77.801 9.816v6.093 14.225h5.571v-15.313h7.776v-5.005h-7.776z"/><path d="m136.862917 23.7886458c-1.012917 1.1320834-2.428021 1.8619792-4.051667 1.8619792h-.059583c-2.93448 0-4.72198-1.4597917-5.407188-3.7090625h15.655521v-2.0407292c0-5.8540625-4.275104-10.53135413-10.471771-10.53135413-5.854062 0-10.590937 4.72197913-10.590937 10.59093753 0 5.8689583 4.39427 10.5909375 10.695208 10.5909375h.119167c3.262187 0 5.854062-1.2363542 7.656458-3.0983334zm-4.275105-9.5184375c2.368438 0 4.11125 1.0725 4.841146 3.2026042h-9.846146c.834167-1.9066667 2.636563-3.2026042 5.005-3.2026042z" fill-rule="nonzero"/><path d="m117.274896 23.7886458c-.953334.89375-2.189688 1.4597917-3.604792 1.4597917h-.119166c-2.874896-.0595833-5.064584-2.3684375-5.064584-5.2880208 0-2.8748959 2.189688-5.2284375 5.064584-5.2880209h.119166c1.519375 0 2.815313.6703125 3.768646 1.6832292l3.828229-3.8282292c-1.861979-1.96625-4.498541-3.15791663-7.656458-3.15791663h-.059583c-5.79448.05958333-10.412188 4.72197913-10.412188 10.53135413s4.617708 10.5313542 10.412188 10.5313542h.059583c2.979167 0 5.571042-1.1320833 7.433021-2.9344792zm-73.0193752-13.97229163v-7.596875h-5.5710416v7.5521875 5.00500003 6.4796875c0 6.6435416 2.145 8.8332291 8.5502083 8.8332291h.7894792 3.9920833v-5.18375h-3.9920833c-3.4409375 0-3.8282292-.5064583-3.8282292-3.664375v-6.4052083h3.8282292 3.9920833v-.6852083-3.664375-.6554167c0-.01489583-7.7607292-.01489583-7.7607292-.01489583zm-38.68447913-1.340625c0-1.9215625 1.17677083-3.03875 2.75572916-3.03875 1.01291667 0 1.80239587.56604166 2.18968747 1.17677083l3.3813542-3.38135417c-1.7428125-2.42802083-4.05166667-3.20260416-6.3009375-3.20260416-4.11125 0-7.49260417 3.60479166-7.596875 8.38635416v21.73302087h5.57104167v-15.4916667h7.20958333v-4.84114583h-7.20958333z"/></g></svg>