<?xml version="1.0" encoding="UTF-8" standalone="no"?>
<svg
   xmlns:dc="http://purl.org/dc/elements/1.1/"
   xmlns:cc="http://creativecommons.org/ns#"
   xmlns:rdf="http://www.w3.org/1999/02/22-rdf-syntax-ns#"
   xmlns:svg="http://www.w3.org/2000/svg"
   xmlns="http://www.w3.org/2000/svg"
   viewBox="0 0 274.64359 279.35519"
   height="279.35519"
   width="274.64359"
   version="1.1"
   id="svg2">
  <metadata
     id="metadata8">
    <rdf:RDF>
      <cc:Work
         rdf:about="">
        <dc:format>image/svg+xml</dc:format>
        <dc:type
           rdf:resource="http://purl.org/dc/dcmitype/StillImage" />
        <dc:title></dc:title>
      </cc:Work>
    </rdf:RDF>
  </metadata>
  <defs
     id="defs6" />
  <path
     id="path4138"
     d="m 240.70678,275.25283 c -2.05249,-2.43771 -13.07749,-14.29241 -24.5,-26.34379 -11.4225,-12.05138 -27.06035,-28.63438 -34.75077,-36.85112 -22.96091,-24.53232 -29.83778,-31.4744 -33.29594,-33.61165 -6.01908,-3.72 -15.06677,-5.81139 -25.22148,-5.83 -11.71476,-0.0215 -17.04766,-2.21407 -24.647508,-10.13374 -5.581567,-5.81646 -14.577987,-18.76622 -16.903011,-24.33079 -2.771775,-6.63379 -1.463154,-11.53334 3.08044,-11.53334 1.171459,0 7.268959,3.37979 13.55,7.51064 6.281049,4.13086 12.225599,7.7669 13.210119,8.0801 2.01155,0.63992 8.99128,-2.65726 12.56019,-5.93334 3.65568,-3.35573 9.19284,-14.92465 10.72892,-22.41617 1.08265,-5.28011 -4.22869,-10.47039 -21.96261,-21.462029 -6.00393,-3.721285 -7.61654,-5.220513 -7.61654,-7.08102 0,-4.311439 3.65168,-5.198184 21.40652,-5.198184 l 16.09348,0 7.29474,3.897379 c 7.61499,4.068478 13.64804,9.931212 16.853,16.377244 1.46817,2.95287 1.81069,5.69533 1.65181,13.22538 -0.11156,5.28706 0.4498,12.66231 1.26585,16.63088 2.34648,11.41129 4.24316,14.32007 22.44066,34.41545 4.75323,5.24896 49.53639,53.33829 66.33484,71.23208 16.66827,17.75514 16.83407,17.97634 16.17551,21.5803 -2.02298,11.07065 -12.48432,20.10697 -25.01641,21.60874 -4.94995,0.59318 -5.03736,0.5548 -8.73181,-3.83302 z M 115.93859,260.94062 c -7.32225,-1.18743 -10,-5.16993 -10,-14.87256 0,-6.17599 -0.23151,-6.87869 -3.25,-9.86485 -1.9879,-1.96661 -6.939209,-4.68487 -12.750004,-6.99974 -12.745745,-5.07757 -16.008726,-4.75845 -23.466813,2.2951 -4.543775,4.29731 -6.019191,5.11983 -9.183853,5.11983 -3.513411,0 -4.719838,-0.94945 -17.700856,-13.93047 l -13.930466,-13.93047 0.546728,-4.07618 c 0.414407,-3.08963 1.779684,-5.42523 5.640995,-9.65012 6.400151,-7.00278 6.490336,-9.02424 0.987351,-22.13106 C 27.501058,160.20384 24.881398,157.63783 17.172808,157.56196 9.7797082,157.48916 5.1485582,155.82318 2.5322482,152.29516 0.66182823,149.77295 0.40014823,147.81 0.07805823,133.88574 c -0.23151,-10.00863 0.0564,-16.97765 0.80447,-19.47458 1.66732997,-5.56505 5.73886997,-7.78428 14.29027977,-7.78902 9.1125,-0.005 11.333051,-2.10552 16.834688,-15.924205 5.323059,-13.370146 5.110797,-15.914173 -1.974645,-23.666772 -4.361673,-4.77237 -5.094263,-6.15374 -5.094263,-9.60574 0,-3.8324 0.66368,-4.70513 13.419599,-17.64668 12.728682,-12.91392 13.622533,-13.61489 17.361118,-13.61489 3.356564,0 4.790333,0.77577 9.660987,5.22727 5.081846,4.64452 6.210019,5.22727 10.119704,5.22727 2.882958,0 7.882485,-1.43828 14.499067,-4.17115 12.957047,-5.35169 14.589267,-7.30473 15.106227,-18.07538 0.32482,-6.7673796 0.70438,-8.0790896 3.00286,-10.3775796 2.28375,-2.28374 3.86523,-2.75012 11.98075,-3.53312997 10.28218,-0.99205 24.77754,-0.31336 29.14685,1.36468997 3.70378,1.42245 5.70284,5.55004 5.70284,11.7750096 0,5.66401 1.74973,10.65108 4.63832,13.22012 2.63799,2.34616 21.48091,9.79742 24.77593,9.79742 3.70852,0 7.38739,-2.11392 12.0387,-6.91758 3.31658,-3.42521 4.59111,-4.08242 7.91708,-4.08242 3.74603,0 4.69999,0.72866 17.33926,13.2441 7.35632,7.28425 13.62992,14.25925 13.94133,15.5 0.95552,3.80711 -0.48455,7.05135 -5.6733,12.78095 -6.36602,7.029574 -6.43797,9.459903 -0.69302,23.408299 5.35997,13.013708 6.90477,14.328778 17.7697,15.127128 6.39298,0.46975 8.41112,1.02786 10.36951,2.86767 3.39617,3.19054 5.03841,13.57539 4.20202,26.57186 -0.82977,12.8935 -1.32434,14.92608 -4.37379,17.97554 -2.19155,2.19154 -3.39872,2.52446 -9.15371,2.52446 -10.70138,0 -12.67315,1.56991 -18.33592,14.59895 -2.60583,5.99558 -4.74333,12.44199 -4.75,14.32536 l -0.0121,3.42432 -2.61889,-2.42432 c -1.44038,-1.33337 -7.98793,-8.37508 -14.5501,-15.64825 l -11.93122,-13.22395 2.25961,-7.27605 c 1.83674,-5.9144 2.24935,-9.52178 2.20478,-19.27606 -0.0491,-10.73977 -0.37615,-12.915 -3.11443,-20.71267 C 193.18211,97.997343 188.24036,90.031281 180.15145,81.942368 162.94907,64.739993 139.15176,57.248113 117.25064,62.139933 89.659043,68.302768 68.778759,88.565775 62.393181,115.37566 c -2.237034,9.39219 -1.536276,27.96692 1.368799,36.28225 11.938622,34.17245 44.8759,54.14265 79.17661,48.00558 3.575,-0.63964 7.91759,-1.66061 9.6502,-2.26883 3.07418,-1.07918 3.29105,-0.95108 8.9878,5.30894 3.21068,3.52814 9.18213,9.90076 13.26989,14.16138 4.08776,4.26062 7.24324,7.88544 7.0122,8.05516 -0.23105,0.16972 -3.57009,1.55813 -7.42009,3.08536 -16.30105,6.46635 -18.5,8.80854 -18.5,19.70502 0,11.93513 -3.6439,13.89686 -25.5,13.72815 -6.6,-0.051 -13.125,-0.27507 -14.5,-0.49805 z"
     style="fill:#545454" />
</svg>
