<?xml version="1.0" encoding="UTF-8" standalone="no"?>
<svg
   xmlns:dc="http://purl.org/dc/elements/1.1/"
   xmlns:cc="http://creativecommons.org/ns#"
   xmlns:rdf="http://www.w3.org/1999/02/22-rdf-syntax-ns#"
   xmlns:svg="http://www.w3.org/2000/svg"
   xmlns="http://www.w3.org/2000/svg"
   viewBox="0 0 280.93314 279.12625"
   height="279.12625"
   width="280.93314"
   version="1.1"
   id="svg2">
  <metadata
     id="metadata8">
    <rdf:RDF>
      <cc:Work
         rdf:about="">
        <dc:format>image/svg+xml</dc:format>
        <dc:type
           rdf:resource="http://purl.org/dc/dcmitype/StillImage" />
        <dc:title></dc:title>
      </cc:Work>
    </rdf:RDF>
  </metadata>
  <defs
     id="defs6" />
  <path
     id="path4138"
     d="M 32,264.56312 32,250 l 19.12061,0 19.12061,0 -0.72559,13.75 c -0.39907,7.5625 -0.93971,13.975 -1.20141,14.25 -0.26171,0.275 -8.53946,0.64091 -18.39502,0.81312 L 32,279.12625 32,264.56312 Z m 178,-0.0631 0,-14.5 18.5,0 18.5,0 0,14.5 0,14.5 -18.5,0 -18.5,0 0,-14.5 z M 7.78592,244.28721 C 4.43344,243.77691 0,238.70136 0,235.37361 0,231.37408 2.68755,227.30457 6.11884,226.10842 8.38302,225.31912 46.83641,225 139.68134,225 c 139.70875,0 135.56494,-0.14537 138.23817,4.8496 1.92327,3.59366 1.27746,8.76286 -1.5084,12.07367 L 273.82221,245 142.16111,244.85017 C 69.7475,244.76777 9.27867,244.51443 7.78592,244.28721 Z M 20.02141,218.9058 C 20.03321,218.13261 27.85848,191.85 37.41096,160.5 l 17.36816,-57 84.78172,0 84.78174,0 17.49801,57.24736 c 9.62391,31.48605 17.23095,57.51443 16.90454,57.84084 -0.32641,0.32641 -54.17759,0.84771 -119.6693,1.15844 -101.90639,0.48351 -119.07274,0.36227 -119.05442,-0.84084 z m 169.59784,-14.19172 c 0.77464,-0.77463 -0.27034,-5.06206 -11.29755,-46.35282 l -8.58305,-32.13874 -29.412,-0.73525 c -16.17659,-0.4044 -29.69827,-0.44898 -30.04817,-0.0991 -0.70955,0.70956 -21.27294,76.41057 -21.27633,78.32561 -0.001,0.84213 2.98327,1.33378 9.74785,1.60567 15.2159,0.61159 90.15152,0.11236 90.86925,-0.60538 z m 50.41575,-76.5682 c -1.44236,-6.01241 -2.87974,-3.02392 17.7959,-36.999927 C 263.9739,81.051227 269,72.474609 269,72.086802 269,71.698994 257.52801,66.958048 243.50669,61.551367 229.48536,56.144685 217.55873,51.173226 217.00305,50.503679 215.84191,49.104588 216.79019,43 218.16867,43 c 2.34979,0 59.52945,22.315826 62.12062,24.244168 1.52538,1.135179 0.81486,2.69695 -7.39548,16.255832 -14.47808,23.90967 -27.64556,44.97186 -29.70552,47.51579 l -1.90148,2.34824 -1.25181,-5.21815 z M 181,60.961546 c -15.125,-5.958016 -27.94048,-11.008559 -28.47884,-11.22343 -1.34791,-0.537981 0.8016,-3.670447 15.83979,-23.083138 l 13.04912,-16.8450212 3.54497,0.5796962 c 3.93653,0.643728 27.02858,9.285283 28.44324,10.644085 0.88688,0.851876 -1.93973,46.607718 -3.05951,49.525829 -0.30401,0.792238 -0.8421,1.394151 -1.19576,1.337584 C 208.78936,71.840581 196.125,66.919562 181,60.961546 Z M 199,10.711249 C 193.68032,8.7015079 190.5,6.9536701 190.5,6.0398333 190.5,3.9356549 196.79629,0 200.16257,0 c 4.13713,0 9.74317,5.4710352 10.50294,10.25 0.7567,4.759736 -0.18871,4.797117 -11.66551,0.461249 z"
     style="fill:#545454" />
</svg>
