<?xml version="1.0" encoding="UTF-8" standalone="no"?>
<svg
   xmlns:dc="http://purl.org/dc/elements/1.1/"
   xmlns:cc="http://creativecommons.org/ns#"
   xmlns:rdf="http://www.w3.org/1999/02/22-rdf-syntax-ns#"
   xmlns:svg="http://www.w3.org/2000/svg"
   xmlns="http://www.w3.org/2000/svg"
   viewBox="0 0 499.03122 499.35806"
   height="499.35806"
   width="499.03122"
   version="1.1"
   id="svg2">
  <metadata
     id="metadata8">
    <rdf:RDF>
      <cc:Work
         rdf:about="">
        <dc:format>image/svg+xml</dc:format>
        <dc:type
           rdf:resource="http://purl.org/dc/dcmitype/StillImage" />
        <dc:title></dc:title>
      </cc:Work>
    </rdf:RDF>
  </metadata>
  <defs
     id="defs6" />
  <path
     id="path4138"
     d="m 114.08459,498.44353 c -16.908093,-1.51659 -30.729963,-5.56245 -46.500003,-13.61119 -23.05775,-11.76827 -41.30622,-29.8879 -53.09897,-52.72408 -17.11221,-33.13709 -19.10379,-68.86905 -5.75839,-103.31406 8.06179,-20.80781 20.89997,-38.11041 39.05807,-52.64035 l 5.7007,-4.56165 8.2993,3.50269 c 17.69469,7.46799 40.697603,12.35362 58.164263,12.35362 11.63626,0 15.1208,-1.2838 20.06495,-7.39246 2.45398,-3.03197 3.0523,-4.81694 3.38945,-10.11168 0.35379,-5.55616 0.0554,-7.03383 -2.19613,-10.87578 -4.19598,-7.15991 -7.96647,-8.85736 -21.73704,-9.78589 -25.505883,-1.71983 -44.113193,-7.93483 -64.886073,-21.6725 -9.8035,-6.48332 -24.49211,-20.70993 -31.20022,-30.21888 -35.3906,-50.16722 -29.9498,-117.22423 13.03351,-160.63595 12.9267,-13.055549 30.5151,-24.135786 47.50683,-29.9280805 29.725683,-10.133157 61.859353,-8.901323 90.558433,3.4715295 17.63497,7.602848 39.21812,24.470611 49.30321,38.531661 l 3.50153,4.881971 -3.29296,7.807905 c -7.50173,17.787296 -11.3683,34.986363 -12.13071,53.959264 -0.49226,12.2501 -0.35198,13.90684 1.48185,17.5 1.11407,2.18289 2.86097,4.70212 3.88199,5.5983 8.85842,7.77522 23.43549,5.95084 29.38634,-3.67783 1.76141,-2.85004 2.38439,-5.98768 3.10242,-15.62554 1.96972,-26.438822 9.0163,-47.052874 22.71706,-66.456487 40.21182,-56.9497275 119.97556,-69.96075 175.68175,-28.657124 24.52505,18.18425 41.82845,44.747456 48.06535,73.78757 10.082,46.942991 -6.9925,94.547951 -44.74488,124.752031 l -5.64837,4.51902 -10.85163,-4.32676 c -19.08188,-7.60831 -37.73658,-11.42772 -55.86723,-11.43839 -11.47254,-0.007 -14.98483,1.29601 -19.91432,7.38656 -2.45398,3.03197 -3.0523,4.81694 -3.38945,10.11168 -0.35379,5.55616 -0.0554,7.03383 2.19613,10.87578 4.19598,7.15991 7.96647,8.85736 21.73704,9.78589 33.61955,2.26693 60.36639,14.12928 82.91185,36.77183 18.35186,18.43092 30.03436,40.79598 34.60966,66.25746 2.0398,11.3514 2.0116,32.07551 -0.059,43.3049 -9.5481,51.78426 -49.23763,91.4772 -101.07646,101.0851 -13.15597,2.43835 -33.22137,2.20795 -46.43362,-0.53317 -29.12838,-6.0432 -54.51847,-21.70504 -73.36104,-45.25264 l -4.56165,-5.70071 3.39927,-8.05999 c 7.66633,-18.17744 12.45709,-40.63844 12.45709,-58.40356 0,-11.63626 -1.2838,-15.1208 -7.39246,-20.06495 -3.03197,-2.45398 -4.81694,-3.0523 -10.11168,-3.38945 -5.55616,-0.35379 -7.03383,-0.0554 -10.87578,2.19613 -7.10404,4.16325 -8.83478,7.96273 -9.80703,21.52934 -1.05575,14.73176 -2.24632,21.27625 -6.02038,33.0939 -12.94137,40.52301 -45.93411,71.67099 -87.36953,82.48436 -7.5542,1.97141 -29.37317,4.86654 -32.92314,4.36852 -0.55,-0.0772 -4.6,-0.4632 -9,-0.85786 z M 265.97511,314.47651 c 29.75603,-7.61031 50.60948,-34.40486 50.60948,-65.028 0,-37.00088 -29.99912,-67 -67,-67 -37.03069,0 -67,29.96931 -67,67 0,43.50816 41.3763,75.77343 83.39052,65.028 z"
     style="fill:#545454" />
</svg>
