<svg xmlns="http://www.w3.org/2000/svg" viewBox="0 0 250.65 45.73"><defs><clipPath id="a"><path fill="none" d="M0 0h250.65v45.73H0z"/></clipPath></defs><g clip-path="url(#a)"><path d="M235.53 4.18l-1.76-.63.23-1.13h-26.28l-.65 4.08a86.77 86.77 0 0 1-3.19 14.05 31.33 31.33 0 0 1-3.33 6.82l-1.73-.83a27 27 0 0 0 1.65-8.89c0-4.95-1.73-9.38-4.75-12.14-3.43-3.21-7.72-3.58-10.59-3.58a18 18 0 0 0-12.64 4.47 19.07 19.07 0 0 0-4.82 6.6l-1.81-.55 1.65-10H136c-.24 1.48-5.67 34.45-6 36.5h13.39c.25-1.5 4.18-25.59 4.18-25.59h4.72s-3.86 23.56-4.19 25.59h13.4c.24-1.42 2.22-13.48 2.22-13.48l1.89.07a15.72 15.72 0 0 0 3.44 9c2.74 3.32 6.5 4.93 11.51 4.93a18.8 18.8 0 0 0 14.16-5.83l2.13-2.27s-2 12.59-2.33 14.43h12.42c.19-1.25 1.07-6.81 1.07-6.81h10.55s-.83 5.26-1.07 6.81h12.4c.23-1.39 2.59-16 2.89-17.92h-2.92l2.92-18.1h1.87a8 8 0 0 0 7.84 6.64 8.16 8.16 0 0 0 0-16.32 8 8 0 0 0-7 4.18m-56 23.14a5 5 0 0 1-.39-2.11c0-3.07 1-9.89 3-12a2.71 2.71 0 0 1 2.21-.88 2 2 0 0 1 1.88.77 4.4 4.4 0 0 1 .65 2.73c0 3-1 9.77-2.72 11.86a2.48 2.48 0 0 1-2.28 1.08 2.29 2.29 0 0 1-2.32-1.47m63-22.73l.56-.13.29.49 1.86 2.18-2.64 2.26-.82-.3-.1-.06a2.88 2.88 0 0 1-1.35-2.42l.44-1.83.32.13zm-29.32 21.8l1.47-3.74a58.77 58.77 0 0 0 2.2-8.59l.12-.81h2.25L217 27.81h-4.29zM4.86 8.61A24.78 24.78 0 0 0 0 23.49a17.16 17.16 0 0 0 3 10.34c1.6 2.08 5.35 5.57 12.54 5.57a15.22 15.22 0 0 0 10-3.27L27 37.28l-.77 1.64h11.94l3.07-6.62h6.51s.63 5.33.78 6.62h11.59l2 .2 2.74.29A12 12 0 0 0 73 36.29 20.5 20.5 0 0 0 78.21 28a94.59 94.59 0 0 0 3.59-13.89l.14-.78h2.3l-4.18 25.59h13.39c.24-1.49 5.62-34.46 6-36.5H72.5c-.19 1.13-.7 4.22-.7 4.22l-1.26 6.48-.63 3v-.2l-.18 1a44 44 0 0 1-2.11 7.67c-.86 2.27-1.79 3.61-4 3.76l-2 .14.07-.06h-1.2S56.71 4 56.49 2.48h-13.1c-.5 1-10.31 22-10.31 22l-13-1.7c-.12.7-.25 1.48-.25 1.48a9.21 9.21 0 0 1-1.21 3.19A2.78 2.78 0 0 1 16 28.79a2.34 2.34 0 0 1-1.67-.67c-.56-.58-.67-1.58-.67-3a29.42 29.42 0 0 1 .56-5.36c.61-3.41 1.39-5.67 2.25-6.53a2.73 2.73 0 0 1 2-.86c1.11 0 1.6.43 2 1.74a12.75 12.75 0 0 1 .46 3.12v1.71l12.44-1.05v-1.45c-.06-4.34-1.8-8.72-4.45-11.16-1.71-1.53-4.79-3.35-9.92-3.35A17.36 17.36 0 0 0 4.86 8.61m126.81-6.19h-11.52c-.19 1-.61 3.37-.61 3.37L115.83 11l-1.72-.7 1.3-7.91H102c-.24 1.48-5.68 34.45-6 36.5h13.41c.15-1 .53-3.49.53-3.49l3.76-5.33 1.72.7s-1 6.41-1.31 8.12h13.37c.25-1.48 5.68-34.46 6-36.5z" fill="#f3d4ae"/><path d="M22.48 17.21a13.69 13.69 0 0 0-.53-3.6c-.58-1.85-1.61-2.82-3.51-2.82a4.28 4.28 0 0 0-3.11 1.32c-.77.77-1.8 2.43-2.67 7.34a31.39 31.39 0 0 0-.59 5.65c0 1.26 0 3 1.12 4.13A4 4 0 0 0 16 30.35a4.37 4.37 0 0 0 3.93-2.19 10.73 10.73 0 0 0 1.42-3.75l9.34 1.22a18.68 18.68 0 0 1-2.53 5.5c-3.21 4.77-7 6.71-12.55 6.71-6 0-9.54-2.67-11.29-5a15.38 15.38 0 0 1-2.73-9.39 23.38 23.38 0 0 1 4.5-13.87A15.67 15.67 0 0 1 19 3.49c4.57 0 7.3 1.56 8.81 2.92 2.43 2.24 3.89 6.38 3.94 10zM55.18 4l5.15 33.37H49.92l-.78-6.61h-8.9l-3.07 6.61h-8.46L44.38 4zm-6.67 19.54l-1.17-9.73-4.28 9.73zM97.57 4l-5.45 33.35H81.9l4.18-25.59h-5.44l-.29 1.66a95.29 95.29 0 0 1-3.61 14 18.81 18.81 0 0 1-4.81 7.69 10.44 10.44 0 0 1-7.2 2.72 12.09 12.09 0 0 1-2.24-.24l1.27-7.74c3.4-.24 4.57-2.72 5.34-4.76a49.22 49.22 0 0 0 2.34-8.71c.73-3.56 1.26-5.6 1.9-9.49L73.82 4zm16 0l-2.43 14.84c-.1.53-.25 1.07-.73 3.21a25.39 25.39 0 0 1 1.8-3.16L121 6.41l.45-2.41h10.22l-5.5 33.37H116l2.43-15c.1-.53.25-1.07.74-3.21-.39.73-1.32 2.43-1.8 3.16l-8.86 12.56-.38 2.52H97.86l5.5-33.4zm52.11 0l-5.5 33.37H150l4.18-25.59h-7.88l-4.18 25.59h-10.26L137.36 4zm29 2.68c2.39 2.19 4.23 6 4.23 11A24.26 24.26 0 0 1 195 30.84c-1.6 2.28-5.93 7-14.4 7-4.09 0-7.59-1.07-10.31-4.38a14.71 14.71 0 0 1-3.29-9.87c0-5.31 1.36-11.58 6.47-16A16.38 16.38 0 0 1 185.1 3.5c3 0 6.61.44 9.53 3.17M181 12.16c-2.43 2.57-3.41 10-3.41 13a6.61 6.61 0 0 0 .54 2.77 3.83 3.83 0 0 0 3.75 2.39 4 4 0 0 0 3.5-1.66c2-2.52 3.07-9.77 3.07-12.84a6 6 0 0 0-1-3.69 3.67 3.67 0 0 0-3.11-1.37 4.28 4.28 0 0 0-3.34 1.4M232.12 4L228 29.38h3l-2.39 14.79h-9.24l1.07-6.82h-13.77l-1.07 6.82h-9.24l2.38-14.79h2.44a33.09 33.09 0 0 0 4.17-8.32 91.75 91.75 0 0 0 3.41-15.23l.29-1.83zm-16.5 7.78l-.29 2.1a56.47 56.47 0 0 1-2.14 8.36 36.07 36.07 0 0 1-3.26 7.16h8.37l2.77-17.62zm20.27-3.6a6.6 6.6 0 1 1 6.6 6.6 6.59 6.59 0 0 1-6.6-6.6m3-3.63a5.3 5.3 0 0 0-1.48 3.63 5.34 5.34 0 0 0 1.48 3.64 5.07 5.07 0 0 0 7.2 0 5.34 5.34 0 0 0 1.48-3.64 5.3 5.3 0 0 0-1.48-3.63 5.07 5.07 0 0 0-7.2 0m4.57-.23a3.33 3.33 0 0 1 1.75.41 2.25 2.25 0 0 1 .88 1.82 2.36 2.36 0 0 1-.64 1.56 2.9 2.9 0 0 1-.88.56l.79 3.09H243L242.36 9h-.69l-.47 2.79h-2.06l1.23-7.44zm-.78 3a1.23 1.23 0 0 0 .8-.17.64.64 0 0 0 .28-.52.62.62 0 0 0-.26-.51 1.24 1.24 0 0 0-.65-.13h-.7l-.21 1.33z" fill="#8e5023"/></g></svg>