<?xml version="1.0" encoding="utf-8"?>
<!-- Generator: Adobe Illustrator 16.0.0, SVG Export Plug-In . SVG Version: 6.00 Build 0)  -->
<!DOCTYPE svg PUBLIC "-//W3C//DTD SVG 1.1//EN" "http://www.w3.org/Graphics/SVG/1.1/DTD/svg11.dtd">
<svg version="1.1" id="Layer_1" xmlns="http://www.w3.org/2000/svg" xmlns:xlink="http://www.w3.org/1999/xlink" x="0px" y="0px"
	 width="55.5px" height="59px" viewBox="0 0 55.5 59" enable-background="new 0 0 55.5 59" xml:space="preserve">
<g>
	<defs>
		<rect id="SVGID_1_" x="18" y="8.974" width="19.729" height="42.715"/>
	</defs>
	<clipPath id="SVGID_2_">
		<use xlink:href="#SVGID_1_"  overflow="visible"/>
	</clipPath>
	<path clip-path="url(#SVGID_2_)" fill="#C95C78" d="M22.344,30.359c0.109,0.137,0.048,1.086,0.048,1.264l0.005,20.066h8.7
		c0.052-5.281,0.001-10.701,0.001-16.008c0-0.076-0.016-5.141,0.008-5.248c0.017-0.068,0.019-0.059,0.035-0.088
		c0.012,0.002,5.536,0.045,5.729-0.002l0.097-0.027l0.763-7.324l-6.603-0.001c-0.024-1.081,0.006-2.193,0.007-3.278
		c0-0.991-0.023-2.214,0.564-2.757l5.998-0.603l-0.01-7.347C36.55,8.938,35.205,9,34.047,9c-1.205,0-2.425-0.025-3.609,0.054
		c-2.259,0.15-4.082,0.822-5.4,1.946c-1.91,3.064-2.65,0.432-2.665,11.993L18,22.997l0.009,7.357L22.344,30.359z"/>
</g>
</svg>
