<svg xmlns="http://www.w3.org/2000/svg" xmlns:xlink="http://www.w3.org/1999/xlink" width="55.5" height="59"><defs><path id="a" d="M18 8.974h19.729v42.715H18z"/></defs><clipPath id="b"><use xlink:href="#a" overflow="visible"/></clipPath><path clip-path="url(#b)" fill="#C95C78" d="M22.344 30.359c.109.137.048 1.086.048 1.264l.005 20.066h8.7c.052-5.281.001-10.701.001-16.008 0-.076-.016-5.141.008-5.248.017-.068.019-.059.035-.088.012.002 5.536.045 5.729-.002l.097-.027.763-7.324-6.603-.001c-.024-1.081.006-2.193.007-3.278 0-.991-.023-2.214.564-2.757l5.998-.603-.01-7.347C36.55 8.938 35.205 9 34.047 9c-1.205 0-2.425-.025-3.609.054-2.259.15-4.082.822-5.4 1.946-1.91 3.064-2.65.432-2.665 11.993L18 22.997l.009 7.357 4.335.005z"/></svg>