<svg xmlns="http://www.w3.org/2000/svg" xmlns:xlink="http://www.w3.org/1999/xlink" width="55.5" height="59"><defs><path id="a" d="M12 3.951h29.809v51.488H12z"/></defs><clipPath id="b"><use xlink:href="#a" overflow="visible"/></clipPath><path clip-path="url(#b)" fill="#C95C78" d="M26.169 11.778c7.575-.532 7.659 10.72.575 10.806-7.223.09-7.752-10.3-.575-10.806m13.495 7.194c.924-6.488-3.244-13.529-10.901-14.837-6.502-1.11-14.178 2.848-15.382 10.793-2.658 17.502 23.783 21.615 26.283 4.044"/><path clip-path="url(#b)" fill="#C95C78" d="M32.789 41.053c1.229-.83 11.481-3.207 8.468-8.59-3.534-6.312-8.153 4.455-20.094.611-3.152-1.016-4.944-3.131-7.613-1.211-2.226 1.6-1.887 4.822-.044 6.227 1.838 1.398 5.743 2.656 8.062 3.176-2.226 3.43-11.357 9.25-6.707 13.221 3.881 3.311 7.719-2.672 12.443-7.654 1.812 1.418 3.89 3.506 5.621 5.172 2.014 1.936 4.777 4.361 7.367 1.725 3.74-3.8-2.573-7.962-7.503-12.677"/></svg>