<?xml version="1.0" encoding="utf-8"?>
<!-- Generator: Adobe Illustrator 16.0.0, SVG Export Plug-In . SVG Version: 6.00 Build 0)  -->
<!DOCTYPE svg PUBLIC "-//W3C//DTD SVG 1.1//EN" "http://www.w3.org/Graphics/SVG/1.1/DTD/svg11.dtd">
<svg version="1.1" id="Layer_1" xmlns="http://www.w3.org/2000/svg" xmlns:xlink="http://www.w3.org/1999/xlink" x="0px" y="0px"
	 width="55.5px" height="59px" viewBox="0 0 55.5 59" enable-background="new 0 0 55.5 59" xml:space="preserve">
<g>
	<defs>
		<rect id="SVGID_1_" x="12" y="3.951" width="29.809" height="51.488"/>
	</defs>
	<clipPath id="SVGID_2_">
		<use xlink:href="#SVGID_1_"  overflow="visible"/>
	</clipPath>
	<path clip-path="url(#SVGID_2_)" fill="#C95C78" d="M26.169,11.778c7.575-0.532,7.659,10.72,0.575,10.806
		C19.521,22.674,18.992,12.284,26.169,11.778 M39.664,18.972c0.924-6.488-3.244-13.529-10.901-14.837
		c-6.502-1.11-14.178,2.848-15.382,10.793C10.723,32.43,37.164,36.543,39.664,18.972"/>
	<path clip-path="url(#SVGID_2_)" fill="#C95C78" d="M32.789,41.053c1.229-0.83,11.481-3.207,8.468-8.59
		c-3.534-6.312-8.153,4.455-20.094,0.611c-3.152-1.016-4.944-3.131-7.613-1.211c-2.226,1.6-1.887,4.822-0.044,6.227
		c1.838,1.398,5.743,2.656,8.062,3.176c-2.226,3.43-11.357,9.25-6.707,13.221c3.881,3.311,7.719-2.672,12.443-7.654
		c1.812,1.418,3.89,3.506,5.621,5.172c2.014,1.936,4.777,4.361,7.367,1.725C44.032,49.93,37.719,45.768,32.789,41.053"/>
</g>
</svg>
