<?xml version="1.0" encoding="utf-8"?>
<!-- Generator: Adobe Illustrator 16.0.0, SVG Export Plug-In . SVG Version: 6.00 Build 0)  -->
<!DOCTYPE svg PUBLIC "-//W3C//DTD SVG 1.1//EN" "http://www.w3.org/Graphics/SVG/1.1/DTD/svg11.dtd">
<svg version="1.1" id="Layer_1" xmlns="http://www.w3.org/2000/svg" xmlns:xlink="http://www.w3.org/1999/xlink" x="0px" y="0px"
	 width="56.5px" height="59px" viewBox="0 0 56.5 59" enable-background="new 0 0 56.5 59" xml:space="preserve">
<g>
	<defs>
		<rect id="SVGID_1_" y="10.436" width="56.858" height="39.253"/>
	</defs>
	<clipPath id="SVGID_2_">
		<use xlink:href="#SVGID_1_"  overflow="visible"/>
	</clipPath>
	<path clip-path="url(#SVGID_2_)" fill="#C95C78" d="M49.658,32.385c0.167-0.15,0.037,0.055,0.163-0.244l0.301-1.053
		c1.619-0.051,2.735-0.174,4.043-0.693l2.693-1.845c-0.892-0.013-1.829,0.229-3.279,0.005l-2.938-0.616
		c0.24-0.154,0.615-0.158,0.958-0.209c0.353-0.054,0.656-0.1,1.004-0.181c0.678-0.159,1.174-0.312,1.743-0.574l2.258-2.209
		c-1.031,0.406-1.963,0.575-3.354,0.591c-0.677,0.007-3.13-0.032-3.356-0.636c-0.269-0.715-0.267-1.392-0.83-2.731
		c-0.359-0.854-0.803-1.671-1.301-2.406c-1.023-1.514-2.291-2.772-3.79-3.738l-6.188-1.733c0.388-0.373,1.846-0.667,2.373-0.807
		c2.759-0.737,2.521-1.744,1.853-1.931c-0.853-0.239-2.933,0.545-3.862,0.829l1.667-1.767c-1.734,0.163-2.869,1.027-4.167,1.827
		l0.54-1.326c-1.635,0.548-4.586,4.445-5.403,6.006l-3.461,7.595c-0.295-0.121-2.343-2.221-3.907-3.155
		c-1.367-0.816-3.191-1.688-4.759-2.415c-3.776-1.749-6.475-2.812-10.34-4.226c-0.193,3.395,1.986,5.261,4.704,7.087L9.71,22.265
		c0.057,1.449,1.177,2.959,2.026,3.683c1.545,1.319,2.355,1.326,3.772,1.861l0.292,0.149c-2.285,0.396-1.603,0.144-3.587,1.43
		c0.025,0.903,1.992,2.825,3.475,3.155l3.303,0.43c-0.228,0.209-0.586,0.357-0.856,0.531c-0.337,0.215-0.476,0.344-0.718,0.635
		c-0.456,0.553-0.692,1.18-0.394,1.945l3.825,1.742c-0.204,0.404-1.454,1.41-1.874,1.701c-2.288,1.584-4.861,2.697-8.141,2.842
		c-2.33,0.104-4.586-0.34-6.368-1.053C2.41,40.492,1.569,39.807,0,38.596c0.46,0.791,1.502,1.885,2.138,2.559
		c5.997,6.361,15.701,9.871,25.844,8.061c6.193-1.107,10.184-3.242,13.812-5.895c0.598-0.436,2.022-1.715,2.534-2.242
		c1.577-1.627,2.98-3.369,4.006-5.383C48.641,35.092,49.705,32.998,49.658,32.385"/>
</g>
</svg>
