<svg xmlns="http://www.w3.org/2000/svg" xmlns:xlink="http://www.w3.org/1999/xlink" width="56.5" height="59"><defs><path id="a" d="M0 10.436h56.858v39.253H0z"/></defs><clipPath id="b"><use xlink:href="#a" overflow="visible"/></clipPath><path clip-path="url(#b)" fill="#C95C78" d="M49.658 32.385c.167-.15.037.055.163-.244l.301-1.053c1.619-.051 2.735-.174 4.043-.693l2.693-1.845c-.892-.013-1.829.229-3.279.005l-2.938-.616c.24-.154.615-.158.958-.209.353-.054.656-.1 1.004-.181.678-.159 1.174-.312 1.743-.574l2.258-2.209c-1.031.406-1.963.575-3.354.591-.677.007-3.13-.032-3.356-.636-.269-.715-.267-1.392-.83-2.731a13.974 13.974 0 0 0-1.301-2.406 13.174 13.174 0 0 0-3.79-3.738l-6.188-1.733c.388-.373 1.846-.667 2.373-.807 2.759-.737 2.521-1.744 1.853-1.931-.853-.239-2.933.545-3.862.829l1.667-1.767c-1.734.163-2.869 1.027-4.167 1.827l.54-1.326c-1.635.548-4.586 4.445-5.403 6.006l-3.461 7.595c-.295-.121-2.343-2.221-3.907-3.155-1.367-.816-3.191-1.688-4.759-2.415-3.776-1.749-6.475-2.812-10.34-4.226-.193 3.395 1.986 5.261 4.704 7.087l-3.313.435c.057 1.449 1.177 2.959 2.026 3.683 1.545 1.319 2.355 1.326 3.772 1.861l.292.149c-2.285.396-1.603.144-3.587 1.43.025.903 1.992 2.825 3.475 3.155l3.303.43c-.228.209-.586.357-.856.531a2.577 2.577 0 0 0-.718.635c-.456.553-.692 1.18-.394 1.945l3.825 1.742c-.204.404-1.454 1.41-1.874 1.701-2.288 1.584-4.861 2.697-8.141 2.842-2.33.104-4.586-.34-6.368-1.053-2.055-.824-2.896-1.509-4.465-2.72.46.791 1.502 1.885 2.138 2.559 5.997 6.361 15.701 9.871 25.844 8.061 6.193-1.107 10.184-3.242 13.812-5.895.598-.436 2.022-1.715 2.534-2.242 1.577-1.627 2.98-3.369 4.006-5.383.307-.604 1.371-2.698 1.324-3.311"/></svg>