<?xml version="1.0" encoding="utf-8"?>
<!-- Generator: Adobe Illustrator 16.0.0, SVG Export Plug-In . SVG Version: 6.00 Build 0)  -->
<!DOCTYPE svg PUBLIC "-//W3C//DTD SVG 1.1//EN" "http://www.w3.org/Graphics/SVG/1.1/DTD/svg11.dtd">
<svg version="1.1" id="Layer_1" xmlns="http://www.w3.org/2000/svg" xmlns:xlink="http://www.w3.org/1999/xlink" x="0px" y="0px"
	 width="55.5px" height="36.75px" viewBox="0 0 55.5 36.75" enable-background="new 0 0 55.5 36.75" xml:space="preserve">
<g>
	<path fill="#C95C78" d="M45.085,24.1c3.119,2.871,5.294,5.211,6.526,7.018c0.574,0.902,0.759,1.703,0.554,2.4
		s-0.678,1.047-1.416,1.047l-8.126,0.369c-1.148,0.082-2.545-0.615-4.186-2.094c-1.643-1.477-2.75-2.709-3.325-3.693
		c-0.328-0.574-0.923-0.902-1.785-0.984s-1.416,0.328-1.662,1.23l-0.247,3.201c-0.081,0.656-0.328,1.15-0.737,1.479
		c-0.411,0.328-0.759,0.514-1.046,0.555c-0.289,0.039-0.76,0.102-1.418,0.184c-2.134,0.082-4-0.021-5.602-0.309
		c-1.6-0.287-3.058-0.881-4.371-1.783s-2.359-1.725-3.139-2.465c-0.78-0.738-1.908-1.928-3.386-3.57
		c-4.021-5.744-7.017-10.711-8.987-14.897C1.993,10.145,1.582,8.75,1.5,7.6c0.328-0.328,0.944-0.532,1.847-0.615
		c0.904-0.082,2.217-0.103,3.94-0.062c1.724,0.042,2.749,0.062,3.078,0.062c0.821-0.082,1.477,0.369,1.97,1.354
		c2.051,4.596,4.063,8.167,6.033,10.711c1.313,1.231,2.175,1.027,2.585-0.616c0.166,0,0.247-2.01,0.247-6.031
		c0.081-2.545-0.944-4.146-3.078-4.803c0.492-1.312,2.216-1.97,5.171-1.97c0.739,0,1.642,0.041,2.709,0.123
		c1.066,0.082,1.64,0.124,1.722,0.124c2.463,0,3.694,0.984,3.694,2.954c-0.001,0.246-0.041,0.843-0.123,1.785
		c-0.082,0.943-0.144,1.847-0.185,2.709c-0.041,0.861-0.062,1.765-0.062,2.709c0,0.943,0.123,1.744,0.37,2.4
		c0.246,0.656,0.575,1.067,0.985,1.231c0.451-0.328,0.883-0.636,1.292-0.923c0.411-0.288,0.842-0.759,1.294-1.417
		c0.452-0.656,0.799-1.149,1.046-1.478c0.246-0.328,0.615-0.943,1.108-1.847c0.492-0.903,0.779-1.477,0.861-1.724
		c0.082-0.245,0.369-0.882,0.861-1.908c0.493-1.026,0.739-1.539,0.739-1.539l0.184-0.369c0.329-0.739,0.596-1.169,0.801-1.293
		c0.206-0.123,0.719-0.185,1.539-0.185h7.635c0.901,0,1.436,0.021,1.6,0.062c0.164,0.042,0.412,0.226,0.739,0.554
		c0.573,0.739,0.062,2.339-1.539,4.803c-1.601,2.462-3.14,4.514-4.617,6.156C43.896,20.857,43.608,22.703,45.085,24.1"/>
</g>
</svg>
