<svg xmlns="http://www.w3.org/2000/svg" width="55.5" height="36.75"><path fill="#C95C78" d="M45.085 24.1c3.119 2.871 5.294 5.211 6.526 7.018.574.902.759 1.703.554 2.4s-.678 1.047-1.416 1.047l-8.126.369c-1.148.082-2.545-.615-4.186-2.094-1.643-1.477-2.75-2.709-3.325-3.693-.328-.574-.923-.902-1.785-.984s-1.416.328-1.662 1.23l-.247 3.201c-.081.656-.328 1.15-.737 1.479-.411.328-.759.514-1.046.555-.289.039-.76.102-1.418.184-2.134.082-4-.021-5.602-.309-1.6-.287-3.058-.881-4.371-1.783s-2.359-1.725-3.139-2.465c-.78-.738-1.908-1.928-3.386-3.57-4.021-5.744-7.017-10.711-8.987-14.897C1.993 10.145 1.582 8.75 1.5 7.6c.328-.328.944-.532 1.847-.615.904-.082 2.217-.103 3.94-.062 1.724.042 2.749.062 3.078.062.821-.082 1.477.369 1.97 1.354 2.051 4.596 4.063 8.167 6.033 10.711 1.313 1.231 2.175 1.027 2.585-.616.166 0 .247-2.01.247-6.031.081-2.545-.944-4.146-3.078-4.803.492-1.312 2.216-1.97 5.171-1.97.739 0 1.642.041 2.709.123 1.066.082 1.64.124 1.722.124 2.463 0 3.694.984 3.694 2.954-.001.246-.041.843-.123 1.785a69.422 69.422 0 0 0-.185 2.709 57.046 57.046 0 0 0-.062 2.709c0 .943.123 1.744.37 2.4.246.656.575 1.067.985 1.231.451-.328.883-.636 1.292-.923.411-.288.842-.759 1.294-1.417.452-.656.799-1.149 1.046-1.478.246-.328.615-.943 1.108-1.847.492-.903.779-1.477.861-1.724.082-.245.369-.882.861-1.908l.739-1.539.184-.369c.329-.739.596-1.169.801-1.293.206-.123.719-.185 1.539-.185h7.635c.901 0 1.436.021 1.6.062.164.042.412.226.739.554.573.739.062 2.339-1.539 4.803-1.601 2.462-3.14 4.514-4.617 6.156-2.05 2.3-2.338 4.146-.861 5.543"/></svg>