<?xml version="1.0" encoding="UTF-8" standalone="no"?>
<svg
   xmlns:dc="http://purl.org/dc/elements/1.1/"
   xmlns:cc="http://creativecommons.org/ns#"
   xmlns:rdf="http://www.w3.org/1999/02/22-rdf-syntax-ns#"
   xmlns:svg="http://www.w3.org/2000/svg"
   xmlns="http://www.w3.org/2000/svg"
   viewBox="0 0 1062.5428 218.00787"
   height="218.00787"
   width="1062.5428"
   version="1.1"
   id="svg2">
  <metadata
     id="metadata8">
    <rdf:RDF>
      <cc:Work
         rdf:about="">
        <dc:format>image/svg+xml</dc:format>
        <dc:type
           rdf:resource="http://purl.org/dc/dcmitype/StillImage" />
        <dc:title></dc:title>
      </cc:Work>
    </rdf:RDF>
  </metadata>
  <defs
     id="defs6" />
  <g
     style="fill:#4b4b4b;fill-opacity:1"
     transform="translate(-448.92108,631.58681)"
     id="g4140">
    <path
       id="path4142"
       d="m 457.82519,-414.86438 c -1.15274,-0.66801 -3.62774,-2.97713 -5.5,-5.13139 l -3.40411,-3.91683 0,-98.28505 0,-98.28505 3.92086,-4.01526 c 7.43077,-7.60967 -0.42721,-7.08098 105.24587,-7.08098 90.35056,0 95.03027,0.088 98.34887,1.84855 4.67883,2.48223 10.61816,10.45962 11.39244,15.30172 0.81473,5.09504 0.81604,183.02564 10e-4,185.47503 -1.75696,5.28244 -3.7543,8.45356 -7.39776,11.74521 l -4.01704,3.62949 -98.24712,-0.0354 c -75.19768,-0.0271 -98.73883,-0.32038 -100.34301,-1.25 z m 192.92258,-8.81755 c 1.33144,-0.60664 3.37761,-2.80541 4.54705,-4.88615 2.12442,-3.77989 2.12626,-3.86093 2.12626,-93.46276 0,-65.97285 -0.30585,-90.25699 -1.15698,-91.86384 -0.63633,-1.20134 -2.09883,-3.01148 -3.25,-4.02252 -5.42005,-4.76032 -3.40969,-4.66174 -95.06592,-4.66174 -61.82292,0 -87.19075,0.32224 -89.62788,1.13852 -1.86957,0.62619 -4.45101,2.08869 -5.73654,3.25 -5.09512,4.60281 -5.16305,5.34671 -5.15771,56.4836 l 0.005,47.62788 2.39882,-3 2.39882,-3 27.50354,-0.5 27.50354,-0.5 -9.90733,-10.25041 c -8.56386,-8.86042 -9.90733,-10.70836 -9.90733,-13.62756 0,-4.24811 2.14796,-6.07657 7.13834,-6.07657 3.69855,0 4.72861,0.84182 21.38521,17.47727 9.62472,9.6125 17.75663,18.2868 18.0709,19.27623 0.86946,2.73734 -1.21249,5.24655 -19.21038,23.15261 -15.23845,15.16073 -16.93069,16.54843 -20.17993,16.54843 -4.35678,0 -7.20414,-2.40237 -7.20414,-6.07826 0,-3.00955 1.20523,-4.63622 11.78969,-15.91222 3.8671,-4.11977 6.81986,-7.83227 6.56168,-8.25 -0.25817,-0.41774 -11.89667,-0.75952 -25.86333,-0.75952 -26.59972,0 -29.62032,-0.42414 -31.1351,-4.3719 -1.23482,-3.21815 -1.65254,73.15593 -0.42337,77.40738 0.56219,1.94452 2.43643,4.98202 4.16496,6.75 l 3.14279,3.21452 91.33428,0 c 64.44504,0 92.04699,-0.32472 93.75509,-1.10299 z m -103.0687,-19.22583 c -19.44374,-19.51916 -20.8591,-21.73588 -16.03548,-25.11448 4.48453,-3.14108 6.52246,-2.10254 17.92693,9.13569 5.96781,5.88081 10.86323,10.04331 10.87872,9.25 0.0155,-0.79332 0.0218,-12.79219 0.014,-26.66416 -0.0167,-29.81606 0.51223,-32.22461 7.08538,-32.26292 5.13305,-0.0299 5.33285,1.04546 5.87244,31.60797 l 0.5,28.31995 10.13335,-10.01556 c 7.84993,-7.75867 10.90911,-10.14144 13.57597,-10.57421 2.45483,-0.39837 3.92295,-0.0783 5.11665,1.11537 3.06288,3.06288 2.03298,6.29748 -4.07597,12.80141 -10.53357,11.21463 -30.67083,30.72976 -31.70939,30.72976 -0.56354,0 -9.24071,-8.24797 -19.2826,-18.32882 z m -24.59132,-40.33785 c -1.37273,-1.37272 -0.57063,-3.32197 2.58333,-6.27802 l 3.25,-3.04606 13.27475,-0.005 13.27475,-0.005 0.97525,2.5651 c 1.3036,3.42873 1.24305,4.02424 -0.59618,5.86347 -1.29128,1.29204 -4.29221,1.57218 -16.83333,1.57218 -8.39405,0 -15.56191,-0.3 -15.92857,-0.66667 z m 55.31311,-1.3711 c -1.16754,-2.18158 -0.42361,-5.99226 1.405,-7.19692 0.61337,-0.40408 3.02772,-0.74158 5.36522,-0.75 l 4.25,-0.0153 0,-13.96482 c 0,-12.78314 0.16367,-14.05241 1.93426,-15 2.74787,-1.47061 3.79721,-1.30371 6.06574,0.96482 1.83685,1.83685 2,3.33333 2,18.34501 0,20.0097 0.21284,19.65499 -11.79356,19.65499 -7.16289,0 -8.26652,-0.24375 -9.22666,-2.03777 z m 35.24273,-11.51893 c -4.4039,-3.08461 -3.02716,-6.07749 8.25403,-17.9433 5.75192,-6.05 10.47276,-11.3375 10.49075,-11.75 0.018,-0.4125 -12.70229,-0.75 -28.26729,-0.75 -20.67778,0 -28.6232,-0.3232 -29.5,-1.2 -1.71162,-1.71162 -1.48375,-7.37339 0.37143,-9.22857 1.35413,-1.35413 5.4636,-1.57143 29.7187,-1.57143 l 28.14726,0 -5.53427,-5.75 c -10.80829,-11.2296 -15.90312,-17.43704 -15.90312,-19.37604 0,-2.38099 4.27737,-6.87396 6.5441,-6.87396 0.89926,0 9.69472,7.95201 19.54546,17.67114 14.30135,14.11027 17.91044,18.20746 17.91044,20.33267 0,2.10046 -3.46165,6.15877 -16.42108,19.25144 -19.68616,19.88855 -20.60839,20.51369 -25.35641,17.18805 z m -68.39504,-40.11771 c -3.26827,-0.86449 -3.88636,-6.10583 -3.79243,-32.15918 0.0503,-13.95528 -0.0875,-25.55221 -0.30625,-25.77096 -0.21875,-0.21874 -5.08471,4.10072 -10.81326,9.59882 -8.27592,7.94299 -11.00916,9.99748 -13.30529,10.00113 -3.37521,0.005 -5.53356,-2.38874 -5.57844,-6.18779 -0.0468,-3.96308 33.01238,-37.80761 36.93032,-37.80761 2.14638,0 6.09659,3.46776 19.85861,17.43321 15.38531,15.61274 17.17927,17.7848 17.17927,20.8 0,4.1137 -1.5031,5.76679 -5.24356,5.76679 -3.01034,0 -5.40078,-1.91198 -17.89352,-14.31196 l -6.86292,-6.81196 0,27.60741 0,27.60742 -2.45455,2.45455 c -2.3514,2.3514 -4.0645,2.74652 -7.71798,1.78013 z m -23.17231,-3.74734 c -3.61769,-3.31367 -3.65516,-3.42923 -3.65516,-11.27199 0,-10.50296 0.54162,-11.10769 10.29611,-11.49595 7.29359,-0.29031 7.83108,-0.17038 8.33856,1.8606 1.13929,4.55954 0.14152,5.81018 -4.89366,6.13388 l -4.74101,0.30479 0,8.38619 c 0,4.61241 -0.38018,8.62116 -0.84484,8.90834 -0.46466,0.28718 -2.48967,-0.98446 -4.5,-2.82586 z m 68.0591,-3.19733 c -0.39284,-0.39284 -0.71426,-3.10222 -0.71426,-6.02085 l 0,-5.3066 -14.75,-0.27674 -14.75,-0.27673 0,-3.5 0,-3.5 19,0 19,0 0,9.5 0,9.5 -3.53574,0.29759 c -1.94466,0.16368 -3.85716,-0.0238 -4.25,-0.41667 z m -67.99515,47.37013 c 8.95449,-8.93693 16.28089,-16.60372 16.28089,-17.03732 0,-1.18779 -32.76612,-33.71373 -33.96269,-33.71373 -3.07467,0 0.20633,4.79377 10.9509,16 6.59176,6.875 11.87252,13.175 11.73502,14 -0.21502,1.29014 -4.70014,1.53696 -32.05721,1.76414 -29.57441,0.2456 -31.78379,0.386 -31.47351,2 0.30587,1.59105 2.95354,1.77757 31.73789,2.23586 19.62269,0.31242 31.52916,0.87562 31.73731,1.50123 0.18321,0.55068 -3.60457,5.09008 -8.4173,10.08754 -4.81272,4.99747 -10.4532,10.97764 -12.5344,13.28927 -3.56608,3.96093 -4.07365,6.12196 -1.43788,6.12196 0.63805,0 8.48649,-7.31203 17.44098,-16.24895 z m 247.28089,41.76286 c -19.03044,-2.68865 -27.75525,-9.73706 -32.90787,-26.58491 -2.91954,-9.54618 1.17948,-22.16818 9.82521,-30.25454 4.8933,-4.5767 16.23188,-11.67446 18.64981,-11.67446 0.80299,0 2.24138,-0.40378 3.19642,-0.89728 1.50138,-0.77582 9.30105,-3.17946 19.73643,-6.0822 1.65,-0.45897 5.475,-1.37964 8.5,-2.04594 10.80719,-2.38045 24.29579,-7.09841 27.68502,-9.6835 1.89567,-1.4459 4.31705,-4.33497 5.38083,-6.42016 5.29244,-10.37403 -0.89787,-20.03152 -15.2946,-23.86108 -8.34754,-2.22047 -36.79509,0.195 -46.27125,3.92886 -6.41487,2.52764 -12.55969,4.14244 -13.51545,3.55175 -1.13136,-0.69922 -0.81448,-6.05213 0.73557,-12.42594 1.00931,-4.15025 1.74971,-4.41304 23.27988,-8.26267 9.10772,-1.62848 35.73315,-2.12069 43.5,-0.80416 18.64857,3.16104 28.30211,9.60646 32.00102,21.36624 1.87929,5.97476 1.89688,3.77394 -0.42071,52.63608 -2.14009,45.1201 -2.2453,46.32463 -4.30301,49.26509 -3.07276,4.39098 -6.95262,5.86408 -14.56436,5.52976 l -6.71294,-0.29485 0.10653,-6.5 c 0.17404,-10.61949 1.33917,-32.52702 2.52624,-47.5 0.61047,-7.7 0.94283,-15.09668 0.73858,-16.43706 -0.32545,-2.13583 -0.55676,-2.25943 -1.87135,-1 -2.21818,2.1251 -9.52879,5.93706 -11.38615,5.93706 -0.88762,0 -1.61385,0.45 -1.61385,1 0,0.55 -1.32344,1 -2.94098,1 -1.61754,0 -3.2191,0.45 -3.55902,1 -0.33992,0.55 -1.57203,1 -2.73802,1 -2.18992,0 -3.66364,0.38752 -14.89325,3.91624 -3.6472,1.14607 -7.1475,2.08376 -7.77845,2.08376 -0.63095,0 -4.46879,1.57624 -8.52854,3.50276 -9.55548,4.53447 -16.01718,11.38017 -17.01358,18.02467 -1.33472,8.90055 1.87243,15.29059 10.09196,20.10755 3.87815,2.27275 6.03652,2.74659 14.21611,3.12093 8.47124,0.38769 13.14449,-0.0314 26.89377,-2.41201 3.22436,-0.55827 3.25,-0.53075 3.25,3.48768 0,2.22771 -0.45,4.3285 -1,4.66842 -0.55,0.33992 -1,1.66138 -1,2.93657 0,3.11464 -1.63859,4.16131 -7,4.47134 -2.475,0.14313 -6.69892,0.6724 -9.38649,1.17616 -6.1698,1.15648 -14.74302,0.96563 -25.61351,-0.57016 z m 165.5,0.23977 c -8.3752,-1.13084 -18.34891,-4.00412 -24.439,-7.0405 -5.98541,-2.98419 -14.41565,-10.84343 -18.91935,-17.63792 -4.95556,-7.47619 -5.75727,-9.28404 -8.11841,-18.30688 -2.31108,-8.83157 -2.8133,-29.33152 -0.91879,-37.50403 1.32487,-5.71522 6.78609,-21.17428 8.01503,-22.68811 0.48053,-0.59193 2.89874,-3.836 5.37378,-7.20905 2.47504,-3.37304 5.56344,-6.82954 6.8631,-7.68112 1.29966,-0.85157 2.98866,-2.15575 3.75333,-2.89817 3.73873,-3.62997 12.21968,-7.34785 23.6891,-10.38484 6.18182,-1.63688 27.8986,-1.90309 32.88021,-0.40306 1.82655,0.55 5.0085,1.48784 7.071,2.08409 16.709,4.83042 26.97089,15.90638 31.75512,34.27417 1.754,6.73422 1.9824,21.81989 0.3778,24.95748 -2.93125,5.73185 -1.4359,5.56556 -50.75496,5.64448 -24.95463,0.0399 -45.81363,0.34551 -46.35334,0.67907 -1.4541,0.89869 0.0102,12.84904 2.43352,19.86071 5.79769,16.7749 16.37034,25.04824 36.48078,28.54703 6.07336,1.05664 8.78896,1.0035 17.5,-0.34245 12.6455,-1.95386 18.05661,-3.10996 23.77118,-5.07879 2.42306,-0.83481 4.77328,-1.29057 5.22273,-1.0128 1.19775,0.74025 0.96369,6.17013 -0.5124,11.88701 -1.49598,5.7939 -1.19693,5.66903 -22.47762,9.38532 -12.70621,2.21891 -21.04928,2.44051 -32.69281,0.86836 z m 46.48482,-87.00368 c -0.0131,-3.68237 -0.73972,-6.6993 -3.61244,-15 -0.3331,-0.9625 -1.00316,-1.75 -1.48901,-1.75 -0.48585,0 -0.88337,-0.60269 -0.88337,-1.33932 0,-2.01674 -5.8659,-6.92169 -11.5,-9.61607 -4.13401,-1.977 -6.64538,-2.40443 -14.5,-2.46788 -11.36485,-0.0918 -18.43729,1.87153 -26.14863,7.2589 -8.11646,5.67041 -15.85137,17.94205 -15.85137,25.14862 0,1.98468 0.57031,2.01575 37,2.01575 l 37,0 -0.0152,-4.25 z m 181.5152,86.74428 c -5.5,-0.7549 -11.575,-1.79209 -13.5,-2.30487 -4.5049,-1.20002 -12.3538,-4.3548 -13,-5.2252 -0.275,-0.37042 -1.727,-1.30849 -3.2267,-2.0846 -3.1677,-1.63931 -11.7999,-11.48682 -15.421,-17.5921 -1.3741,-2.31687 -3.889,-7.71687 -5.5886,-12 -2.9812,-7.51276 -3.0932,-8.352 -3.177,-23.78751 -0.09,-16.64353 0.2207,-18.55959 5.1122,-31.5 3.8286,-10.12855 7.8301,-15.81635 16.9035,-24.02698 10.3671,-9.38135 24.628,-13.97302 43.3976,-13.97302 25.6012,0 41.7581,8.10661 50.1264,25.15067 4.4041,8.97003 4.7361,10.31168 5.3243,21.51705 0.6522,12.42256 -0.4639,17.0972 -4.5486,19.0522 -1.9388,0.92794 -13.8877,1.27273 -47.0984,1.35905 -24.4754,0.0636 -45.0871,0.47816 -45.804,0.92121 -2.0429,1.26255 0.1989,18.13082 3.3593,25.27696 3.9917,9.02605 11.2438,15.95544 20.4536,19.54345 16.1827,6.3046 26.2674,6.32299 51.6874,0.0942 2.75,-0.67384 5.45,-1.52044 6,-1.88134 1.5245,-1.00038 3.4851,-0.67555 4.3478,0.72032 0.563,0.91093 -0.6262,11.36693 -1.8081,15.89837 -0.1617,0.61993 -6.8809,2.34783 -9.1299,2.34783 -1.5355,0 -3.0281,0.3824 -3.317,0.84979 -0.4783,0.77393 -6.3742,1.39498 -24.5928,2.5905 -3.575,0.23459 -11,-0.19111 -16.5,-0.94601 z m 45.0747,-89.43235 c -1.1741,-11.91555 -6.7744,-20.32113 -16.5747,-24.87735 -4.7674,-2.21637 -6.9118,-2.56547 -16.0986,-2.62077 -5.8293,-0.0351 -11.6793,0.42072 -13,1.01292 -16.8911,7.5736 -22.8008,13.80283 -27.3103,28.78669 l -1.3954,4.63658 37.5314,0 37.5313,0 -0.6837,-6.93807 z m 95.9253,89.72626 c -16.2275,-2.49211 -25.3801,-6.66765 -34.578,-15.77499 -9.5074,-9.41379 -15.1143,-22.45172 -16.3633,-38.05009 -1.2166,-15.19332 4.1474,-40.67828 11.104,-52.757 3.9836,-6.91668 13.1306,-15.40954 20.3373,-18.88284 12.1175,-5.84013 15.4571,-6.5016 35.5,-7.03153 12.4515,-0.32922 17.2198,-0.0786 21.5,1.13016 3.025,0.85426 7.4079,2.02493 9.7399,2.60149 4.7093,1.16433 4.8372,1.43193 5.6046,11.72661 0.4652,6.24122 0.462,6.25 -2.2394,6.25 -1.4878,0 -3.1326,-0.42162 -3.6551,-0.93693 -1.5268,-1.50572 -20.7135,-5.06307 -27.3079,-5.06307 -17.7688,0 -33.4738,8.71905 -40.8831,22.69737 -3.7434,7.06219 -4.8879,11.41478 -5.7096,21.71427 -0.3471,4.3514 -0.7736,8.1764 -0.9477,8.5 -0.746,1.38666 2.3568,20.29886 3.8073,23.20649 0.875,1.75403 1.591,3.82436 1.591,4.60073 0,0.77636 2.3966,3.80818 5.3258,6.73736 5.3382,5.33823 12.1858,9.1251 20.6903,11.44227 5.3895,1.46842 25.0527,0.94851 32.4839,-0.8589 2.75,-0.66885 6.8,-1.28888 9,-1.37784 3.6916,-0.14928 3.9844,0.031 3.7981,2.33825 -0.198,2.4522 -0.9855,7.43198 -1.8357,11.60779 -0.6319,3.10382 -6.9955,4.9646 -21.4624,6.27583 -13.8614,1.25635 -16.7687,1.24547 -25.5,-0.0954 z m 126,-0.25393 c -9.7964,-1.62535 -21.2902,-5.31032 -23.5,-7.53426 -0.275,-0.27675 -1.8104,-1.17747 -3.4119,-2.00159 -3.2773,-1.68644 -14.5881,-12.47957 -14.5881,-13.92046 0,-0.5143 -0.5651,-1.52974 -1.2558,-2.25652 -1.2767,-1.34357 -4.9973,-8.68464 -6.2446,-12.32143 -4.2914,-12.51195 -4.9708,-33.04703 -1.5195,-45.92594 3.6971,-13.79622 8.8155,-22.78884 17.789,-31.25407 7.7309,-7.29302 13.654,-10.24389 32.8019,-16.34196 1.689,-0.53792 8.7848,-0.97803 15.7684,-0.97803 15.6681,0 24.1489,1.86255 37.0256,8.1315 2.6757,1.30267 7.0929,4.34937 9.8159,6.77043 5.1241,4.55589 12.8191,14.96663 12.8191,17.3432 0,0.74518 0.3718,1.78237 0.8261,2.30487 0.4544,0.5225 1.4069,2.975 2.1167,5.45 0.7098,2.475 1.688,5.80465 2.1739,7.39922 2.082,6.83341 0.3628,37.05932 -2.2781,40.05078 -0.4612,0.5225 -0.8386,1.61373 -0.8386,2.42496 0,0.81122 -1.8927,5.33372 -4.2059,10.05 -8.549,17.42969 -24.8779,29.17548 -44.7941,32.22139 -10.3192,1.57818 -20.4914,1.71664 -28.5,0.38791 z m 30.4961,-18.83946 c 10.6485,-3.59773 20.2113,-14.39982 24.075,-27.1948 0.6644,-2.2 1.6257,-5.17962 2.1364,-6.62138 1.5875,-4.48142 1.2695,-27.74333 -0.4572,-33.44634 -2.6266,-8.67593 -5.6167,-14.22267 -10.0138,-18.57648 -7.9012,-7.82345 -20.043,-11.54378 -34.2365,-10.49028 -16.2635,1.20714 -26.9861,7.75662 -34.4474,21.04074 -1.1289,2.01002 -2.0526,4.45089 -2.0526,5.42416 0,0.97327 -0.3582,2.19708 -0.7959,2.71958 -3.4384,4.10437 -4.9842,31.2647 -2.2742,39.95955 4.6266,14.84439 12.6427,23.39792 26.5701,28.35157 7.4497,2.64971 21.7712,2.11938 31.4961,-1.16632 z m -435.1628,15.32319 c -0.3416,-1.00653 0.077,-13.52222 2.0938,-62.51799 0.6338,-15.4 1.26,-35.425 1.3917,-44.5 0.1317,-9.075 0.5904,-17.0625 1.0193,-17.75 0.5381,-0.86239 3.8293,-1.25 10.6139,-1.25 11.4187,0 11.0323,-0.36024 11.0798,10.33179 0.029,6.5971 0.1513,7.00886 1.5316,5.16821 7.3979,-9.86484 11.8411,-13.27184 21.4017,-16.41042 4.478,-1.47006 8.9386,-2.08958 15.045,-2.08958 11.2159,0 12.2117,0.89601 11.7883,10.60671 -0.3649,8.36777 -1.9957,9.74859 -9.5985,8.12708 -4.9167,-1.04862 -15.663,0.41341 -19.6246,2.66991 -9.2866,5.28957 -16.4433,14.8788 -19.4764,26.0963 -2.0795,7.69102 -3.0993,19.78389 -3.1473,37.32236 -0.05,18.39986 -1.6903,35.00109 -3.8537,39.01265 -0.6926,1.28426 -3.1355,3.18688 -5.4286,4.22804 -4.4021,1.99873 -14.2662,2.63364 -14.836,0.95494 z"
       style="fill:#4b4b4b;fill-opacity:1" />
  </g>
  <path
     id="path4138"
     d=""
     style="fill:#000000" />
</svg>
