<?xml version="1.0" encoding="UTF-8" standalone="no"?>
<svg
   xmlns:dc="http://purl.org/dc/elements/1.1/"
   xmlns:cc="http://creativecommons.org/ns#"
   xmlns:rdf="http://www.w3.org/1999/02/22-rdf-syntax-ns#"
   xmlns:svg="http://www.w3.org/2000/svg"
   xmlns="http://www.w3.org/2000/svg"
   viewBox="0 0 143.325 35.04086"
   height="35.040859"
   width="143.325"
   version="1.1"
   id="svg2">
  <metadata
     id="metadata8">
    <rdf:RDF>
      <cc:Work
         rdf:about="">
        <dc:format>image/svg+xml</dc:format>
        <dc:type
           rdf:resource="http://purl.org/dc/dcmitype/StillImage" />
        <dc:title></dc:title>
      </cc:Work>
    </rdf:RDF>
  </metadata>
  <defs
     id="defs6" />
  <path
     id="path4138"
     d="M 36,34.992786 C 35.46375,34.964586 33.64125,34.869571 31.95,34.781647 14.942856,33.89749 4.207476,30.92509 1.074049,26.232746 0.299442,25.072762 0,24.086723 0,22.695985 0,16.914825 7.388987,11.859458 21.684988,7.8596342 26.166355,6.6058102 32.709438,5.1936172 37.725,4.3977212 c 1.327339,-0.210629 1.905942,-0.389212 2.958816,-0.913226 0.719848,-0.358268 1.416928,-0.816396 1.549065,-1.018063 0.132138,-0.201667 0.85942,-0.826197 1.616184,-1.387845 L 45.225,0.05740915 l 1.35,-0.04367 c 1.274907,-0.04124 1.404234,-0.01598 2.325,0.454045 l 0.975,0.497711 -0.01458,0.93476405 c -0.0081,0.519833 -0.120197,1.150578 -0.25251,1.420955 -0.714702,1.460464 -1.756371,3.845182 -1.850411,4.236192 -0.220441,0.916567 -0.65135,1.674046 -1.057624,1.859156 -0.325353,0.148241 -0.364782,0.213923 -0.19238,0.320473 0.185862,0.11487 0.177555,0.206974 -0.05815,0.6446478 -0.151247,0.280846 -0.258671,0.637776 -0.238722,0.793176 0.01995,0.155401 -0.04178,0.472566 -0.137175,0.704812 -0.0954,0.232245 -0.173451,0.55287 -0.173451,0.7125 0,0.159629 -0.06295,0.290235 -0.139892,0.290235 -0.07694,0 -0.184288,0.139881 -0.238551,0.310848 -0.06167,0.194312 -0.181494,0.279062 -0.319611,0.226061 C 44.984935,13.336035 44.1,13.704998 44.1,13.878753 c 0,0.04875 0.148362,0.04984 0.329694,0.0024 0.646534,-0.169072 0.726305,0.131761 0.333249,1.25677 -0.584583,1.673205 -0.423513,2.007621 0.37078,0.769823 0.255749,-0.39855 0.667786,-0.905321 0.915638,-1.126158 C 46.297212,14.560776 46.5,14.317661 46.5,14.241357 c 0,-0.0763 0.135,-0.181582 0.3,-0.233951 0.165,-0.05237 0.3,-0.192279 0.3,-0.31091 0,-0.498819 4.899882,-5.7675148 7.425,-7.9838798 0.4125,-0.362062 0.91875,-0.806774 1.125,-0.988247 1.104936,-0.972204 2.338914,-1.301551 3.730264,-0.995604 1.430707,0.314601 1.669736,0.442271 1.669736,0.891839 0,0.220991 -0.07694,0.47874 -0.170975,0.572777 -0.09404,0.09404 -0.223204,0.501372 -0.28704,0.905191 -0.145233,0.918739 -1.93335,4.6843428 -2.625465,5.5289778 -0.284086,0.346689 -0.51652,0.703604 -0.51652,0.793144 0,0.08954 -0.135,0.41468 -0.3,0.722534 -0.165,0.307854 -0.3,0.668398 -0.3,0.801208 0,0.132811 -0.135,0.363647 -0.3,0.51297 -0.324306,0.293492 -0.401349,0.894658 -0.135698,1.058839 0.1821,0.112544 0.885698,-0.212514 0.885698,-0.409186 0,-0.06856 -0.105234,-0.124653 -0.233853,-0.124653 -0.128619,0 -0.190108,-0.07078 -0.136646,-0.157284 0.06683,-0.108138 0.161234,-0.104146 0.302114,0.01277 0.241336,0.200291 0.864933,-0.225363 1.822014,-1.243668 0.670698,-0.713603 1.799028,-1.74148 2.71626,-2.474436 0.37578,-0.300285 0.628437,-0.636734 0.657659,-0.875768 0.03535,-0.2891598 0.273439,-0.5281008 0.933555,-0.9368948 0.838663,-0.519364 0.947076,-0.546857 2.025,-0.513523 1.565386,0.04841 2.660041,0.403799 2.785684,0.904399 0.103665,0.4130378 -0.555331,1.9289358 -1.172052,2.6960858 -0.351594,0.437353 -0.468504,0.669093 -1.003081,1.988315 -0.183869,0.45375 -0.37646,0.85875 -0.42798,0.9 -0.143894,0.115209 -1.484306,2.875871 -1.602282,3.3 -0.05737,0.20625 -0.511938,1.185 -1.01015,2.175 -1.238479,2.460998 -1.390353,2.91265 -1.214719,3.612427 0.07547,0.300703 0.166701,0.369262 0.407551,0.306279 0.300267,-0.07852 0.700926,0.125027 0.700926,0.35609 0,0.213377 -1.725252,0.262311 -2.625,0.07446 -1.073446,-0.224121 -1.801291,-0.618161 -2.017224,-1.092084 -0.196461,-0.431183 -0.201952,-0.827987 -0.01405,-1.015878 C 58.370416,22.82199 60.15,18.897352 60.15,18.684363 c 0,-0.08433 0.104875,-0.269222 0.233058,-0.410861 0.128182,-0.141639 0.24348,-0.39588 0.256218,-0.564979 0.01273,-0.1691 0.130865,-0.335621 0.262504,-0.370045 0.150638,-0.03939 0.361443,-0.482805 0.568782,-1.196383 0.390836,-1.345102 0.387869,-1.309689 0.109715,-1.309689 -0.120848,0 -0.298814,0.151875 -0.395481,0.3375 -0.09667,0.185625 -0.569117,0.7425 -1.049886,1.2375 -2.642376,2.720592 -3.202328,3.319116 -3.731333,3.988356 -0.319315,0.403965 -0.885355,0.988094 -1.257864,1.298063 -0.37251,0.30997 -0.799819,0.799831 -0.949576,1.088581 -0.149758,0.28875 -0.834308,1.105103 -1.521222,1.814117 -0.686915,0.709014 -1.327905,1.445349 -1.424426,1.636299 -0.09652,0.19095 -0.544596,0.546009 -0.995727,0.78902 -0.652278,0.351363 -0.874549,0.40792 -1.085464,0.276202 -0.145875,-0.0911 -0.438396,-0.165637 -0.650045,-0.165637 -0.494473,0 -1.508761,-0.582234 -1.728268,-0.992083 -0.144282,-0.269391 -0.09148,-0.427317 0.351075,-1.05 0.286494,-0.403105 0.634152,-0.935418 0.772572,-1.182918 0.13842,-0.2475 0.410607,-0.713623 0.60486,-1.035829 0.194253,-0.322206 0.318363,-0.676581 0.275799,-0.7875 -0.04502,-0.117335 0.02341,-0.201671 0.16366,-0.201671 0.132578,0 0.241049,-0.09299 0.241049,-0.206634 0,-0.113647 0.09724,-0.287332 0.216084,-0.385966 0.118846,-0.09863 0.175919,-0.284004 0.126826,-0.411935 -0.05162,-0.134529 0.01612,-0.291573 0.160661,-0.372463 0.137455,-0.07693 0.425435,-0.490443 0.639953,-0.918932 0.214517,-0.428488 0.540859,-0.98157 0.7252,-1.22907 0.184343,-0.2475 0.497417,-0.815856 0.695721,-1.263014 0.198306,-0.447159 1.15368,-2.400727 2.123055,-4.341264 0.969375,-1.940537 1.7625,-3.6120068 1.7625,-3.7143778 0,-0.10237 -0.150193,-0.233797 -0.333762,-0.29206 -0.262884,-0.08344 -0.398223,-0.01391 -0.637302,0.327392 -0.166947,0.238328 -0.742378,0.874835 -1.278738,1.4144588 -0.53636,0.539625 -1.266168,1.358991 -1.621797,1.820813 -0.355629,0.461822 -0.845004,1.016456 -1.0875,1.232521 C 50.448405,13.75794 50.25,14.027184 50.25,14.140196 c 0,0.113012 -0.11043,0.297126 -0.245402,0.409141 -0.13497,0.112016 -0.412203,0.474656 -0.616071,0.805867 -0.203869,0.33121 -0.582814,0.814381 -0.8421,1.073713 -0.259285,0.259331 -0.689737,0.765581 -0.95656,1.125001 -0.266823,0.359418 -0.705573,0.94861 -0.975,1.309314 -0.269427,0.360703 -0.706806,0.968203 -0.971954,1.35 -0.684736,0.985977 -1.532203,2.168205 -2.142913,2.989387 -0.635032,0.853887 -0.854976,1.199001 -1.046646,1.642287 -0.08026,0.185625 -0.2151,0.3375 -0.299642,0.3375 -0.08454,0 -0.153712,0.09395 -0.153712,0.208779 0,0.11483 -0.204141,0.469205 -0.453647,0.7875 -0.837418,1.068305 -1.474791,1.976921 -1.721713,2.454418 -0.376662,0.728385 -1.567503,1.799304 -2.000792,1.799304 -0.643639,0 -1.978753,-0.495815 -2.358981,-0.876042 -0.47224,-0.472239 -0.459234,-0.705072 0.08513,-1.523958 0.246793,-0.37125 0.453937,-0.81 0.460322,-0.975 0.0064,-0.165 0.140872,-0.5025 0.298867,-0.750001 0.157993,-0.2475 0.401812,-0.669375 0.541818,-0.9375 0.140006,-0.268125 0.302238,-0.4875 0.360513,-0.4875 0.05828,0 0.150501,-0.177477 0.204945,-0.394395 0.05444,-0.216916 0.36551,-0.958041 0.69126,-1.646943 C 38.433477,22.152166 38.7,21.475747 38.7,21.337914 c 0,-0.137834 0.178885,-0.628584 0.397522,-1.090557 0.218637,-0.461973 0.605226,-1.278701 0.859086,-1.814951 0.253862,-0.53625 0.53886,-1.0425 0.63333,-1.125 0.09447,-0.0825 0.208845,-0.285 0.254169,-0.45 0.0952,-0.346589 1.330733,-3.465715 1.901349,-4.8 0.07056,-0.165 0.285017,-0.696312 0.476564,-1.180694 0.191545,-0.484381 0.426241,-0.9106148 0.521547,-0.9471868 0.0953,-0.03657 0.139023,-0.197494 0.09715,-0.357606 -0.04187,-0.160111 -0.0095,-0.375127 0.07203,-0.477812 0.08149,-0.102686 0.227718,-0.433857 0.32496,-0.735937 0.09724,-0.30208 0.269548,-0.584826 0.382905,-0.628324 0.122401,-0.04697 0.173826,-0.202505 0.12663,-0.382986 -0.05054,-0.193276 0.341043,-1.176355 1.075749,-2.700677 0.635369,-1.318229 1.111138,-2.468104 1.057261,-2.555279 -0.178654,-0.289069 -0.801971,-0.166772 -1.103454,0.216501 -0.162237,0.20625 -0.389886,0.375 -0.505887,0.375 -0.116001,0 -0.291912,0.081 -0.390912,0.18 -0.099,0.099 -0.18,0.125272 -0.18,0.05838 0,-0.06689 -0.139336,0.03774 -0.309638,0.2325 -0.198576,0.227101 -0.336298,0.290668 -0.383965,0.177222 -0.07455,-0.177425 -0.672364,0.142363 -1.584746,0.847728 C 41.728279,4.7142812 41.111353,4.8850422 38.1,5.3744402 29.01118,6.8515312 20.634531,8.9019782 14.701401,11.101979 12.05259,12.084157 8.239089,13.951733 6.45,15.142916 c -4.363943,2.905533 -6.316844,6.675948 -4.95207,9.560829 2.031176,4.293532 8.878621,6.901586 21.90207,8.342063 11.557921,1.27838 24.558382,1.47323 40.725,0.610383 24.772871,-1.322179 42.10097,-3.481489 56.1,-6.990802 5.83914,-1.46377 9.82097,-2.842868 13.8,-4.779598 3.00997,-1.465053 4.92997,-2.723623 6.38697,-4.186687 2.58972,-2.600497 2.68175,-4.987806 0.28494,-7.391398 C 136.25478,5.8530242 124.95799,3.0325862 107.175,1.9383892 96.29968,1.2692252 82.167778,1.2975782 70.601936,2.0117692 65.666045,2.3165602 66,2.3366042 66,1.7355522 l 0,-0.496853 3.3375,-0.179077 C 77.940975,0.59799215 81.114081,0.51764915 90.75,0.51745515 c 11.12725,-2.23e-4 15.66553,0.176089 23.175,0.90034805 16.44736,1.586284 26.52999,5.095211 28.98071,10.0857728 0.37822,0.770197 0.41929,1.008102 0.41929,2.42883 0,1.509163 -0.0217,1.615756 -0.51952,2.55 C 139.04518,23.539461 120.20103,29.4338 91.275,32.600838 82.562196,33.554781 74.649031,34.151079 63.15,34.7202 58.829308,34.934043 38.721698,35.135921 36,34.992782 Z M 24.601792,24.562069 C 22.607049,24.228965 21.75,23.316836 21.75,21.527 c 0,-2.409271 1.460311,-4.795133 3.506998,-5.729747 2.321792,-1.060238 5.768229,-1.112499 6.882212,-0.104358 0.344076,0.311384 0.466273,0.158774 0.720108,-0.899328 0.384964,-1.604714 -0.07339,-1.848046 -3.225117,-1.712174 -2.335944,0.100703 -3.045897,0.233381 -4.330569,0.809306 -0.857741,0.38453 -0.87578,0.386151 -1.153349,0.103675 -0.276414,-0.2813 -0.26214,-0.323972 0.723218,-2.161964 l 1.005196,-1.8749998 3.673153,0.04894 c 2.020233,0.02692 4.068304,0.108673 4.551271,0.181681 1.160729,0.175462 2.111573,0.652447 2.613458,1.311026 0.380836,0.499738 0.407797,0.632939 0.39917,1.972145 -0.0087,1.358467 -0.08627,1.70009 -1.432139,6.311209 l -1.42289,4.875 -4.41786,0.02106 c -2.429823,0.01158 -4.788303,-0.0408 -5.241068,-0.116404 z m 4.694839,-2.589432 c 0.479395,-0.112797 1.045176,-0.364868 1.257286,-0.560157 0.514067,-0.473292 0.938731,-1.425564 0.942789,-2.114112 0.005,-0.854282 -0.431538,-1.070886 -1.986408,-0.985551 -2.140443,0.117472 -3.179133,0.938926 -3.183178,2.517436 -0.002,0.796163 0.01755,0.836984 0.52288,1.089425 0.628802,0.314121 1.277043,0.328152 2.446631,0.05296 z m 40.317906,2.528679 c -1.87751,-0.409397 -2.609159,-1.272453 -2.589212,-3.054249 0.0263,-2.349776 1.491946,-4.72243 3.474675,-5.624975 2.375384,-1.081284 5.81229,-1.149047 6.930972,-0.136652 0.325779,0.294825 0.313968,0.306542 0.622301,-0.617251 0.326043,-0.976855 0.311223,-1.331109 -0.07007,-1.675031 -0.284145,-0.256295 -0.558579,-0.284749 -2.6625,-0.276053 -2.475796,0.01023 -3.63181,0.20628 -4.940304,0.837826 -0.617527,0.29805 -0.656908,0.299982 -0.937563,0.04599 -0.288303,-0.260911 -0.278365,-0.292775 0.62507,-2.00432 0.504915,-0.956557 0.99432,-1.817609 1.087563,-1.913448 0.270136,-0.2776558 8.3653,-0.01086 9.216945,0.303764 1.528525,0.564689 2.122368,1.432163 2.119065,3.09549 -0.0016,0.783852 -0.290688,1.97485 -1.474784,6.075 l -1.472847,5.1 -4.484422,0.02667 c -3.363467,0.02 -4.724507,-0.02568 -5.444886,-0.182763 z m 4.982093,-2.528679 c 0.991833,-0.23337 1.521,-0.651008 1.919864,-1.515227 0.366273,-0.793608 0.360073,-1.498432 -0.01649,-1.875 -0.240956,-0.240955 -0.499278,-0.299835 -1.3125,-0.299163 -2.391531,0.002 -3.733699,1.0253 -3.607932,2.750831 0.0396,0.543291 0.112847,0.65701 0.570432,0.8856 0.628801,0.314121 1.277043,0.328152 2.44663,0.05296 z m 7.271014,1.897273 c 0.134874,-0.474375 1.466083,-5.08125 2.958244,-10.2375 l 2.71302,-9.3750008 2.148216,-0.04173 c 1.692089,-0.03287 2.13425,-0.001 2.08244,0.15 -0.03618,0.10545 -1.37494,4.731102 -2.975026,10.2792268 l -2.909248,10.0875 -2.131436,0 -2.131434,0 0.245223,-0.8625 z m 8.981933,-4.196847 c -0.0545,-2.786109 -0.0992,-6.095028 -0.09934,-7.353153 l -2.4e-4,-2.2875 2.098005,0 2.098005,0 0.03949,5.058148 0.0395,5.058149 2.787244,-5.020649 2.787249,-5.020648 2.20025,-0.04151 c 1.21014,-0.02283 2.19971,0.01092 2.19904,0.075 -6.7e-4,0.06408 -1.87601,3.35651 -4.16742,7.31651 l -4.166195,7.2 -2.858247,0.04065 -2.858249,0.04066 -0.09909,-5.065655 z M 105.675,24.638534 c -0.165,-0.03249 -0.64132,-0.127833 -1.0585,-0.211867 -0.89306,-0.179897 -1.80923,-0.870549 -2.11013,-1.59072 -0.42561,-1.018628 -0.16749,-2.852748 0.61974,-4.403537 1.17591,-2.316504 3.70339,-3.543821 7.05095,-3.423869 1.30871,0.04689 1.59177,0.106395 2.19895,0.462228 l 0.69689,0.408407 0.23855,-0.700104 c 0.1312,-0.385057 0.23855,-0.927774 0.23855,-1.206037 0,-0.725811 -0.59389,-0.940625 -2.60053,-0.940625 -1.92397,0 -3.9365,0.337603 -5.08496,0.853002 -0.81868,0.367402 -0.88466,0.375258 -1.14822,0.136736 -0.27042,-0.244727 -0.24768,-0.313373 0.69048,-2.083901 0.53357,-1.006961 1.0147,-1.874664 1.06918,-1.92823 0.0545,-0.05357 1.98905,-0.04665 4.29905,0.01536 3.7776,0.10141 4.28396,0.145191 5.03485,0.435325 0.45917,0.177416 1.0078,0.508005 1.21917,0.734642 1.18111,1.266381 1.12761,1.896843 -0.7064,8.324568 l -1.48727,5.2125 -4.43017,-0.0174 c -2.4366,-0.0096 -4.56518,-0.04398 -4.73018,-0.07648 z m 4.92122,-2.877942 c 0.8333,-0.368605 1.33506,-1.148601 1.42329,-2.212513 0.0595,-0.717753 0.0309,-0.808476 -0.32937,-1.04454 -0.6282,-0.411614 -2.67494,-0.255053 -3.57705,0.273618 -0.98248,0.575772 -1.55224,1.857493 -1.21564,2.734665 0.27053,0.704989 2.35108,0.844921 3.69877,0.24877 z"
     style="fill:#4b4b4b;fill-opacity:1" />
</svg>
