<?xml version="1.0" encoding="UTF-8" standalone="no"?>
<svg
   xmlns:dc="http://purl.org/dc/elements/1.1/"
   xmlns:cc="http://creativecommons.org/ns#"
   xmlns:rdf="http://www.w3.org/1999/02/22-rdf-syntax-ns#"
   xmlns:svg="http://www.w3.org/2000/svg"
   xmlns="http://www.w3.org/2000/svg"
   viewBox="0 0 351.05621 167.80365"
   height="167.80365"
   width="351.05621"
   version="1.1"
   id="svg2">
  <metadata
     id="metadata8">
    <rdf:RDF>
      <cc:Work
         rdf:about="">
        <dc:format>image/svg+xml</dc:format>
        <dc:type
           rdf:resource="http://purl.org/dc/dcmitype/StillImage" />
        <dc:title></dc:title>
      </cc:Work>
    </rdf:RDF>
  </metadata>
  <defs
     id="defs6" />
  <path
     id="path4138"
     d="M 157.48673,167.1861 C 112.56498,163.23092 62.748646,141.80381 31.373751,112.94211 l -9.019729,-8.29723 -2.016493,4.74973 c -1.109072,2.61233 -3.469859,10.37471 -5.246196,17.24971 -1.776337,6.875 -3.563234,12.89695 -3.970883,13.3821 -0.407649,0.48516 -3.1761102,0.26406 -6.1521382,-0.49134 -5.32887496,-1.35261 -5.39856696,-1.4395 -4.59416096,-5.72735 C 4.8238208,110.08896 19.242569,79.650786 34.944007,60.830316 l 4.850476,-5.81401 -1.191371,-8.56099 c -0.655252,-4.70855 -1.315732,-12.70583 -1.467732,-17.77173 -0.311658,-10.38701 -0.0946,-10.67667 9.019597,-12.03603 5.324506,-0.79413 5.820957,-0.63723 6.545432,2.06873 0.431164,1.61042 0.791615,6.63116 0.801002,11.1572 0.0094,4.52604 0.381959,8.59406 0.827935,9.04003 0.445978,0.44598 3.033192,-1.19687 5.749364,-3.65076 7.478466,-6.75635 33.263946,-22.99344 36.514966,-22.99344 2.55272,0 -0.70438,3.25831 -9.22645,9.22988 -5.44568,3.81589 -14.84149,11.65038 -20.879579,17.40997 l -10.978335,10.47198 2.214613,10.50659 c 4.541976,21.54808 11.531491,42.309074 20.413881,60.635394 l 5.51507,11.37883 12.1203,5.77883 c 23.170474,11.04747 45.748624,17.81771 71.310114,21.38292 14.9846,2.08999 46.65694,2.50739 57.06019,0.75197 6.84005,-1.15416 10.48245,0.36922 5.45395,2.28105 -11.13718,4.23435 -50.37163,7.0034 -72.1107,5.08937 z M 53.072937,103.90348 c -1.770382,-4.680031 -4.689452,-13.852911 -6.486824,-20.384164 -4.545929,-16.51889 -4.182103,-15.63553 -5.781127,-14.0365 -0.759845,0.75984 -3.81798,5.49073 -6.795856,10.51309 l -5.414319,9.131563 5.274334,5.47119 c 6.625341,6.872631 21.168769,19.067901 21.885101,18.351561 0.295662,-0.29566 -0.910927,-4.36669 -2.681308,-9.04674 z M 338.07659,142.00801 C 334.31485,128.12158 324.85231,105.30786 318.40273,94.575329 300.40398,64.624176 272.36454,37.959426 243.83098,23.659606 c -5.67188,-2.8425 -10.3125,-5.72441 -10.3125,-6.40424 0,-1.78957 1.61401,-1.54879 8.91904,1.33058 51.98512,20.49062 91.65134,63.97102 106.51847,116.760954 3.3537,11.90826 3.34538,11.93152 -4.90585,13.70071 -3.8211,0.81931 -3.85564,0.77861 -5.97355,-7.0396 z M 148.47824,123.33732 c -2.91756,-3.68115 -5.92487,-7.67738 -6.6829,-8.8805 -2.4493,-3.88748 -3.25472,-2.3518 -2.95015,5.625 l 0.29829,7.8125 -8.125,0 -8.125,0 -0.16796,-22.8125 -0.16797,-22.812504 8.7282,0 8.72819,0 -0.87046,7.500003 c -0.47876,4.125 -0.39336,7.48261 0.18976,7.46135 0.58314,-0.0213 2.89114,-2.41188 5.12891,-5.3125 2.23778,-2.90062 5.19237,-6.603603 6.56577,-8.228863 l 2.49708,-2.955 5.30924,4.75368 c 5.84559,5.233913 6.77798,6.663293 5.14909,7.893733 -0.59941,0.4528 -3.31699,3.20394 -6.03905,6.11364 l -4.94919,5.290371 6.75095,6.83586 c 3.71303,3.75974 6.4922,6.99042 6.17594,7.1793 -0.31626,0.18889 -3.17693,2.79278 -6.35704,5.78643 l -5.78202,5.443 -5.30468,-6.693 z m 74.41524,2.72311 c -10.19075,-4.89966 -13.13209,-9.24996 -13.10444,-19.38175 0.045,-16.470611 13.21444,-27.261184 30.6175,-25.086814 11.28885,1.41045 18.23805,7.825843 20.04183,18.502334 3.28742,19.45809 -19.01643,34.87944 -37.55489,25.96623 z m 17.29142,-12.31064 c 2.52856,-2.79402 3.88901,-9.0973 2.85375,-13.22207 -1.73102,-6.896961 -8.56115,-9.217421 -13.27017,-4.508401 -3.24464,3.24464 -3.51399,14.307711 -0.43126,17.714071 2.65051,2.92879 8.20441,2.93719 10.84768,0.0164 z m 38.33358,13.30084 c -9.0406,-2.56901 -16.28125,-10.67295 -16.22255,-18.15674 0.0415,-5.28465 4.10474,-13.170001 8.85717,-17.188581 4.35659,-3.68385 14.25233,-8.672933 19.96083,-10.063543 3.0539,-0.74395 3.30209,-0.41976 4.79885,6.268503 0.86812,3.87916 1.38766,7.18919 1.15455,7.35562 -0.23311,0.16642 -2.88323,1.00971 -5.88911,1.87396 -15.07544,4.334471 -14.88724,16.681271 0.26178,17.174281 l 6.45348,0.21001 0.37488,6.99759 0.37488,6.99759 -7.87488,-0.11275 c -4.33118,-0.062 -9.84363,-0.67217 -12.24988,-1.35595 z m -195.000004,-22.28131 0,-22.500004 9.77312,0 c 18.251094,0 27.726884,5.084763 27.726884,14.878413 0,8.240901 -6.87499,15.203981 -19.0625,19.306741 -1.59981,0.53855 -2.187504,2.09021 -2.187504,5.77562 l 0,5.03923 -8.125,0 -8.125,0 0,-22.5 z m 19.750004,-1.5 c 2.32406,-2.32406 1.77202,-7.016461 -1,-8.500001 -2.329184,-1.24654 -2.500004,-0.95061 -2.500004,4.33103 0,5.799691 0.853114,6.815861 3.500004,4.168971 z m 76.5,8.43211 0,-15.682111 -6.25,0 -6.25,0 0,-6.875 0,-6.875003 21.25,0 21.25,0 0,6.875003 0,6.875 -6.9395,0 -6.93951,0 0.21535,15.312501 0.21535,15.3125 -8.27585,0.36961 -8.27584,0.36961 0,-15.68211 z M 127.27504,73.632936 c -4.2727,-1.1622 -4.55692,-4.42655 -0.77657,-8.91923 3.8194,-4.53912 5.1,-10.46965 3.93633,-18.22949 -1.23562,-8.2398 -4.90485,-11.18477 -16.05298,-12.88434 -21.346584,-3.25435 -25.867914,-5.00821 -24.189094,-9.38316 0.38717,-1.00895 3.00876,-3.01027 5.82575,-4.4474 2.81699,-1.43712 5.427814,-3.41038 5.801824,-4.38503 0.69168,-1.80249 12.25853,-6.6661504 17.94639,-7.5461404 1.71974,-0.26607 7.88168,-1.35404 13.69319,-2.41771 8.48239,-1.55251 11.93392,-1.65583 17.5,-0.52382 9.26435,1.88415 9.24264,1.88539 20.53948,-1.17348 5.42072,-1.46778 13.31443,-3.02302998 17.54158,-3.45611998 26.47905,-2.71286002 46.10669,15.65507038 39.0039,36.50060038 -2.81474,8.2608 -2.62497,9.52598 2.42005,16.13533 6.03611,7.90774 5.66548,12.54529 -1.32141,16.53402 -5.76076,3.28874 -12.2666,3.33195 -12.88126,0.0856 -0.27022,-1.42713 1.28102,-2.98028 4.73816,-4.74398 2.82695,-1.4422 5.4513,-3.43366 5.83189,-4.42547 0.3806,-0.9918 -1.05307,-4.43783 -3.1859,-7.65783 -4.41797,-6.6699 -4.59934,-8.06681 -2.00289,-15.42593 2.53776,-7.19279 2.35735,-12.9041 -0.59013,-18.68164 -5.04876,-9.8963804 -13.28243,-13.2392704 -30.03487,-12.1942104 -8.54381,0.53299 -21.21253,3.40977 -23.565,5.3510904 -0.242,0.1997 0.46112,1.64963 1.5625,3.22206 2.23556,3.19172 2.66514,7.3027 0.76309,7.3027 -0.68168,0 -1.9473,-1.1423 -2.8125,-2.53845 -2.63078,-4.2452 -10.04542,-8.60507 -16.81884,-9.8896204 -8.60958,-1.63278 -20.90601,0.3791304 -26.69644,4.3679804 -4.69328,3.23307 -8.02761,3.88149 -9.30781,1.81009 -1.23802,-2.00316 -2.78111,-1.45003 -3.48719,1.25 -0.35957,1.375 -1.57258,2.5 -2.69558,2.5 -1.12301,0 -4.41004,1.22776 -7.30453,2.72835 l -5.262704,2.72835 3.75,0.91155 c 2.062504,0.50135 8.442984,1.51007 14.178854,2.24161 11.66601,1.48784 17.94112,4.57078 20.88297,10.25971 2.55852,4.9476 2.54263,19.20774 -0.0281,25.28862 l -2.02218,4.78319 6.53553,-0.34688 c 4.22917,-0.22447 6.71121,0.18017 7.03336,1.14662 0.92366,2.77098 -12.43952,5.75707 -18.44881,4.1225 z"
     style="fill:#4b4b4b;fill-opacity:1" />
</svg>
