<?xml version="1.0" encoding="UTF-8" standalone="no"?>
<svg
   xmlns:dc="http://purl.org/dc/elements/1.1/"
   xmlns:cc="http://creativecommons.org/ns#"
   xmlns:rdf="http://www.w3.org/1999/02/22-rdf-syntax-ns#"
   xmlns:svg="http://www.w3.org/2000/svg"
   xmlns="http://www.w3.org/2000/svg"
   viewBox="0 0 120.5363 86.213951"
   height="86.213951"
   width="120.5363"
   version="1.1"
   id="svg2">
  <metadata
     id="metadata8">
    <rdf:RDF>
      <cc:Work
         rdf:about="">
        <dc:format>image/svg+xml</dc:format>
        <dc:type
           rdf:resource="http://purl.org/dc/dcmitype/StillImage" />
        <dc:title></dc:title>
      </cc:Work>
    </rdf:RDF>
  </metadata>
  <defs
     id="defs6" />
  <path
     id="path4144"
     d="m 39.869716,85.238195 c -1.343466,-0.505106 -2.916452,-1.958224 -3.495527,-3.229153 -1.409347,-3.093182 -2.855355,-2.913873 -4.046038,0.501722 -0.539243,1.546875 -1.571985,2.8125 -2.294981,2.8125 -1.711151,0 -1.671493,-0.521814 0.59813,-7.869998 1.494704,-4.839289 2.3091,-6.192502 3.726796,-6.192502 1.540744,0 1.681744,0.348193 0.935654,2.310561 -1.172427,3.083715 0.348857,3.86445 2.155962,1.106458 3.028139,-4.621524 12.518015,-5.63109 14.695026,-1.563308 1.754475,3.278268 1.107518,7.463809 -1.531754,9.909804 -1.364355,1.264442 -2.946386,2.304746 -3.515625,2.311787 -0.569237,0.007 -1.878728,0.194534 -2.909978,0.416653 -1.03125,0.222118 -2.974199,-0.0094 -4.317665,-0.514524 z m 8.77079,-4.787756 c 2.029239,-2.346831 2.074731,-3.934141 0.16741,-5.84146 -2.117847,-2.117848 -4.830278,-1.817449 -7.475649,0.827921 -2.85075,2.850751 -2.911824,4.664801 -0.220514,6.549868 2.432356,1.703689 5.218869,1.135069 7.528753,-1.536329 z m 9.84375,3.095772 c -1.543095,-1.503695 -2.578125,-3.518495 -2.578125,-5.018602 0,-2.867784 3.073504,-6.13846 6.543845,-6.963645 1.299322,-0.308956 2.870795,-0.961369 3.492161,-1.449806 1.856721,-1.459512 7.776494,3.645435 7.776494,6.7061 0,3.196474 -2.835347,6.278136 -6.521165,7.087677 -1.569609,0.344744 -2.853835,1.015163 -2.853835,1.489818 0,1.676204 -3.313775,0.629063 -5.859375,-1.851542 z m 4.921875,-7.341365 c 0,-1.907041 -0.247869,-2.064896 -1.875,-1.194082 -1.829477,0.979106 -2.559109,4.628392 -1.197608,5.989892 0.994787,0.994788 3.072608,-2.248332 3.072608,-4.79581 z m 5.996003,3.348475 c 1.018358,-1.453909 1.155366,-2.504745 0.488925,-3.75 -1.424606,-2.661901 -2.417518,-2.082024 -3.458707,2.019943 -0.756336,2.979727 -0.694395,3.75 0.301553,3.75 0.689373,0 1.890076,-0.908975 2.668229,-2.019943 z m 11.347747,6.029059 c -1.03125,-0.253485 -2.402344,-0.889016 -3.046875,-1.412291 -1.618091,-1.313678 -1.471534,-7.376803 0.237282,-9.81648 1.715189,-2.448775 7.253834,-4.412313 10.293824,-3.649324 7.416647,1.861459 6.695822,11.722792 -1.072788,14.676411 -2.432853,0.924969 -3.351363,0.953862 -6.411443,0.201684 z m 8.203125,-5.090452 c 0.902344,-1.066387 1.640625,-2.494825 1.640625,-3.174309 0,-1.777181 -2.66124,-4.181855 -4.628034,-4.181855 -2.676483,0 -6.621966,3.643549 -6.621966,6.115209 0,4.407825 6.247025,5.214567 9.609375,1.240955 z M 0.07041649,83.720886 c 0.3381895,-0.881307 1.33254421,-4.061741 2.20967701,-7.06763 1.6966162,-5.814217 2.9841009,-6.782067 8.2060865,-6.168819 4.06951,0.477907 3.915224,2.484434 -0.217271,2.825646 -2.505326,0.206859 -3.6584091,0.782399 -3.876848,1.935056 -0.2253233,1.188984 0.3015955,1.640625 1.9140781,1.640625 4.3917209,0 5.7454979,3.416994 2.5999919,6.5625 -2.556849,2.556848 -11.80150828,2.78944 -10.83571451,0.272622 z M 8.5623805,80.635764 c 0,-2.033181 -3.6575238,-1.753104 -4.0549393,0.310508 -0.256387,1.331311 0.161707,1.647044 1.8621609,1.40625 1.2060281,-0.170779 2.1927784,-0.943321 2.1927784,-1.716758 z m 6.0937505,3.711653 c 0,-2.182222 3.973593,-13.086653 4.768798,-13.086653 1.770097,0 2.20533,0.522375 1.964764,2.358146 -0.17768,1.355877 0.557391,2.193244 2.603172,2.96544 3.345064,1.262621 3.888052,4.697082 1.136321,7.187363 -1.912994,1.731237 -10.473055,2.201783 -10.473055,0.575704 z m 7.96875,-3.633528 c 0,-2.178928 -2.13598,-2.218081 -3.290778,-0.06032 -0.966614,1.806135 -0.855814,1.975834 1.108403,1.697592 1.200306,-0.170032 2.182375,-0.906804 2.182375,-1.637273 z m 72.65625,3.349891 c 0,-1.682577 3.605691,-12.096205 4.49683,-12.987348 1.089879,-1.089881 7.793599,0.299208 8.342099,1.72858 0.26856,0.699845 0.2249,2.321865 -0.097,3.604491 -0.45236,1.802351 -1.52216,2.567948 -4.70993,3.370638 -3.13546,0.789516 -4.260201,1.578738 -4.689923,3.290859 -0.59174,2.357679 -3.342056,3.17468 -3.342056,0.99278 z m 9.374999,-8.584266 c 0,-0.78125 -0.83333,-1.40625 -1.875,-1.40625 -1.04167,0 -1.875,0.625 -1.875,1.40625 0,0.78125 0.83333,1.40625 1.875,1.40625 1.04167,0 1.875,-0.625 1.875,-1.40625 z m 5.63514,9.209366 c 0.006,-0.424526 0.64398,-2.86135 1.41865,-5.415164 1.26072,-4.156142 1.25759,-4.727749 -0.0299,-5.448244 -2.48725,-1.391958 -0.52952,-2.564708 4.28145,-2.564708 4.90499,0 6.10437,1.361676 2.42991,2.758706 -1.61811,0.615206 -2.57102,2.163251 -3.5925,5.836171 -0.88367,3.177383 -1.96004,5.109323 -2.95399,5.301989 -0.86006,0.166714 -1.55918,-0.04422 -1.55361,-0.46875 z M 30.061597,63.707361 c 4.513389,-4.995782 9.668288,-13.120166 11.44507,-18.038015 0.782888,-2.166908 1.436788,-6.925465 1.453114,-10.574572 C 43.018037,22.07334 34.998239,11.366365 18.874881,2.9397992 L 13.249881,0 l 4.6875,0.55615075 C 25.587759,1.4638337 44.501802,6.4547533 51.790858,9.4891959 65.44224,15.17228 72.781131,22.714208 72.781131,31.060183 c 0,11.168722 -18.247351,27.790425 -37.95014,34.569178 -7.971888,2.742732 -8.713644,2.443815 -4.769394,-1.922 z m 36.8936,-8.793431 c 12.51982,-11.810564 16.06688,-26.14315 8.580208,-34.67 l -2.778244,-3.164244 3.766393,0.846252 c 2.071515,0.465439 6.506969,1.94338 9.856563,3.284315 18.396803,7.364745 12.79807,20.554507 -14.69555,34.620483 -5.501547,2.814641 -10.255548,5.117528 -10.564447,5.117528 -0.3089,0 2.316885,-2.71545 5.835077,-6.034334 z m 29.394515,-8.596888 c 6.180878,-6.61144 7.689538,-11.528559 5.074988,-16.540653 -1.643119,-3.149849 -0.44249,-3.382179 3.87472,-0.749787 3.56634,2.17455 5.29837,5.072067 4.51232,7.548679 -0.74831,2.357708 -7.55982,8.30667 -12.764378,11.148011 l -4.109981,2.243777 3.412331,-3.650027 z"
     style="fill:#4b4b4b;fill-opacity:1" />
</svg>
