<?xml version="1.0" encoding="UTF-8" standalone="no"?>
<svg
   xmlns:dc="http://purl.org/dc/elements/1.1/"
   xmlns:cc="http://creativecommons.org/ns#"
   xmlns:rdf="http://www.w3.org/1999/02/22-rdf-syntax-ns#"
   xmlns:svg="http://www.w3.org/2000/svg"
   xmlns="http://www.w3.org/2000/svg"
   id="svg2"
   version="1.1"
   width="2842.5288"
   height="694.53503"
   viewBox="0 0 2842.5288 694.53503">
  <metadata
     id="metadata8">
    <rdf:RDF>
      <cc:Work
         rdf:about="">
        <dc:format>image/svg+xml</dc:format>
        <dc:type
           rdf:resource="http://purl.org/dc/dcmitype/StillImage" />
        <dc:title></dc:title>
      </cc:Work>
    </rdf:RDF>
  </metadata>
  <defs
     id="defs6" />
  <g
     style="fill:#4b4b4b;fill-opacity:1"
     id="g4138"
     transform="translate(-72.1875,-85.296408)">
    <path
       style="fill:#4b4b4b;fill-opacity:1"
       d="m 468.06901,748.12645 c 12.28437,0.002 14.51573,1.79721 27.09556,21.79542 l 5.74988,9.14063 5.48027,0 c 3.01416,0 5.48028,-0.18915 5.48028,-0.42034 0,-0.54055 -15.46408,-23.96227 -17.06845,-25.85168 -0.66704,-0.78555 -2.35268,-2.30688 -3.74587,-3.38073 l -2.53306,-1.95247 3.93931,-1.1469 c 9.45459,-2.75265 14.74019,-9.36981 14.69998,-18.40324 -0.0413,-9.28631 -5.4749,-16.29476 -14.06069,-18.13608 -2.61856,-0.56158 -13.17774,-1.02106 -23.46486,-1.02106 l -18.70386,0 0,35.10488 0,35.10489 4.45312,0.28574 4.45313,0.28574 0.25651,-15.70313 0.25652,-15.70312 7.71223,0.002 z m -7.75651,-19.77132 0,-11.33237 14.76562,0.35503 c 16.50084,0.39676 18.82899,1.05864 21.19798,6.02645 1.91926,4.02474 1.9345,6.23153 0.068,9.84098 -2.60994,5.04707 -7.37993,6.39812 -22.6722,6.42169 l -13.35937,0.0206 0,-11.33237 z m 241.12223,48.8728 c 2.21871,-1.1416 5.58189,-3.56841 7.47374,-5.39292 3.69888,-3.56724 8.98158,-14.06072 7.67027,-15.23611 -0.43861,-0.39316 -2.55383,-1.14084 -4.70046,-1.66152 l -3.90296,-0.94669 -1.61311,4.22385 c -7.14384,18.70587 -34.25714,17.11225 -39.90961,-2.34574 -1.83429,-6.31435 -1.63788,-19.30784 0.38015,-25.14922 6.00268,-17.3753 30.08516,-19.59985 37.73196,-3.4854 1.47058,3.09901 1.6701,3.19384 5.43409,2.5825 2.14909,-0.34906 4.26342,-0.9683 4.69849,-1.37609 1.27499,-1.19502 -2.5958,-8.7766 -6.44729,-12.62809 -5.67872,-5.67872 -10.71941,-7.52097 -20.59375,-7.52652 -7.34602,-0.004 -9.20253,0.34851 -14.35146,2.72592 -7.1482,3.30053 -12.46589,8.98098 -15.16782,16.20254 -3.98254,10.64433 -3.34494,26.55815 1.44262,36.00594 6.21681,12.2683 14.86515,17.05755 29.66764,16.42926 6.07677,-0.25793 9.18096,-0.87475 12.1875,-2.42171 z m 209.85782,-0.65318 c 13.24432,-6.22472 19.56913,-18.34436 18.46071,-35.37445 -0.70718,-10.86522 -3.50477,-17.60694 -9.98385,-24.05927 -4.3509,-4.33294 -6.39656,-5.587 -12.07707,-7.40362 -18.02292,-5.7637 -36.03519,2.07967 -42.51055,18.51106 -3.06144,7.76846 -3.08842,23.68866 -0.053,31.26443 5.35374,13.36178 17.29067,20.76086 32.57002,20.18843 6.06401,-0.22718 8.72875,-0.84007 13.59374,-3.12658 z m -22.97898,-6.18756 c -5.7971,-1.53052 -13.10132,-9.3873 -15.09146,-16.23311 -1.75128,-6.02423 -1.49577,-15.78001 0.59618,-22.76231 1.38355,-4.61791 5.97766,-9.645 11.46886,-12.54978 5.48328,-2.90061 16.38319,-2.9397 21.7441,-0.078 8.04634,4.29521 12.4884,12.0083 13.30956,23.11039 0.74066,10.01387 -1.43674,16.53133 -7.57294,22.66752 -6.6033,6.60331 -14.46526,8.48254 -24.4543,5.84529 z m 614.49893,-26.01219 0,-35.625 -4.6875,0 -4.6875,0 0,35.10488 0,35.10489 4.4531,0.35113 c 2.4492,0.19312 4.5586,0.42718 4.6875,0.52012 0.1289,0.0929 0.2344,-15.86227 0.2344,-35.45602 z m 191.7312,-27.1875 11.7063,0 0,-4.21875 0,-4.21875 -28.125,0 -28.125,0 0,4.18989 0,4.1899 11.4844,0.26323 11.4844,0.26323 0.2471,30.65227 0.2471,30.65229 4.4404,0.28521 4.4404,0.28523 0.2468,-31.17188 0.2468,-31.17187 z m 366.1239,59.38725 c 9.5917,-4.50807 14.0112,-9.96265 17.3346,-21.395 2.0879,-7.18193 1.4764,-19.39634 -1.3426,-26.81664 -6.3103,-16.61043 -25.0938,-24.64589 -43.2744,-18.51248 -8.0566,2.71795 -15.5704,10.01784 -18.6562,18.12503 -3.2129,8.44137 -3.6648,20.70953 -1.0471,28.42626 2.577,7.5966 5.5647,12.29114 10.0703,15.8235 7.678,6.01956 13.3828,7.84826 23.3216,7.47591 6.064,-0.22718 8.7288,-0.84007 13.5938,-3.12658 z m -23.9488,-6.55983 c -6.1867,-2.58629 -12.2311,-9.35761 -14.104,-15.8 -2.209,-7.59871 -1.3755,-18.6642 1.9121,-25.38379 3.9751,-8.12476 13.0654,-13.10635 22.5299,-12.34663 9.6743,0.77656 16.2296,5.39402 20.2965,14.29675 2.5109,5.49612 2.9892,17.90301 0.9509,24.6625 -1.4879,4.9341 -6.7104,10.89826 -11.834,13.51461 -5.1597,2.63479 -14.7491,3.14775 -19.7514,1.05656 z m 817.5,7.02535 c 3.0937,-1.26383 7.4179,-3.44052 9.6093,-4.83708 l 3.9844,-2.53921 0,-13.34761 0,-13.34762 -15.0013,0.27914 -15.0013,0.27913 0,4.14227 0,4.14228 10.0781,0.26609 10.0781,0.26609 0.2779,6.35703 0.2779,6.35703 -6.1878,2.89561 c -15.2095,7.11738 -32.3779,2.42519 -38.2481,-10.45342 -2.9002,-6.36272 -2.8468,-20.3178 0.1023,-26.71875 4.2696,-9.26728 10.4881,-13.45409 21.1844,-14.26304 8.8471,-0.6691 14.9578,1.77729 19.2022,7.68756 1.6074,2.23822 2.9225,4.78801 2.9225,5.66621 0,1.20881 0.5124,1.45079 2.1094,0.99604 1.1601,-0.33036 3.2805,-0.85637 4.7119,-1.16892 2.7941,-0.61007 2.8063,-1.08072 0.1941,-7.47333 -1.4683,-3.59334 -6.5811,-8.97813 -10.327,-10.87666 -4.9348,-2.50098 -12.573,-3.78059 -20.0006,-3.35061 -20.3529,1.17822 -33.2624,16.8823 -31.7716,38.64953 1.1473,16.75197 9.7526,27.80113 25.0244,32.13119 6.7115,1.90293 19.9708,1.04189 26.7781,-1.73895 z M 89.061473,777.89062 c -5.64e-4,-0.64453 1.581467,-5.49781 3.515625,-10.78508 l 3.516652,-9.61321 14.99329,0.23821 14.99329,0.23821 3.90617,10.3125 3.90618,10.3125 5.14581,0.27832 5.1458,0.27831 -14.10194,-35.20019 -14.10194,-35.20019 -4.90274,0 -4.90274,0 -3.03605,7.73437 c -1.66982,4.25391 -4.032539,10.05469 -5.250483,12.89063 -1.217935,2.83594 -4.953274,12.11719 -8.300742,20.625 -3.34747,8.50781 -7.145347,18 -8.43973,21.09375 -3.286509,7.85521 -3.247207,7.96875 2.758325,7.96875 3.500547,0 5.155921,-0.37629 5.155223,-1.17188 z m 13.587647,-37.5 c 1.75622,-4.76953 4.4247,-11.77358 5.92993,-15.56456 l 2.73678,-6.89269 2.8745,7.83019 c 1.58097,4.30661 4.16329,11.31066 5.73849,15.56456 l 2.86397,7.73438 -11.66841,0 -11.668417,0 z m 195.47588,3.51563 0,-35.15625 -4.6875,0 -4.6875,0 0,35.15625 0,35.15625 4.6875,0 4.6875,0 z m 789.595,8.28893 0.2488,-26.86732 7.5129,11.1642 c 4.132,6.14031 12.2812,18.2306 18.1092,26.86731 l 10.5963,15.70313 5.0939,0 5.0939,0 0,-35.15625 0,-35.15625 -4.6732,0 -4.673,0 -0.2488,26.80781 -0.2487,26.80781 -5.987,-8.76093 c -3.2929,-4.81852 -11.4378,-16.88203 -18.0998,-26.80782 l -12.1127,-18.04687 -5.1034,0 -5.1034,0 0,35.15625 0,35.15625 4.6732,0 4.673,0 z m 239.581,24.13468 c 9.9256,-4.43729 15.9112,-14.70291 16.8328,-28.86872 0.8813,-13.54736 -2.4864,-24.38645 -9.7559,-31.39974 -6.4005,-6.17493 -8.7882,-6.74091 -30.081,-7.1306 l -18.9844,-0.34746 0,35.32435 0,35.32437 18.5156,-0.34304 c 17.0286,-0.31547 18.9138,-0.52101 23.4729,-2.55916 z m -32.3937,-32.18924 0.249,-26.48437 11.7187,0 c 13.7464,0 15.6971,0.42932 20.2955,4.46667 4.6764,4.106 6.9832,9.74652 7.5867,18.55112 0.7971,11.6297 -2.6549,21.9522 -8.7344,26.11792 -4.2225,2.89333 -8.9859,3.74251 -21.2718,3.79221 l -10.0927,0.0408 0.2489,-26.48437 z m 566.9677,-0.23437 0,-35.15625 -4.6875,0 -4.6875,0 0,35.15625 0,35.15625 4.6875,0 4.6875,0 z m 375.22,8.20312 0.2488,-26.95312 3.8008,5.625 c 2.0904,3.09375 10.2256,15.22266 18.0781,26.95312 l 14.2773,21.32813 5.125,0 5.125,0 0,-35.15625 0,-35.15625 -4.6732,0 -4.673,0 -0.2488,26.87267 -0.2487,26.87266 -17.9181,-26.63829 -17.9181,-26.63829 -5.285,-0.28116 -5.2851,-0.28116 0,35.20304 0,35.20303 4.6732,0 4.673,0 z m 207.905,-8.20312 0,-35.15625 -4.6875,0 -4.6875,0 0,35.15625 0,35.15625 4.6875,0 4.6875,0 z m 162.4075,8.2211 0.2488,-26.93517 11.2709,16.85704 c 6.1991,9.27136 14.3611,21.39219 18.1379,26.93515 l 6.8667,10.07813 5.0654,0 5.0653,0 0,-35.15625 0,-35.15625 -4.6732,0 -4.673,0 -0.2488,26.95312 -0.2487,26.95313 -13.1936,-19.6875 c -7.2564,-10.82813 -15.3992,-22.95703 -18.095,-26.95313 l -4.9015,-7.26562 -5.108,0 -5.1082,0 0,35.15625 0,35.15625 4.6732,0 4.673,0 z M 75.693737,662.10937 c 1.521865,-1.41796 4.836012,-4.41773 7.36477,-6.66615 2.528759,-2.24842 8.409429,-7.7328 13.068159,-12.1875 4.658714,-4.4547 13.261064,-12.52916 19.116294,-17.94322 5.85524,-5.41406 12.6337,-11.74219 15.06325,-14.0625 2.42954,-2.32031 9.21111,-8.64844 15.07012,-14.0625 5.85903,-5.41406 14.67513,-13.69185 19.59135,-18.39507 4.91622,-4.70323 11.65341,-11.03136 14.97155,-14.0625 3.31814,-3.03116 9.64627,-8.92403 14.0625,-13.09529 4.41624,-4.17127 10.71376,-10.07752 13.9945,-13.125 5.73921,-5.33119 8.92677,-8.31325 21.27285,-19.90145 3.12144,-2.92982 11.33303,-10.60038 18.24798,-17.04569 6.91495,-6.44531 13.92142,-12.98437 15.56993,-14.53125 1.64851,-1.54687 8.40337,-7.875 15.01082,-14.0625 14.16638,-13.26603 23.45654,-22.00996 28.88588,-27.1875 2.1628,-2.0625 8.30139,-7.75781 13.64131,-12.65625 5.33992,-4.89844 11.46581,-10.59375 13.61309,-12.65625 2.14729,-2.0625 8.67764,-8.17969 14.51191,-13.59375 5.83427,-5.41406 12.3635,-11.53125 14.50941,-13.59375 2.14591,-2.0625 9.12805,-8.60156 15.51587,-14.53125 6.38781,-5.92969 15.21798,-14.17973 19.62259,-18.33345 4.40461,-4.15371 10.95852,-10.27089 14.56426,-13.59375 3.60573,-3.32285 9.93385,-9.25185 14.0625,-13.17555 4.12864,-3.92371 10.21449,-9.61902 13.5241,-12.65625 5.62938,-5.16609 18.20026,-16.94482 24.90411,-23.33475 1.62286,-1.54687 7.96633,-7.45312 14.0966,-13.125 6.13026,-5.67187 12.9052,-12 15.05541,-14.0625 3.82264,-3.66671 25.3871,-23.94626 30.40544,-28.59375 1.39193,-1.28906 7.54888,-7.05066 13.68212,-12.80353 6.13324,-5.75289 12.41696,-11.6136 13.96384,-13.02382 1.54687,-1.41021 6.43363,-5.98456 10.85945,-10.16522 4.42582,-4.18065 12.39745,-11.60899 17.71472,-16.50743 5.31728,-4.89844 11.42136,-10.59375 13.56464,-12.65625 2.14327,-2.0625 9.57008,-9.00551 16.50403,-15.42892 6.93393,-6.4234 16.40403,-15.32369 21.04466,-19.77841 4.64062,-4.45473 10.951,-10.37891 14.02306,-13.16484 3.07206,-2.78593 7.34361,-6.75283 9.49234,-8.81533 4.3048,-4.13205 11.27907,-10.64851 25.0586,-23.413669 C 685.91299,91.490059 690,87.173207 690,86.524575 690,85.579568 628.62246,85.340393 381.09375,85.320828 l -308.90625,-0.02442 0,289.695552 c 0,159.33255 0.166322,289.69554 0.369605,289.69554 0.203282,0 1.614767,-1.16016 3.136632,-2.57813 z M 906.41491,561.11591 c 11.70584,-1.75819 19.04098,-3.47819 29.89366,-7.00972 10.02315,-3.26159 28.89446,-11.0366 30.53715,-12.58136 0.61762,-0.58084 3.65428,-2.26213 6.74803,-3.73619 6.92241,-3.29824 21.00309,-11.87499 34.68745,-21.12857 9.2642,-6.26459 14.677,-10.56631 24.7783,-19.69232 1.7687,-1.59789 3.5616,-2.90525 3.9843,-2.90525 0.4228,0 0.7687,-0.48047 0.7687,-1.0677 0,-0.58723 3.1088,-4.3217 6.9085,-8.29882 8.6416,-9.04505 17.8219,-22.83777 24.4187,-36.68728 4.5865,-9.62925 6.1222,-13.80015 11.3132,-30.72819 8.3585,-27.25704 6.8577,-89.19714 -2.7816,-114.80637 -2.523,-6.70308 -9.8609,-20.42262 -12.1442,-22.70598 -0.8055,-0.80553 -1.4717,-1.75086 -1.4804,-2.10075 -0.01,-0.34989 -1.8018,-2.55834 -3.9844,-4.90768 -2.1827,-2.34935 -5.6561,-6.24598 -7.7186,-8.65919 -2.0625,-2.41321 -4.1127,-4.39337 -4.556,-4.40035 -0.4434,-0.007 -3.1855,-2.19396 -6.0938,-4.85996 -16.3929,-15.02754 -45.38003,-29.62796 -71.3814,-35.95388 -19.54791,-4.75585 -16.80056,-4.6676 -145.3125,-4.6676 l -120.46875,0 -3.96505,2.11857 c -4.91467,2.62596 -6.16943,5.0116 -9.0688,17.24233 -2.94135,12.4078 -11.45418,47.3623 -13.32204,54.7016 -0.78737,3.09375 -2.54831,10.26562 -3.91322,15.9375 -1.36491,5.67187 -2.81457,10.454 -3.22148,10.62695 -0.40692,0.17295 -0.51784,0.67366 -0.2465,1.11269 0.42754,0.69177 -2.15098,11.73267 -9.95717,42.63536 -1.042,4.125 -2.08111,8.34375 -2.30914,9.375 -0.22802,1.03125 -1.89915,7.78125 -3.71359,15 -1.81446,7.21875 -3.4831,13.90488 -3.70811,14.85807 -2.06976,8.76811 -7.22821,29.88402 -7.93597,32.48568 -0.49097,1.80469 -1.98717,7.92187 -3.3249,13.59375 -1.33773,5.67187 -3.00813,12.42187 -3.71201,15 -0.70389,2.57812 -2.3717,9.53906 -3.70627,15.46875 -1.33456,5.92969 -2.82419,12.04687 -3.31029,13.59375 -0.4861,1.54687 -2.19824,8.50781 -3.80473,15.46875 -1.60651,6.96094 -3.51811,14.76562 -4.248,17.34375 -2.7618,9.75526 -7.93898,32.14462 -7.93898,34.33308 0,3.03929 2.33518,6.22469 4.93012,6.72513 1.15562,0.22286 64.43594,0.46265 140.62292,0.53287 117.82628,0.10859 139.89855,-0.0791 147.73687,-1.25642 z M 787.93676,476.8015 c -1.41914,-2.16588 -1.42556,-2.73094 -0.0778,-6.84673 0.80795,-2.46731 3.83344,-13.55633 6.72331,-24.64227 6.98954,-26.81285 8.11659,-31.09337 12.09524,-45.9375 1.86573,-6.96094 5.32562,-20.03906 7.68864,-29.0625 2.36303,-9.02344 5.68589,-21.67969 7.38412,-28.125 1.69824,-6.44531 4.40915,-16.77938 6.02424,-22.9646 3.24866,-12.44118 4.58028,-15.10767 8.23941,-16.49886 1.53436,-0.58337 14.1031,-0.83525 32.99784,-0.66129 l 30.5195,0.281 5.6027,2.75083 c 5.06673,2.48769 12.95028,9.35351 17.84624,15.54235 12.49687,15.79701 16.90669,40.01084 11.26643,61.86307 -1.26433,4.89844 -3.19052,11.22656 -4.28043,14.0625 -1.08991,2.83594 -2.3242,6.21094 -2.74288,7.5 -1.47724,4.54828 -10.12028,22.11313 -14.06997,28.59375 -13.39585,21.97983 -29.31777,37.51152 -44.89163,43.79141 -5.14429,2.07434 -6.32502,2.14244 -42.03555,2.42442 l -36.7426,0.29014 z m 694.14114,80.41973 c 4.6796,-3.27773 5.9949,-11.57926 3.4363,-21.68851 -0.7484,-2.95705 -1.992,-8.96241 -2.7635,-13.34522 -1.8223,-10.35115 -7.8314,-42.37948 -8.9705,-47.8125 -0.7584,-3.61673 -4.9803,-25.68596 -6.2772,-32.8125 -0.2346,-1.28906 -1.8941,-9.9375 -3.6877,-19.21875 -7.9003,-40.88142 -12.106,-62.92322 -14.3103,-75 -0.7177,-3.93236 -4.9332,-26.12032 -11.9337,-62.8125 -0.787,-4.125 -2.2227,-11.29688 -3.1904,-15.9375 -0.9677,-4.64063 -3.0493,-15.60937 -4.6258,-24.375 -3.618,-20.11622 -4.2599,-22.33949 -7.5225,-26.05546 -4.753,-5.41337 -3.672,-5.35079 -92.4324,-5.35079 -88.452,0 -85.0397,-0.20279 -89.9433,5.34528 -1.2753,1.4429 -4.2296,6.20941 -6.565,10.59222 -4.8316,9.06734 -7.3415,13.58679 -11.0296,19.8602 -1.4197,2.41504 -3.977,7.05557 -5.6829,10.31227 -1.7059,3.25671 -4.2356,7.70587 -5.6217,9.88703 -1.3861,2.18116 -2.5202,4.2457 -2.5202,4.58788 0,0.58712 -10.3163,18.99856 -16.0958,28.72608 -1.4598,2.45697 -2.6542,4.65966 -2.6542,4.89487 0,0.23522 -1.8984,3.63874 -4.2187,7.56339 -2.3204,3.92463 -4.2188,7.28918 -4.2188,7.47676 0,0.18759 -1.4128,2.78945 -3.1395,5.78191 -1.7267,2.99248 -4.8377,8.60492 -6.9133,12.47211 -2.0756,3.86719 -6.6268,12.09375 -10.1139,18.28125 -11.0259,19.56499 -17.6127,31.38919 -25.3287,45.46875 -1.8367,3.35156 -4.0528,7.35937 -4.9246,8.90625 -0.8717,1.54687 -3.6747,6.60937 -6.2287,11.25 -2.554,4.64062 -6.6731,11.93092 -9.1537,16.20064 -2.4806,4.26972 -4.5101,8.03338 -4.5101,8.36368 0,0.3303 -0.5695,1.26657 -1.2656,2.08061 -0.696,0.81404 -3.1701,5.06601 -5.4978,9.44882 -2.3278,4.38281 -5.0603,9.44531 -6.0721,11.25 -7.5539,13.47191 -9.3271,16.6191 -10.297,18.27553 -0.6057,1.03439 -1.9663,3.56822 -3.0236,5.63072 -1.0572,2.0625 -2.3311,4.38281 -2.831,5.15625 -2.161,3.34381 -17.5637,31.05689 -21.8276,39.27274 -3.2357,6.23505 -3.477,11.88836 -0.6603,15.46929 l 1.9624,2.49489 47.6273,-0.25908 c 44.6948,-0.24313 47.7443,-0.36512 49.5294,-1.98115 1.7211,-1.55804 7.0931,-10.01484 14.3897,-22.65294 1.4886,-2.57813 5.7983,-9.74914 9.5771,-15.93558 6.2279,-10.19567 7.2122,-11.35115 10.5206,-12.34983 5.0896,-1.53637 121.1356,-1.71046 124.4798,-0.18673 3.1511,1.43575 3.7626,3.30405 7.6313,23.31589 1.8441,9.53906 3.993,20.40234 4.7753,24.14063 l 1.4225,6.79687 74.2587,0 c 67.1355,0 74.4681,-0.14664 76.4413,-1.52877 z m -237.656,-147.90088 c 0.5026,-2.00243 2.7189,-6.08113 15.5922,-28.69535 5.6587,-9.9406 22.6306,-40.47975 24.7478,-44.53125 1.0778,-2.0625 2.674,-4.75988 3.5472,-5.99417 l 1.5875,-2.24418 0.488,2.24418 c 0.982,4.51673 6.1644,32.60872 9.9261,53.80667 1.098,6.1875 2.6585,14.27972 3.4677,17.98271 0.8093,3.703 1.2176,7.3944 0.9072,8.20313 -0.4963,1.29334 -4.1926,1.47041 -30.6953,1.47041 l -30.131,0 z m 431.082,147.78902 c 1.3393,-1.54781 4.0167,-10.64993 10.1343,-34.45312 4.4429,-17.28699 9.7514,-37.50686 28.0585,-106.875 1.4969,-5.67188 3.5914,-13.55073 4.6546,-17.50856 1.0633,-3.95784 4.2509,-16.19221 7.0835,-27.1875 2.8328,-10.99529 5.7243,-22.10082 6.4257,-24.67894 0.7014,-2.57813 3.7065,-13.96875 6.6781,-25.3125 2.9715,-11.34375 7.2202,-27.375 9.4415,-35.625 7.9892,-29.67274 10.0688,-37.58088 11.2173,-42.65625 0.6417,-2.83594 1.9049,-7.63924 2.8069,-10.67401 1.0823,-3.64094 1.5014,-7.43522 1.2324,-11.15498 -0.3545,-4.901 -0.7985,-5.98634 -3.3995,-8.31037 L 1756.8454,210 l -69.6728,0 -69.6727,0 -3.3778,3.04687 c -2.7279,2.4605 -3.8454,4.62261 -5.8067,11.23461 -1.3359,4.50325 -2.8185,9.98763 -3.2949,12.1875 -0.4763,2.19987 -1.5317,6.32008 -2.3453,9.15602 -0.8136,2.83594 -3.9711,14.85937 -7.0165,26.71875 -3.0455,11.85937 -7.6691,29.57812 -10.2748,39.375 -2.6056,9.79687 -6.0137,22.66406 -7.5735,28.59375 -1.5598,5.92969 -3.4534,13.10156 -4.2081,15.9375 -0.7547,2.83594 -2.6801,10.41745 -4.2788,16.84782 -1.5985,6.43037 -3.0585,11.93762 -3.2444,12.23833 -0.1858,0.30072 -2.9339,10.64889 -6.1067,22.99593 -6.1514,23.93771 -8.2112,31.91384 -8.8239,34.16792 -0.2102,0.77344 -1.2149,4.78125 -2.2327,8.90625 -1.6375,6.63717 -12.0336,46.13241 -18.6313,70.78125 -1.3111,4.89844 -2.7408,10.69 -3.1771,12.87015 -0.4362,2.18015 -1.4724,6.30045 -2.3026,9.15623 -1.8118,6.23235 -1.1715,10.06662 2.1123,12.64969 2.3561,1.85324 3.6716,1.88643 74.7828,1.88643 67.7718,0 72.4749,-0.10455 73.804,-1.64062 z m 222.8739,-0.48256 c 2.3235,-1.17804 4.1875,-6.31282 10.8003,-29.75181 3.2804,-11.62741 13.0036,-44.27866 18.3503,-61.62136 2.3619,-7.66103 3.1918,-9.35489 4.1259,-8.42076 0.6432,0.64315 1.3426,1.59395 1.5544,2.11291 0.4221,1.03436 16.7647,24.22793 25.6975,36.47026 3.0938,4.23993 6.0469,8.36308 6.5625,9.16257 2.9868,4.63099 8.6419,12.84266 10.5126,15.26513 1.1946,1.54687 2.4973,3.23437 2.895,3.75 0.3978,0.51562 4.828,6.92396 9.8448,14.24076 5.0169,7.31679 10.2265,14.17226 11.5767,15.23437 2.4353,1.91551 3.1008,1.93112 82.345,1.93112 53.3674,0 80.8272,-0.32673 82.713,-0.98417 5.1447,-1.79341 5.6709,-6.2626 1.6569,-14.0706 -1.4826,-2.88396 -8.0589,-12.99272 -10.0275,-15.41398 -0.4193,-0.51563 -4.128,-5.78906 -8.2418,-11.71875 -4.1136,-5.92969 -8.2208,-11.77621 -9.127,-12.99226 -2.5014,-3.35674 -7.3019,-10.18263 -12.2908,-17.47649 -6.9972,-10.2301 -12.2088,-17.72388 -13.0399,-18.75 -0.4176,-0.51563 -4.0793,-5.78906 -8.137,-11.71875 -4.0578,-5.92969 -10.1599,-14.72519 -13.5601,-19.54556 -3.4003,-4.82037 -6.6042,-9.42765 -7.1199,-10.2384 -0.5156,-0.81075 -1.4471,-2.14026 -2.0699,-2.95444 -5.1673,-6.75485 -6.9442,-9.29072 -11.0095,-15.71139 -2.553,-4.0323 -5.1133,-7.75334 -5.6894,-8.26896 -1.8221,-1.63073 -8.7995,-13.06178 -9.9004,-16.21978 -1.1539,-3.31037 0.01,-5.98557 4.3198,-9.96082 6.657,-6.1347 10.0125,-9.10922 16.3577,-14.50014 3.8799,-3.29629 7.2652,-6.25855 7.523,-6.58282 0.2578,-0.32426 5.7422,-5.21662 12.1875,-10.87191 6.4453,-5.65529 12.1881,-10.70865 12.7615,-11.22969 0.5736,-0.52104 4.5747,-4.1114 8.8916,-7.97859 4.3168,-3.86719 10.6112,-9.5625 13.9877,-12.65625 3.3766,-3.09375 8.6447,-7.73438 11.707,-10.3125 3.0622,-2.57813 8.5328,-7.39369 12.1568,-10.70125 3.624,-3.30757 9.0859,-8.09449 12.1375,-10.63761 3.0515,-2.54312 6.0522,-5.11036 6.6681,-5.705 3.974,-3.83662 23.9069,-21.85009 31.3773,-28.35572 1.2891,-1.12259 5.6391,-4.90266 9.6668,-8.40015 7.8436,-6.81124 10.0207,-9.93572 10.0207,-14.38181 0,-5.9743 3.3135,-5.72471 -76.0002,-5.72471 l -71.833,0 -5.5365,4.76398 c -3.0451,2.62019 -6.6588,5.78425 -8.0305,7.03125 -1.3716,1.247 -2.7094,2.26727 -2.9726,2.26727 -0.2633,0 -2.0941,1.59386 -4.0686,3.54191 -1.9744,1.94805 -4.4728,4.1629 -5.5518,4.92188 -1.806,1.27015 -9.575,7.62028 -12.0113,9.81746 -0.5718,0.51562 -3.5679,3.04215 -6.6581,5.61451 -3.0903,2.57235 -6.091,5.1036 -6.6683,5.625 -0.5773,0.52139 -5.8248,4.9558 -11.6612,9.85424 -5.8364,4.89844 -12.5717,10.59375 -14.9674,12.65625 -4.5613,3.9269 -5.6825,4.86026 -14.0548,11.7015 -2.8281,2.31083 -6.7141,5.65798 -8.6357,7.43812 -1.9216,1.78014 -4.7693,4.04417 -6.3282,5.03119 -3.6455,2.30821 -3.6451,2.29157 0.3531,-13.99756 1.7531,-7.14216 3.7386,-15.62247 4.4122,-18.84513 0.6736,-3.22265 1.5595,-5.85937 1.9688,-5.85937 0.4092,0 0.7441,-1.30766 0.7441,-2.90592 0,-1.59826 0.9955,-6.76623 2.2123,-11.48438 7.2939,-28.28268 7.5377,-31.53053 2.6884,-35.79951 l -2.5569,-2.25094 -71.3053,-0.0296 c -55.6138,-0.0231 -71.6531,0.22826 -72.8862,1.14225 -1.0832,0.80284 -4.2168,11.65266 -9.9507,34.45313 -4.6033,18.30469 -11.1983,44.25 -14.6557,57.65625 -3.4573,13.40625 -6.8166,26.69531 -7.4652,29.53125 -1.0965,4.79447 -3.906,15.66437 -10.8795,42.09199 -3.5381,13.40823 -18.5855,72.91 -19.204,75.93766 -0.2526,1.23662 -1.6853,6.93193 -3.1838,12.65625 -5.7025,21.78487 -11.5276,44.62332 -14.4909,56.8141 -1.692,6.96094 -3.9756,15.65486 -5.0744,19.31982 -2.7508,9.17392 -2.6108,12.08674 0.7423,15.43979 l 2.7404,2.74039 70.1502,-0.0138 c 53.7931,-0.0106 70.6828,-0.28385 72.4343,-1.17188 z m 469.5933,-3.83096 c 2.0608,-1.86535 3.9312,-6.5983 6.7238,-17.0146 0.9677,-3.60938 2.4425,-9.09375 3.2771,-12.1875 0.8348,-3.09375 4.6716,-17.85937 8.5262,-32.8125 3.8546,-14.95313 8.8339,-34.14844 11.065,-42.65625 2.231,-8.50781 7.7283,-29.60156 12.2162,-46.875 4.4879,-17.27344 9.1536,-35.20313 10.368,-39.84375 3.379,-12.91118 8.2255,-31.68116 16.9446,-65.625 4.3708,-17.01563 8.3635,-32.24267 8.8727,-33.83787 0.5091,-1.5952 2.7119,-9.61083 4.895,-17.8125 5.7613,-21.64382 5.3321,-29.20852 -1.9742,-34.79816 l -3.4167,-2.61397 -67.2771,-0.25252 c -74.2784,-0.27879 -70.3653,-0.57454 -75.1349,5.67872 -2.2433,2.9411 -3.7486,7.35737 -6.7783,19.8863 -0.7482,3.09375 -1.9578,7.52344 -2.6881,9.84375 -0.7303,2.32031 -2.1507,7.59375 -3.1563,11.71875 -2.2083,9.05795 -13.3807,52.74184 -16.6641,65.15625 -1.2955,4.89844 -3.5501,13.54687 -5.0101,19.21875 -1.46,5.67187 -3.9813,15.375 -5.6029,21.5625 -1.6216,6.1875 -5.6883,22.00781 -9.0371,35.15625 -3.3487,13.14844 -6.5462,25.35047 -7.1056,27.11562 -0.5594,1.76516 -1.9936,7.24953 -3.1873,12.1875 -1.1936,4.93797 -4.1088,16.36094 -6.478,25.38438 -3.763,14.33143 -11.1264,42.95145 -18.74,72.83825 -3.0928,12.14075 -3.1034,17.44008 -0.041,20.50256 l 2.318,2.31809 72.5839,-0.25133 c 69.1256,-0.23935 72.6751,-0.334 74.5011,-1.98672 z m 178.4695,-0.98093 c 1.7833,-1.83625 3.635,-5.11164 4.3724,-7.73438 3.0381,-10.8048 4.8792,-17.4992 8.0838,-29.39304 1.8754,-6.96094 4.2588,-15.60938 5.2961,-19.21875 1.0374,-3.60938 2.8749,-10.35937 4.0834,-15 1.2084,-4.64063 3.3138,-12.44531 4.6786,-17.34375 1.3647,-4.89844 3.5345,-12.91406 4.8218,-17.8125 1.2873,-4.89844 3.1838,-11.64844 4.2144,-15 1.0306,-3.35156 2.2232,-7.78125 2.6504,-9.84375 0.4271,-2.0625 2.5483,-10.07813 4.7137,-17.8125 2.1655,-7.73438 4.955,-17.85938 6.199,-22.5 3.1155,-11.62244 3.1142,-11.61987 4.2766,-9.54906 0.5252,0.93553 2.5555,6.63084 4.5119,12.65625 1.9562,6.02542 4.0086,12.01 4.5608,13.29906 0.5521,1.28906 2.2636,6.35156 3.8032,11.25 1.5396,4.89844 4.8856,15.02344 7.4355,22.5 2.5499,7.47656 5.4737,16.125 6.4974,19.21875 1.0237,3.09375 6.5741,19.54687 12.334,36.5625 5.76,17.01562 12.1753,36.21094 14.2564,42.65625 2.081,6.44531 4.5962,13.50712 5.5893,15.69291 0.9932,2.18579 1.8057,4.28173 1.8057,4.65765 0,1.4358 5.0622,4.94628 7.8577,5.44906 1.608,0.28921 38.4721,0.40337 81.9204,0.25373 l 78.9968,-0.2721 2.2269,-2.79298 c 1.2247,-1.53614 2.8658,-5.33302 3.6469,-8.4375 0.781,-3.10449 5.2846,-21.04296 10.0082,-39.86327 4.7235,-18.82031 9.8132,-38.85938 11.3105,-44.53125 1.4972,-5.67188 4.6605,-18.11719 7.0296,-27.65625 4.3988,-17.7122 23.6303,-93.79984 26.0653,-103.125 0.7405,-2.83594 2.0558,-8.32031 2.9229,-12.1875 0.8671,-3.86719 2.1439,-8.92969 2.8374,-11.25 0.6933,-2.32031 2.3898,-9.07031 3.7699,-15 1.38,-5.92969 3.3204,-13.52344 4.3119,-16.875 0.9915,-3.35156 2.4044,-8.83594 3.1398,-12.1875 0.7355,-3.35156 2.8299,-11.78906 4.6542,-18.75 5.0992,-19.45765 4.4339,-31.68016 -1.8814,-34.5576 -1.6466,-0.75024 -15.5493,-1.0674 -46.7903,-1.0674 l -44.4478,0 -3.6772,3.51562 c -2.554,2.44174 -4.1449,5.09066 -5.2079,8.67188 -2.2763,7.6682 -13.261,48.08727 -15.4147,56.71875 -1.8289,7.33055 -2.5947,10.17941 -9.1981,34.21875 -1.7703,6.44531 -3.3717,12.35156 -3.5584,13.125 -1.1861,4.91242 -6.3337,24.3256 -8.3278,31.40625 -1.307,4.64062 -3.8977,14.34375 -5.757,21.5625 -4.0813,15.84413 -5.1323,19.21875 -5.9859,19.21875 -0.9704,0 -3.1822,-6.44806 -31.9981,-93.28125 -14.5445,-43.82813 -27.1057,-81.16406 -27.914,-82.96875 -2.4051,-5.37041 -5.8985,-9.49 -9.227,-10.88073 -2.5885,-1.08155 -16.4659,-1.30677 -80.5201,-1.30677 l -77.3924,0 -3.6445,2.30063 c -3.2686,2.06343 -6.5483,7.68256 -5.8935,10.09738 0.2576,0.9495 -2.1443,11.08262 -4.8538,20.47755 -2.1738,7.53789 -8.3975,31.263 -15.1081,57.59319 -3.9733,15.59019 -12.2422,47.21125 -14.0966,53.90625 -0.7854,2.83594 -4.1312,15.70313 -7.4348,28.59375 -3.3038,12.89063 -6.6867,25.96875 -7.5177,29.0625 -2.8107,10.46534 -7.1884,27.11064 -11.7116,44.53125 -11.0848,42.69172 -16.7656,64.2725 -20.236,76.875 -3.3288,12.08795 -2.8357,17.9333 1.8785,22.26562 l 3.3152,3.04688 47.3125,0 47.3123,0 z"
       id="path4142" />
    <path
       style="fill:#4b4b4b;fill-opacity:1"
       d="m 455.39062,779.24551 -4.45312,-0.28574 0,-35.10489 0,-35.10488 18.70386,0 c 10.28712,0 20.8463,0.45948 23.46486,1.02106 8.58579,1.84131 14.01936,8.84977 14.06069,18.13608 0.0402,9.03343 -5.24539,15.65059 -14.69998,18.40324 l -3.93931,1.1469 2.53306,1.95247 c 1.39319,1.07385 3.07883,2.59518 3.74587,3.38073 1.60437,1.88941 17.06845,25.31113 17.06845,25.85168 0,0.23119 -2.46612,0.42034 -5.48028,0.42034 l -5.48027,0 -5.74988,-9.14063 c -12.57983,-19.99821 -14.81119,-21.79309 -27.09556,-21.79542 l -7.71223,-10e-4 -0.25652,15.70312 -0.25651,15.70313 -4.45313,-0.28574 z m 35.56283,-41.37993 c 3.98721,-1.81025 6.85905,-5.72493 6.85905,-9.34971 0,-3.18064 -2.93702,-8.26557 -5.52078,-9.55828 -1.59373,-0.79737 -7.60055,-1.34866 -17.2136,-1.5798 l -14.76562,-0.35503 0,11.33237 0,11.33237 13.35937,-0.0206 c 11.09202,-0.0171 14.02506,-0.32281 17.28158,-1.80133 z m 186.3903,40.8836 c -6.00356,-1.99566 -9.3603,-4.04478 -12.51883,-7.64215 -6.88267,-7.83892 -10.23906,-19.5157 -9.18701,-31.96132 1.17462,-13.89576 7.03197,-23.22336 17.66688,-28.13381 5.14893,-2.37741 7.00543,-2.73004 14.35146,-2.72592 9.87434,0.006 14.91503,1.8478 20.59375,7.52652 3.85149,3.85149 7.72227,11.43307 6.44729,12.62809 -0.43507,0.40779 -2.5494,1.02703 -4.69849,1.37608 -3.76399,0.61135 -3.96351,0.51652 -5.43409,-2.58249 -7.6468,-16.11445 -31.72928,-13.8899 -37.73196,3.4854 -2.01803,5.84138 -2.21444,18.83487 -0.38015,25.14922 5.65247,19.45799 32.76577,21.05161 39.90961,2.34574 l 1.61311,-4.22385 3.90296,0.94669 c 2.14663,0.52068 4.26184,1.26836 4.70046,1.66152 1.31131,1.17539 -3.97139,11.66887 -7.67027,15.23611 -5.7706,5.56521 -10.44593,7.42348 -19.66124,7.81463 -5.17848,0.2198 -9.52176,-0.10875 -11.90348,-0.90046 z m 209.0625,-0.009 c -10.46632,-3.47133 -17.51743,-9.84302 -21.27746,-19.22726 -3.03542,-7.57577 -3.00844,-23.49596 0.053,-31.26442 6.47536,-16.4314 24.48762,-24.27477 42.51054,-18.51106 5.68051,1.81662 7.72617,3.07067 12.07707,7.40361 6.47908,6.45234 9.27668,13.19405 9.98385,24.05927 1.46644,22.53059 -11.1788,37.71895 -32.05445,38.50104 -4.52404,0.16949 -9.0433,-0.21518 -11.29256,-0.96118 z m 17.15907,-8.28449 c 6.50447,-1.63784 13.47604,-8.89928 15.64098,-16.2913 3.04536,-10.39814 0.42085,-24.07633 -5.89718,-30.7346 -4.59018,-4.83736 -9.27281,-6.66755 -17.05912,-6.66755 -8.04112,0 -12.7266,1.92737 -18.07619,7.43567 -3.73138,3.84208 -5.33786,8.5803 -6.03518,17.80034 -0.75708,10.01043 1.35942,16.3096 7.56505,22.51523 6.64643,6.64643 13.89562,8.45168 23.86164,5.94221 z m 594.32528,8.85523 -4.4531,-0.35113 0,-35.10488 0,-35.10489 4.6875,0 4.6875,0 0,35.625 c 0,19.59375 -0.1055,35.54896 -0.2344,35.45602 -0.1289,-0.0929 -2.2383,-0.32699 -4.6875,-0.52012 z m 180.0128,-0.0649 -4.4404,-0.28522 -0.2471,-30.65228 -0.2471,-30.65192 -11.4844,-0.26323 -11.4844,-0.26323 0,-4.1899 0,-4.18989 28.125,0 28.125,0 0,4.21875 0,4.21875 -11.7063,0 -11.7063,0 -0.2468,31.17187 -0.2468,31.17188 -4.4404,-0.28523 z m 357.8779,-0.49629 c -11.5696,-3.80882 -18.0249,-10.33651 -22.0994,-22.34746 -2.6177,-7.71673 -2.1658,-19.98489 1.0471,-28.42626 3.0858,-8.10719 10.5996,-15.40708 18.6562,-18.12503 14.0389,-4.73617 29.0101,-1.06138 37.8765,9.29712 9.1684,10.71117 10.6981,30.77371 3.4224,44.88653 -4.7014,9.11954 -15.4365,15.21098 -27.6103,15.66705 -4.4912,0.16825 -9.0596,-0.21687 -11.2925,-0.95195 z m 20.6889,-9.79102 c 5.1236,-2.61635 10.3461,-8.58051 11.834,-13.51461 2.0383,-6.75949 1.56,-19.16638 -0.9509,-24.6625 -4.0669,-8.90272 -10.6222,-13.52019 -20.2965,-14.29675 -9.4645,-0.75972 -18.5548,4.22187 -22.5299,12.34663 -3.2876,6.71959 -4.1211,17.78508 -1.9121,25.38379 1.8729,6.44239 7.9173,13.21371 14.1039,15.8 5.0024,2.09119 14.5918,1.57823 19.7515,-1.05656 z m 770.9705,9.82086 c -15.2718,-4.33006 -23.8771,-15.37922 -25.0244,-32.13119 -1.4909,-21.76723 11.4186,-37.47131 31.7715,-38.64953 17.2899,-1.00089 27.9229,5.33482 32.1306,19.14505 0.495,1.62462 0.1305,2.091 -1.9971,2.55555 -1.4314,0.31255 -3.5518,0.83856 -4.7119,1.16892 -1.597,0.45475 -2.1094,0.21277 -2.1094,-0.99604 0,-0.8782 -1.3151,-3.42799 -2.9225,-5.66621 -4.2444,-5.91027 -10.3551,-8.35666 -19.2022,-7.68756 -10.6962,0.80895 -16.9148,4.99576 -21.1844,14.26304 -2.9491,6.40095 -3.0025,20.35603 -0.1023,26.71875 5.8702,12.87861 23.0386,17.5708 38.2481,10.45342 l 6.1878,-2.89561 -0.2779,-6.35703 -0.2778,-6.35703 -10.0782,-0.26609 -10.0781,-0.26609 0,-4.14228 0,-4.14227 15.0013,-0.27913 15.0013,-0.27914 0,13.34762 0,13.34761 -3.9843,2.53921 c -7.761,4.94604 -14.6309,7.11155 -23.6719,7.46198 -5.0846,0.19707 -10.1376,-0.155 -12.7156,-0.88595 z M 78.772252,777.89062 c 0.01223,-0.64453 1.081291,-3.70312 2.375673,-6.79687 C 82.442308,768 86.240185,758.50781 89.587655,750 c 3.347468,-8.50781 7.082808,-17.78906 8.300742,-20.625 1.217944,-2.83594 3.580663,-8.63672 5.250483,-12.89063 l 3.03605,-7.73437 4.90274,0 4.90274,0 14.10194,35.20019 14.10194,35.20019 -5.1458,-0.27831 -5.14581,-0.27832 -3.90618,-10.3125 -3.90617,-10.3125 -14.99329,-0.23821 -14.99329,-0.23821 -3.516652,9.61321 c -1.934158,5.28727 -3.516189,10.14055 -3.515625,10.78508 6.98e-4,0.79559 -1.654676,1.17188 -5.155223,1.17188 -3.511867,0 -5.149154,-0.37373 -5.133998,-1.17188 z m 41.156568,-36.5625 c -1.5752,-4.2539 -4.15752,-11.25795 -5.73849,-15.56456 l -2.8745,-7.83019 -2.73678,6.89269 c -1.50523,3.79098 -4.17371,10.79503 -5.92993,15.56456 l -3.193158,8.67188 11.668418,0 11.66841,0 -2.86397,-7.73438 z m 168.82118,2.57813 0,-35.15625 4.6875,0 4.6875,0 0,35.15625 0,35.15625 -4.6875,0 -4.6875,0 0,-35.15625 z m 789.375,0 0,-35.15625 5.1034,0 5.1034,0 12.1127,18.04687 c 6.662,9.92579 14.8069,21.9893 18.0998,26.80782 l 5.987,8.76093 0.2487,-26.80781 0.2488,-26.80781 4.673,0 4.6732,0 0,35.15625 0,35.15625 -5.0939,0 -5.0939,0 -10.5963,-15.70313 c -5.828,-8.63671 -13.9772,-20.727 -18.1092,-26.86731 l -7.5129,-11.1642 -0.2488,26.86732 -0.2488,26.86732 -4.673,0 -4.6732,0 0,-35.15625 z m 207.1875,0.002 0,-35.32435 18.9844,0.34746 c 21.2928,0.38969 23.6805,0.95568 30.081,7.1306 7.2695,7.01329 10.6372,17.85239 9.7559,31.39974 -0.9216,14.16581 -6.9072,24.43144 -16.8328,28.86872 -4.5591,2.03815 -6.4443,2.24369 -23.4729,2.55917 l -18.5156,0.34303 0,-35.32436 z m 33.5056,25.8667 c 11.0152,-2.13123 17.0344,-13.12052 15.9391,-29.10035 -0.6035,-8.8046 -2.9103,-14.44512 -7.5867,-18.55112 -4.5984,-4.03778 -6.5491,-4.4671 -20.2955,-4.4671 l -11.7187,0 -0.249,26.48437 -0.249,26.48438 10.0927,-0.0408 c 5.551,-0.0225 11.8812,-0.38686 14.0671,-0.80979 z m 533.6819,-25.86857 0,-35.15625 4.6875,0 4.6875,0 0,35.15625 0,35.15625 -4.6875,0 -4.6875,0 0,-35.15625 z m 375,-0.0468 0,-35.20304 5.2851,0.28116 5.285,0.28116 17.9181,26.63829 17.9181,26.63829 0.2487,-26.87266 0.2488,-26.87267 4.673,0 4.6732,0 0,35.15625 0,35.15625 -5.125,0 -5.125,0 -14.2773,-21.32813 c -7.8525,-11.73046 -15.9877,-23.85937 -18.0781,-26.95312 l -3.8009,-5.625 -0.2487,26.95312 -0.2488,26.95313 -4.673,0 -4.6732,0 0,-35.20303 z m 208.125,0.0468 0,-35.15625 4.6875,0 4.6875,0 0,35.15625 0,35.15625 -4.6875,0 -4.6875,0 0,-35.15625 z m 162.1875,0 0,-35.15625 5.1082,0 5.108,0 4.9015,7.26562 c 2.6958,3.9961 10.8386,16.125 18.095,26.95313 l 13.1936,19.6875 0.2487,-26.95313 0.2488,-26.95312 4.673,0 4.6732,0 0,35.15625 0,35.15625 -5.0653,0 -5.0654,0 -6.8667,-10.07813 c -3.7768,-5.54296 -11.9388,-17.66379 -18.1379,-26.93515 l -11.2709,-16.85704 -0.2488,26.93517 -0.2488,26.93515 -4.673,0 -4.6732,0 0,-35.15625 z M 72.1875,374.99196 l 0,-289.695548 308.90625,0.02441 C 628.62246,85.34039 690,85.579565 690,86.524571 c 0,0.648632 -4.08701,4.965484 -9.08225,9.593006 -13.77953,12.765163 -20.7538,19.281623 -25.0586,23.413673 -2.14873,2.0625 -6.42028,6.0294 -9.49234,8.81533 -3.07206,2.78593 -9.38244,8.7101 -14.02306,13.16483 -4.64063,4.45473 -14.11073,13.35502 -21.04466,19.77842 -6.93395,6.4234 -14.36076,13.36642 -16.50403,15.42892 -2.14328,2.0625 -8.24736,7.75781 -13.56464,12.65625 -5.31727,4.89843 -13.2889,12.32678 -17.71472,16.50743 -4.42582,4.18066 -9.31258,8.755 -10.85945,10.16522 -1.54688,1.41022 -7.8306,7.27093 -13.96384,13.02381 -6.13324,5.75288 -12.29019,11.51447 -13.68212,12.80354 -5.01834,4.64748 -26.5828,24.92703 -30.40544,28.59375 -2.15021,2.0625 -8.92515,8.39062 -15.05541,14.0625 -6.13027,5.67187 -12.47374,11.57812 -14.0966,13.125 -6.70385,6.38993 -19.27473,18.16865 -24.90411,23.33475 -3.30961,3.03722 -9.39546,8.73254 -13.5241,12.65625 -4.12865,3.9237 -10.45677,9.8527 -14.0625,13.17555 -3.60574,3.32285 -10.15965,9.44004 -14.56426,13.59375 -4.40461,4.15371 -13.23478,12.40376 -19.62259,18.33345 -6.38782,5.92968 -13.36996,12.46875 -15.51587,14.53125 -2.14591,2.0625 -8.67514,8.17968 -14.50941,13.59375 -5.83427,5.41406 -12.36462,11.53125 -14.51191,13.59375 -2.14728,2.0625 -8.27317,7.75781 -13.61309,12.65625 -5.33992,4.89843 -11.47851,10.59375 -13.64131,12.65625 -5.42934,5.17754 -14.7195,13.92147 -28.88588,27.1875 -6.60745,6.1875 -13.36231,12.51562 -15.01082,14.0625 -1.64851,1.54687 -8.65498,8.08593 -15.56993,14.53125 -6.91495,6.44531 -15.12654,14.11587 -18.24798,17.04569 -12.34608,11.5882 -15.53364,14.57026 -21.27285,19.90144 -3.28074,3.04749 -9.57826,8.95374 -13.9945,13.125 -4.41623,4.17127 -10.74436,10.06414 -14.0625,13.09529 -3.31814,3.03115 -10.05533,9.35927 -14.97155,14.0625 -4.91622,4.70323 -13.73232,12.98101 -19.59135,18.39508 -5.85901,5.41406 -12.64058,11.74218 -15.07012,14.0625 -2.42955,2.32031 -9.20801,8.64843 -15.06325,14.0625 -5.85523,5.41406 -14.45758,13.48851 -19.116294,17.94322 -4.65873,4.4547 -10.5394,9.93908 -13.068159,12.1875 -2.528758,2.24842 -5.842905,5.24818 -7.36477,6.66615 -1.521865,1.41797 -2.93335,2.57813 -3.136632,2.57813 -0.203283,0 -0.369605,-130.36299 -0.369605,-289.69554 z m 545.86762,186.8475 c -2.59494,-0.50044 -4.93012,-3.68584 -4.93012,-6.72513 0,-2.18846 5.17718,-24.57782 7.93898,-34.33308 0.72989,-2.57813 2.64149,-10.38281 4.248,-17.34375 1.6065,-6.96094 3.31863,-13.92188 3.80473,-15.46875 0.4861,-1.54688 1.97573,-7.66406 3.31029,-13.59375 1.33457,-5.92969 3.00238,-12.89063 3.70627,-15.46875 0.70388,-2.57813 2.37428,-9.32813 3.71201,-15 1.33773,-5.67188 2.83393,-11.78906 3.3249,-13.59375 0.70776,-2.60166 5.86621,-23.71757 7.93597,-32.48568 0.22501,-0.95319 1.89365,-7.63932 3.70811,-14.85807 1.81444,-7.21875 3.48557,-13.96875 3.71359,-15 0.22803,-1.03125 1.26714,-5.25 2.30914,-9.375 7.80619,-30.90269 10.38471,-41.94359 9.95717,-42.63536 -0.27134,-0.43903 -0.16042,-0.93974 0.2465,-1.11269 0.40691,-0.17295 1.85657,-4.95508 3.22148,-10.62695 1.36491,-5.67188 3.12585,-12.84375 3.91322,-15.9375 1.86786,-7.3393 10.38069,-42.2938 13.32204,-54.7016 2.89937,-12.23073 4.15413,-14.61637 9.0688,-17.24233 l 3.96505,-2.11857 120.46875,0 c 128.51194,0 125.76459,-0.0882 145.3125,4.6676 26.00137,6.32592 54.9885,20.92634 71.3814,35.95388 2.9083,2.666 5.6504,4.85298 6.0938,4.85996 0.4433,0.007 2.4936,1.98714 4.5561,4.40035 2.0625,2.41321 5.5358,6.30984 7.7185,8.65919 2.1826,2.34934 3.9755,4.55779 3.9844,4.90768 0.01,0.34989 0.6749,1.29522 1.4804,2.10075 2.2833,2.28336 9.6212,16.0029 12.1442,22.70598 7.6877,20.42435 10.7109,67.33232 6.2512,96.99387 -1.0543,7.0121 -2.6156,15.02772 -3.4696,17.8125 -5.191,16.92804 -6.7267,21.09894 -11.3132,30.72819 -6.5968,13.84951 -15.7771,27.64223 -24.4187,36.68728 -3.7997,3.97712 -6.9085,7.71159 -6.9085,8.29882 0,0.58723 -0.3459,1.0677 -0.7687,1.0677 -0.4227,0 -2.2156,1.30736 -3.9843,2.90525 -10.1013,9.12601 -15.5141,13.42773 -24.7783,19.69232 -13.68436,9.25358 -27.76504,17.83033 -34.68745,21.12857 -3.09375,1.47406 -6.13041,3.15535 -6.74803,3.73619 -3.09534,2.91079 -32.45073,13.82226 -45.2026,16.80194 -18.02046,4.21077 -16.79251,4.18028 -162.96508,4.04556 -76.18698,-0.0702 -139.4673,-0.31001 -140.62291,-0.53287 z m 250.20659,-85.3918 c 15.57386,-6.27989 31.49578,-21.81158 44.89163,-43.79141 3.94969,-6.48062 12.59273,-24.04547 14.06997,-28.59375 0.41868,-1.28906 1.65297,-4.66406 2.74288,-7.5 10.82809,-28.17464 8.20084,-56.72824 -6.986,-75.92557 -4.89596,-6.18884 -12.77951,-13.05466 -17.84624,-15.54235 l -5.6027,-2.75083 -30.51948,-0.281 c -18.89474,-0.17396 -31.46348,0.0779 -32.99784,0.66129 -3.65913,1.39119 -4.99075,4.05768 -8.23941,16.49886 -1.61509,6.18522 -4.326,16.51929 -6.02424,22.9646 -1.69824,6.44531 -5.02109,19.10156 -7.38412,28.125 -2.36302,9.02344 -5.82291,22.10156 -7.68864,29.0625 -3.97865,14.84413 -5.1057,19.12465 -12.09524,45.9375 -2.88987,11.08594 -5.91536,22.17496 -6.72331,24.64227 -1.34777,4.11579 -1.34135,4.68085 0.0778,6.84673 l 1.5468,2.36072 36.74259,-0.29014 c 35.71054,-0.28198 36.89127,-0.35008 42.03555,-2.42442 z m 461.69369,75.50546 c -0.7823,-3.73828 -2.9312,-14.60156 -4.7753,-24.14062 -3.8687,-20.01184 -4.4802,-21.88014 -7.6313,-23.31589 -3.3442,-1.52373 -119.3902,-1.34964 -124.4798,0.18673 -3.3084,0.99868 -4.2927,2.15416 -10.5206,12.34983 -3.7788,6.18644 -8.0885,13.35745 -9.5771,15.93558 -7.2966,12.6381 -12.6686,21.0949 -14.3897,22.65294 -1.7851,1.61603 -4.8346,1.73802 -49.5294,1.98115 l -47.6273,0.25908 -1.9624,-2.49489 c -2.8168,-3.58093 -2.5754,-9.23424 0.6603,-15.46929 4.2639,-8.21585 19.6666,-35.92893 21.8276,-39.27274 0.4998,-0.77344 1.7738,-3.09375 2.831,-5.15625 1.0573,-2.0625 2.4178,-4.59633 3.0236,-5.63072 0.9699,-1.65643 2.7431,-4.80362 10.297,-18.27553 1.0118,-1.80469 3.7443,-6.86719 6.0721,-11.25 2.3277,-4.38281 4.8018,-8.63478 5.4978,-9.44882 0.6961,-0.81404 1.2656,-1.75031 1.2656,-2.08061 0,-0.3303 2.0295,-4.09396 4.5101,-8.36368 2.4806,-4.26972 6.5997,-11.56002 9.1537,-16.20064 2.554,-4.64063 5.3569,-9.70313 6.2287,-11.25 0.8718,-1.54688 3.0879,-5.55469 4.9246,-8.90625 7.716,-14.07956 14.3028,-25.90376 25.3287,-45.46875 3.4871,-6.1875 8.0383,-14.41406 10.1139,-18.28125 2.0756,-3.86719 5.1866,-9.47963 6.9133,-12.47211 1.7267,-2.99246 3.1395,-5.59432 3.1395,-5.78191 0,-0.18758 1.8984,-3.55213 4.2187,-7.47676 2.3204,-3.92465 4.2188,-7.32817 4.2188,-7.56339 0,-0.23521 1.1944,-2.4379 2.6542,-4.89487 5.7795,-9.72752 16.0958,-28.13896 16.0958,-28.72608 0,-0.34218 1.1341,-2.40672 2.5202,-4.58788 1.3861,-2.18116 3.9158,-6.63032 5.6217,-9.88703 1.7059,-3.2567 4.2632,-7.89723 5.6829,-10.31227 3.6881,-6.27341 6.198,-10.79286 11.0296,-19.8602 2.3354,-4.38281 5.2897,-9.14932 6.565,-10.59222 4.9036,-5.54807 1.4913,-5.34528 89.9433,-5.34528 88.7604,0 87.6794,-0.0626 92.4324,5.35079 3.2626,3.71597 3.9045,5.93924 7.5225,26.05546 1.5765,8.76563 3.6581,19.73438 4.6258,24.375 0.9677,4.64063 2.4034,11.8125 3.1904,15.9375 7.0005,36.69218 11.216,58.88014 11.9337,62.8125 2.2043,12.07678 6.41,34.11858 14.3103,75 1.7936,9.28125 3.4531,17.92969 3.6877,19.21875 1.2969,7.12654 5.5188,29.19578 6.2772,32.8125 1.1391,5.43302 7.1482,37.46135 8.9705,47.8125 0.7715,4.38281 2.0151,10.38817 2.7635,13.34522 2.5586,10.10925 1.2433,18.41078 -3.4363,21.68851 -1.9732,1.38213 -9.3058,1.52877 -76.4413,1.52877 l -74.2587,0 -1.4225,-6.79688 z m -25.2698,-141.86103 c 0.3104,-0.80873 -0.098,-4.50013 -0.9072,-8.20313 -0.8092,-3.70299 -2.3697,-11.79521 -3.4677,-17.98271 -3.7617,-21.19795 -8.9441,-49.28994 -9.9261,-53.80667 l -0.488,-2.24418 -1.5875,2.24418 c -0.8732,1.23429 -2.4694,3.93167 -3.5472,5.99417 -2.1172,4.0515 -19.0891,34.59065 -24.7478,44.53125 -12.8733,22.61423 -15.0896,26.69292 -15.5922,28.69535 l -0.5626,2.24215 30.131,0 c 26.5027,0 30.1989,-0.17707 30.6953,-1.47041 z m 222.2315,146.77148 c -3.2838,-2.58307 -3.9241,-6.41734 -2.1123,-12.64969 0.8302,-2.85578 1.8664,-6.97608 2.3026,-9.15623 0.4364,-2.18015 1.866,-7.97171 3.1771,-12.87015 6.5977,-24.64884 16.9938,-64.14408 18.6313,-70.78125 1.0178,-4.125 2.0225,-8.13281 2.2327,-8.90625 0.6128,-2.25408 2.6725,-10.23021 8.8239,-34.16792 3.1728,-12.34704 5.9209,-22.69521 6.1067,-22.99593 0.1859,-0.30071 1.6459,-5.80796 3.2444,-12.23833 1.5987,-6.43037 3.5241,-14.01188 4.2788,-16.84782 0.7547,-2.83594 2.6483,-10.00781 4.2081,-15.9375 1.5599,-5.92969 4.9679,-18.79688 7.5735,-28.59375 2.6057,-9.79688 7.2293,-27.51563 10.2748,-39.375 3.0454,-11.85938 6.2029,-23.88281 7.0165,-26.71875 0.8136,-2.83594 1.869,-6.95615 2.3453,-9.15602 0.4764,-2.19987 1.959,-7.68425 3.2949,-12.1875 1.9613,-6.612 3.0788,-8.77411 5.8067,-11.23461 l 3.3778,-3.04687 69.6727,0 69.6728,0 2.9918,2.67314 c 2.601,2.32403 3.045,3.40937 3.3995,8.31037 0.2691,3.71976 -0.1501,7.51404 -1.2324,11.15498 -0.902,3.03477 -2.1652,7.83807 -2.8069,10.67401 -1.1485,5.07537 -3.2281,12.98351 -11.2173,42.65625 -2.2213,8.25 -6.47,24.28125 -9.4415,35.625 -2.9716,11.34375 -5.9767,22.73437 -6.6781,25.3125 -0.7014,2.57812 -3.5929,13.68365 -6.4257,24.67894 -2.8326,10.99529 -6.0202,23.22966 -7.0835,27.1875 -1.0632,3.95783 -3.1577,11.83668 -4.6546,17.50856 -18.3071,69.36814 -23.6156,89.58801 -28.0585,106.875 -6.1176,23.80319 -8.795,32.90531 -10.1343,34.45312 -1.3291,1.53608 -6.0322,1.64063 -73.804,1.64063 -71.1111,0 -72.4267,-0.0332 -74.7828,-1.88643 z m 226.1358,-1.79146 c -3.3531,-3.35305 -3.4931,-6.26587 -0.7423,-15.43979 1.0988,-3.66496 3.3824,-12.35888 5.0744,-19.31982 2.9633,-12.19078 8.7884,-35.02923 14.4909,-56.8141 1.4985,-5.72432 2.9312,-11.41963 3.1838,-12.65625 0.6185,-3.02766 15.6659,-62.52943 19.204,-75.93766 6.9735,-26.42762 9.783,-37.29752 10.8795,-42.09199 0.6486,-2.83594 4.0079,-16.125 7.4652,-29.53125 3.4574,-13.40625 10.0524,-39.35156 14.6557,-57.65625 5.7339,-22.80047 8.8675,-33.65029 9.9507,-34.45313 1.2331,-0.91399 17.2724,-1.16535 72.8862,-1.14225 l 71.3053,0.0296 2.5569,2.25094 c 4.8493,4.26898 4.6055,7.51683 -2.6884,35.79951 -1.2168,4.71815 -2.2123,9.88612 -2.2123,11.48438 0,1.59826 -0.3349,2.90592 -0.7441,2.90592 -0.4093,0 -1.2952,2.63672 -1.9688,5.85937 -0.6736,3.22266 -2.6591,11.70297 -4.4122,18.84513 -3.9982,16.28913 -3.9986,16.30577 -0.3531,13.99756 1.5589,-0.98702 4.4066,-3.25105 6.3282,-5.03119 1.9216,-1.78014 5.8076,-5.1273 8.6357,-7.43812 8.3723,-6.84124 9.4935,-7.7746 14.0548,-11.7015 2.3957,-2.0625 9.131,-7.75781 14.9674,-12.65625 5.8363,-4.89844 11.0839,-9.33285 11.6612,-9.85424 0.5773,-0.5214 3.578,-3.05265 6.6683,-5.625 3.0902,-2.57236 6.0863,-5.09889 6.6581,-5.61451 2.4363,-2.19718 10.2053,-8.54731 12.0112,-9.81746 1.0791,-0.75898 3.5775,-2.97383 5.5519,-4.92188 1.9745,-1.94805 3.8053,-3.54191 4.0686,-3.54191 0.2632,0 1.601,-1.02027 2.9726,-2.26727 1.3717,-1.247 4.9854,-4.41106 8.0304,-7.03125 l 5.5365,-4.76398 71.8331,0 c 79.3137,0 76.0002,-0.24959 76.0002,5.72471 0,4.44609 -2.1771,7.57057 -10.0208,14.38181 -4.0276,3.49749 -8.3776,7.27756 -9.6667,8.40015 -7.4704,6.50563 -27.4033,24.5191 -31.3773,28.35572 -0.6159,0.59464 -3.6166,3.16188 -6.6681,5.705 -3.0516,2.54312 -8.5135,7.33004 -12.1375,10.63761 -3.624,3.30756 -9.0946,8.12312 -12.1568,10.70125 -3.0623,2.57812 -8.3304,7.21875 -11.707,10.3125 -3.3765,3.09375 -9.6709,8.78906 -13.9877,12.65625 -4.3169,3.86719 -8.318,7.45755 -8.8916,7.97859 -0.5734,0.52104 -6.3162,5.5744 -12.7615,11.22969 -6.4453,5.65529 -11.9297,10.54765 -12.1875,10.87191 -0.2578,0.32427 -3.6431,3.28653 -7.523,6.58282 -6.3452,5.39092 -9.7008,8.36544 -16.3577,14.50014 -4.3136,3.97525 -5.4737,6.65045 -4.3198,9.96082 1.1009,3.158 8.0783,14.58905 9.9004,16.21978 0.5761,0.51562 3.1364,4.23666 5.6894,8.26896 4.0653,6.42067 5.8422,8.95654 11.0095,15.71139 0.6228,0.81418 1.5543,2.14369 2.0699,2.95444 0.5157,0.81075 3.7196,5.41803 7.1199,10.2384 3.4002,4.82037 9.5023,13.61587 13.5601,19.54556 4.0577,5.92969 7.7194,11.20312 8.137,11.71875 0.8311,1.02612 6.0427,8.5199 13.0399,18.75 4.9889,7.29386 9.7894,14.11975 12.2908,17.47649 0.9062,1.21605 5.0134,7.06257 9.127,12.99226 4.1138,5.92969 7.8225,11.20312 8.2418,11.71875 1.9686,2.42126 8.5449,12.53002 10.0275,15.41398 4.014,7.808 3.4878,12.27719 -1.6569,14.0706 -1.8858,0.65744 -29.3456,0.98417 -82.7131,0.98417 -79.2441,0 -79.9096,-0.0157 -82.3449,-1.93112 -1.3502,-1.06211 -6.5598,-7.91758 -11.5767,-15.23437 -5.0169,-7.3168 -9.447,-13.72513 -9.8448,-14.24076 -0.3977,-0.51563 -1.7004,-2.20313 -2.895,-3.75 -1.8707,-2.42247 -7.5258,-10.63414 -10.5126,-15.26513 -0.5156,-0.79949 -3.4687,-4.92264 -6.5625,-9.16257 -8.9328,-12.24233 -25.2754,-35.4359 -25.6975,-36.47026 -0.2118,-0.51896 -0.9112,-1.46976 -1.5544,-2.11291 -0.9341,-0.93413 -1.7641,0.75973 -4.1259,8.42076 -5.3467,17.3427 -15.0699,49.99395 -18.3503,61.62136 -6.6128,23.43899 -8.4768,28.57377 -10.8003,29.75181 -1.7515,0.88802 -18.6412,1.16127 -72.4343,1.17187 l -70.1502,0.0138 -2.7404,-2.74039 z m 465.5152,-2.3563 c -3.0625,-3.06248 -3.0519,-8.36181 0.041,-20.50256 7.6135,-29.8868 14.9769,-58.50682 18.74,-72.83825 2.3692,-9.02344 5.2844,-20.44641 6.478,-25.38438 1.1936,-4.93797 2.6279,-10.42234 3.1873,-12.1875 0.5593,-1.76515 3.7569,-13.96718 7.1056,-27.11562 3.3488,-13.14844 7.4155,-28.96875 9.0371,-35.15625 1.6215,-6.1875 4.1429,-15.89063 5.6029,-21.5625 1.46,-5.67188 3.7146,-14.32031 5.0101,-19.21875 3.2834,-12.41441 14.4558,-56.0983 16.6641,-65.15625 1.0055,-4.125 2.4259,-9.39844 3.1563,-11.71875 0.7303,-2.32031 1.9399,-6.75 2.6881,-9.84375 3.0297,-12.52893 4.535,-16.9452 6.7783,-19.8863 4.7696,-6.25326 0.8565,-5.95751 75.1349,-5.67872 l 67.2768,0.25252 3.4167,2.61397 c 7.3063,5.58964 7.7355,13.15434 1.9743,34.79816 -2.1832,8.20167 -4.386,16.2173 -4.8951,17.8125 -0.5092,1.5952 -4.5019,16.82224 -8.8727,33.83787 -8.7191,33.94384 -13.5656,52.71382 -16.9446,65.625 -1.2144,4.64062 -5.8801,22.57031 -10.368,39.84375 -4.4879,17.27344 -9.9852,38.36719 -12.2162,46.875 -2.2311,8.50781 -7.2104,27.70312 -11.065,42.65625 -3.8546,14.95313 -7.6914,29.71875 -8.5262,32.8125 -0.8346,3.09375 -2.3094,8.57812 -3.2771,12.1875 -2.7926,10.4163 -4.663,15.14925 -6.7238,17.0146 -1.826,1.65272 -5.3755,1.74737 -74.5011,1.98673 l -72.5839,0.25132 -2.318,-2.31809 z m 226.8391,-0.76269 c -4.7142,-4.33232 -5.2073,-10.17767 -1.8785,-22.26562 3.4704,-12.6025 9.1512,-34.18328 20.236,-76.875 4.5232,-17.42061 8.9009,-34.06591 11.7116,-44.53125 0.8309,-3.09375 4.2139,-16.17188 7.5177,-29.0625 3.3036,-12.89063 6.6494,-25.75781 7.4348,-28.59375 1.8544,-6.695 10.1233,-38.31606 14.0966,-53.90625 6.7106,-26.33019 12.9343,-50.0553 15.1081,-57.59319 2.7095,-9.39493 5.1114,-19.52805 4.8538,-20.47755 -0.6548,-2.41482 2.6249,-8.03395 5.8935,-10.09738 l 3.6445,-2.30063 77.3924,0 c 64.0542,0 77.9315,0.22522 80.5201,1.30677 3.3285,1.39073 6.8219,5.51032 9.227,10.88073 0.8083,1.80469 13.3695,39.14062 27.914,82.96875 28.8159,86.83319 31.0277,93.28125 31.9981,93.28125 0.8536,0 1.9046,-3.37462 5.9858,-19.21875 1.8594,-7.21875 4.4501,-16.92188 5.757,-21.5625 1.9942,-7.08065 7.1418,-26.49383 8.3279,-31.40625 0.1867,-0.77344 1.7881,-6.67969 3.5584,-13.125 6.6034,-24.03934 7.3692,-26.8882 9.1981,-34.21875 2.1536,-8.63148 13.1384,-49.05055 15.4147,-56.71875 1.063,-3.58122 2.6539,-6.23014 5.2079,-8.67188 l 3.6772,-3.51562 44.4478,0 c 31.241,0 45.1437,0.31716 46.7903,1.0674 6.3153,2.87744 6.9806,15.09995 1.8814,34.5576 -1.8243,6.96094 -3.9187,15.39844 -4.6542,18.75 -0.7354,3.35156 -2.1483,8.83594 -3.1398,12.1875 -0.9915,3.35156 -2.9319,10.94531 -4.3119,16.875 -1.3801,5.92969 -3.0766,12.67969 -3.7699,15 -0.6935,2.32031 -1.9703,7.38281 -2.8374,11.25 -0.8671,3.86719 -2.1824,9.35156 -2.9229,12.1875 -2.435,9.32516 -21.6665,85.4128 -26.0653,103.125 -2.3691,9.53906 -5.5324,21.98437 -7.0296,27.65625 -1.4973,5.67187 -6.587,25.71094 -11.3105,44.53125 -4.7236,18.82031 -9.2272,36.75878 -10.0082,39.86327 -0.7811,3.10448 -2.4222,6.90136 -3.6469,8.4375 l -2.2269,2.79298 -78.9968,0.2721 c -43.4483,0.14964 -80.3124,0.0354 -81.9204,-0.25372 -2.7955,-0.50279 -7.8577,-4.01327 -7.8577,-5.44907 0,-0.37592 -0.8125,-2.47186 -1.8057,-4.65765 -0.9931,-2.18578 -3.5083,-9.2476 -5.5893,-15.69291 -2.0811,-6.44531 -8.4964,-25.64062 -14.2564,-42.65625 -5.7599,-17.01562 -11.3103,-33.46875 -12.334,-36.5625 -1.0237,-3.09375 -3.9475,-11.74219 -6.4974,-19.21875 -2.5499,-7.47656 -5.8959,-17.60156 -7.4355,-22.5 -1.5396,-4.89844 -3.2511,-9.96094 -3.8032,-11.25 -0.5522,-1.28906 -2.6046,-7.27364 -4.5608,-13.29906 -1.9564,-6.02541 -3.9867,-11.72072 -4.5119,-12.65625 -1.1624,-2.07081 -1.1611,-2.07338 -4.2766,9.54906 -1.244,4.64063 -4.0335,14.76563 -6.199,22.5 -2.1654,7.73438 -4.2866,15.75 -4.7137,17.8125 -0.4272,2.0625 -1.6198,6.49219 -2.6504,9.84375 -1.0306,3.35156 -2.9271,10.10156 -4.2144,15 -1.2873,4.89844 -3.4571,12.91406 -4.8218,17.8125 -1.3648,4.89844 -3.4702,12.70313 -4.6786,17.34375 -1.2085,4.64063 -3.046,11.39063 -4.0834,15 -1.0373,3.60938 -3.4207,12.25781 -5.2961,19.21875 -3.2046,11.89384 -5.0457,18.58824 -8.0838,29.39304 -0.7374,2.62274 -2.5891,5.89813 -4.3724,7.73438 l -3.0934,3.18508 -47.3123,0 -47.3125,0 -3.3152,-3.04687 z"
       id="path4140" />
  </g>
</svg>
