<?xml version="1.0" encoding="UTF-8" standalone="no"?>
<svg
   xmlns:dc="http://purl.org/dc/elements/1.1/"
   xmlns:cc="http://creativecommons.org/ns#"
   xmlns:rdf="http://www.w3.org/1999/02/22-rdf-syntax-ns#"
   xmlns:svg="http://www.w3.org/2000/svg"
   xmlns="http://www.w3.org/2000/svg"
   viewBox="0 0 499.1485 162.46397"
   height="162.46397"
   width="499.1485"
   version="1.1"
   id="svg2">
  <metadata
     id="metadata8">
    <rdf:RDF>
      <cc:Work
         rdf:about="">
        <dc:format>image/svg+xml</dc:format>
        <dc:type
           rdf:resource="http://purl.org/dc/dcmitype/StillImage" />
        <dc:title></dc:title>
      </cc:Work>
    </rdf:RDF>
  </metadata>
  <defs
     id="defs6" />
  <path
     id="path4138"
     d="m 228.64071,162.24649 c -0.275,-0.27107 -8.04475,-0.7868 -17.26611,-1.14608 -15.48226,-0.60321 -42.76249,-2.791 -52.23389,-4.189 -5.37016,-0.79265 -6.92216,-1.02985 -22.00615,-3.3633 C 66.644167,142.64342 14.917137,119.61147 2.8626467,93.762258 -0.99722325,85.485298 -0.95191315,76.206188 2.9875486,68.183448 15.346463,43.014448 60.648266,22.033188 128.64071,9.9879184 c 7.425,-1.31539 15.73959,-2.69338 18.47687,-3.0622 2.73727,-0.36883 6.11227,-0.83276 7.5,-1.03096 34.37821,-4.90997999 95.31813,-7.23707 133.52313,-5.09878999 13.66699,0.76491999 42.5109,3.20949999 49.5,4.19522999 1.925,0.2715 5.3,0.72745 7.5,1.01323 4.82073,0.62621 13.70816,1.99507 26.5,4.0815996 5.225,0.85226 16.925,3.32715 26,5.49973 34.3367,8.22034 60.66455,18.63069 78.76883,31.14617 24.95324,17.25017 29.66788,38.70019 12.66322,57.613462 -18.68138,20.7782 -62.82978,38.36935 -120.83416,48.14697 -9.44466,1.59206 -18.73041,3.09973 -20.635,3.35039 -13.50428,1.77723 -32.80892,3.7152 -45.96289,4.61417 -17.56107,1.20016 -72.23812,2.54054 -73,1.78957 z m 81.5,-7.7046 c 37.9094,-3.73814 60.90092,-7.38348 92,-14.58672 12.76842,-2.95746 41.94055,-13.13277 52.75376,-18.40064 20.63306,-10.05182 34.94962,-22.687632 37.8315,-33.390142 1.43825,-5.34122 0.77023,-13.13857 -1.53974,-17.97269 -9.30682,-19.47645 -49.00233,-39.58369 -99.48633,-50.3935 -6.35755,-1.3613 -12.45919,-2.67493 -13.55919,-2.91917 -9.1995,-2.04263 -30.01891,-5.03949 -54.5,-7.8450296 -21.52725,-2.46703 -34.74398,-3.00201 -74,-2.99533 -39.09443,0.007 -49.98712,0.43794 -74.5,2.94987 -15.83981,1.6231696 -45.76808,5.9841796 -54,7.8686296 -1.1,0.25181 -5.6,1.19948 -10,2.10593 -12.158208,2.50471 -18.790087,4.24588 -32.999994,8.66399 -39.318767,12.2249 -64.074872,27.62554 -70.9825133,44.15786 -2.377792,5.69085 -1.9604928,14.41441 0.9709258,20.297 3.4103375,6.84365 11.0712025,14.509512 20.8283505,20.841932 21.000783,13.62958 47.342001,22.91471 91.183231,32.14159 6.95839,1.46447 19.53989,3.5618 29,4.83429 21.64166,2.91103 25.14679,3.29141 42,4.55785 7.7,0.57862 16.025,1.21913 18.5,1.42334 9.36443,0.77269 89.97676,-0.3014 100.5,-1.33906 z m -186,-22.92651 c -9.59518,-4.36998 -14.8381,-15.1763 -12.48344,-25.72992 1.75001,-7.843522 5.22035,-12.155822 12.48344,-15.512092 4.38811,-2.02775 13.75398,-2.50666 17.9349,-0.91708 2.4398,0.92761 2.5651,1.34281 2.5651,8.5 0,4.138612 -0.3375,7.510442 -0.75,7.492952 -0.4125,-0.0175 -1.62351,-0.6925 -2.69113,-1.5 -1.06762,-0.80751 -3.67558,-1.4682 -5.79545,-1.4682 -7.89165,0 -11.81313,9.0412 -6.30887,14.54545 2.97662,2.97663 6.76234,3.14803 11.88183,0.53797 l 3.75927,-1.91659 -0.29783,8.12221 c -0.28236,7.70047 -0.42763,8.15828 -2.79782,8.81691 -4.86933,1.35308 -13.44056,0.8772 -17.5,-0.97161 z m 26.5,-20.63434 0,-21.500002 7.5,0 7.5,0 0,14.500002 0,14.5 8,0 8,0 0,7 0,7 -15.5,0 -15.5,0 0,-21.5 z m 36,0 0,-21.500002 8,0 8,0 0,21.500002 0,21.5 -8,0 -8,0 0,-21.5 z m 20.88158,20.75 c -0.0651,-0.4125 -0.0599,-1.10332 0.0117,-1.53515 0.0716,-0.43184 1.53242,-9.20684 3.24632,-19.5 1.7139,-10.29317 3.13362,-19.277352 3.15495,-19.964852 0.0278,-0.89568 2.37329,-1.25 8.2747,-1.25 l 8.23593,0 2.19937,7.24096 c 1.20966,3.982532 2.43914,8.718462 2.73219,10.524292 0.74553,4.5942 1.90119,4.8532 2.5944,0.58145 0.32253,-1.98747 1.57051,-6.92853 2.7733,-10.980142 l 2.18691,-7.36656 8.14238,0 8.14238,0 1.69295,11.250002 c 0.93112,6.1875 1.9401,12.6 2.24218,14.25 3.50776,19.16006 3.97631,17.5 -4.93928,17.5 l -7.42805,0 -0.63052,-5.25 c -0.34679,-2.8875 -0.96358,-8.175 -1.37064,-11.75 l -0.74013,-6.5 -1.75619,6 c -0.9659,3.3 -2.51899,8.475 -3.45131,11.5 l -1.69512,5.5 -4.56596,0.29728 -4.56597,0.29727 -3.43403,-11.52676 c -3.85691,-12.94616 -4.22954,-12.7863 -5.42577,2.3277 l -0.72059,9.10451 -7.39384,0 c -4.06661,0 -7.44713,-0.3375 -7.51226,-0.75 z m 62.12151,0.0404 c 0.002,-0.43474 3.32888,-10.01544 7.39375,-21.29044 l 7.39066,-20.500002 8.88227,-0.28456 8.88227,-0.28456 3.27899,9.78456 c 1.80345,5.381512 5.04621,14.734562 7.20614,20.784562 2.15993,6.05 3.93517,11.3557 3.94499,11.79044 0.01,0.43475 -3.69466,0.65975 -8.23216,0.5 -7.69161,-0.27078 -8.27163,-0.44273 -8.56955,-2.54044 -0.29314,-2.06403 -0.84531,-2.25 -6.68045,-2.25 -5.83514,0 -6.38731,0.18597 -6.68045,2.25 -0.29792,2.09771 -0.87794,2.26966 -8.56955,2.54044 -4.5375,0.15975 -8.24861,-0.0652 -8.24691,-0.5 z m 26.55356,-16.19877 c -0.30876,-0.49959 -1.16617,-3.53709 -1.90536,-6.75 l -1.34398,-5.84167 -1.08996,5.00223 c -0.59948,2.75123 -1.39177,5.78873 -1.76065,6.75 -0.56325,1.46782 -0.0835,1.74777 2.99533,1.74777 2.0163,0 3.41338,-0.40875 3.10462,-0.90833 z m 27.44335,2.40837 0,-14.5 -4.5,0 -4.5,0 0,-7.000002 0,-7 16.5,0 16.5,0 0,7 0,7.000002 -4.5,0 -4.5,0 0,14.5 0,14.5 -7.5,0 -7.5,0 0,-14.5 z m 29,-7 0,-21.500002 14.5,0 14.5,0 0,5.45431 0,5.454312 -6.75,0.29569 c -5.98477,0.26217 -6.75,0.52242 -6.75,2.29569 0,1.75674 0.76634,2.03637 6.30056,2.29903 l 6.30056,0.29903 -0.30056,5.20097 -0.30056,5.20097 -6.25,0.29772 c -5.37942,0.25625 -6.25,0.56355 -6.25,2.20619 0,1.67545 0.8852,1.94434 7.25,2.20228 l 7.25,0.29381 0.2999,5.75 0.29991,5.75 -15.04991,0 -15.0499,0 0,-21.5 z M 110.87898,76.521468 c -6.31752,-1.00506 -12.251898,-5.59367 -15.488264,-11.97593 -10.465276,-20.638 12.533554,-41.30534 32.858134,-29.52715 3.4202,1.98203 7.39186,6.17595 7.39186,7.80554 0,0.2273 -2.7437,1.43934 -6.09711,2.69343 -5.78433,2.16319 -6.24112,2.1951 -8.90429,0.62192 -3.90134,-2.30457 -6.67455,-2.07319 -9.54405,0.79631 -1.84901,1.849 -2.45455,3.52103 -2.45455,6.77749 0,7.17684 5.02351,11.85012 10.5,9.76796 3.61226,-1.37338 3.07006,-3 -1,-3 l -3.5,0 0,-5 0,-5 11.94098,0 c 6.79846,0 12.20439,0.42619 12.5526,0.98962 1.21299,1.96266 -1.52977,12.55698 -4.2452,16.39775 -4.72955,6.68958 -14.41386,10.17973 -24.01011,8.65306 z m 33.76173,-5.01475 c 0,-4.58761 0.24947,-5.10332 3.20904,-6.63378 2.68098,-1.38638 4.61451,-1.52263 11.75,-0.82795 4.69753,0.45733 11.80346,0.8467 15.79096,0.86526 l 7.25,0.0338 0,4.23333 c 0,5.93829 -1.95542,6.80733 -12.93712,5.74961 -12.29632,-1.18434 -20.85921,-1.04958 -22.2591,0.35031 -2.15697,2.15698 -2.80378,1.28715 -2.80378,-3.77054 z m 46.23011,-17.27568 0.26989,-21.25 7.5,-0.28244 7.5,-0.28244 6.5,10.78244 6.5,10.78244 0.28427,-10.79312 0.28427,-10.79311 7.21573,0.29311 7.21573,0.29312 0.26989,21.25 0.26989,21.25 -8.00392,0 -8.00391,0 -6.26597,-10.7485 -6.26598,-10.74849 -0.28383,10.74849 -0.28383,10.7485 -7.48606,0 -7.48606,0 0.26989,-21.25 z m 51.76989,-0.27745 0,-21.52746 14.25,0.27746 14.25,0.27745 0,5.5 0,5.5 -6.75,0.29569 c -5.86971,0.25713 -6.75,0.54434 -6.75,2.20229 0,1.64033 0.87283,1.94816 6.25,2.20431 l 6.25,0.29771 0.30226,5.25 0.30226,5.25 -6.55226,0 c -6.32241,0 -6.55226,0.0877 -6.55226,2.5 0,2.42857 0.2,2.5 7,2.5 l 7,0 0,5.5 0,5.5 -14.5,0 -14.5,0 0,-21.52745 z m 36,-0.0707 0,-21.59812 13.25,0.374 c 18.77877,0.53006 23.03571,3.22288 23.03571,14.57171 0,5.29549 -0.24254,5.87414 -3.72348,8.88317 l -3.72349,3.2187 5.08063,7.52916 c 2.79435,4.14105 5.08063,7.77449 5.08063,8.07433 0,0.29984 -3.81879,0.54516 -8.48621,0.54516 l -8.48621,0 -3.46461,-6.75 c -1.90553,-3.7125 -3.52359,-6.3 -3.59569,-5.75 -0.0721,0.55 -0.0624,3.5875 0.0216,6.75 l 0.15259,5.75 -7.57073,0 -7.57074,0 0,-21.59811 z m 20.06574,-2.43707 c 4.04169,-2.16305 1.46463,-8.4736 -3.18188,-7.79158 -1.86717,0.27406 -2.21205,0.93157 -2.13837,4.07676 0.0483,2.0625 0.12534,3.975 0.17118,4.25 0.14298,0.85791 3.12524,0.54794 5.14907,-0.53518 z m 23.93426,23.8043 c 0,-0.17147 3.33033,-9.75217 7.40072,-21.29044 l 7.40073,-20.97868 8.84927,0 8.84928,0 7.19497,20.5 c 3.95723,11.275 7.21973,20.8557 7.25,21.29044 0.0303,0.43475 -3.65747,0.65975 -8.19497,0.5 -7.69161,-0.27078 -8.27163,-0.44273 -8.56955,-2.54044 -0.29314,-2.06402 -0.84531,-2.25 -6.68045,-2.25 -5.83514,0 -6.38731,0.18598 -6.68045,2.25 -0.29792,2.09771 -0.87794,2.26966 -8.56955,2.54044 -4.5375,0.15975 -8.25,0.15015 -8.25,-0.0213 z m 26.97369,-15.01912 c -0.22104,-2.10059 -3.87032,-13.75657 -3.91352,-12.5 -0.0331,0.9625 -0.0285,1.8625 0.0101,2 0.0387,0.1375 -0.34544,1.375 -0.85358,2.75 -0.50813,1.375 -1.22333,3.7375 -1.58935,5.25 -0.63041,2.6051 -0.48005,2.75 2.85358,2.75 1.93548,0 3.50721,-0.1125 3.49274,-0.25 z m 25.02631,-6.25 0,-21.5 7.5,0 7.5,0 0,15 0,15 8,0 8,0 0,6.5 0,6.5 -15.5,0 -15.5,0 0,-21.5 z m -230,3.26198 c 0,-7.09571 2.12402,-8.34888 13.36344,-7.88439 5.02511,0.20768 12.62445,0.43268 16.88742,0.5 l 7.75085,0.12241 -8.5e-4,4.12756 c -5.1e-4,2.43761 -0.61152,4.63436 -1.49235,5.36538 -1.87023,1.55215 -8.74625,1.57315 -18.7084,0.0571 -7.31644,-1.1134 -10.48258,-0.82766 -16.05011,1.44847 -1.51175,0.61804 -1.75,0.10932 -1.75,-3.73656 z m 0,-15.13194 c 0,-3.73204 0.44495,-4.87547 2.39423,-6.15269 3.66071,-2.39859 8.63348,-2.82434 16.73342,-1.43263 8.16253,1.40245 13.38143,1.56326 16.68685,0.51416 2.04956,-0.65051 2.1855,-0.38086 2.1855,4.33519 0,5.02049 -0.007,5.03063 -3.99852,6.10553 -3.0043,0.80898 -6.36285,0.72796 -13.50732,-0.32584 -8.87136,-1.30851 -14.23913,-1.07714 -18.74416,0.80795 -1.51865,0.63547 -1.75,0.12628 -1.75,-3.85167 z"
     style="fill:#4b4b4b;fill-opacity:1" />
</svg>
