<?xml version="1.0" encoding="UTF-8" standalone="no"?>
<svg
   xmlns:dc="http://purl.org/dc/elements/1.1/"
   xmlns:cc="http://creativecommons.org/ns#"
   xmlns:rdf="http://www.w3.org/1999/02/22-rdf-syntax-ns#"
   xmlns:svg="http://www.w3.org/2000/svg"
   xmlns="http://www.w3.org/2000/svg"
   viewBox="0 0 1999.819 942.66699"
   height="942.66699"
   width="1999.819"
   version="1.1"
   id="svg2">
  <metadata
     id="metadata8">
    <rdf:RDF>
      <cc:Work
         rdf:about="">
        <dc:format>image/svg+xml</dc:format>
        <dc:type
           rdf:resource="http://purl.org/dc/dcmitype/StillImage" />
        <dc:title></dc:title>
      </cc:Work>
    </rdf:RDF>
  </metadata>
  <defs
     id="defs6" />
  <path
     id="path4138"
     d="M 434.81924,941.72827 C 346.75169,934.79092 261.93936,903.01187 190.76979,850.28332 155.98222,824.50968 118.35413,786.95374 93.132939,752.83367 15.697112,648.07589 -14.946824,519.6977 6.8427079,391.33367 28.198901,265.5225 100.92019,152.91855 207.31924,80.909448 c 75.657,-51.20338 159.4567,-78.0576797 251.87601,-80.7157797 105.64603,-3.0384 208.95958,29.7454997 294.16617,93.3461497 32.47218,24.238172 63.81909,54.820802 89.11138,86.938712 52.06117,66.11089 86.40741,148.24636 96.74479,231.35514 5.47511,44.01787 4.60478,92.48129 -2.44179,135.96776 -8.82013,54.43161 -28.66436,110.20149 -56.4095,158.53224 -13.14128,22.8915 -34.94279,53.60944 -51.81045,73 -16.78869,19.29977 -43.74126,45.25004 -62.54956,60.2235 -75.36452,59.99832 -164.26553,94.94234 -260.13694,102.25115 -15.47868,1.18002 -55.6281,1.13479 -71.05011,-0.0801 z m 79,-77.41613 c 173.3501,-19.17683 313.93737,-149.62618 345.3846,-320.47847 4.10002,-22.27534 5.72454,-39.15527 6.32812,-65.75347 l 0.57306,-25.25347 -140.89289,0.25347 -140.89289,0.25347 -0.27254,18.24603 -0.27255,18.24603 122.27255,0.25397 122.27254,0.25397 -0.31,6.5 c -1.99224,41.77358 -14.82378,89.67967 -35.22199,131.5 -17.45939,35.79521 -38.15668,64.90658 -66.75168,93.88831 -57.17542,57.9487 -128.21511,93.022 -211.21633,104.28051 -18.56662,2.51843 -68.49764,2.52743 -87.25873,0.0157 -85.84212,-11.49234 -161.30714,-49.87943 -217.70977,-110.74323 -51.8323,-55.93199 -82.93054,-121.9407 -93.72587,-198.94129 -2.22691,-15.884 -2.54952,-72.08989 -0.49937,-87 9.16744,-66.67189 30.90808,-121.29413 68.0611,-171 54.49307,-72.90459 130.88927,-121.38165 218.21957,-138.4708 21.83879,-4.2735 36.33143,-5.70927 63.16307,-6.2575 l 25.75,-0.52614 0,-18.521162 0,-18.52117 -25.25,0.58917 c -32.1911,0.75113 -53.05893,3.1657 -80.75,9.34342 -99.77199,22.258532 -188.23334,83.836042 -244.34353,170.086322 -28.15108,43.27267 -46.461768,88.30823 -56.628009,139.27786 -8.084883,40.5345 -9.223356,91.07691 -3.007102,133.5 12.287058,83.85354 51.107471,160.88309 111.400891,221.04767 69.87884,69.7295 158.51906,109.5176 258.07775,115.84381 12.11214,0.76964 49.40625,-0.35389 63.5,-1.91301 z m 70,-204.97847 0,-18.5 -46.4974,0 -46.49739,0 -0.25261,-188.25 -0.2526,-188.25 -18.75,-0.27207 -18.75,-0.27206 0,207.02206 0,207.02207 65.5,0 65.5,0 0,-18.5 z M 335.77653,375.18961 c 24.834,-6.97304 41.48927,-28.79345 41.48927,-54.35594 0,-46.92903 -53.25365,-73.13012 -90.92835,-44.73725 -22.87847,17.24195 -28.97011,50.81326 -13.53009,74.56483 6.95695,10.70195 15.73584,17.9779 27.16991,22.51845 12.06351,4.7905 23.59134,5.43772 35.79926,2.00991 z M 1723.8193,717.23828 c -76.5218,-11.11982 -132.8918,-62.51097 -158.3948,-144.40461 -16.7234,-53.70158 -18.9525,-124.07192 -5.6542,-178.5 10.4334,-42.70252 28.0158,-75.87357 55.049,-103.85573 18.1779,-18.81597 34.7679,-30.82108 58.1987,-42.11456 37.1419,-17.90211 78.1168,-25.72272 126.8013,-24.20172 59.0651,1.84531 106.8958,18.52436 145.2688,50.65665 31.5327,26.40452 46.0696,55.36567 53.2136,106.01536 0.8145,5.775 1.4892,11.0625 1.4993,11.75 0.014,0.98874 -15.2295,1.25 -72.9364,1.25 l -72.9547,0 -0.5903,-3.75 c -1.1468,-7.28435 -5.6175,-19.68134 -9.2605,-25.67847 -13.0058,-21.41053 -39.5457,-33.17184 -66.974,-29.67991 -41.4907,5.28223 -67.5161,38.4866 -76.8967,98.10838 -2.5797,16.39645 -2.608,62.37614 -0.049,79.39391 7.9262,52.70564 29.6771,85.68633 64.1796,97.31464 7.4114,2.49786 9.2507,2.69973 25,2.74384 19.5455,0.0547 25.0943,-1.03011 38,-7.42941 18.9589,-9.40076 31.6856,-27.36265 39.9839,-56.43159 1.3988,-4.89973 2.8196,-10.63723 3.1575,-12.75 l 0.6142,-3.84139 -44.6278,0 -44.6278,0 0,-49.5 0,-49.5 109,0 109,0 0,137 0,137 -59.5,0 -59.5,0 0,-23.14913 0,-23.14913 -4.8584,6.39913 c -20.4099,26.88247 -52.9097,44.4237 -93.2699,50.34091 -13.2259,1.93905 -45.4121,1.91872 -58.8717,-0.0372 z m -545,-245.90461 0,-235.5 69.4972,0 69.4973,0 0.2527,176.75 0.2528,176.75 103.25,0.25467 103.25,0.25467 0,58.49533 0,58.49533 -173,0 -173,0 0,-235.5 z"
     style="fill:#4b4b4b;fill-opacity:1" />
</svg>
