<?xml version="1.0" encoding="UTF-8" standalone="no"?>
<svg
   xmlns:dc="http://purl.org/dc/elements/1.1/"
   xmlns:cc="http://creativecommons.org/ns#"
   xmlns:rdf="http://www.w3.org/1999/02/22-rdf-syntax-ns#"
   xmlns:svg="http://www.w3.org/2000/svg"
   xmlns="http://www.w3.org/2000/svg"
   viewBox="0 0 511.98545 141.06741"
   height="141.06741"
   width="511.98544"
   version="1.1"
   id="svg2">
  <metadata
     id="metadata8">
    <rdf:RDF>
      <cc:Work
         rdf:about="">
        <dc:format>image/svg+xml</dc:format>
        <dc:type
           rdf:resource="http://purl.org/dc/dcmitype/StillImage" />
        <dc:title></dc:title>
      </cc:Work>
    </rdf:RDF>
  </metadata>
  <defs
     id="defs6" />
  <path
     id="path4138"
     d="M 0.01103723,140.32565 C -0.35130277,139.67088 8.2311742,123.87396 22.303045,99.294918 L 25.598209,93.53933 46.57271,93.42958 c 11.535976,-0.0604 23.605731,-0.40166 26.821675,-0.75843 L 79.241565,92.02247 68.918243,73.82023 C 51.705821,43.471 53.191377,46.89052 55.244484,42.34535 59.254934,33.46702 78.971125,0 80.191105,0 c 0.72495,0 7.13335,10.23695 14.2409,22.74876 l 12.922815,22.74877 -3.18605,5.56584 c -1.75233,3.06122 -7.642475,13.52933 -13.089195,23.26248 l -9.90313,17.69662 5.32021,0.65842 c 2.92612,0.36213 14.648885,0.71039 26.050565,0.77392 11.40169,0.0635 21.20039,0.44981 21.77491,0.85843 0.57451,0.40862 2.91217,3.928335 5.19478,7.8216 6.13745,10.46813 21.56964,38.03885 21.56964,38.53573 0,0.23644 -12.17275,0.30869 -27.05056,0.16055 L 106.98543,140.5618 93.892535,117.55618 c -7.20109,-12.65309 -13.34435,-22.99985 -13.65169,-22.9928 -0.54016,0.0124 -7.45655,11.72175 -20.599568,34.87483 l -6.314391,11.12359 -26.443462,0.26947 C 12.33952,140.97947 0.24694623,140.75197 0.01103723,140.32565 Z M 181.31127,117.80899 l 0,-23.25843 15.16854,0 15.16854,0 0,3.53933 0,3.53933 -7.96348,0 c -4.37992,0 -9.38553,0.28441 -11.1236,0.63202 -2.95682,0.59136 -3.16011,0.91436 -3.16011,5.02081 l 0,4.38877 10.36517,0.28819 10.36517,0.28819 0.31386,3.79213 0.31384,3.79213 -10.72727,0 -10.72727,0 0.30105,6.32023 0.30107,6.32022 11.3764,0.28593 11.37641,0.28593 0,4.01182 0,4.01183 -15.67416,0 -15.67416,0 0,-23.25843 z m 39.0152,22.38085 c -0.31737,-0.51351 -0.8795,-10.99242 -1.24918,-23.28646 l -0.67215,-22.35282 4.7115,0 4.71149,0 0.009,13.39888 c 0.005,7.36938 0.28928,15.73334 0.63211,18.58657 l 0.62332,5.18768 10.04185,0.71194 10.04184,0.71193 -0.30879,3.70712 -0.30909,3.70712 -13.82749,0.28084 c -7.69907,0.15638 -14.08323,-0.13294 -14.40451,-0.6528 z m 34.80503,-22.38085 0,-23.25843 15.22959,0 15.22958,0 -0.31385,3.792139 -0.31386,3.792141 -10.87078,0.28701 -10.87079,0.28702 0,4.48098 0,4.48097 10.36517,0.28819 10.36517,0.28819 0.31386,3.79213 0.31384,3.79213 -10.67901,0 -10.67903,0 0,5.93733 0,5.93731 11.01281,0.71377 11.01279,0.71377 0.61642,3.08205 c 0.33903,1.69514 0.61641,3.48024 0.61641,3.9669 0,0.48666 -7.05337,0.88483 -15.67416,0.88483 l -15.67416,0 0,-23.25843 z m 47.02248,21.37696 c -7.11815,-4.39684 -9.80899,-10.41735 -9.80899,-21.94679 0,-8.90532 1.32926,-12.80176 6.13229,-17.975502 3.83501,-4.130998 7.45161,-5.724858 12.98041,-5.720548 5.79598,0.005 10.58268,2.608176 13.45456,7.31844 2.8632,4.69602 2.58462,6.54972 -1.10612,7.36034 -2.71299,0.59587 -3.56089,0.20803 -6.45661,-2.95336 -7.56217,-8.255962 -16.7124,-1.59885 -16.7124,12.15884 0,8.76258 4.01568,15.55016 9.19981,15.55016 3.01599,0 9.00244,-4.39103 9.00244,-6.60325 0,-0.752 0.37997,-1.60211 0.84438,-1.88913 1.37081,-0.84721 8.25675,1.64302 8.25675,2.98597 0,0.67809 -1.47894,3.43523 -3.28652,6.12697 -2.50033,3.72332 -4.25413,5.18349 -7.33146,6.10398 -6.02056,1.80087 -11.73215,1.60653 -15.16854,-0.51612 z m 42.5801,0.28191 c -0.3376,-0.87976 -0.61381,-9.50311 -0.61381,-19.16302 l 0,-17.56345 -5.81461,-0.30328 -5.8146,-0.30327 -0.31386,-3.792141 -0.31385,-3.792139 16.80748,0 16.80748,0 -0.31384,3.792139 -0.31386,3.792141 -5.81461,0.30327 -5.8146,0.30328 -0.007,12.33716 c -0.004,6.78546 -0.29729,15.40881 -0.65185,19.16303 l -0.64466,6.82584 -3.28491,0 c -2.06255,0 -3.5133,-0.59521 -3.89871,-1.59956 z m 26.35249,0.9254 c -0.37079,-0.37078 -0.67416,-10.87233 -0.67416,-23.33678 l 0,-22.66262 13.73716,0.33116 13.73717,0.33116 3.05961,3.427118 c 2.81679,3.155162 3.02564,3.896352 2.63188,9.340082 -0.43218,5.97491 -3.39354,10.99685 -6.48466,10.99685 -2.5417,0 -2.58147,2.24085 -0.0867,4.88554 2.36567,2.50782 9.81002,15.17094 9.81002,16.68721 0,0.37094 -1.7409,0.67444 -3.86867,0.67444 -4.53833,0 -6.04604,-1.40131 -12.32451,-11.45469 -4.27502,-6.84536 -8.3367,-9.92554 -10.38603,-7.87621 -0.53293,0.53293 -1.20454,5.1004 -1.49244,10.14994 l -0.5235,9.18096 -3.23053,0 c -1.77678,0 -3.53389,-0.30337 -3.90467,-0.67416 z m 23.41267,-32.08807 c 0.4056,-4.95324 -0.63184,-5.62957 -8.66548,-5.64925 l -6.32023,-0.0155 0,5.10049 0,5.10048 7.33146,-0.29711 7.33146,-0.29711 0.32279,-3.94201 z m 17.37384,9.5038 0,-23.25843 4.04495,0 4.04494,0 0,23.25843 0,23.25843 -4.04494,0 -4.04495,0 0,-23.25843 z m 27.80899,22.51744 c -3.65183,-0.91435 -7.59291,-4.41332 -9.79716,-8.6981 -2.62392,-5.10056 -3.60855,-17.37329 -1.9008,-23.69217 1.30239,-4.81904 5.98657,-10.7109 10.281,-12.93163 6.13782,-3.17399 17.08573,-0.68415 21.00963,4.778128 3.04115,4.233462 3.21826,5.736112 0.86994,7.380942 -3.22644,2.25989 -4.55098,1.94006 -8.26228,-1.99506 -4.10938,-4.35721 -8.53634,-4.76714 -12.17602,-1.12747 -7.03676,7.03676 -4.8988,26.53637 3.13045,28.55159 3.59719,0.90284 9.05851,-2.06673 10.72505,-5.83169 1.45686,-3.29129 1.39276,-3.27186 5.76638,-1.74721 2.8567,0.99584 3.18018,1.46759 2.60025,3.79213 -1.01184,4.05575 -5.44273,9.28159 -9.20119,10.85198 -3.30555,1.38113 -9.02795,1.6744 -13.04525,0.66856 z m -258.3708,-80.71176 0,-23.8123 6.24409,0.30106 6.24409,0.30107 3.47418,14.54215 c 2.28818,9.57779 3.77052,14.06556 4.34226,13.14606 0.47745,-0.76784 2.28664,-7.42557 4.02044,-14.79495 l 3.15236,-13.39888 6.48601,0 6.48601,0 0,23.25843 0,23.25842 -4.04494,0 -4.04494,0 0,-15.84269 c 0,-8.71349 -0.22385,-15.61885 -0.49745,-15.34525 -0.2736,0.2736 -2.07354,7.24966 -3.99989,15.50235 -1.92633,8.2527 -4.09153,15.37863 -4.81154,15.83539 -2.01359,1.27738 -5.48497,1.01453 -6.75122,-0.51121 -0.62655,-0.75495 -2.69673,-7.92209 -4.60039,-15.92696 l -3.46118,-14.55432 -0.074,15.92696 -0.074,15.92697 -4.04494,0 -4.04495,0 0,-23.8123 z m 48.7735,0.30106 0.27145,-23.51123 3.79213,-0.31386 3.79214,-0.31385 0,23.82509 0,23.82509 -4.06358,0 -4.06358,0 0.27144,-23.51124 z m 26.26022,22.29776 c -0.85541,-0.85541 -1.21349,-6.67416 -1.21349,-19.71911 l 0,-18.50561 -6.12846,0 -6.12846,0 0.31385,-3.79214 0.31386,-3.79213 16.68539,0 16.6854,0 0.31385,3.79213 0.31385,3.79214 -6.63407,0 -6.63408,0 0,19.7191 0,19.7191 -3.33708,0 c -1.8354,0 -3.88315,-0.54607 -4.55056,-1.21348 z m 32.50759,-0.25315 c -3.89487,-1.69456 -8.44018,-8.11073 -8.44018,-11.91418 0,-2.52791 0.34486,-2.79897 3.56101,-2.79897 2.84474,0 3.79965,0.52376 4.74743,2.60393 3.3661,7.38778 15.96123,6.94384 15.96123,-0.56259 0,-2.70828 -0.56243,-3.11244 -8.50061,-6.1085 -10.25705,-3.87126 -13.79528,-7.13391 -14.42318,-13.29979 -0.83825,-8.23148 5.53952,-13.98136 15.50812,-13.98136 6.24099,0 11.39656,2.69109 13.90777,7.25955 2.58273,4.69857 1.64451,6.89775 -2.94272,6.89775 -2.86003,0 -3.82991,-0.52052 -4.75567,-2.55233 -1.84635,-4.0523 -10.0604,-4.87769 -12.33823,-1.2398 -1.85826,2.96779 0.52229,5.11529 8.7673,7.90898 4.22034,1.42999 8.41689,3.21707 9.32567,3.97129 7.01224,5.81964 5.50878,19.35402 -2.61174,23.51141 -4.15519,2.1273 -13.21961,2.28271 -17.7662,0.30461 z m 40.35826,-0.13164 c -1.80412,-0.92507 -4.26536,-3.27595 -5.46942,-5.22416 -2.02328,-3.27374 -2.19621,-4.93145 -2.28158,-21.87113 l -0.0924,-18.32891 4.23193,-0.30774 4.23192,-0.30774 0.31864,17.84303 c 0.30982,17.3495 0.38467,17.89644 2.70594,19.77403 1.31303,1.06205 3.65166,1.931 5.19697,1.931 1.54531,0 3.88393,-0.86895 5.19696,-1.931 2.32074,-1.87716 2.39617,-2.42702 2.7053,-19.7191 l 0.31799,-17.7881 4.64527,0 4.64526,0 -0.65181,18.73161 c -0.6994,20.09898 -1.44304,23.21764 -6.29411,26.39618 -3.74463,2.45358 -15.25799,2.92939 -19.40688,0.80203 z m 35.13415,-22.00972 0,-23.9201 6.32023,0.0519 c 12.88238,0.10584 19.84393,1.38291 22.60843,4.14742 3.7158,3.71579 4.32169,9.79474 1.44085,14.45604 l -2.23826,3.62159 3.12539,3.55962 c 2.29463,2.61343 3.12497,4.55826 3.12382,7.31657 -0.002,4.94585 -2.87084,10.5167 -6.23897,12.11547 -1.48567,0.7052 -8.42528,1.5723 -15.42135,1.92688 l -12.72014,0.64468 0,-23.9201 z m 23.40573,13.4168 c 2.34735,-1.25626 2.45661,-5.69247 0.20159,-8.18424 -1.31083,-1.44845 -3.17392,-1.84929 -8.59551,-1.84929 l -6.92192,0 0,6.20706 0,6.20706 6.72033,-0.68851 c 3.69619,-0.37869 7.56417,-1.14012 8.59551,-1.69208 z m -2.33795,-19.73742 c 1.71902,-1.20405 2.22566,-2.41398 1.99466,-4.76363 -0.35277,-3.58847 -2.3048,-4.48013 -10.16918,-4.64516 l -4.80337,-0.1008 0,5.56179 0,5.5618 5.33679,0 c 3.24993,0 6.23786,-0.63113 7.6411,-1.614 z m 20.62707,6.41737 0.27145,-23.51123 3.79213,-0.31386 3.79214,-0.31385 0,23.82509 0,23.82509 -4.06358,0 -4.06359,0 0.27145,-23.51124 z m 24.05628,22.38266 c -3.5882,-1.43164 -6.01548,-3.86904 -8.28885,-8.3234 -2.53614,-4.96921 -1.85199,-6.7278 2.61736,-6.7278 2.8091,0 3.86311,0.5912 5.25505,2.94754 3.12837,5.29591 9.32584,6.65315 13.91096,3.04648 4.76075,-3.7448 2.72669,-6.71235 -6.86219,-10.01141 -11.9427,-4.10889 -15.79543,-8.71304 -14.252,-17.03166 1.22903,-6.62413 6.38948,-10.31359 14.37451,-10.27705 7.10932,0.0325 13.17056,3.10911 15.0669,7.6477 2.01471,4.82188 1.26692,6.48739 -2.91276,6.48739 -2.58396,0 -3.90958,-0.71509 -5.6238,-3.03371 -1.81042,-2.44872 -2.98684,-3.0337 -6.10086,-3.0337 -2.57368,0 -4.46723,0.67325 -5.68825,2.02247 -1.69832,1.87662 -1.71095,2.15436 -0.17512,3.85144 0.91036,1.00594 4.59085,2.86535 8.17888,4.13203 3.58801,1.26667 8.26061,3.80452 10.38355,5.63965 3.6065,3.11758 3.85988,3.70442 3.85988,8.93989 0,6.52067 -2.21642,10.3077 -7.65615,13.08148 -3.79139,1.93327 -12.02772,2.26231 -16.08711,0.64266 z m 32.00169,0.45442 c -0.37079,-0.37078 -0.67416,-11.09077 -0.67416,-23.82219 l 0,-23.14803 4.29775,0.31095 4.29776,0.31096 0.29217,8.84831 0.29219,8.84832 8.01114,0 8.01114,0 0.29219,-8.84832 0.29218,-8.84831 3.79213,-0.31386 3.79214,-0.31385 0,23.82509 0,23.82509 -4.04495,0 -4.04494,0 0,-10.11236 0,-10.11236 -8.08989,0 -8.08989,0 -0.0137,7.83708 c -0.0194,11.01403 -0.51686,12.38764 -4.48616,12.38764 -1.78906,0 -3.55622,-0.30337 -3.927,-0.67416 z m 42.03192,-22.83708 0.27145,-23.51123 3.79213,-0.31386 3.79214,-0.31385 0,23.82509 0,23.82509 -4.06358,0 -4.06358,0 0.27144,-23.51124 z"
     style="fill:#4b4b4b;fill-opacity:1" />
</svg>
