<?xml version="1.0" encoding="UTF-8" standalone="no"?>
<svg
   xmlns:dc="http://purl.org/dc/elements/1.1/"
   xmlns:cc="http://creativecommons.org/ns#"
   xmlns:rdf="http://www.w3.org/1999/02/22-rdf-syntax-ns#"
   xmlns:svg="http://www.w3.org/2000/svg"
   xmlns="http://www.w3.org/2000/svg"
   viewBox="0 0 404.10513 128.96579"
   height="128.96579"
   width="404.10513"
   version="1.1"
   id="svg2">
  <metadata
     id="metadata8">
    <rdf:RDF>
      <cc:Work
         rdf:about="">
        <dc:format>image/svg+xml</dc:format>
        <dc:type
           rdf:resource="http://purl.org/dc/dcmitype/StillImage" />
        <dc:title></dc:title>
      </cc:Work>
    </rdf:RDF>
  </metadata>
  <defs
     id="defs6" />
  <path
     id="path4138"
     d="m 192.60669,128.16739 c -1.17076,-0.4742 -6.26543,-8.34553 -13.00753,-20.09683 -6.09564,-10.624529 -11.45225,-19.317329 -11.90358,-19.317329 -0.45132,0 -0.82058,8.648437 -0.82058,19.218749 l 0,19.21875 -50.09489,0 -50.094896,0 -19.514483,-13.20698 C 36.437766,106.7199 27.023437,100.16558 26.25,99.418591 24.010435,97.255606 26.18565,96.597256 37.798853,95.923231 43.564171,95.588609 49.968749,94.852165 52.03125,94.286684 61.331901,91.736699 65.909392,85.992406 63.409169,80.008533 60.934087,74.084828 52.126707,71.694365 34.20821,72.082925 l -12.17696,0.264056 -0.248536,27.42188 -0.248535,27.421869 -10.76709,0 L 0,127.19073 0,97.774268 C 0,71.533981 0.167678,68.218893 1.552965,67.071143 c 1.23857,-1.02618 7.074786,-1.28402 28.828125,-1.27363 23.230222,0.0111 28.413375,0.27261 34.950183,1.76341 15.343444,3.49926 22.46308,9.196035 21.578839,17.266306 -0.885253,8.079568 -7.840519,12.215077 -24.800737,14.746182 -2.191406,0.32705 -3.981675,0.873949 -3.978375,1.215349 0.0065,0.66579 30.099825,20.51667 32.49755,21.43676 0.78962,0.30301 1.80852,-0.0379 2.26421,-0.75755 0.45569,-0.71967 0.83499,-9.20892 0.84289,-18.86501 l 0.0143,-17.556505 2.53441,-1.662237 c 2.24968,-1.475496 5.56731,-1.694499 29.53125,-1.949414 l 26.99684,-0.287177 0,3.280437 0,3.280438 -19.29592,0.287989 c -21.90578,0.326942 -21.95403,0.344453 -21.95403,7.967174 l 0,4.039565 18.75,0 18.75,0 0,3.28125 0,3.28125 -18.85922,0 -18.85921,0 0.39211,6.15793 c 0.25506,4.00562 0.86665,6.45816 1.74984,7.0169 0.74675,0.47242 10.95539,0.86542 22.68585,0.87332 l 21.32813,0.0143 0,-17.8125 c 0,-16.086161 0.16822,-17.980723 1.73575,-19.548248 3.12038,-3.120374 15.77852,-3.604125 22.92008,-0.875926 3.00892,1.149461 5.65752,4.808011 13.25896,18.314804 2.9744,5.28515 5.67992,9.59959 6.01224,9.58765 0.33232,-0.0119 3.55734,-5.31804 7.16672,-11.791313 3.60937,-6.473271 7.87417,-12.93749 9.47731,-14.364928 5.45902,-4.86071 21.10521,-4.65207 25.39807,0.338681 2.08543,2.424439 2.15587,3.086689 2.15587,20.26656 0,9.76812 0.34802,17.76022 0.77337,17.76022 0.42536,0 5.24609,-8.12406 10.71273,-18.05346 5.46665,-9.929395 11.0114,-19.060582 12.32167,-20.29152 4.83272,-4.540106 21.92025,-4.552779 26.30396,-0.01951 1.2077,1.248906 6.74616,10.401208 12.3077,20.33844 5.56154,9.93723 10.56187,17.91785 11.11185,17.7347 0.67202,-0.22378 1.08128,-9.76173 1.24789,-29.08332 l 0.24792,-28.750327 9.36146,0 9.36145,0 0,31.425269 0,31.425268 -19.3376,-0.25339 -19.3376,-0.2534 -3.44209,-6.09375 -3.4421,-6.09375 -15.62804,-0.25691 -15.62803,-0.25691 -3.5454,6.56912 -3.54539,6.56912 -13.82813,0.0159 -13.82812,0.0159 0,-18.69467 c 0,-18.827534 -0.48634,-21.580659 -3.30012,-18.681884 -0.68486,0.705542 -5.72785,9.087494 -11.20663,18.626554 -5.4788,9.53906 -10.83096,18.08203 -11.89371,18.98437 -2.04407,1.73557 -5.61065,2.03623 -8.80535,0.74229 z m 93.36186,-29.336029 c -4.0788,-7.617353 -4.97691,-8.706625 -7.38557,-8.957604 -2.56829,-0.26761 -3.04612,0.260575 -7.53755,8.33178 -2.63748,4.739633 -4.79543,8.770553 -4.79543,8.957603 0,0.18705 5.48145,0.34009 12.181,0.34009 l 12.18101,0 -4.64346,-8.671869 z m 73.31773,16.530169 c -12.75391,-8.74368 -16.93156,-12.07359 -16.38119,-13.05704 0.40632,-0.72607 7.78323,-5.759631 16.39313,-11.185691 l 15.65434,-9.865568 6.1728,0 c 3.39504,0 5.97539,0.319407 5.73412,0.709793 -0.24127,0.390388 -5.73947,4.081794 -12.21822,8.203125 -6.47876,4.121332 -11.79063,7.825038 -11.80416,8.230451 -0.0135,0.405421 8.81641,6.52261 19.62209,13.59375 10.80568,7.07115 20.40334,13.35917 21.32813,13.97337 1.33771,0.88845 -1.28914,1.11859 -12.84982,1.12574 l -14.53125,0.009 -17.11997,-11.73692 z M 177.27171,54.765113 c -13.10213,-11.41553 -23.41715,-20.89049 -22.92226,-21.05545 0.49488,-0.16496 11.31329,2.85458 24.04091,6.7101 l 23.14112,7.01003 23.15737,-7.01495 c 12.73656,-3.85822 23.54381,-6.88614 24.01611,-6.72871 0.71797,0.23932 -46.53671,42.049766 -47.34268,41.888303 -0.1477,-0.02959 -10.98845,-9.393783 -24.09057,-20.809323 z m 6.24391,-18.75965 -16.64062,-4.7906 0,-4.51206 c 0,-2.98708 0.39647,-4.51207 1.17306,-4.51207 0.64517,0 8.44986,2.07939 17.34375,4.62086 l 16.17069,4.62087 16.17069,-4.62087 c 8.89389,-2.54147 16.69858,-4.62086 17.34375,-4.62086 1.44793,0 1.62953,8.04473 0.20153,8.92728 -1.30072,0.80389 -32.98874,9.84245 -34.18354,9.75038 -0.51627,-0.0398 -8.42696,-2.2281 -17.57931,-4.86293 z m 6.09375,-13.09532 -9.60937,-2.89722 0,-4.5361 c 0,-2.49485 0.29718,-4.53609 0.6604,-4.53609 0.36322,0 5.21478,1.29005 10.78125,2.86678 l 10.12085,2.86679 10.12085,-2.86679 c 5.56647,-1.57673 10.41803,-2.86678 10.78125,-2.86678 0.36322,0 0.6604,2.0455 0.6604,4.54555 l 0,4.54556 -10.25344,2.95444 c -5.6394,1.62495 -11.0183,2.92444 -11.95312,2.88776 -0.93483,-0.0367 -6.02391,-1.37043 -11.30907,-2.9639 z m 7.03125,-12.65206 -4.45312,-1.3013404 0,-4.65087 c 0,-4.59991997 0.0282,-4.64402997 2.57812,-4.02697997 1.41797,0.34314 3.52735,0.97354997 4.6875,1.40090997 1.16016,0.42736 3.0586,0.42736 4.21875,0 1.16016,-0.42736 3.26954,-1.05776997 4.6875,-1.40090997 2.55293,-0.61779 2.57813,-0.57789 2.57813,4.08147997 0,2.58795 -0.31641,4.70992 -0.70313,4.7155 -0.38671,0.006 -2.60156,0.56666 -4.92187,1.2468504 -3.5303,1.03487 -4.94545,1.02433 -8.67188,-0.0646 z"
     style="fill:#4b4b4b;fill-opacity:1" />
</svg>
