<?xml version="1.0" encoding="UTF-8" standalone="no"?>
<svg
   xmlns:dc="http://purl.org/dc/elements/1.1/"
   xmlns:cc="http://creativecommons.org/ns#"
   xmlns:rdf="http://www.w3.org/1999/02/22-rdf-syntax-ns#"
   xmlns:svg="http://www.w3.org/2000/svg"
   xmlns="http://www.w3.org/2000/svg"
   viewBox="0 0 551.16314 143.81587"
   height="143.81587"
   width="551.16315"
   version="1.1"
   id="svg2">
  <metadata
     id="metadata8">
    <rdf:RDF>
      <cc:Work
         rdf:about="">
        <dc:format>image/svg+xml</dc:format>
        <dc:type
           rdf:resource="http://purl.org/dc/dcmitype/StillImage" />
        <dc:title></dc:title>
      </cc:Work>
    </rdf:RDF>
  </metadata>
  <defs
     id="defs6" />
  <path
     id="path4138"
     d="m 299.62485,142.97165 c -14.709,-2.46836 -21.63804,-8.80874 -22.72484,-20.79427 l -0.47517,-5.24015 13.5535,0 13.55349,0 0.60739,2.76546 c 1.21536,5.53348 11.18891,8.15843 18.84453,4.95972 4.24339,-1.77301 5.66514,-4.44122 6.39428,-12.00018 0.63335,-6.56606 0.0219,-7.97657 -2.26387,-5.22237 -3.93298,4.73895 -21.24966,6.09257 -30.7717,2.40538 -9.26091,-3.58607 -16.2408,-11.730159 -18.80993,-21.947276 l -1.07855,-4.28926 -24.41457,0.23926 -24.41457,0.23927 0.23474,2.97152 c 0.50214,6.35667 5.2041,10.078477 12.73267,10.078477 3.9841,0 4.91373,-0.39143 8.01542,-3.375 1.92973,-1.856247 3.70472,-3.982497 3.94441,-4.724997 0.35644,-1.10413 2.22403,-0.62711 10.25429,2.61912 5.40016,2.183007 11.15584,4.632637 12.7904,5.443617 l 2.97194,1.47451 -5.3782,5.869349 c -8.89017,9.70205 -19.96637,14.2934 -34.48149,14.2934 -22.10721,0 -37.3382,-11.93662 -41.31466,-32.378566 -0.93358,-4.79929 -1.24933,-5.43502 -1.788,-3.6 -1.7291,5.89037 -5.43112,18.319256 -7.56661,25.403566 l -2.37383,7.875 -15.05384,0 -15.05385,0 -3.84666,-17.656119 c -2.11567,-9.710867 -4.07964,-19.623157 -4.36437,-22.027297 -0.5056,-4.26901 -2.07236,-5.35606 -2.07236,-1.43787 0,1.08487 -1.37713,8.45222 -3.06029,16.37189 -1.68316,7.919667 -3.53437,16.728146 -4.11381,19.574396 l -1.05352,5.175 -14.75452,0 c -13.15183,0 -14.8401,-0.17108 -15.54229,-1.575 -0.43327,-0.86625 -2.16876,-6.33199 -3.85666,-12.14608 -1.6879,-5.814089 -3.27141,-10.565916 -3.5189,-10.559636 -0.2475,0.006 -1.44945,2.333267 -2.67099,5.171077 -4.28663,9.958409 -15.12113,17.635089 -29.06311,20.592389 -4.84473,1.02764 -9.86292,1.27067 -19.56591,0.94759 C 27.59512,117.78567 16.0476,113.56892 4.9692195,102.7269 0.44683953,98.301031 -0.57745047,96.828941 0.27248953,95.976901 0.87033953,95.377591 6.5041995,91.576524 12.79217,87.530084 l 11.43267,-7.35715 1.79634,2.40715 c 5.2332,7.01265 12.11055,10.04059 24.36589,10.72774 6.92736,0.388397 8.7945,0.17797 12.34142,-1.39101 4.60617,-2.03753 6.06626,-4.87906 4.25044,-8.27195 -1.48455,-2.77391 -5.14613,-4.06176 -19.14668,-6.73427 -18.6192,-3.55417 -26.60126,-6.7731 -32.7863,-13.22176 -7.3985805,-7.71391 -9.3144705,-21.32894 -4.47508,-31.8016 3.11293,-6.73652 8.56212,-12.44356 15.02668,-15.73773 21.2529,-10.8298898 56.68041,-6.03773 71.36291,9.65303 l 2.53562,2.70974 -6.93981,5.73748 -6.93983,5.73748 14.73851,0.45 14.73852,0.45 2.52867,11.7 c 1.39077,6.435 3.44513,17.1675 4.56525,23.85 l 2.03659,12.15 1.59261,-9.9 c 0.87593,-5.445 2.90885,-16.1775 4.51758,-23.85 l 2.92497,-13.95 12.97211,0 12.97212,0 2.50741,11.7 c 1.37908,6.435 3.44445,16.965 4.58973,23.4 l 2.08232,11.7 1.14286,-6.75 c 0.62858,-3.7125 2.62016,-14.2425 4.42573,-23.4 l 3.28286,-16.65 14.35915,-0.24882 c 7.89754,-0.13684 14.84956,-0.0606 15.44894,0.16938 0.83832,0.32169 0.79473,1.39859 -0.18887,4.66685 -1.76165,5.85352 -1.69848,5.9399 1.91993,2.62557 12.32429,-11.28862 34.18443,-13.69575 50.79277,-5.59307 5.59043,2.72739 13.12316,10.41932 15.74452,16.07728 1.78058,3.84318 2.29335,4.38825 2.78198,2.95722 4.16303,-12.19214 12.57483,-19.70831 24.61144,-21.991 10.5677,-2.00413 19.66709,-0.53757 25.82395,4.16207 l 4.07324,3.10917 -0.28824,-2.96732 -0.28824,-2.96733 13.05,0 13.05,0 0.25927,8.36246 0.25926,8.36246 3.52726,-4.46231 c 8.22351,-10.40351 19.86124,-15.42572 35.68411,-15.39931 17.47753,0.0292 30.14365,5.97785 38.29789,17.9867 1.48757,2.19075 1.52904,2.01894 1.575,-6.525 l 0.0472,-8.775 14.4,0 14.4,0 0,4.499 0,4.499 3.48136,-3.37856 c 5.0688,-4.91909 11.3934,-6.97883 21.26864,-6.92659 12.89515,0.0682 20.32078,4.34482 24.9289,14.35715 2.00385,4.35388 2.08023,5.44244 2.35254,33.525 l 0.28145,29.024996 -15.35645,0 -15.35644,0 0,-22.907656 c 0,-14.87169 -0.35053,-23.67698 -0.99924,-25.10075 -2.64918,-5.8143 -14.71074,-5.45224 -18.08037,0.54273 -0.80013,1.42353 -1.23095,8.69168 -1.46651,24.74068 l -0.33354,22.724996 -14.76017,0 -14.76017,0 0,-9.1543 0,-9.154299 -2.77304,4.186519 c -7.03716,10.62418 -21.04892,16.78762 -38.17696,16.79315 -16.11809,0.005 -29.50627,-6.22755 -36.66929,-17.07107 -1.45649,-2.204859 -1.48761,-2.123609 -1.55134,4.05 -0.24389,23.62655 -6.87345,32.66007 -27.08966,36.91268 -6.85749,1.44252 -24.29745,1.64581 -31.88971,0.37174 z M 404.60768,95.685481 c 6.48179,-3.261927 9.00041,-20.331747 4.36717,-29.598247 -2.59731,-5.19463 -5.42451,-6.9 -11.43893,-6.9 -8.11719,0 -13.10897,6.81635 -13.23476,18.07231 -0.18094,16.18932 8.7135,24.260036 20.30652,18.425937 z m -81.37656,-5.416377 c 3.5254,-2.19442 4.86365,-6.12866 4.83365,-14.21028 -0.0311,-8.3911 -0.73412,-10.87458 -3.91538,-13.83223 -5.0234,-4.67031 -13.63874,-2.93207 -16.87112,3.40393 -3.7188,7.28944 -3.05383,19.27275 1.29625,23.35942 3.80502,3.57464 10.08788,4.12298 14.6566,1.27916 z m -74.45628,-24.22656 c 0,-2.80892 -2.70262,-6.50146 -5.85253,-7.9962 -3.63231,-1.72363 -7.92633,-1.25499 -10.66461,1.16393 -1.79452,1.58524 -4.18286,5.74327 -4.18286,7.28227 0,0.60482 3.72357,0.94469 10.35,0.94469 8.74741,0 10.35,-0.21596 10.35,-1.39469 z M 88.03433,53.262234 c -1.21064,-3.83625 -2.44491,-8.08875 -2.74283,-9.45 -0.64497,-2.94708 -1.29577,-3.0738 -3.46666,-0.675 -2.16809,2.39572 -2.72886,2.30074 -6.7531,-1.14387 -4.29435,-3.6758 -10.30543,-5.81455 -18.45004,-6.56456 -10.23565,-0.94256 -15.74686,1.37078 -15.74686,6.60977 0,3.89912 1.64849,4.5156 25.65,9.59211 7.02622,1.48611 12.84414,3.34097 16.65001,5.30835 3.2175,1.66323 6.12239,3.08574 6.45532,3.16113 0.33293,0.0754 -0.3852,-3.00168 -1.59584,-6.83793 z m 430.04309,-24.3 c 0.29835,-7.18597 0.88053,-10.74202 2.26295,-13.82256 3.83268,-8.5406198 12.00971,-13.6145698 23.90484,-14.83325983 5.52801,-0.56636 5.78507,-0.50364 6.33347,1.54525003 1.06389,3.97488 0.60409,14.8416598 -0.80268,18.9703098 -3.58788,10.52986 -15.63775,17.81526 -29.466,17.81526 l -2.63428,0 0.4017,-9.675 z"
     style="fill:#4b4b4b;fill-opacity:1" />
</svg>
