<?xml version="1.0" encoding="UTF-8" standalone="no"?>
<svg
   xmlns:dc="http://purl.org/dc/elements/1.1/"
   xmlns:cc="http://creativecommons.org/ns#"
   xmlns:rdf="http://www.w3.org/1999/02/22-rdf-syntax-ns#"
   xmlns:svg="http://www.w3.org/2000/svg"
   xmlns="http://www.w3.org/2000/svg"
   viewBox="0 0 887.62415 218.386"
   height="218.386"
   width="887.62415"
   version="1.1"
   id="svg2">
  <metadata
     id="metadata8">
    <rdf:RDF>
      <cc:Work
         rdf:about="">
        <dc:format>image/svg+xml</dc:format>
        <dc:type
           rdf:resource="http://purl.org/dc/dcmitype/StillImage" />
        <dc:title></dc:title>
      </cc:Work>
    </rdf:RDF>
  </metadata>
  <defs
     id="defs6" />
  <path
     id="path4138"
     d="M 163.55598,217.50938 C 145.51042,214.85828 126.01119,204.30547 112.99137,190.14424 98.43668,174.31358 90.83185,156.33798 89.36438,134.29687 l -0.57736,-8.67187 -44.39351,0 L 0,125.625 0,62.8125 0,0 102.65625,0 205.3125,0 l 0,22.44696 0,22.44696 11.48437,5.63109 c 19.14315,9.38637 32.34712,22.41294 41.43801,40.88124 5.76578,11.71328 8.01601,20.37292 8.66848,33.35913 0.89458,17.8049 -1.61987,30.16999 -9.19759,45.23007 -10.33427,20.5385 -30.33516,37.7974 -51.38085,44.33688 -12.20642,3.79286 -29.72112,5.09393 -42.76894,3.17705 z m 40.18958,-7.85318 c 26.03529,-8.88588 45.08453,-27.63926 53.68136,-52.84763 3.99458,-11.71322 4.98362,-18.15753 4.57012,-29.77732 C 261.37272,109.48763 255.16467,92.81883 243.9872,78.67424 238.58611,71.8394 228.51534,62.6194 223.05657,59.51181 212.97312,53.77145 196.93783,47.8125 191.57423,47.8125 l -2.15786,0 -0.25505,-17.57813 -0.25507,-17.57812 -85.72941,-0.23934 c -47.15117,-0.13164 -85.96367,0.0793 -86.25,0.46875 -0.28632,0.38945 -0.40441,23.38387 -0.26241,51.09871 l 0.25817,50.39063 39.11683,0 39.11682,0 0.007,15.23437 c 0.008,16.2531 0.65646,19.89259 5.8075,32.57813 7.07676,17.42805 23.03866,34.35827 40.12281,42.55685 14.08398,6.75881 20.80461,8.05834 39.84375,7.70436 13.86941,-0.25786 16.22757,-0.54658 22.80806,-2.79251 z M 170.625,204.28702 c -9.61223,-1.02085 -23.4605,-5.77955 -31.63776,-10.87172 -8.86395,-5.5198 -19.81247,-16.47672 -24.72242,-24.7414 -30.61317,-51.5296 8.51595,-116.14882 68.27197,-112.74674 27.20513,1.54886 52.21363,18.23293 63.01805,42.04159 1.63793,3.60938 3.33189,7.22047 3.76434,8.02464 3.17819,5.91009 4.37883,29.90121 2.03812,40.72536 -1.58336,7.3219 -8.10243,21.01469 -13.39277,28.13042 -4.78426,6.43503 -13.9661,14.69262 -21.1729,19.04164 -6.10764,3.68571 -15.78031,7.67169 -18.61668,7.67169 -1.16974,0 -2.36928,0.39235 -2.66565,0.87188 -0.48087,0.77806 -3.90907,1.3187 -14.5718,2.29802 -1.80469,0.16575 -6.44531,-0.0347 -10.3125,-0.44537 z m 26.09227,-7.35705 c 15.86507,-4.34034 31.2567,-15.78075 40.39324,-30.0238 2.62047,-4.08508 4.76449,-7.70341 4.76449,-8.04074 0,-0.33732 0.59643,-1.9427 1.3254,-3.5675 2.10942,-4.70171 3.19184,-8.97304 4.34571,-17.14862 3.24823,-23.01494 -7.53689,-48.42971 -26.64841,-62.7961 -4.97448,-3.73938 -13.63441,-8.79071 -15.07068,-8.79071 -0.26693,0 -0.59736,11.91797 -0.7343,26.48438 l -0.24897,26.48437 -2.16166,-6.25554 c -2.53552,-7.33748 -9.61159,-17.81942 -15.34906,-22.73695 -10.79473,-9.25204 -27.89031,-12.91895 -44.1584,-9.47174 -15.39136,3.26143 -25.56653,13.36175 -32.13818,31.90173 -2.69759,7.61047 -2.9369,23.73601 -0.49556,33.39457 6.40903,25.35595 26.34696,45.16229 51.17786,50.8401 3.60937,0.8253 7.40625,1.70107 8.4375,1.94614 3.90431,0.92782 19.96104,-0.41397 26.56102,-2.21959 z M 23.125,107.1875 C 22.78125,106.84375 22.5,86.80469 22.5,62.65625 l 0,-43.90625 80.15625,0 80.15625,0 0,13.92786 0,13.92786 -9.60938,0.52668 c -19.9078,1.09112 -39.7779,9.87503 -53.79694,23.78182 -5.64489,5.59969 -6.26087,6.37317 -12.15963,15.26862 -2.8142,4.24385 -6.4009,12.10371 -9.12163,19.98904 -0.52622,1.52512 -3.16407,1.64062 -37.4705,1.64062 -20.29743,0 -37.18567,-0.28125 -37.52942,-0.625 z m 335.98582,50.54687 c 3.19512,-6.05859 9.83715,-18.5795 14.76007,-27.82424 l 8.95077,-16.80862 -3.60767,-6.62888 C 377.22976,102.82674 369.56364,88.95169 362.17815,75.63917 354.79267,62.32665 348.75,51.25243 348.75,51.0298 c 0,-0.22264 3.76247,-0.4048 8.36104,-0.4048 l 8.36103,0 1.82676,3.04687 c 1.00472,1.67578 4.04215,7.26563 6.74986,12.42188 11.32359,21.56342 16.30422,30.46875 17.04073,30.46875 0.42973,0 5.8798,-10.33594 12.11125,-22.96875 l 11.32992,-22.96875 7.89095,0 c 4.91934,0 7.89096,0.37317 7.89096,0.99094 0,0.54501 -3.10578,6.97861 -6.90173,14.29687 -3.79595,7.31827 -10.60264,20.47781 -15.12599,29.24344 -4.52334,8.76563 -9.7908,18.89063 -11.70545,22.5 -1.91465,3.60937 -8.65195,16.58203 -14.97176,28.82812 l -11.49058,22.26563 -8.40774,0 -8.40774,0 5.80931,-11.01563 z m -54.89207,-30.61139 c -13.62494,-4.32031 -24.64777,-16.40416 -26.36018,-28.89751 l -0.55158,-4.02423 7.21914,-1.4704 c 4.98069,-1.01447 7.3218,-1.1571 7.55022,-0.45999 0.18209,0.55572 0.77253,2.73835 1.31209,4.85029 2.15817,8.4475 9.96438,15.16328 19.46764,16.74824 9.95104,1.65964 21.15319,-5.54826 24.11309,-15.51528 3.96608,-13.35526 -0.80397,-21.64843 -16.6503,-28.94799 -4.73006,-2.17889 -12.17563,-5.67604 -16.5457,-7.77144 -17.12375,-8.21063 -24.0891,-20.41098 -20.2371,-35.44682 2.6779,-10.45287 9.18436,-17.27501 20.68268,-21.68616 8.38641,-3.21731 21.41084,-3.06783 28.70626,0.32947 8.47631,3.9472 18.06849,13.59714 15.96512,16.06126 -0.53466,0.62635 -3.2107,2.32879 -5.94674,3.78318 l -4.97464,2.64435 -4.81421,-4.65295 c -3.81225,-3.68455 -5.83933,-4.8728 -9.73965,-5.70927 -18.59817,-3.98859 -33.18051,15.10014 -20.45709,26.77898 3.2587,2.99117 7.972,5.4038 18.91596,9.68268 16.14448,6.31218 24.80668,13.00823 29.06844,22.47048 2.94745,6.54409 3.29836,20.41363 0.6916,27.33383 -4.45828,11.83538 -12.72288,19.79442 -24.25217,23.35545 -6.89358,2.12921 -17.38617,2.37557 -23.16288,0.54383 z m 141.09375,-0.24609 c -6.06916,-2.11634 -9.82423,-4.84157 -13.84811,-10.0502 -3.33764,-4.32032 -2.75407,-5.66834 3.65768,-8.44904 l 5.74706,-2.49243 3.12153,3.6468 c 3.91184,4.57011 7.67466,6.1812 12.82391,5.49068 5.40777,-0.72518 9.12293,-4.83101 9.12293,-10.08226 0,-4.80974 -1.7763,-6.48447 -13.26298,-12.50464 -13.49094,-7.0706 -16.52644,-9.49757 -19.13167,-15.29631 -4.03981,-8.99187 1.54745,-22.21486 11.24858,-26.62125 5.08559,-2.30994 14.70655,-2.30994 19.79214,0 3.76179,1.70866 11.01494,9.09247 10.48709,10.67601 -0.15033,0.45098 -2.70261,2.1235 -5.67175,3.7167 l -5.39844,2.89674 -3.1534,-3.05639 c -4.02509,-3.90128 -8.74609,-4.29618 -12.23019,-1.02303 -3.09517,2.90776 -3.10225,6.87158 -0.0178,9.95603 1.29199,1.292 6.69526,4.37855 12.00724,6.85901 16.12774,7.53094 20.91058,13.3339 20.11572,24.40611 -0.74111,10.3233 -5.14473,16.60088 -14.78454,21.07604 -6.08056,2.82282 -14.0304,3.15101 -20.625,0.85143 z m 101.71875,0.24609 c -14.32761,-4.54311 -23.52207,-15.90109 -25.8241,-31.90069 -0.99939,-6.94593 0.37428,-18.52962 3.04501,-25.6775 2.77412,-7.42462 11.38424,-15.9854 18.90321,-18.79489 5.74896,-2.14812 18.64589,-2.93118 24.50088,-1.4876 14.7017,3.62476 24.97107,18.0536 25.22754,35.44559 l 0.085,5.76086 -28.59375,0.46875 -28.59375,0.46875 0.29793,2.34375 c 1.57451,12.38646 10.81221,21.57058 21.68301,21.55727 7.92543,-0.01 11.33219,-1.57369 17.63214,-8.09457 l 5.86307,-6.06871 5.6213,2.99613 c 3.09172,1.64786 5.6213,3.47628 5.6213,4.06315 0,3.1 -7.44534,11.08647 -13.59375,14.58173 -9.44182,5.36751 -22.86639,7.19451 -31.875,4.33798 z m 30.88888,-48.29431 c 0.73685,-1.19225 -0.99588,-5.49444 -3.93058,-9.75919 -6.46539,-9.39562 -21.89147,-10.47076 -31.03391,-2.16294 -2.67628,2.43196 -5.76814,8.25778 -5.76814,10.86861 0,1.86534 0.49415,1.91235 20.10092,1.91235 11.16181,0 20.33697,-0.38193 20.63171,-0.85883 z m 165.09783,48.05492 c -9.57728,-2.9389 -17.40711,-10.42758 -21.75788,-20.80993 -2.3794,-5.67798 -2.61228,-7.26813 -2.62876,-17.94866 -0.016,-10.40048 0.23857,-12.29879 2.26346,-16.875 6.47287,-14.62858 17.78397,-22.67779 31.96385,-22.74614 8.98078,-0.0433 14.94612,2.28245 21.55995,8.40569 L 780,62.07696 l 0,-5.72598 0,-5.72598 7.5,0 7.5,0 0,37.5 0,37.5 -7.5,0 -7.5,0 0,-5.25032 0,-5.25033 -5.15938,4.71539 c -8.81644,8.05773 -20.26238,10.59125 -31.82266,7.04385 z m 21.17725,-12.65912 c 15.1479,-4.53841 21.6212,-28.04884 11.75589,-42.69631 -7.41931,-11.01578 -25.26443,-13.18188 -34.70661,-4.2128 -5.58844,5.30841 -7.54755,10.11906 -7.95982,19.54556 -0.35357,8.08389 -0.18855,9.08002 2.4317,14.67937 5.29491,11.31496 16.45644,16.28619 28.47884,12.68418 z M 491.25,95.21285 l 0,-30.41217 -3.51563,-0.29096 -3.51562,-0.29097 -0.27545,-6.79688 -0.27544,-6.79687 3.76665,0 3.76666,0 0.25878,-14.29688 0.2588,-14.29687 7.241,-0.27337 7.24099,-0.27337 0.25901,14.33587 0.259,14.33587 6.8371,0.27626 6.83711,0.27626 -0.27461,6.75499 -0.2746,6.75499 -6.79688,0.27545 -6.79687,0.27544 0,30.42768 0,30.42768 -7.5,0 -7.5,0 0,-30.41215 z m 111.58377,-7.08785 0.0584,-37.5 7.46018,0 7.46018,0 0,3.75 c 0,2.0625 0.34294,3.75 0.7621,3.75 0.41916,0 1.95834,-1.2486 3.42039,-2.77466 9.20275,-9.60559 27.03135,-8.80019 34.94776,1.57876 1.28822,1.689 2.72695,3.0709 3.19712,3.0709 0.47018,0 2.13646,-1.45965 3.70286,-3.24367 1.56638,-1.78402 5.12513,-4.35778 7.90831,-5.71947 4.54847,-2.22535 5.90908,-2.44253 13.45064,-2.14695 7.55802,0.29622 8.7922,0.61143 12.4419,3.17766 4.92393,3.46217 8.88951,10.75035 10.18232,18.71368 0.50226,3.09375 0.91564,16.69922 0.91863,30.23438 l 0.005,24.60937 -7.44645,0 -7.44645,0 -0.28792,-26.48437 c -0.26416,-24.29795 -0.44272,-26.78897 -2.16293,-30.17388 -2.71962,-5.35149 -5.82681,-7.28106 -11.65199,-7.23594 -6.46269,0.0501 -10.17887,2.34246 -13.15087,8.11237 -2.33982,4.54257 -2.39345,5.10598 -2.85339,29.97134 l -0.46875,25.34173 -7.17759,0.27222 -7.17759,0.27223 -0.36953,-26.05348 c -0.40704,-28.69718 -1.00869,-32.08031 -6.38602,-35.90931 -3.19038,-2.27175 -10.99775,-2.51753 -14.95566,-0.47081 -7.50194,3.8794 -9.36394,12.01887 -9.38609,41.02977 l -0.0158,21.32813 -7.51855,0 -7.51855,0 0.0584,-37.5 z m 206.22873,0 0,-37.5 7.5,0 7.5,0 0,37.5 0,37.5 -7.5,0 -7.5,0 0,-37.5 z M 840,88.1645 l 0,-37.53947 7.03125,0 7.03125,0 0.0127,3.04687 c 0.008,1.67578 0.26101,3.97248 0.56438,5.10377 0.51232,1.91058 0.76149,1.78229 3.50281,-1.80359 4.25837,-5.57022 9.80833,-8.22205 17.20782,-8.22205 4.95512,0 9.95387,1.33389 12.25339,3.26975 0.41455,0.34899 -5.5641,11.71103 -6.45055,12.25889 -0.44102,0.27256 -1.72901,-6.4e-4 -2.86222,-0.60711 -3.11469,-1.66693 -11.70445,-1.29512 -14.64879,0.63409 -7.80918,5.11677 -8.91924,9.6643 -9.24711,37.88188 l -0.26687,22.96875 -7.06406,0.27381 -7.06405,0.27381 0,-37.53944 z M 811.26852,24.49679 c -10.11545,-6.34888 -1.60499,-22.17124 9.44257,-17.55528 6.22305,2.60016 8.06033,10.59412 3.58578,15.60158 -3.38888,3.79249 -8.8047,4.60464 -13.02835,1.9537 z"
     style="fill:#4b4b4b;fill-opacity:1" />
</svg>
