<?xml version="1.0" encoding="UTF-8" standalone="no"?>
<svg
   xmlns:dc="http://purl.org/dc/elements/1.1/"
   xmlns:cc="http://creativecommons.org/ns#"
   xmlns:rdf="http://www.w3.org/1999/02/22-rdf-syntax-ns#"
   xmlns:svg="http://www.w3.org/2000/svg"
   xmlns="http://www.w3.org/2000/svg"
   id="svg2"
   version="1.1"
   width="880.73328"
   height="194.6805"
   viewBox="0 0 880.73328 194.6805">
  <metadata
     id="metadata8">
    <rdf:RDF>
      <cc:Work
         rdf:about="">
        <dc:format>image/svg+xml</dc:format>
        <dc:type
           rdf:resource="http://purl.org/dc/dcmitype/StillImage" />
        <dc:title></dc:title>
      </cc:Work>
    </rdf:RDF>
  </metadata>
  <defs
     id="defs6" />
  <path
     style="fill:#4b4b4b;fill-opacity:1"
     d="M 90.715385,192.57606 C 66.117618,184.46463 27.162775,153.7076 11.130852,129.73962 -4.2427096,106.75589 -3.7865743,92.093338 13.093022,66.665318 29.081498,42.579708 66.707814,11.041828 89.793247,2.3762084 c 9.628132,-3.61414 24.336593,-3.04355998 33.232743,1.28918 18.42469,8.9734596 32.56673,35.8761996 36.80904,70.0227496 0.72377,5.82571 1.31596,13.55062 1.31596,17.16647 l 0,6.57426 -5.71935,-5.4801 c -7.96611,-7.63289 -17.6735,-12.46019 -35.01969,-17.41466 -8.18728,-2.33847 -17.01348,-5.14447 -19.61378,-6.23554 -7.533173,-3.16088 -22.806006,-14.27109 -33.194097,-24.14702 -5.267948,-5.00823 -10.16871,-9.12268 -10.890585,-9.14324 -2.625096,-0.0748 -4.312233,3.07374 -4.300289,8.02512 0.02239,9.28087 8.484021,23.20664 24.904059,40.98595 l 7.779455,8.42344 -9.160363,-3.86109 c -5.038198,-2.1236 -9.694737,-4.36727 -10.347862,-4.98594 -2.121594,-2.00968 -6.926381,-1.28909 -7.085604,1.06264 -0.683897,10.10124 9.060198,20.984852 30.148104,33.673762 5.156251,3.10259 7.968751,5.34474 6.250001,4.98256 -8.618624,-1.81616 -17.245911,-2.26622 -18.064111,-0.94235 -0.476489,0.77098 0.158634,3.49918 1.411384,6.06266 3.246946,6.64417 13.675658,13.25231 28.527728,18.07656 11.45751,3.72162 12.13631,4.11337 8.13919,4.69727 -5.70768,0.83379 -6.26233,3.9562 -1.54136,8.67718 4.3476,4.3476 14.09104,7.44102 24.84884,7.88921 l 7.69668,0.32065 -2.07168,3.61785 c -3.89636,6.80439 -13.82977,15.84194 -21.04089,19.1433 -9.58342,4.38744 -21.9849,5.05173 -32.091384,1.71898 z M 332.81774,146.92954 c -12.65939,-2.88895 -20.12024,-7.97462 -24.26764,-16.54202 -7.58516,-15.66885 4.77846,-40.834702 25.04451,-50.977482 12.46704,-6.23951 18.60827,-7.56356 35.08267,-7.56384 15.16368,-2.6e-4 15.91092,0.12755 23.98553,4.10267 5.85714,2.88346 9.15919,5.4377 11.10973,8.59373 3.17986,5.14512 4.38854,14.08084 2.75337,20.355592 l -1.12115,4.30227 -39.29918,0.0727 -39.29919,0.0727 -1.09911,5.99878 c -1.40948,7.69261 1.49822,15.89647 7.16656,20.21991 4.72242,3.60198 16.49177,6.91384 24.47727,6.88784 7.48699,-0.0244 19.29602,-2.87685 28.18555,-6.80823 3.94648,-1.74531 7.3574,-3.1733 7.57984,-3.1733 0.22244,0 -0.16155,1.62359 -0.8533,3.60797 -1.35442,3.88528 -5.28177,5.83687 -19.23721,9.55938 -10.5638,2.81783 -30.68699,3.46407 -40.20825,1.29127 z m 57.48894,-48.647622 c 1.3772,-10.04778 -2.56087,-17.60617 -10.79957,-20.72773 -5.62801,-2.13239 -18.87096,-1.60241 -25.80617,1.03276 -3.42479,1.30132 -8.43575,4.11549 -11.1355,6.25373 -4.84153,3.83456 -12.66445,14.59946 -12.66445,17.427182 0,1.0635 7.99752,1.45307 29.8301,1.45307 l 29.83009,0 0.7455,-5.439012 z M 529.90099,147.0695 c -5.61984,-2.0995 -9.1363,-8.44522 -8.08975,-14.59857 0.40925,-2.40625 3.80311,-15.35451 7.54192,-28.77392 3.7388,-13.419402 6.79783,-24.810022 6.79783,-25.312502 0,-0.50247 -2.8125,-0.91358 -6.25,-0.91358 -5.36335,0 -6.25,-0.34581 -6.25,-2.43762 0,-2.0893 1.02254,-2.49119 7.15584,-2.8125 l 7.15585,-0.37488 2.27344,-7.63091 c 2.09883,-7.0448 2.62931,-7.73469 6.90666,-8.98222 7.58615,-2.21256 14.00886,-3.11342 13.99866,-1.96348 -0.005,0.59213 -1.12595,4.73286 -2.49045,9.20161 -1.3645,4.46875 -2.4852,8.54687 -2.49045,9.0625 -0.005,0.51562 5.28154,0.9375 11.74842,0.9375 11.07293,0 11.72055,0.14311 11.11563,2.45636 -0.57335,2.19248 -1.92626,2.49461 -12.59415,2.8125 -11.53035,0.34358 -11.98493,0.46633 -12.89108,3.48114 -3.64077,12.11291 -12.33315,43.973992 -13.04993,47.833342 -1.9228,10.35266 4.62218,15.78989 17.02617,14.14445 4.98814,-0.6617 5.96336,-0.48396 5.39999,0.98415 -0.95981,2.50123 -4.43114,3.28948 -17.3896,3.94875 -7.5117,0.38215 -12.70379,0.0293 -15.625,-1.06212 z m 65.33713,0.33385 c -7.00338,-1.38223 -16.46905,-5.64046 -20.13071,-9.05598 -5.87456,-5.47968 -8.05843,-11.78264 -7.42546,-21.43093 1.80801,-27.559272 30.09886,-47.024602 65.96904,-45.389532 25.2801,1.15233 37.67036,13.05741 33.59879,32.283092 l -1.21011,5.71408 -39.13668,-0.53365 -39.13667,-0.53365 -0.80767,4.03833 c -1.5221,7.61048 -0.86711,13.26789 2.03459,17.57372 9.49903,14.0956 33.15598,16.35621 57.0356,5.4502 3.71406,-1.69624 6.97581,-2.8611 7.24833,-2.58859 0.27252,0.27253 0.13297,1.93986 -0.3101,3.70521 -0.67629,2.69454 -2.3413,3.71123 -10.37333,6.33409 -17.00467,5.5529 -33.74405,7.1201 -47.35562,4.43361 z m 55.41658,-46.87521 c 0.44074,-1.756032 0.53225,-5.993132 0.20339,-9.415792 -1.08574,-11.29946 -8.28773,-15.58425 -24.60661,-14.63956 -7.50219,0.43429 -11.00615,1.33503 -16.20882,4.16668 -7.43813,4.04834 -16.72102,13.64202 -18.7039,19.33013 l -1.30772,3.751332 29.91116,0 29.91117,0 0.80133,-3.19279 z m 150.65644,46.75484 c -14.20757,-4.08709 -17.34177,-15.73693 -7.19951,-26.7606 6.76826,-7.35645 14.6732,-10.04321 38.84129,-13.20154 21.79087,-2.84766 26.23885,-4.03975 28.8192,-7.723702 2.99895,-4.28161 2.42716,-12.94155 -1.08647,-16.45519 -8.26856,-8.26856 -32.88292,-6.99469 -45.11453,2.33482 -5.34858,4.07955 -5.912,4.0573 -4.89658,-0.19334 1.28149,-5.36444 2.57976,-6.31973 13.43523,-9.88585 8.60995,-2.82845 12.46247,-3.35593 25.16622,-3.44568 16.87217,-0.1192 24.47574,1.89399 28.60777,7.57445 4.39664,6.04422 3.92347,11.91153 -2.94887,36.566072 -3.52559,12.64807 -6.11816,23.75745 -5.76126,24.6875 0.39693,1.0344 2.60561,1.69101 5.68813,1.69101 5.09919,0 6.87227,1.82527 2.85173,2.93569 -11.686,3.22753 -23.38906,1.49835 -25.38475,-3.75072 -0.69203,-1.82018 -1.87575,-2.89661 -2.75763,-2.50768 -20.87288,9.20521 -35.79511,11.72051 -48.25997,8.13476 z m 33.21191,-6.69061 c 10.42399,-3.0956 17.5586,-7.70507 18.95849,-12.24854 3.53085,-11.45979 5.237,-18.72202 4.55796,-19.40106 -1.10442,-1.10442 -29.3695,3.19132 -35.70421,5.42635 -11.23616,3.96433 -17.74869,12.57441 -14.99314,19.82206 2.85599,7.5118 14.33663,10.21552 27.1809,6.40119 z m -597.70241,-0.30894 c -4.54376,-16.26616 -14.91338,-50.239312 -17.69226,-57.963732 -1.63757,-4.55193 -2.97739,-8.63006 -2.97739,-9.0625 0,-0.43245 4.3855,-0.78627 9.74556,-0.78627 l 9.74556,0 1.47273,8.58824 c 1.27305,7.42385 13.48346,50.000602 14.69112,51.226762 1.38499,1.40621 14.48394,-12.63859 34.21909,-36.690002 5.64121,-6.875 12.22407,-14.89063 14.62857,-17.8125 4.07001,-4.94578 4.79895,-5.3125 10.55958,-5.3125 3.40329,0 6.18779,0.37684 6.18779,0.83742 0,0.46059 -3.76897,4.81996 -8.37551,9.6875 -21.09397,22.289182 -35.0759,37.940022 -48.38706,54.162582 l -8.46177,10.3125 -6.67414,0 -6.67412,0 -2.00775,-7.1875 z m 169.95059,4.7025 c 2.53467,-7.98604 19.37022,-69.640282 19.37457,-70.952502 0.004,-1.11261 2.74304,-1.5625 9.51393,-1.5625 7.72863,0 9.38041,0.33439 8.82328,1.78623 -0.37698,0.98243 -1.06726,3.82151 -1.53392,6.30908 l -0.84849,4.52284 5.7939,-3.91026 c 10.5406,-7.11376 18.42867,-9.23381 34.50649,-9.27418 12.55151,-0.0315 15.04564,0.3208 19.66174,2.77736 6.36622,3.38793 9.08826,8.17881 9.08826,15.99569 0,5.62278 -12.837,53.840932 -14.88667,55.917152 -0.54239,0.5494 -4.63657,0.83065 -9.09819,0.625 l -8.11204,-0.37391 6.04593,-21.25 c 9.10075,-31.987062 9.23523,-39.447952 0.79217,-43.950242 -6.2949,-3.35677 -22.2761,-3.02687 -30.35063,0.62653 -12.75606,5.7716 -15.91516,11.07118 -24.71064,41.453552 l -6.69313,23.12016 -9.09567,0.36932 c -8.7164,0.35393 -9.06128,0.26097 -8.27089,-2.22932 z m 260.63062,2.07895 c 4.9e-4,-0.12038 3.61701,-13.04015 8.03674,-28.71051 4.41973,-15.67037 9.04392,-32.404742 10.276,-37.187512 l 2.24012,-8.69593 9.23188,0 c 8.28847,0 9.14347,0.22354 8.36679,2.1875 -0.47579,1.20312 -1.19258,4.14198 -1.59285,6.53078 l -0.72778,4.34328 3.64663,-2.36717 c 2.00563,-1.30194 5.7014,-3.71691 8.2128,-5.3666 2.5114,-1.64969 7.24142,-3.80457 10.51116,-4.78861 5.76541,-1.73514 16.79765,-2.47245 16.79765,-1.12263 0,0.36661 -1.43096,3.49042 -3.17991,6.94181 -2.7909,5.50757 -3.51727,6.15239 -5.9375,5.27095 -1.51668,-0.55237 -5.94992,-0.97064 -9.85164,-0.92948 -8.24149,0.0869 -17.31425,4.84005 -21.72118,11.37948 -2.28652,3.39298 -15.60676,47.284642 -15.57263,51.313582 0.009,1.06105 -2.80875,1.50316 -9.36214,1.46895 -5.15625,-0.0269 -9.37461,-0.14748 -9.37414,-0.26789 z m 62.49914,-1.27459 c 0,-1.29096 16.01648,-59.712792 19.50096,-71.131862 0.55194,-1.80879 2.16779,-2.1875 9.33328,-2.1875 4.76616,0 8.66262,0.42187 8.65878,0.9375 -0.004,0.51562 -0.60733,3.09962 -1.34111,5.74221 -0.73379,2.6426 -1.02721,5.11166 -0.65205,5.48681 0.37515,0.37516 2.52553,-0.72278 4.77861,-2.43986 8.31555,-6.3373 17.50604,-10.07189 26.35533,-10.7096 l 8.50879,-0.61318 -3.47065,7.07652 c -2.55524,5.21004 -3.97525,6.86774 -5.38379,6.28496 -4.08163,-1.68874 -12.17835,-1.9586 -17.30955,-0.57692 -5.7534,1.54923 -14.33846,8.45682 -17.04888,13.71762 -0.91212,1.77042 -4.61592,13.765822 -8.23066,26.656442 l -6.57223,23.4375 -8.56342,0 c -6.33842,0 -8.56341,-0.43668 -8.56341,-1.68064 z"
     id="path4138" />
</svg>
