<?xml version="1.0" encoding="UTF-8" standalone="no"?>
<svg
   xmlns:dc="http://purl.org/dc/elements/1.1/"
   xmlns:cc="http://creativecommons.org/ns#"
   xmlns:rdf="http://www.w3.org/1999/02/22-rdf-syntax-ns#"
   xmlns:svg="http://www.w3.org/2000/svg"
   xmlns="http://www.w3.org/2000/svg"
   viewBox="0 0 83.066147 30.316267"
   height="30.316267"
   width="83.066147"
   version="1.1"
   id="svg2">
  <metadata
     id="metadata8">
    <rdf:RDF>
      <cc:Work
         rdf:about="">
        <dc:format>image/svg+xml</dc:format>
        <dc:type
           rdf:resource="http://purl.org/dc/dcmitype/StillImage" />
        <dc:title></dc:title>
      </cc:Work>
    </rdf:RDF>
  </metadata>
  <defs
     id="defs6" />
  <path
     id="path4138"
     d="m 9.76615,30.116266 c -0.11,-0.109999 -0.2,-0.379999 -0.2,-0.599999 0,-0.316025 0.970319,-0.4 4.621914,-0.4 4.474214,0 4.616899,0.01917 4.465011,0.6 -0.147623,0.564507 -0.409205,0.6 -4.421914,0.6 -2.345756,0 -4.355012,-0.09 -4.465011,-0.200001 z m 20.799999,-0.399999 c 0,-0.57037 0.200001,-0.6 4.05,-0.6 3.85,0 4.050001,0.02963 4.050001,0.6 0,0.570369 -0.200001,0.6 -4.050001,0.6 -3.849999,0 -4.05,-0.02964 -4.05,-0.6 z m 17.600002,0.399999 c -0.110001,-0.109999 -0.200001,-0.383343 -0.200001,-0.60743 0,-0.329898 0.926976,-0.391745 4.871184,-0.325 4.362489,0.07382 4.881714,0.137257 4.971999,0.607431 0.0926,0.482223 -0.288021,0.525 -4.671186,0.525 -2.624598,0 -4.861998,-0.09 -4.971996,-0.200001 z M 66.86615,29.716267 c 0,-0.57037 0.200001,-0.6 4.05,-0.6 3.849999,0 4.05,0.02963 4.05,0.6 0,0.570369 -0.200001,0.6 -4.05,0.6 -3.849999,0 -4.05,-0.02964 -4.05,-0.6 z m -57.7,-1.7 c -0.11,-0.11 -0.2,-0.38 -0.2,-0.6 0,-0.317491 1.041667,-0.4 5.05,-0.4 2.777499,0 5.130697,0.0807 5.229329,0.17933 0.09863,0.09863 0.106687,0.368631 0.0179,0.6 -0.129312,0.336978 -1.129896,0.42067 -5.02933,0.42067 -2.677347,0 -4.957904,-0.09 -5.067899,-0.2 z m 21.555432,-0.09121 c -0.452058,-0.731444 0.344967,-0.90879 4.084269,-0.90879 3.556729,0 3.89533,0.04674 3.803617,0.525 -0.08852,0.461633 -0.55911,0.535113 -3.898861,0.60879 -2.371578,0.05232 -3.869862,-0.03219 -3.989025,-0.225 z m 16.526665,-0.183326 c -0.100155,-0.260995 -0.182097,-0.518298 -0.182097,-0.571785 0,-0.05349 2.038137,-0.115571 4.529196,-0.137966 4.375584,-0.03934 5.652291,0.186128 5.199795,0.918279 -0.09042,0.146304 -2.23449,0.266008 -4.7646,0.266008 -3.91803,0 -4.6272,-0.07037 -4.782294,-0.474536 z m 19.757181,0.157187 c -0.440859,-0.713324 0.487431,-0.899031 4.085361,-0.817289 3.073815,0.06984 3.725361,0.163341 3.725361,0.534638 0,0.37192 -0.65967,0.464539 -3.801861,0.53379 -2.559519,0.05641 -3.869505,-0.02566 -4.008861,-0.251139 z M 8.280885,25.522617 c -0.15521,-0.593525 -0.03179,-0.60635 5.835348,-0.60635 5.546918,0 5.986387,0.03915 5.893027,0.525 -0.09122,0.47472 -0.650083,0.532791 -5.835346,0.60635 -5.536837,0.07855 -5.739929,0.06045 -5.893029,-0.525 z m 22.285264,-0.0063 c 0,-0.57037 0.200001,-0.6 4.05,-0.6 3.85,0 4.050001,0.02963 4.050001,0.6 0,0.570371 -0.200001,0.6 -4.050001,0.6 -3.849999,0 -4.05,-0.02963 -4.05,-0.6 z m 15.782098,0.125464 c -0.100155,-0.260995 -0.182097,-0.530995 -0.182097,-0.6 0,-0.069 2.0925,-0.125464 4.65,-0.125464 2.5575,0 4.65,0.05646 4.65,0.125464 0,0.06901 0.08194,0.339005 0.182097,0.6 0.16122,0.420137 -0.350964,0.474536 -4.467903,0.474536 -3.963444,0 -4.676886,-0.07006 -4.832097,-0.474536 z M 66.86615,25.516317 c 0,-0.57037 0.200001,-0.6 4.05,-0.6 3.849999,0 4.05,0.02963 4.05,0.6 0,0.570371 -0.200001,0.6 -4.05,0.6 -3.849999,0 -4.05,-0.02963 -4.05,-0.6 z m -59.4,-2.375464 c 0,-0.151504 -0.08194,-0.489004 -0.182097,-0.75 -0.162811,-0.424277 0.552087,-0.474536 6.75,-0.474536 4.009758,0 6.932096,0.116126 6.932096,0.275464 0,1.203196 -0.120806,1.224536 -6.932096,1.224536 -3.788589,0 -6.567903,-0.116567 -6.567903,-0.275464 z m 23.154134,-0.399536 c 0.09364,-0.659352 0.194907,-0.676929 4.36818,-0.75822 l 4.272313,-0.08322 -0.345468,0.758221 c -0.344496,0.756088 -0.356784,0.75822 -4.368181,0.75822 -4.000104,0 -4.022172,-0.0038 -3.926844,-0.675001 z m 14.527963,0.200464 c -0.380073,-0.990455 -0.158019,-1.041048 4.206789,-0.958484 4.173123,0.07894 4.410897,0.116204 4.836591,0.75802 l 0.447705,0.675 -4.654494,0 c -3.967542,0 -4.681371,-0.07004 -4.836591,-0.474536 z m 21.772038,-0.200464 c 0.0938,-0.660468 0.179826,-0.675 3.995865,-0.675 3.816039,0 3.902064,0.01453 3.995865,0.675 0.0954,0.671693 0.07582,0.675 -3.995865,0.675 -4.071681,0 -4.091262,-0.0033 -3.995865,-0.675 z M 6.576705,20.13604 C 5.815223,18.713199 6.023053,18.616317 9.836802,18.616317 l 3.570653,0 0.304851,0.874497 c 0.167668,0.480973 0.225875,0.953473 0.129348,1.05 -0.09653,0.09653 -1.700754,0.175503 -3.564949,0.175503 -3.044008,0 -3.421096,-0.05914 -3.7,-0.580277 z m 8.089445,0.0048 c 0,-1.455178 0.16979,-1.524536 3.732096,-1.524536 1.852347,0 3.44688,0.07898 3.543407,0.175504 0.09653,0.09653 0.03832,0.569027 -0.129348,1.05 l -0.304851,0.874496 -3.420653,0 c -3.172035,0 -3.420651,-0.04182 -3.420651,-0.575464 z m 16.015211,0.142988 c -0.09127,-0.237861 -0.119043,-0.676611 -0.06171,-0.975 0.09546,-0.496817 0.577821,-0.5494 5.725372,-0.624143 3.09162,-0.04489 5.621127,0.0311 5.621127,0.168873 0,0.13777 -0.378636,0.613249 -0.841416,1.056619 -0.840234,0.804996 -0.848037,0.806127 -5.559415,0.806127 -3.832065,0 -4.749165,-0.08121 -4.883958,-0.432476 z M 43.795499,19.7715 c -0.181143,-0.519621 -0.329349,-0.992121 -0.329349,-1.05 0,-0.05788 1.935831,-0.105233 4.301844,-0.105233 l 4.301847,0 0.348153,0.764116 c 0.191487,0.420264 0.348156,0.892764 0.348156,1.05 0,0.167946 -1.782444,0.285884 -4.320651,0.285884 l -4.320654,0 z m 23.189319,0.521299 c -0.09318,-0.242816 -0.122397,-0.685619 -0.06493,-0.984008 0.09439,-0.49015 0.480576,-0.542524 4.000374,-0.542524 l 3.89589,0 0,0.9 0,0.9 -3.830958,0.08401 c -3.150237,0.06908 -3.861063,0.0056 -4.000376,-0.357478 z M 5.36615,16.690804 c 0,-0.234005 -0.08194,-0.639005 -0.182097,-0.9 -0.160068,-0.41713 0.271889,-0.474537 3.570652,-0.474537 l 3.75275,0 0.313742,0.9 0.313741,0.9 -3.884394,0 c -3.153235,0 -3.884394,-0.08009 -3.884394,-0.425463 z m 10.2,0 c 0,-1.297758 0.22159,-1.374537 3.967085,-1.374537 3.589931,0 3.602242,0.0024 3.422,0.675 -0.09949,0.37125 -0.182737,0.77625 -0.18499,0.9 -0.0023,0.12375 -1.624096,0.225 -3.604096,0.225 -2.907729,0 -3.599999,-0.08181 -3.599999,-0.425463 z m 14.999999,-0.474537 0,-0.9 9.851845,0 9.851847,0 0.348153,0.764116 c 0.191487,0.420264 0.348156,0.825264 0.348156,0.9 0,0.07474 -4.59,0.135884 -10.2,0.135884 l -10.200001,0 z m 36.300001,0 0,-0.9 4.05,0 4.05,0 0,0.9 0,0.9 -4.05,0 -4.05,0 z M 4.170149,12.766268 c -0.123135,-0.33 -0.318505,-0.90375 -0.434157,-1.275 l -0.210275,-0.675 3.906115,0 3.906116,0 0.305969,1.108131 c 0.168284,0.609472 0.256665,1.157436 0.196403,1.217699 -0.06026,0.06026 -1.760329,0.135352 -3.777928,0.166868 -3.421401,0.05344 -3.683433,0.01691 -3.892243,-0.542698 z m 26.526158,0.356468 c -0.0962,-0.250682 -0.131085,-0.838439 -0.07753,-1.306126 l 0.09737,-0.850342 8.943307,-0.07597 c 5.745453,-0.04881 8.878743,0.02849 8.762742,0.21619 -0.09931,0.16069 0.03092,0.701128 0.289395,1.200973 l 0.469965,0.908807 -8.683167,0 c -4.775743,0 -8.895574,0.08151 -9.155176,0.181126 -0.276861,0.106241 -0.54432,-0.0073 -0.646908,-0.274658 z m 39.977275,0.159437 -3.842568,-0.08409 0.09257,-1.115906 0.09257,-1.115909 3.975,-0.08371 3.975,-0.08371 0,1.191002 c 0,0.655051 -0.10125,1.23272 -0.225,1.283707 -0.12375,0.05099 -1.954155,0.05486 -4.067568,0.0086 z M 16.572128,12.691268 c 0.572971,-2.054537 0.164657,-1.875 4.264237,-1.875 2.051381,0 3.729784,0.114855 3.729784,0.255233 0,0.140378 -0.148206,0.680378 -0.329348,1.2 l -0.329347,0.944767 -3.740869,0 c -3.418508,0 -3.728252,-0.04524 -3.594457,-0.525 z m -13.853924,-4.5 c -0.14798,-0.28875 -0.357802,-0.89625 -0.46627,-1.35 l -0.197216,-0.825 4.023194,0 4.023193,0 0.196769,0.825 c 0.108223,0.45375 0.266955,1.06125 0.352738,1.35 0.142935,0.481122 -0.170786,0.525 -3.753691,0.525 -3.42099,0 -3.943291,-0.06562 -4.178717,-0.525 z m 15.063483,0 c 0.08578,-0.28875 0.244515,-0.89625 0.352738,-1.35 l 0.19677,-0.825 3.867476,0 c 2.127113,0 3.867479,0.08559 3.867479,0.190194 0,0.104607 -0.156369,0.712107 -0.347486,1.35 l -0.347487,1.159806 -3.87273,0 c -3.547732,0 -3.859642,-0.04406 -3.71676,-0.525 z m 12.842212,-0.75 0.09225,-1.275 3.975001,-0.08371 3.975,-0.08371 0,1.358707 0,1.358708 -4.06725,0 -4.067251,0 z M 41.06615,8.507393 c 0,-0.114881 0.35586,-0.722381 0.7908,-1.35 l 0.7908,-1.141125 4.9092,0 c 2.70006,0 4.9092,0.07542 4.9092,0.167591 0,0.09218 -0.427593,0.699675 -0.950208,1.35 l -0.950211,1.182409 -4.749789,0 c -2.612385,0 -4.749792,-0.09399 -4.749792,-0.208875 z M 66.953075,8.116268 c -0.147045,-0.562297 -0.409206,-0.6 -4.171914,-0.6 l -4.015011,0 0,-0.75 0,-0.75 12.15,0 12.15,0 0,0.75 0,0.75 -4.05,0 c -3.849999,0 -4.05,0.02963 -4.05,0.6 0,0.56945 -0.200001,0.6 -3.928086,0.6 -3.675786,0 -3.938163,-0.03854 -4.084989,-0.6 z M 0.610616,1.808134 0,0 l 4.238843,0.08313 4.238843,0.08313 0.388445,1.5 c 0.213645,0.825 0.391049,1.60125 0.394232,1.725 0.0032,0.12375 -1.80432,0.225 -4.016672,0.225 l -4.022459,0 z m 18.691748,0.726105 c 0.495524,-2.641364 0.260752,-2.517971 4.790754,-2.517971 l 4.041819,0 -0.310139,0.975 c -0.170577,0.53625 -0.449932,1.34625 -0.62079,1.8 l -0.310651,0.825 -3.896991,0 -3.896992,0 z m 11.263786,-0.717971 0,-1.8 4.049999,0 4.050001,0 0,1.8 0,1.8 -4.050001,0 -4.05,0 z m 14.553927,0.975 c 0.268317,-0.45375 0.849699,-1.267348 1.291962,-1.807995 l 0.804111,-0.982996 5.208804,0.083 5.208804,0.083 -1.420548,1.725 -1.420548,1.725 -5.080215,0 -5.080218,0 z m 13.646073,-0.975 0,-1.8 12.15,0 12.15,0 0,1.8 0,1.8 -12.15,0 -12.15,0 z"
     style="fill:#4b4b4b;fill-opacity:1" />
</svg>
