<?xml version="1.0" encoding="UTF-8" standalone="no"?>
<svg
   xmlns:dc="http://purl.org/dc/elements/1.1/"
   xmlns:cc="http://creativecommons.org/ns#"
   xmlns:rdf="http://www.w3.org/1999/02/22-rdf-syntax-ns#"
   xmlns:svg="http://www.w3.org/2000/svg"
   xmlns="http://www.w3.org/2000/svg"
   viewBox="0 0 173.7 66.900002"
   height="66.900002"
   width="173.7"
   version="1.1"
   id="svg2">
  <metadata
     id="metadata8">
    <rdf:RDF>
      <cc:Work
         rdf:about="">
        <dc:format>image/svg+xml</dc:format>
        <dc:type
           rdf:resource="http://purl.org/dc/dcmitype/StillImage" />
        <dc:title></dc:title>
      </cc:Work>
    </rdf:RDF>
  </metadata>
  <defs
     id="defs6" />
  <path
     id="path4138"
     d="M 0,33.45 0,0 l 86.85,0 86.85,0 0,33.45 0,33.45 -86.85,0 L 0,66.9 0,33.45 Z m 172.5,0 0,-32.25 -85.65,0 -85.65,0 0,32.25 0,32.25 85.65,0 85.65,0 0,-32.25 z m -37.73614,19.776648 c -4.19539,-0.918885 -8.23173,-3.16923 -11.31386,-6.307716 -3.48624,-3.54999 -5.21189,-7.437699 -5.47188,-12.327576 -0.21095,-3.967707 0.22057,-6.136197 1.9245,-9.671109 2.56159,-5.314155 7.84068,-9.489249 14.11528,-11.163399 3.2658,-0.871362 8.89839,-0.871362 12.1642,0 6.2746,1.67415 11.55369,5.849244 14.11528,11.163399 0.75021,1.556364 1.52538,3.674049 1.72259,4.705968 0.54749,2.864742 0.22216,7.577733 -0.69348,10.04625 -2.55178,6.879495 -8.62994,12.000588 -16.11119,13.574316 -2.6361,0.55452 -7.87378,0.544431 -10.45144,-0.02013 z m 7.78037,-10.434798 c 7.66525,-1.804194 10.46892,-10.64475 5.07657,-16.007457 -6.1644,-6.130509 -16.81163,-2.407611 -17.34723,6.065607 -0.17882,2.828868 0.67248,5.124618 2.62387,7.076013 1.61745,1.617447 2.64337,2.208972 4.8716,2.808867 2.00688,0.5403 2.68725,0.548418 4.7752,0.05697 z M 17.623201,33.522342 C 14.20044,23.249631 11.4,14.741892 11.4,14.616258 c 0,-0.125637 2.799064,-0.191943 6.220141,-0.147345 l 6.220142,0.08109 2.912145,9.557286 c 1.601679,5.256507 2.965905,9.611046 3.031614,9.676758 0.06571,0.06571 1.45743,-4.23507 3.092715,-9.557286 L 35.85,14.55 l 5.709156,-0.08125 5.709159,-0.08125 0.946032,2.931249 c 4.467321,13.841829 5.282022,16.284876 5.393475,16.173423 0.108789,-0.108786 3.99309,-12.764601 5.376345,-17.517177 l 0.458409,-1.575 6.010809,0 c 4.683774,0 5.979711,0.08279 5.869947,0.375 -0.07747,0.20625 -2.757561,8.714049 -5.955747,18.906219 L 59.5527,52.212441 53.892594,52.131221 48.232491,52.050001 44.818992,42.027748 c -1.877424,-5.512239 -3.455688,-10.064442 -3.507255,-10.116009 -0.05156,-0.05157 -1.57155,4.492185 -3.377745,10.097223 L 34.65,52.199941 l -5.4018,3e-5 -5.4018,3e-5 -6.223199,-18.677658 z M 68.207232,51.75327 c 0.09685,-0.252375 2.837958,-8.746869 6.091362,-18.876654 l 5.91528,-18.417792 6.318063,-0.118203 c 3.474936,-0.06501 6.356202,-0.09636 6.402819,-0.06966 0.04662,0.0267 -2.665998,8.537907 -6.028029,18.913791 L 80.793939,52.05 74.412546,52.13107 c -5.625156,0.07146 -6.360528,0.0267 -6.205314,-0.377796 z M 88.808076,52.125 c 0.0044,-0.04125 2.745888,-8.5125 6.092104,-18.825 l 6.08403,-18.75 6.05789,-0.08121 c 4.51455,-0.06052 6.0579,0.0094 6.0579,0.274266 0,0.286755 -8.09973,26.097747 -8.63069,27.502959 -0.12185,0.322491 1.11165,0.378189 6.64418,0.3 4.44404,-0.0628 6.75469,0.0077 6.68069,0.203988 -0.0622,0.165 -0.70511,2.358132 -1.42865,4.873629 l -1.31553,4.573626 -13.125,0.0015 c -7.21875,9e-4 -13.121364,-0.03238 -13.116924,-0.07363 z"
     style="fill:#4b4b4b;fill-opacity:1" />
</svg>
