<svg height="68" viewBox="0 0 68 68" width="68" xmlns="http://www.w3.org/2000/svg"><g fill="none"><path d="m41.3511725 43.7460019c7.1677466 2.5593266 12.7038914 8.7539326 14.1924345 16.5838512.175698.9241925-.5328618 1.7801469-1.473607 1.7801469h-40.2c-.9407452 0-1.649305-.8559544-1.473607-1.7801469 1.490967-7.8426688 7.0427288-14.0446948 14.2274633-16.5963251-5.4097615-2.7080839-9.1238563-8.3020693-9.1238563-14.763528v-9.74c0-9.1126984 7.3873016-16.5 16.5-16.5s16.5 7.3873016 16.5 16.5v9.74c0 6.4713959-3.7255275 12.0726482-9.1488275 14.7760019zm6.1488275-24.5160019c0-7.4558441-6.0441559-13.5-13.5-13.5s-13.5 6.0441559-13.5 13.5v9.74c0 7.4558441 6.0441559 13.5 13.5 13.5s13.5-6.0441559 13.5-13.5zm-13.53 26.241204c-8.4898972 0-15.8619394 5.6271924-18.1987818 13.638796h36.3975636c-2.3368424-8.0116036-9.7088846-13.638796-18.1987818-13.638796z" fill="#202238"/><path d="m3 64.67h10.54c.8284271 0 1.5.6715729 1.5 1.5s-.6715729 1.5-1.5 1.5h-12.04c-.82842712 0-1.5-.6715729-1.5-1.5v-12.04c0-.8284271.67157288-1.5 1.5-1.5s1.5.6715729 1.5 1.5zm51.4-61.67c-.8284271 0-1.5-.67157288-1.5-1.5s.6715729-1.5 1.5-1.5h12.04c.8284271 0 1.5.67157288 1.5 1.5v12.04c0 .8284271-.6715729 1.5-1.5 1.5s-1.5-.6715729-1.5-1.5v-10.54zm-51.4 0v10.54c0 .8284271-.67157288 1.5-1.5 1.5s-1.5-.6715729-1.5-1.5v-12.04c0-.82842712.67157288-1.5 1.5-1.5h12.04c.8284271 0 1.5.67157288 1.5 1.5s-.6715729 1.5-1.5 1.5zm61.94 51.13c0-.8284271.6715729-1.5 1.5-1.5s1.5.6715729 1.5 1.5v12.04c0 .8284271-.6715729 1.5-1.5 1.5h-12.04c-.8284271 0-1.5-.6715729-1.5-1.5s.6715729-1.5 1.5-1.5h10.54z" fill="#e73a7e"/></g></svg>