<svg xmlns="http://www.w3.org/2000/svg" xmlns:xlink="http://www.w3.org/1999/xlink" width="105.25" height="131.676"><defs><path id="a" d="M15.165 42.781C5.796 52.209 0 65.225 0 79.594c0 14.367 5.796 27.385 15.165 36.814 9.375 9.434 22.321 15.268 36.615 15.268 14.293 0 27.238-5.834 36.613-15.268 9.371-9.428 15.166-22.447 15.166-36.814 0-14.37-5.795-27.387-15.166-36.813-9.374-9.435-22.32-15.271-36.613-15.271-14.294 0-27.24 5.836-36.615 15.271"/></defs><clipPath id="b"><use xlink:href="#a" overflow="visible"/></clipPath><linearGradient id="c" gradientUnits="userSpaceOnUse" x1="23.768" y1="94.126" x2="24.768" y2="94.126" gradientTransform="matrix(103.56 0 0 -103.56 -2461.44 9827.277)"><stop offset="0" stop-color="#c38f31"/><stop offset=".45" stop-color="#755a24"/><stop offset=".64" stop-color="#da997b"/><stop offset="1" stop-color="#8d5f2b"/></linearGradient><path clip-path="url(#b)" fill="url(#c)" d="M0 27.51h103.56v104.167H0z"/><path fill="#D7C4C8" d="M83.926 47.217c-8.221-8.274-19.587-13.391-32.146-13.391-12.559 0-23.924 5.116-32.145 13.391-8.228 8.278-13.316 19.725-13.316 32.377 0 12.651 5.088 24.1 13.316 32.377 8.221 8.275 19.586 13.391 32.145 13.391 12.56 0 23.926-5.117 32.146-13.391 8.226-8.277 13.314-19.724 13.314-32.377 0-12.652-5.089-24.1-13.314-32.377"/><defs><path id="d" d="M19.634 47.217C11.408 55.495 6.318 66.942 6.318 79.594c0 12.65 5.09 24.098 13.316 32.377 8.222 8.275 19.587 13.391 32.146 13.391 12.559 0 23.925-5.117 32.146-13.391 8.227-8.279 13.315-19.725 13.315-32.377s-5.089-24.101-13.315-32.377c-8.221-8.274-19.587-13.392-32.146-13.392-12.559 0-23.924 5.117-32.146 13.392"/></defs><clipPath id="e"><use xlink:href="#d" overflow="visible"/></clipPath><path clip-path="url(#e)" fill="#FFF" d="M62.657 110.055V0C49.128 4.987 32.334 8.541 12.272 10.661v3.698c5.159 0 9.014.315 11.565.945 2.55.632 4.37 1.907 5.459 3.826 1.089 1.922 1.634 4.916 1.634 8.985v76.608c0 4.701-.56 8.34-1.677 10.92-1.118 2.58-2.88 4.4-5.288 5.461-2.408 1.061-5.705 1.59-9.888 1.59v3.697c17.424-.459 28.632-.688 33.618-.688 4.184 0 13.04.229 26.568.688v-3.697c-2.924 0-5.201-.371-6.835-1.117-1.635-.744-2.837-2.035-3.611-3.869s-1.16-4.385-1.16-7.653"/><path fill="#FFF" d="M62.675 110.6c-.003-.188-.018-.352-.018-.545V0C49.128 4.987 32.334 8.541 12.272 10.661v3.698c5.159 0 9.013.315 11.565.945 2.55.632 4.37 1.907 5.459 3.827 1.089 1.921 1.634 4.915 1.634 8.985v76.607c0 4.701-.56 8.34-1.678 10.92-1.117 2.58-2.879 4.4-5.287 5.461s-5.705 1.59-9.888 1.59v3.697c15.061-.396 31.933-.975 37.701-1.029L45.314 110.6h17.361z"/></svg>