<?xml version="1.0" encoding="utf-8"?>
<!-- Generator: Adobe Illustrator 16.0.0, SVG Export Plug-In . SVG Version: 6.00 Build 0)  -->
<!DOCTYPE svg PUBLIC "-//W3C//DTD SVG 1.1//EN" "http://www.w3.org/Graphics/SVG/1.1/DTD/svg11.dtd">
<svg version="1.1" id="Layer_1" xmlns="http://www.w3.org/2000/svg" xmlns:xlink="http://www.w3.org/1999/xlink" x="0px" y="0px"
	 width="105.25px" height="131.676px" viewBox="0 0 105.25 131.676" enable-background="new 0 0 105.25 131.676"
	 xml:space="preserve">
<g>
	<defs>
		<path id="SVGID_1_" d="M15.165,42.781C5.796,52.209,0,65.225,0,79.594c0,14.367,5.796,27.385,15.165,36.814
			c9.375,9.434,22.321,15.268,36.615,15.268c14.293,0,27.238-5.834,36.613-15.268c9.371-9.428,15.166-22.447,15.166-36.814
			c0-14.37-5.795-27.387-15.166-36.813C79.019,33.346,66.073,27.51,51.78,27.51C37.486,27.51,24.54,33.346,15.165,42.781"/>
	</defs>
	<clipPath id="SVGID_2_">
		<use xlink:href="#SVGID_1_"  overflow="visible"/>
	</clipPath>
	
		<linearGradient id="SVGID_3_" gradientUnits="userSpaceOnUse" x1="23.7681" y1="94.1255" x2="24.7681" y2="94.1255" gradientTransform="matrix(103.56 0 0 -103.56 -2461.4395 9827.2773)">
		<stop  offset="0" style="stop-color:#C38F31"/>
		<stop  offset="0.45" style="stop-color:#755A24"/>
		<stop  offset="0.64" style="stop-color:#DA997B"/>
		<stop  offset="1" style="stop-color:#8D5F2B"/>
	</linearGradient>
	<rect y="27.51" clip-path="url(#SVGID_2_)" fill="url(#SVGID_3_)" width="103.56" height="104.167"/>
</g>
<g>
	<path fill="#D7C4C8" d="M83.926,47.217c-8.221-8.274-19.587-13.391-32.146-13.391c-12.559,0-23.924,5.116-32.145,13.391
		C11.407,55.495,6.319,66.942,6.319,79.594c0,12.651,5.088,24.1,13.316,32.377c8.221,8.275,19.586,13.391,32.145,13.391
		c12.56,0,23.926-5.117,32.146-13.391c8.226-8.277,13.314-19.724,13.314-32.377C97.24,66.942,92.151,55.494,83.926,47.217"/>
</g>
<g>
	<defs>
		<path id="SVGID_4_" d="M19.634,47.217C11.408,55.495,6.318,66.942,6.318,79.594c0,12.65,5.09,24.098,13.316,32.377
			c8.222,8.275,19.587,13.391,32.146,13.391c12.559,0,23.925-5.117,32.146-13.391c8.227-8.279,13.315-19.725,13.315-32.377
			s-5.089-24.101-13.315-32.377c-8.221-8.274-19.587-13.392-32.146-13.392C39.221,33.825,27.856,38.942,19.634,47.217"/>
	</defs>
	<clipPath id="SVGID_5_">
		<use xlink:href="#SVGID_4_"  overflow="visible"/>
	</clipPath>
	<path clip-path="url(#SVGID_5_)" fill="#FFFFFF" d="M62.657,110.055V0C49.128,4.987,32.334,8.541,12.272,10.661v3.698
		c5.159,0,9.014,0.315,11.565,0.945c2.55,0.632,4.37,1.907,5.459,3.826c1.089,1.922,1.634,4.916,1.634,8.985v76.608
		c0,4.701-0.56,8.34-1.677,10.92c-1.118,2.58-2.88,4.4-5.288,5.461c-2.408,1.061-5.705,1.59-9.888,1.59v3.697
		c17.424-0.459,28.632-0.688,33.618-0.688c4.184,0,13.04,0.229,26.568,0.688v-3.697c-2.924,0-5.201-0.371-6.835-1.117
		c-1.635-0.744-2.837-2.035-3.611-3.869S62.657,113.323,62.657,110.055"/>
</g>
<g>
	<path fill="#FFFFFF" d="M62.675,110.6c-0.003-0.188-0.018-0.352-0.018-0.545V0C49.128,4.987,32.334,8.541,12.272,10.661v3.698
		c5.159,0,9.013,0.315,11.565,0.945c2.55,0.632,4.37,1.907,5.459,3.827c1.089,1.921,1.634,4.915,1.634,8.985v76.607
		c0,4.701-0.56,8.34-1.678,10.92c-1.117,2.58-2.879,4.4-5.287,5.461c-2.408,1.061-5.705,1.59-9.888,1.59v3.697
		c15.061-0.396,31.933-0.975,37.701-1.029L45.314,110.6H62.675z"/>
</g>
</svg>
