<?xml version="1.0" encoding="utf-8"?>
<!-- Generator: Adobe Illustrator 16.0.0, SVG Export Plug-In . SVG Version: 6.00 Build 0)  -->
<!DOCTYPE svg PUBLIC "-//W3C//DTD SVG 1.1//EN" "http://www.w3.org/Graphics/SVG/1.1/DTD/svg11.dtd">
<svg version="1.1" id="Layer_1" xmlns="http://www.w3.org/2000/svg" xmlns:xlink="http://www.w3.org/1999/xlink" x="0px" y="0px"
	 width="114.5px" height="135.703px" viewBox="0 0 114.5 135.703" enable-background="new 0 0 114.5 135.703" xml:space="preserve">
<g>
	<defs>
		<path id="SVGID_1_" d="M23.72,46.806C14.351,56.235,8.555,69.251,8.555,83.62c0,14.368,5.796,27.385,15.165,36.815
			c9.375,9.433,22.321,15.268,36.615,15.268c14.293,0,27.239-5.835,36.614-15.268c9.371-9.429,15.166-22.447,15.166-36.815
			c0-14.369-5.795-27.386-15.166-36.814c-9.375-9.434-22.321-15.27-36.614-15.27C46.041,31.536,33.095,37.372,23.72,46.806"/>
	</defs>
	<clipPath id="SVGID_2_">
		<use xlink:href="#SVGID_1_"  overflow="visible"/>
	</clipPath>
	
		<linearGradient id="SVGID_3_" gradientUnits="userSpaceOnUse" x1="29.4985" y1="97.1289" x2="30.4985" y2="97.1289" gradientTransform="matrix(103.56 0 0 -103.56 -3046.3469 10142.3369)">
		<stop  offset="0" style="stop-color:#C38F31"/>
		<stop  offset="0.45" style="stop-color:#755A24"/>
		<stop  offset="0.64" style="stop-color:#DA997B"/>
		<stop  offset="1" style="stop-color:#8D5F2B"/>
	</linearGradient>
	<rect x="8.555" y="31.536" clip-path="url(#SVGID_2_)" fill="url(#SVGID_3_)" width="103.56" height="104.167"/>
</g>
<g>
	<path fill="#D7C4C8" d="M92.48,51.243c-8.221-8.274-19.587-13.391-32.146-13.391c-12.56,0-23.925,5.116-32.146,13.391
		c-8.228,8.278-13.316,19.725-13.316,32.376c0,12.652,5.088,24.101,13.316,32.378c8.221,8.275,19.586,13.392,32.146,13.392
		c12.559,0,23.925-5.118,32.146-13.392c8.227-8.277,13.315-19.724,13.315-32.378C105.796,70.968,100.707,59.52,92.48,51.243"/>
</g>
<g>
	<defs>
		<path id="SVGID_4_" d="M28.189,51.243c-8.227,8.278-13.316,19.726-13.316,32.377s5.089,24.099,13.316,32.377
			c8.222,8.275,19.587,13.392,32.146,13.392s23.925-5.118,32.146-13.392c8.226-8.278,13.314-19.724,13.314-32.377
			c0-12.651-5.089-24.1-13.314-32.377c-8.222-8.274-19.588-13.392-32.146-13.392S36.411,42.968,28.189,51.243"/>
	</defs>
	<clipPath id="SVGID_5_">
		<use xlink:href="#SVGID_4_"  overflow="visible"/>
	</clipPath>
	<path clip-path="url(#SVGID_5_)" fill="#FFFFFF" d="M3.75,125.863v3.524c4.127-0.113,7.193-0.172,9.2-0.172
		c2.865,0,6.204,0.03,10.017,0.086c3.811,0.059,8.383,0.086,13.714,0.086h55.457c-0.803-8.367-1.204-16.363-1.204-23.987
		c0-4.07,0.172-7.396,0.517-9.975h-4.041c-0.459,3.268-1.72,5.633-3.783,7.094c-2.064,1.461-4.557,2.192-7.48,2.192H30.834
		c5.043-4.815,13.183-12.194,24.418-22.14c11.234-9.944,19.689-18.428,25.365-25.451c5.674-7.02,8.512-14.802,8.512-23.343
		c0-6.707-1.806-12.424-5.417-17.153s-8.57-8.311-14.875-10.748c-6.306-2.436-13.499-3.654-21.581-3.654
		c-11.637,0-21.381,2.465-29.233,7.394c-7.28,4.587-10.92,10.175-10.92,16.766c0,2.695,0.587,5.159,1.763,7.395
		c1.174,2.235,2.894,4.027,5.159,5.374c2.263,1.347,4.944,2.02,8.039,2.02c2.865,0,5.546-0.587,8.039-1.763
		c2.493-1.174,4.499-2.908,6.019-5.201c1.518-2.292,2.277-5.015,2.277-8.169c0-3.667-1.018-6.992-3.052-9.973
		c-2.035-2.98-5.06-5.073-9.071-6.277c1.146-1.032,2.737-1.848,4.772-2.45c2.034-0.602,4.14-0.903,6.319-0.903
		c12.554,0,18.83,9.831,18.83,29.491c0,17.368-4.716,33.562-14.145,48.579C32.625,99.525,19.857,113.311,3.75,125.863"/>
</g>
<g>
	<path fill="#FFFFFF" d="M3.75,125.862v3.526c4.127-0.114,7.193-0.172,9.2-0.172c2.866,0,6.204,0.029,10.017,0.086
		c3.811,0.057,8.383,0.086,13.714,0.086h22.853l-11.59-24.678h-17.11c3.873-3.696,9.588-8.92,17.11-15.641V73.65
		c-1.702,3.684-3.659,7.305-5.889,10.856C32.625,99.524,19.856,113.31,3.75,125.862 M80.616,57.122
		c5.676-7.021,8.513-14.802,8.513-23.344c0-6.706-1.807-12.424-5.417-17.153c-3.611-4.729-8.57-8.31-14.874-10.747
		c-6.307-2.436-13.499-3.655-21.581-3.655c-11.638,0-21.381,2.466-29.234,7.395c-7.28,4.586-10.919,10.175-10.919,16.766
		c0,2.695,0.587,5.159,1.762,7.394c1.174,2.236,2.894,4.028,5.159,5.374c2.264,1.348,4.944,2.021,8.039,2.021
		c2.866,0,5.546-0.588,8.039-1.763c2.494-1.174,4.5-2.909,6.02-5.202c1.518-2.292,2.277-5.015,2.277-8.168
		c0-3.668-1.018-6.993-3.052-9.974c-2.035-2.98-5.059-5.073-9.071-6.276c1.146-1.032,2.737-1.849,4.772-2.451
		c2.034-0.602,4.141-0.903,6.319-0.903c12.554,0,18.829,9.832,18.829,29.492c0,11.259-1.994,22.022-5.957,32.294h20.295
		C74.527,64.189,77.899,60.483,80.616,57.122"/>
</g>
</svg>
