<svg xmlns="http://www.w3.org/2000/svg" xmlns:xlink="http://www.w3.org/1999/xlink" width="114.5" height="135.703"><defs><path id="a" d="M23.72 46.806C14.351 56.235 8.555 69.251 8.555 83.62c0 14.368 5.796 27.385 15.165 36.815 9.375 9.433 22.321 15.268 36.615 15.268 14.293 0 27.239-5.835 36.614-15.268 9.371-9.429 15.166-22.447 15.166-36.815 0-14.369-5.795-27.386-15.166-36.814-9.375-9.434-22.321-15.27-36.614-15.27-14.294 0-27.24 5.836-36.615 15.27"/></defs><clipPath id="b"><use xlink:href="#a" overflow="visible"/></clipPath><linearGradient id="c" gradientUnits="userSpaceOnUse" x1="29.498" y1="97.129" x2="30.498" y2="97.129" gradientTransform="matrix(103.56 0 0 -103.56 -3046.347 10142.337)"><stop offset="0" stop-color="#c38f31"/><stop offset=".45" stop-color="#755a24"/><stop offset=".64" stop-color="#da997b"/><stop offset="1" stop-color="#8d5f2b"/></linearGradient><path clip-path="url(#b)" fill="url(#c)" d="M8.555 31.536h103.56v104.167H8.555z"/><path fill="#D7C4C8" d="M92.48 51.243c-8.221-8.274-19.587-13.391-32.146-13.391-12.56 0-23.925 5.116-32.146 13.391-8.228 8.278-13.316 19.725-13.316 32.376 0 12.652 5.088 24.101 13.316 32.378 8.221 8.275 19.586 13.392 32.146 13.392 12.559 0 23.925-5.118 32.146-13.392 8.227-8.277 13.315-19.724 13.315-32.378.001-12.651-5.088-24.099-13.315-32.376"/><defs><path id="d" d="M28.189 51.243c-8.227 8.278-13.316 19.726-13.316 32.377s5.089 24.099 13.316 32.377c8.222 8.275 19.587 13.392 32.146 13.392s23.925-5.118 32.146-13.392c8.226-8.278 13.314-19.724 13.314-32.377 0-12.651-5.089-24.1-13.314-32.377-8.222-8.274-19.588-13.392-32.146-13.392s-23.924 5.117-32.146 13.392"/></defs><clipPath id="e"><use xlink:href="#d" overflow="visible"/></clipPath><path clip-path="url(#e)" fill="#FFF" d="M3.75 125.863v3.524c4.127-.113 7.193-.172 9.2-.172 2.865 0 6.204.03 10.017.086 3.811.059 8.383.086 13.714.086h55.457c-.803-8.367-1.204-16.363-1.204-23.987 0-4.07.172-7.396.517-9.975H87.41c-.459 3.268-1.72 5.633-3.783 7.094-2.064 1.461-4.557 2.192-7.48 2.192H30.834c5.043-4.815 13.183-12.194 24.418-22.14 11.234-9.944 19.689-18.428 25.365-25.451 5.674-7.02 8.512-14.802 8.512-23.343 0-6.707-1.806-12.424-5.417-17.153s-8.57-8.311-14.875-10.748C62.531 3.44 55.338 2.222 47.256 2.222c-11.637 0-21.381 2.465-29.233 7.394-7.28 4.587-10.92 10.175-10.92 16.766 0 2.695.587 5.159 1.763 7.395 1.174 2.235 2.894 4.027 5.159 5.374 2.263 1.347 4.944 2.02 8.039 2.02 2.865 0 5.546-.587 8.039-1.763a14.503 14.503 0 0 0 6.019-5.201c1.518-2.292 2.277-5.015 2.277-8.169 0-3.667-1.018-6.992-3.052-9.973-2.035-2.98-5.06-5.073-9.071-6.277 1.146-1.032 2.737-1.848 4.772-2.45a22.146 22.146 0 0 1 6.319-.903c12.554 0 18.83 9.831 18.83 29.491 0 17.368-4.716 33.562-14.145 48.579-9.427 15.02-22.195 28.806-38.302 41.358"/><path fill="#FFF" d="M3.75 125.862v3.526c4.127-.114 7.193-.172 9.2-.172 2.866 0 6.204.029 10.017.086 3.811.057 8.383.086 13.714.086h22.853l-11.59-24.678h-17.11c3.873-3.696 9.588-8.92 17.11-15.641V73.65a96.475 96.475 0 0 1-5.889 10.856c-9.43 15.018-22.199 28.804-38.305 41.356m76.866-68.74c5.676-7.021 8.513-14.802 8.513-23.344 0-6.706-1.807-12.424-5.417-17.153-3.611-4.729-8.57-8.31-14.874-10.747-6.307-2.436-13.499-3.655-21.581-3.655-11.638 0-21.381 2.466-29.234 7.395-7.28 4.586-10.919 10.175-10.919 16.766 0 2.695.587 5.159 1.762 7.394 1.174 2.236 2.894 4.028 5.159 5.374 2.264 1.348 4.944 2.021 8.039 2.021 2.866 0 5.546-.588 8.039-1.763a14.501 14.501 0 0 0 6.02-5.202c1.518-2.292 2.277-5.015 2.277-8.168 0-3.668-1.018-6.993-3.052-9.974-2.035-2.98-5.059-5.073-9.071-6.276 1.146-1.032 2.737-1.849 4.772-2.451a22.151 22.151 0 0 1 6.319-.903c12.554 0 18.829 9.832 18.829 29.492 0 11.259-1.994 22.022-5.957 32.294h20.295c3.992-4.033 7.364-7.739 10.081-11.1"/></svg>