<?xml version="1.0" encoding="utf-8"?>
<!-- Generator: Adobe Illustrator 16.0.0, SVG Export Plug-In . SVG Version: 6.00 Build 0)  -->
<!DOCTYPE svg PUBLIC "-//W3C//DTD SVG 1.1//EN" "http://www.w3.org/Graphics/SVG/1.1/DTD/svg11.dtd">
<svg version="1.1" id="Layer_1" xmlns="http://www.w3.org/2000/svg" xmlns:xlink="http://www.w3.org/1999/xlink" x="0px" y="0px"
	 width="114.5px" height="135.703px" viewBox="0 0 114.5 135.703" enable-background="new 0 0 114.5 135.703" xml:space="preserve">
<g>
	<defs>
		<path id="SVGID_1_" d="M25.961,44.793c-9.37,9.429-15.166,22.445-15.166,36.814c0,14.367,5.796,27.385,15.166,36.814
			c9.375,9.432,22.321,15.268,36.614,15.268s27.24-5.836,36.614-15.268c9.37-9.43,15.166-22.447,15.166-36.814
			c0-14.37-5.796-27.387-15.166-36.814c-9.374-9.434-22.321-15.27-36.614-15.27S35.336,35.359,25.961,44.793"/>
	</defs>
	<clipPath id="SVGID_2_">
		<use xlink:href="#SVGID_1_"  overflow="visible"/>
	</clipPath>
	
		<linearGradient id="SVGID_3_" gradientUnits="userSpaceOnUse" x1="29.4907" y1="97.1484" x2="30.4907" y2="97.1484" gradientTransform="matrix(103.56 0 0 -103.56 -3043.3469 10142.3369)">
		<stop  offset="0" style="stop-color:#C38F31"/>
		<stop  offset="0.45" style="stop-color:#755A24"/>
		<stop  offset="0.64" style="stop-color:#DA997B"/>
		<stop  offset="1" style="stop-color:#8D5F2B"/>
	</linearGradient>
	<rect x="10.795" y="29.523" clip-path="url(#SVGID_2_)" fill="url(#SVGID_3_)" width="103.561" height="104.167"/>
</g>
<g>
	<path fill="#D7C4C8" d="M94.721,49.229C86.5,40.956,75.134,35.838,62.575,35.838c-12.56,0-23.924,5.116-32.146,13.391
		c-8.228,8.278-13.316,19.725-13.316,32.377c0,12.651,5.088,24.101,13.316,32.378c8.222,8.275,19.586,13.391,32.146,13.391
		c12.559,0,23.925-5.117,32.146-13.391c8.227-8.277,13.315-19.724,13.315-32.378C108.036,68.955,102.947,57.506,94.721,49.229"/>
	<path fill="#FFFFFF" d="M46.334,4.031c-11.521,0-20.721,1.892-27.6,5.675c-7.28,3.955-10.919,9.401-10.919,16.336
		c0,4.415,1.332,8.039,3.998,10.877c2.665,2.837,6.319,4.256,10.962,4.256c2.866,0,5.546-0.602,8.039-1.806
		c2.495-1.204,4.5-2.952,6.019-5.245c1.519-2.292,2.279-4.987,2.279-8.082c0-3.439-1.032-6.634-3.096-9.587
		c-2.063-2.951-5.073-5.144-9.028-6.577C29.28,8.33,32.691,7.556,37.22,7.556c3.268,0,6.161,0.976,8.685,2.924
		c2.521,1.949,4.485,4.814,5.89,8.598c1.404,3.783,2.106,8.34,2.106,13.671c0,6.878-1.117,12.639-3.354,17.282
		c-2.234,4.643-5.817,8.799-10.748,12.467c-0.631,0-1.202-0.028-1.719-0.086c-0.516-0.057-1.032-0.086-1.548-0.086
		c-4.013,0-6.018,1.118-6.018,3.353c0,1.777,1.174,2.666,3.525,2.666c1.375,0,2.636-0.315,3.783-0.946
		c1.146-0.63,2.464-1.548,3.955-2.752c3.955,0.402,7.38,1.95,10.274,4.643c2.894,2.695,5.102,6.306,6.62,10.834
		c1.519,4.529,2.279,9.63,2.279,15.304c0,6.707-1.062,12.654-3.182,17.842c-2.121,5.189-5.26,9.242-9.414,12.166
		c-4.157,2.924-9.215,4.385-15.176,4.385c-3.326,0-6.564-0.43-9.716-1.289c3.668-1.031,6.692-2.838,9.071-5.418
		c2.378-2.578,3.568-5.701,3.568-9.371c0-2.809-0.718-5.301-2.149-7.48c-1.434-2.178-3.426-3.854-5.976-5.029
		c-2.551-1.174-5.46-1.764-8.727-1.764c-3.383,0-6.291,0.633-8.727,1.893c-2.437,1.262-4.299,2.98-5.589,5.158
		C3.645,108.699,3,111.164,3,113.914c0,5.963,3.066,10.721,9.2,14.273c6.82,3.668,15.676,5.502,26.568,5.502
		c9.458,0,18.37-1.477,26.739-4.428c8.368-2.951,15.133-7.223,20.291-12.811c5.159-5.59,7.738-12.167,7.738-19.732
		c0-6.822-2.148-12.738-6.448-17.756c-4.299-5.015-10.175-8.912-17.626-11.693c-7.452-2.78-15.792-4.37-25.021-4.772
		c8.427-1.72,15.821-4.155,22.183-7.309c6.363-3.151,11.32-6.934,14.875-11.349c3.553-4.413,5.331-9.286,5.331-14.617
		c0-5.215-1.677-9.729-5.03-13.542c-3.353-3.811-8.082-6.706-14.187-8.684C61.51,5.02,54.416,4.031,46.334,4.031"/>
</g>
</svg>
