<svg xmlns="http://www.w3.org/2000/svg" viewBox="0 0 770.5 602"><defs><linearGradient id="a" data-name="Безымянный градиент" x1="-239.47" y1="555.18" x2="-238.47" y2="555.18" gradientTransform="matrix(769.48 0 0 -769.48 184272 427506.21)" gradientUnits="userSpaceOnUse"><stop offset="0" stop-color="#b68e3b"/><stop offset=".45" stop-color="#6e5a2b"/><stop offset=".64" stop-color="#ca997b"/><stop offset="1" stop-color="#815f31"/></linearGradient></defs><g clip-path="url(#a)"><path d="M41.5 1.5v1c0 .06-39-.06-39 39v520c.06 0-.06 39 39 39H730c0-.06 39 .06 39-39v-520c-.06 0 .06-39-39-39H41.5v-2H730c40.94.07 41 41 41 41v520c-.07 40.94-41 41-41 41H41.5c-40.94-.07-41-41-41-41v-520C.57.56 41.5.5 41.5.5z" transform="translate(-.5 -.5)" fill="url(#a)"/></g></svg>