<?xml version="1.0" ?><!DOCTYPE svg  PUBLIC '-//W3C//DTD SVG 1.1//EN'  'http://www.w3.org/Graphics/SVG/1.1/DTD/svg11.dtd'><svg enable-background="new 0 0 64 64" height="64px" id="Icons" version="1.1" viewBox="0 0 64 64" width="64px" xml:space="preserve" xmlns="http://www.w3.org/2000/svg" xmlns:xlink="http://www.w3.org/1999/xlink"><g id="emailer_2_"><rect fill="#37474F" height="1" width="14" x="28" y="15"/><rect fill="#37474F" height="1" width="20" x="28" y="19"/><rect fill="#37474F" height="1" width="32" x="16" y="31"/><rect fill="#37474F" height="1" width="32" x="16" y="27"/><rect fill="#37474F" height="1" width="32" x="16" y="23"/><rect fill="#37474F" height="1" width="14" x="28" y="11"/><path d="M54,23.61V16L43,5H10v18.74L5,28v8.891V59h54V39.05V28L54,23.61z M44,7.414L51.586,15H44V7.414z M7.811,58   l22.495-18.33c0.435-0.354,1.052-0.557,1.694-0.557s1.26,0.203,1.694,0.557L56.189,58H7.811z M58,28.556L37.319,40.045l0.835,0.68   L58,29.699v9.342v19.145L34.326,38.895c-0.64-0.521-1.482-0.781-2.326-0.781s-1.687,0.261-2.326,0.781L6,58.186V36.864v-7.165   l19.846,11.025l0.834-0.68L6,28.556v-0.094l4-3.407v4.724l1,0.556V6h31.586H43v10h10v14.333l1-0.556v-4.723l4,3.407V28.556z" fill="#37474F"/><path d="M25,11h-9v9h9V11z M24,19h-7v-7h7V19z" fill="#37474F"/></g></svg>