<?xml version="1.0" ?><!DOCTYPE svg  PUBLIC '-//W3C//DTD SVG 1.1//EN'  'http://www.w3.org/Graphics/SVG/1.1/DTD/svg11.dtd'><svg enable-background="new 0 0 64 64" height="64px" id="Icons" version="1.1" viewBox="0 0 64 64" width="64px" xml:space="preserve" xmlns="http://www.w3.org/2000/svg" xmlns:xlink="http://www.w3.org/1999/xlink"><g id="landing_page_optimization"><g><path d="M57,10H7c-1.1,0-2,0.901-2,2.001v10v30C5,53.101,5.9,54,7,54h50c1.1,0,2-0.899,2-1.999v-30v-10    C59,10.901,58.1,10,57,10z M6,12.001C6,11.449,6.448,11,7,11h50c0.552,0,1,0.449,1,1.001V21H6V12.001z M58,52.001    C58,52.553,57.552,53,57,53H7c-0.552,0-1-0.447-1-0.999V22h52V52.001z" fill="#37474F"/><path d="M11,13.501c-1.381,0-2.5,1.119-2.5,2.5s1.119,2.5,2.5,2.5s2.5-1.119,2.5-2.5S12.381,13.501,11,13.501z     M11,17.501c-0.827,0-1.5-0.673-1.5-1.5s0.673-1.5,1.5-1.5s1.5,0.673,1.5,1.5S11.827,17.501,11,17.501z" fill="#37474F"/><path d="M17,13.501c-1.381,0-2.5,1.119-2.5,2.5s1.119,2.5,2.5,2.5s2.5-1.119,2.5-2.5S18.381,13.501,17,13.501z     M17,17.501c-0.827,0-1.5-0.673-1.5-1.5s0.673-1.5,1.5-1.5s1.5,0.673,1.5,1.5S17.827,17.501,17,17.501z" fill="#37474F"/><path d="M23,13.501c-1.381,0-2.5,1.119-2.5,2.5s1.119,2.5,2.5,2.5s2.5-1.119,2.5-2.5S24.381,13.501,23,13.501z     M23,17.501c-0.827,0-1.5-0.673-1.5-1.5s0.673-1.5,1.5-1.5s1.5,0.673,1.5,1.5S23.827,17.501,23,17.501z" fill="#37474F"/><path d="M53,15c0-0.553-0.447-1-1-1H40c-0.553,0-1,0.447-1,1v2c0,0.553,0.447,1,1,1h12c0.553,0,1-0.447,1-1V15z     M52,17H40v-2h12V17z" fill="#37474F"/><path d="M34.814,34.582L38,36.857v12.144c0,1.65,1.35,3,3,3s3-1.35,3-3V36.857l3.186-2.275    C47.636,34.261,48,33.554,48,33.001v-5c0-0.553-0.316-1.316-0.707-1.707L44,23.001v6l-3,2l-3-2v-6l-3.293,3.293    C34.316,26.685,34,27.448,34,28.001v5C34,33.554,34.364,34.261,34.814,34.582z M35,28.001c0-0.285,0.213-0.799,0.414-1L37,25.415    v3.586v0.535l0.445,0.297l3,2L41,32.203l0.555-0.37l3-2L45,29.536v-0.535v-3.793l1.586,1.689C46.787,27.099,47,27.716,47,28.001v5    c0,0.231-0.207,0.633-0.396,0.768l-3.186,2.275L43,36.343v0.515v12.144c0,1.103-0.897,2-2,2s-2-0.897-2-2V36.857v-0.515    l-0.419-0.299l-3.186-2.275C35.207,33.634,35,33.232,35,33.001V28.001z" fill="#37474F"/><line fill="#B2FF59" stroke="#37474F" stroke-linecap="round" stroke-miterlimit="10" x1="41" x2="41" y1="49.001" y2="38.001"/><path d="M32,41h-4V24h-8v17h-4l8,11L32,41z M20,42h1v-0.999V25h6v16.001V42h1h2.036L24,50.3L17.964,42H20z" fill="#37474F"/></g></g></svg>