<svg height="32" viewBox="0 0 117 32" width="117" xmlns="http://www.w3.org/2000/svg"><path d="m34.5608533 31.1621651h-1.1350458c-2.1217616-.5675228-4.2499724-1.1350457-5.2366883-2.6892845l-19.68917432-21.53362363h-1.13504575c-.42564216 0-.42564216.56752288-.42564216.56752288v23.65538525h-6.93925697v-24.22290813c.05541611-3.80925558 3.13000139-6.88384086 6.93925697-6.93925697h.42564216c2.12821078 0 4.24352327 1.13504575 5.95254107 2.68928453l19.6827252 20.96610077c0 .5675229.4256421.5675229.4256421.5675229.6092398-.0406443 1.0944015-.525806 1.1350458-1.1350458v-23.0878624h6.3717341v24.2229082c0 3.7146952-2.6892846 6.9392569-6.3717341 6.9392569zm29.3177158-12.3242751c-2.2807414.0074307-4.4680441-.9055041-6.0667599-2.5321398-1.5987159-1.6266358-2.4736485-3.8294149-2.4267359-6.1096858v-1.5542388c0-4.39185316 3.6824496-8.6418256 8.4934958-8.6418256h53.1214309v6.93925697h-13.31744v24.22290813h-6.3717343v-24.22290813h-32.4390916c-1.5542388 0-2.6892845 1.13504575-2.6892845 2.12821078v.56752288c.1096351 1.27047737.5675228 2.54740377 2.6892845 2.68928457h19.6891743c4.6727664.1796541 8.3976621 3.9667256 8.4999449 8.6418256v.9609194c0 4.959376-3.6824496 9.2093484-8.4999449 9.2093484h-30.8784037c-4.8174953 0-8.4999449-4.2499724-8.4999449-9.2093484v-21.9270202h6.3781832v22.5203395c0 1.1350458.5675229 1.7025687 1.5542388 1.7025687h30.8784037c1.1350458 0 2.1282108-1.1350458 2.1282108-2.6957337 0-1.6961195-.993165-2.6892845-2.1282108-2.6892845z" fill="#fff" fill-rule="evenodd"/></svg>