<svg height="65" viewBox="0 0 141 65" width="141" xmlns="http://www.w3.org/2000/svg"><path d="m14.4243241.14661444c.7469785-.15156073 1.5103141-.1442566 2.2700148-.13512643 10.9029771-.00182604 21.8077718.00365206 32.7125664-.00365207 1.0432253.00365207 2.0919031-.04930289 3.1314935.07851942.0908733 2.79930848-.0036349 5.59861696.0472541 8.39792544-.0163572.46381237.0581589.95684126-.1453972 1.38961106-.5652319.19903764-1.1759004.09677975-1.7593069.11321405-5.9994545-.0109562-11.9970916-.00182604-17.9947286-.0054781-5.7159299.02739049-11.4318597-.05660702-17.1459721.04382479.0054524.5587661.0072699 1.1175322.0036349 1.6762982 15.9518971.0438248 31.9056117.0036521 47.8575087.0200864 1.1849877.0054781 2.3790627-.0675632 3.5531456.1406045.0345319 3.2759031.0926908 6.5554582-.0236271 9.8295353-9.4762665.0785194-18.952533.0109562-28.4287995.0328686-11.4754789.0091301-22.9527753-.0182603-34.42825414.0127822-.01090479.5642442-.01635719 1.1266623-.01635719 1.6909065 1.48486954.1186921 2.97155654-.0127822 4.45642607.0054781 13.69278716.0182603 27.38375676-.0146083 41.07654386.0091302 1.9610456.1259962 3.932996-.166169 5.8849542.1241702.0654288 3.8529295.0581589 7.709511.0181747 11.5624405-1.0523127.1734732-2.1191651.0876496-3.1787477.0949537-1.5830127.0018261-3.1660254-.0109562-4.7472206-.001826-.5125253-.0511289-.8542089.3925971-1.2195195.6756322-1.2558689 1.1376185-2.867961 1.9355949-4.5727439 2.0268965-1.2049798-.0127822-2.4244993-.3012954-3.4568199-.9385809-.7651531-.4327698-1.4103534-1.0371867-2.1046253-1.5685623-.26535-.2465144-.6415655-.1844293-.9687093-.2026896-6.0467086.0292165-12.0915998-.0182604-18.1364909.0237384-.0072699 1.1412706-.0454367 2.2843672-.0145398 3.4274638 10.7103258.0109562 21.4206516 0 32.1309774.0036521 1.7938387.0109562 3.5894949-.0292166 5.3833336.0292165.2435404 1.7219491.0654288 3.4694626.1199528 5.2041939-.0563415 1.557606.1363099 3.1298204-.132675 4.6746443-12.4968947.0748673-24.9956068-.0073042-37.4925014.0401727-.003635.6719801-.0018175 1.3439602 0 2.0159403 5.4651195 3.1170382 10.882985 6.3199 16.3390173 9.4551986.3126041.226428.6906369.1807772.9905188-.0438248 3.4331928-2.0451569 6.9209097-3.9935341 10.3577374-6.0313868.7360737-.4345958 1.4721473-.8746698 2.2736497-1.1759652.5379699.7523256.9923363 1.5612581 1.4557901 2.3628866.1817466.3560764.4271044.7705859.2526277 1.1796173-.6542876.5423317-1.432163.9020602-2.1555144 1.33483-3.6621935 2.0944598-7.2934901 4.2400485-10.9465963 6.3472905-.5706843.3232078-1.1104716.7121528-1.72841.9367549-.8069548-.22095-1.4885044-.7450214-2.2100383-1.1504007-6.2466299-3.6447618-12.5350615-7.2164822-18.7507944-10.9123728.0436192-2.6276614-.027262-5.2553228.0163572-7.8829842-.0181747-.4199876.4289219-.5825045.7778753-.5405057 12.2842512-.0091302 24.5685023-.0018261 36.850936-.0036521 0-.5843305-.0054524-1.1686611-.0145397-1.7529916-12.4932597-.0693893-24.9883369.0219124-37.4815966-.0456508-.0799685-.4455521-.1435798-.8965822-.1399449-1.3494384-.0018174-3.1133861.0181747-6.2285983-.0127222-9.3438105.0254445-.2647748-.054524-.6153731.2253657-.7705859.6052161-.1515607 1.2376942-.0766934 1.8556326-.0876496 6.6046706.0127823 13.2093412-.0091301 19.8140118.0109562.4343743-.0200863.9250901.0493029 1.3013055-.22095.6252082-.4546822 1.1759004-1.0134482 1.8392754-1.4151755 1.3358373-.8071065 2.9315723-1.3019615 4.4945928-1.0171003 1.2685911.2519925 2.4881107.7979764 3.4713596 1.6507338.5016206.3652065.9341774.944059 1.6048223.9623193 1.2704086.0748674 2.5444521.0182603 3.8148607.0328686.0672462-1.1923995.0763335-2.3884511-.0327144-3.5771985-17.0823608-.0255645-34.1647216.0127822-51.24708235-.0200864-.19628631-1.1175321-.08542089-2.2551506-.10723048-3.383639.01635719-2.1675011-.03816679-4.3350022.02726198-6.5006772 2.03556167-.0839975 4.07475826-.1040839 6.11213739-.0967798 17.93111726.0018261 35.86405206 0 53.79698686.0018261.9996061.0219124 2.0010298.0675632 3.0006359-.0164343-.0109047-.5678963-.0127222-1.1339665-.0127222-1.7000367-16.0809372-.0182603-32.1618743-.001826-48.2428114-.0073041-1.0614-.0164343-2.1373398.0949537-3.1805651-.1515608-.0018175-3.2320782-.0327144-6.46598256.0145397-9.69806085 1.0432253-.20816775 2.1082603-.13512644 3.1660254-.14608263 11.2828275 0 22.5674724.00365206 33.8521174-.00182604 0-.5770264-.0290794-1.15405281-.0836034-1.72742715-10.3468326-.00913016-20.6954827-.00182603-31.0423154-.00365207-1.0032411.01460827-2.0119346.0328686-3.0024534-.1387785-.0181747-1.28370115-.0290795-2.5674023.0072698-3.84927742zm1.1486384 1.10109786c-.0199921.57154831-.027262 1.14309662-.0363493 1.71647096 10.0178713.02739049 20.0357426.00365206 30.053614.01095619 1.3485596.0109562 2.6989366-.04747685 4.0438613.09312768.0127223 1.33483008.1762942 2.69887667-.1254051 4.01179435-12.2533543-.00182603-24.5067085.00365207-36.7600627 0-.081786.64458963-.109048 1.29648338-.0981432 1.9465511.027262 1.87350982-.0345318 3.74884562.0363494 5.62418142.8487565.1150401 1.7011479.0255645 2.5517219-.001826 15.3266888-.0054781 30.6533777.003652 45.981884-.0036521.9432647-.0273905 1.8865295.0091302 2.8225243.1406045.0508891 1.2964834.0399843 2.5929668.0054524 3.8894502-.8760185.1424306-1.7647592.0858235-2.6462301.0967797-20.0848143.0054781-40.167811-.0109562-60.2508078.0073042-.02726198 2.5400118-.00908732 5.0800236-.00363493 7.6200354 6.21028054.0730413 12.42237853.0109562 18.63447653.0328686 10.6576193-.0018261 21.317056.001826 31.9764928-.0018261.3453185-.0127822.8087723.0438248.8051373.494855.0199922 1.774904.0436192 3.5552861-.0290794 5.3283641-1.7738466.113214-3.5513281.0164343-5.3269922.0493028-.6270257.0931277-1.0305031-.4418999-1.4521551-.8052805-1.1886227-1.0810115-2.7043891-1.9392469-4.3473782-1.9155085-1.5121315.1040839-2.9079452.8764958-3.9929723 1.9118565-.4125647.3670326-.8305818.8655396-1.4412503.8052805-7.2535059-.0036521-14.5051943 0-21.7568828-.0036521-.023627 3.0932998-.0254445 6.1865996.0018175 9.2798994 12.5005296.0511289 25.0010591-.0346947 37.4997712.0438248.214461 1.11388.1308576 2.2569767.1235877 3.385465.0436192.3524244-.2598976.7158049-.6270257.6537198-12.3333227.0109562-24.6684629-.0237384-37.0017856.0164343-.0236271 1.9118565-.0090873 3.8218869-.0199921 5.7337434.023627.3012954-.0345319.6318074.1035955.9130165.4143822.3396421.8996456.5770264 1.3612819.8472792 5.8704144 3.3945953 11.733559 6.8019727 17.598521 10.2038721.4580014.3213818 1.0159634.1972115 1.4485203-.1022579 4.2292428-2.5180994 8.5384542-4.9028984 12.74407-7.4629966-.2489929-.4930289-.5052555-.9805797-.7706055-1.4644784-4.1492744 2.3117577-8.229485 4.7568158-12.3587673 7.1032681-.4598188.3067735-.9578044-.0328686-1.3630993-.2629487-5.6741281-3.3325101-11.4082326-6.5627624-17.0514639-9.9427493.027262-1.2544847-.1254051-2.5290556.1672069-3.7634539 2.8715959-.0511289 5.7450093-.0164343 8.6166052-.0273905 9.610759.0127822 19.2233355-.0237384 28.8340945.0182603.0399842-2.552794.0272619-5.105588.0127222-7.6583821-11.6754001.0200864-23.3489827.0018261-35.0243829.0109562-.8705661-.0127822-1.7647592.0821715-2.6080633-.1935595.0199921-1.5594321-.0199922-3.1170382 0-4.6746443.0327144-.2684268-.0072699-.6190251.2453578-.7924983.7796929-.1333004 1.5739254-.056607 2.3608881-.0730413 5.8831367.0146083 11.7644559-.0091301 17.6475926.0127823.5179778-.0419988.8323993.445552 1.2049798.7267611 1.194075 1.1029238 2.7371035 1.9903759 4.4109894 1.888118 1.5502984-.0146083 2.9206675-.887452 4.0256867-1.9100304.3780329-.2812091.7069942-.7632818 1.2286069-.717631 2.4444915-.001826 4.8889829.0182604 7.3352918.0036521.003635-3.1499068-.0036349-6.2998136.0181747-9.4497204-3.1714778-.0474769-6.344773-.0054781-9.5180682-.0200864-13.6346283.0054781-27.2710739-.0091302-40.90751961.0073041-.3344137-.0109562-.66519247-.060259-.99415378-.1168661-.08723835-1.2964833-.05634144-2.5984448.01453973-3.8949282 1.5448459-.0292165 3.08605688-.1953855 4.62908532-.0456508 19.41780434-.0018261 38.83742604.0200863 58.25523034-.0091302-.0109048-2.5418378-.0090873-5.0855017-.0036349-7.6273395-16.2663187-.0146083-32.5326373-.0018261-48.798956-.0054781-.7796928-.0182604-1.564838.0657371-2.337261-.0456509-.4252869-.2045157-.2798897-.7304131-.3198739-1.110228.023627-.8454532-.0508891-1.6963846.0327144-2.53818576.0690637-.54780988.7669705-.37068469 1.1577257-.43642187 11.944385.00182603 23.8905875-.00913017 35.8349726.0054781-.0145398-2.52722958.1035955-5.05993725-.0672463-7.58351476-11.9298453.02556446-23.8578731-.03469463-35.785901.02739049zm24.9930057 29.13809c1.6600728-.663569 3.7356195.5293846 3.9615789 2.3215722.3717397 1.7903495-1.2919777 3.6909874-3.1069421 3.4759249-1.4523359-.0202195-2.718802-1.2866988-2.826315-2.7314777-.1384912-1.3087565.7453017-2.6450851 1.9716782-3.0660194zm.2296039 1.1782484c-1.2391323.49446-1.3320672 2.3987742-.2405374 3.1046204 1.0441512.9392901 2.8390708-.0643349 2.8026257-1.4098542.1166242-1.2922133-1.4213576-2.3748784-2.5620883-1.6947662zm74.9619039-4.8641608c.290489-1.2142496-.278597-2.5892087.419595-3.6998899.309176.1839231.789926.2982054.788228.764263.045866.8910449.042469 1.7856611.011891 2.6784917-.059457 1.0517544-.772938 2.0427963-1.753126 2.3177881-1.318242.342847-2.69764-.0410702-4.01928.2642779-.750854.2482069-1.138173 1.0785393-1.129679 1.8642302-.023783 1.4285289-.015289 2.8606292.003398 4.2891581-.020386.9035445.745758 1.6320943 1.579852 1.6535222.94961.0267849 1.902617.0285706 2.852227.0017857.665916-.0285706 1.30805-.5696259 1.372603-1.2892474.17837-1.4553138-.056059-2.9356269.11042-4.3909407.130805-.6214101 1.112691-.3303473.995476.2642778.016988 1.3160323.005097 2.6338502-.005096 3.9498825-.020385 1.2571054-.966598 2.4981399-2.198203 2.5802803-1.1008.0821404-2.206696.0446415-3.309195.0374989-1.012465.0178566-1.877136-.7731913-2.249166-1.717806-.334657-.853546-.197057-1.7945895-.210647-2.6909914.035674-1.1231808-.062854-2.249933.049264-3.3677569.135902-1.0196125.752553-2.0820809 1.770114-2.3070742 1.206124-.2357072 2.444524.0232136 3.659141-.1410672.557196-.0892831 1.099102-.4696289 1.262183-1.0606827zm-13.742229-2.5940173c.273334-.038048.548286-.0727874.823237-.1058726.190848.6501241.194083 1.3316791.105128 2-.307298-.0033085-.612979-.006617-.917043-.0198511-.032347-.6253102-.033965-1.2506204-.011322-1.8742763zm-6.0132933 3.0329304c.3236829-.003514.6491443-.003514.9746057 0 .115601 1.1174516-.2240882 2.2015203-.4143853 3.2908599-.3219044 1.5479165-.5744482 3.111646-.9141374 4.6560486-.1849617.9979756-1.0742005 1.8466064-2.1217238 1.8764754-.9301437.033383-2.0345783.1669149-2.7726464-.5200719-.7860871-.6922578-1.0048399-1.7552424-1.2200356-2.7233491-.2738856.9171537-.3699234 1.9889234-1.1417826 2.6618541-.8092073.7432108-2.0150151.6483328-3.0323042.5604829-.9923905-.108934-1.780256-.9048547-1.9723316-1.8553914-.4677396-2.2489593-.8821249-4.5102176-1.2965101-6.7714759-.0640252-.3619419-.0782531-.7309118-.0907024-1.0963677.2987842-.056224.5975685-.1054199.8981312-.1546159.1351643.3812689.2614362.7695657.3379107 1.1684046.3930435 2.1329973.748739 4.2712657 1.1577889 6.398992.0942593.5165578.3983789 1.0383867.9408146 1.1894886.7096125.216111 1.5490539.2547649 2.2124261-.1212329.51398-.3215309.592233-.9733777.6953847-1.5110196.1671769-1.1192086.4108283-2.2243613.592233-3.3400559.1902971-1.1807036-.3503601-2.3051833-.3930435-3.4700739.2738855-.15813.5744482-.2635499.867897-.3777549.2703286.5727818.4250561 1.1894886.5157585 1.8132234.2489868 1.7886255.6989417 3.5403539.9763842 5.3237084.1244934.5798098.1618414 1.3318055.7807516 1.6252244.6633721.3022039 1.4530161.254765 2.1466224.073794.4890813-.1352889.7273973-.6272488.826992-1.0787976.5406572-2.5283222.9639349-5.0777284 1.4459023-7.6183496zm6.0195483-.0601219c.304466-.036462.610502-.0614096.918108-.0786811.10672 3.5809491.040804 7.1695743.034527 10.7543615-.180483.0786811-.359396.1612003-.53831.2456385-.10515-.0594906-.315452-.1803908-.420603-.2418004-.021971-3.5598395-.020402-7.119679.006278-10.6795185zm20.581162.8228495c.764131-.9179812 2.026389-.9232368 3.102273-.893455 1.089438.0525562 2.324586-.1962097 3.263231.5255618.733634.5062911 1.02336 1.4593097 1.031832 2.3334941-.11013 1.2070402-.982697 2.3247348-2.148379 2.5787563-1.091132.1997135-2.205985-.0262781-3.300506.1313904-.682805.0981049-1.370693.6166592-1.45202 1.3647087-.164347.9652817.626893 1.9883753 1.589258 1.9726084 1.579093.0262781 3.164962-.0665711 4.74236.0350375.347333.2750439.206706.6797265.076244 1.0353566-1.663807.0087594-3.329309.0297818-4.993117-.0017519-.77938.0105113-1.567232-.3311039-2.03486-.9898079-.537095-.6902378-.528624-1.6362489-.420188-2.4701402.140627-.9442593.899676-1.7150832 1.795963-1.909541 1.284284-.2522697 2.610925.0648193 3.893513-.2137285 1.057247-.3030739 1.533347-1.8377142.753966-2.6733574-.506597-.6534484-1.384247-.6061478-2.111104-.6376816-.825126.0105113-1.704471-.0998567-2.47538.2697884-.676027.3766526-.770909 1.2350701-.909842 1.9340672-.316835.0087594-.63367.014015-.950505.0192706-.096575-.8356431-.049135-1.7693912.547261-2.4105765zm12.424553 1.7925933c.035155-1.2258181.899961-2.4936643 2.186622-2.6320067 1.246234-.1173283 2.503015-.0297698 3.752764-.0437792.01582.3309709.026366.663693.033397.9964151-1.137254.1593563-2.290328-.0122582-3.425825.1523516-.650362.0788026-1.253265.5813881-1.342909 1.245081-.149408 2.4954155.096675 5.0100939-.142377 7.5002559-.307603.0297698-.615207.0577885-.921053.0875584-.124799-.5586228-.181046-1.1295039-.165227-1.7003849.024608-1.868497-.019335-3.7387453.024608-5.6054912z" fill="#fff"/></svg>